<?xml version="1.0" encoding="UTF-8"?>
<svg xmlns="http://www.w3.org/2000/svg" version="1.1" viewBox="0 0 370 64">
  <!-- Generator: Adobe Illustrator 29.1.0, SVG Export Plug-In . SVG Version: 2.1.0 Build 142)  -->
  <defs>
    <style>
      .st0 {
        fill: #40012f;
      }
    </style>
  </defs>
  <g id="OBJECTS">
    <g>
      <path class="st0" d="M10.89,12.44h14.15l.1.05c-2.24,9.95-3.4,15.01-3.48,15.18l-3.3,3.15c.91,1.83,1.45,2.84,1.6,3.03-2.29,9.74-3.54,14.94-3.74,15.59h-4.72c-.09,0-.13-.04-.13-.13,0-.14,1.05-4.98,3.15-14.53h-4.26c-1.58,6.84-2.73,11.73-3.43,14.66l-.13.05H1.65v-.05c.21-.97,1.21-5.06,3.02-12.28H.13l-.13-.05c.12-.95.21-1.42.28-1.42h4.75l1.6-6.41h-2.14c-.07,0-.1-.03-.1-.1.05-.95.15-1.42.28-1.42h2.25c.1,0,.7-2.34,1.78-7.01.03,0,.17-.52.41-1.55h-3.12c-.09,0-.13-.03-.13-.1.05-.95.15-1.42.28-1.42h3.38l.36-1.65h-5.09c-.09,0-.13-.04-.13-.13.09-.95.19-1.42.31-1.42h5.32c.27-1.34.47-2.02.59-2.02ZM12.6,21.39c-.83,3.81-1.24,5.77-1.24,5.87h4.26l.59.05c1.03-3.27,1.63-5.25,1.78-5.92h-5.4Z"/>
      <path class="st0" d="M33.92,12.44h10.74c.09.02.13.06.13.13-.03.28-3.08,12.57-9.14,36.87l-.13.05h-4.93l-.1-.05c.71-3.46,1.18-5.9,1.42-7.32h-3.79l-1.91,7.32-.1.05h-4.93c-.09,0-.13-.04-.13-.13,1.98-7.71,2.97-11.64,2.97-11.82h-1.65l-.13-.08c.09-.98.19-1.47.31-1.47h1.88l2.01-8.04h-2.43c-.09,0-.13-.03-.13-.1.07-.91.15-1.37.26-1.37h2.71c1.03-4.41,1.63-6.7,1.78-6.85.05-.02.22-.23.49-.65h-2.5l-.1-.05c.07-.95.16-1.42.28-1.42h3.46c.05-.14.72-1.09,2.01-2.87h-5.58l-.13-.05c.09-.95.18-1.42.28-1.42h6.53c0-.14.18-.38.54-.72ZM33.09,21.41c-2.22,8.86-3.33,13.34-3.33,13.45h.05c.83.03,1.51.05,2.04.05h1.01c.27,0,.71.03,1.29.08,2.19-8.88,3.28-13.4,3.28-13.58h-4.34Z"/>
      <path class="st0" d="M62.91,12.54l.13.05c-1.5,6-2.28,9.05-2.35,9.15h-4.05c-.05,0-.08-.03-.08-.08-.03,0-.05.03-.05.08-1.19-.05-2.07-.08-2.66-.08h-1.76l-4.1,15.85c.38,1.69.57,2.64.57,2.84,2.44-.05,4.41-.08,5.89-.08h1.37c.07.02.1.06.1.13-1.26,5.5-1.96,8.52-2.12,9.08l-10.4-.13c-.31-1.07-.86-3.56-1.65-7.47,0-.14.78-3.28,2.35-9.44h-1.57l-.13-.05c.1-.98.2-1.47.28-1.47h1.83c0-.1.23-1.07.7-2.9h-1.86l-.13-.05c.1-.98.2-1.47.28-1.47h2.12l1.83-7.42h-1.47c-.07,0-.1-.04-.1-.13.05-.9.13-1.34.23-1.34h1.76l.7-2.82h-2.53c-.07,0-.1-.04-.1-.13.05-.9.15-1.34.28-1.34h2.66c.07,0,.16-.26.28-.78h13.76Z"/>
      <path class="st0" d="M71.02,12.34h8.29l.13.05-2.19,9.26c-.91-.03-1.59-.05-2.04-.05h-.59l-.72-.05-4.52,18.64h.05c.29,0,1.27.02,2.94.05l.05.1-1.99,9.15c-.84-.03-1.47-.05-1.88-.05h-1.24s-.05-.03-.05-.08c-.05,0-.08.03-.08.08-.91-.05-3.64-.11-8.18-.18l-.05-.13c1.22-5.19,1.93-8.14,2.12-8.84l.13-.05c1.2.04,2.16.05,2.87.05h.08c.07,0,.22-.55.46-1.65h-4.88c-.09,0-.13-.03-.13-.1.07-.91.16-1.37.28-1.37h5.09l1.94-7.96h-5.65v-.05c.05-.98.13-1.47.23-1.47h5.78c.93-3.88,1.39-5.89,1.39-6.02h-.05c-.69-.03-1.26-.05-1.7-.05h-.83c-.29,0-.45-.06-.46-.18l.28-1.16h-1.94c-.09,0-.13-.04-.13-.13.07-.9.17-1.34.31-1.34h2.17l.65-2.79h-2.94c-.07,0-.1-.03-.1-.1.07-.95.16-1.42.28-1.42h3.12c.07,0,.27-.66.59-1.99.03,0,.05-.03.05-.08,1.43-.03,2.45-.05,3.07-.05Z"/>
      <path class="st0" d="M92.67,12.34c.09.02.13.06.13.13.5,12.45.75,18.96.75,19.55.05.07.08.13.08.18h.05c.58-2.53,2.21-9.14,4.88-19.81h4.8l.1.08-9.14,36.85-.13.05h-4.65c-.09,0-.13-.03-.13-.1l-.98-19.44h-.08c-2.75,11.84-4.3,18.4-4.65,19.68h-1.01s-.05-.02-.05-.05c-.05,0-.08.02-.08.05-.33-.03-.58-.05-.75-.05-.65,0-1.72-.03-3.2-.08l-.05-.1,3.67-14.76h-2.71c-.09,0-.13-.04-.13-.13.05-.9.13-1.34.23-1.34h3.02c0-.17.28-1.3.83-3.39h-4.13l-.13-.05c.09-.95.19-1.42.31-1.42h4.29c.95-3.79,1.44-5.74,1.47-5.84h-4.7l-.13-.05c.09-.98.19-1.47.31-1.47h4.83c.07-.02.36-1.09.88-3.21h-2.76l-.13-.05c.1-.95.21-1.42.31-1.42h2.94c.58-2.43.92-3.69,1.01-3.77h4.83Z"/>
      <path class="st0" d="M108.6,12.54h13.66c.5,0,.85.04,1.06.13-1.48,5.95-2.25,8.97-2.3,9.08h-9.42l-4.16,15.9v.05l.59,2.77h3.85c.1,0,.42-1.31.96-3.93.07-.17.21-.74.41-1.71h-.08c-.17,0-.62-.02-1.34-.05,0-.05-.02-.08-.05-.08l2.04-8.02h.13c.88,0,2.91-.03,6.09-.08,0,.05.02.08.05.08-3.39,14.1-5.22,21.64-5.5,22.63h-1.94c-.45,0-1.13.02-2.04.05v-.05l-.13.05c-3.49.05-5.62.08-6.38.08-.69.03-1.1.05-1.24.05-.12-.29-.66-2.76-1.63-7.4l1.16-4.81h-2.92c-.09,0-.13-.03-.13-.1.09-.88.16-1.35.23-1.42l.28.05h2.81c.1,0,.67-2.22,1.7-6.67.03-.03.16-.45.36-1.24h-3.69l-.13-.05c.1-.98.21-1.47.31-1.47h3.79c.09,0,.71-2.46,1.88-7.37h-3.23c-.09,0-.13-.04-.13-.13.07-.9.17-1.34.31-1.34h3.43c0-.09.21-1.01.65-2.77h-4.21c-.07,0-.1-.03-.1-.1.07-.95.16-1.42.28-1.42h4.44c.07-.47.15-.7.23-.7Z"/>
      <path class="st0" d="M146.34,12.44h14.09l.13.05c-1.5,5.53-2.31,8.47-2.43,8.82h-6.97c-.45,0-1.14-.02-2.06-.05l-1.06,4.47h9.22c.07.02.1.06.1.13-3.86,15.24-5.88,23.12-6.07,23.63h-14.1c-.09,0-.13-.04-.13-.13,1.41-6.08,2.16-9.21,2.25-9.39h9.37l1.32-4.91h-9.16l-.1-.05c.83-3.36,1.3-5.35,1.42-5.97h-4.31l-.13-.05c.1-.98.21-1.47.31-1.47h4.54c.19-.83.28-1.28.28-1.37h-2.53l-.13-.05c.09-.98.19-1.47.31-1.47h2.76l1.06-4.5h-3.82c-.09,0-.13-.03-.13-.1.05-.95.15-1.42.28-1.42h4.08c0-.1.21-1.03.65-2.79h-4.83c-.09,0-.13-.03-.13-.1.07-.95.17-1.42.31-1.42h4.96c.07,0,.24-.59.52-1.78l.13-.05Z"/>
      <path class="st0" d="M164.9,12.44h13.79l.1.05c-1.29,5.17-2.06,8.2-2.3,9.08h-9.04l-1.65,5.25h.05c.79,0,3.05-.03,6.79-.1,0,.29-.65,3.02-1.94,8.17-1.65-.09-2.9-.13-3.74-.13v-.05s-.05.02-.05.05l-.28-.05h-.49c-.38,0-.96-.03-1.76-.08l-.77,2.74c0,.16.26,1.18.77,3.08,1.72-.05,3-.08,3.85-.08h1.39c.46,0,1.2-.02,2.19-.05,0,.03.02.05.05.05-1.5,5.84-2.3,8.89-2.4,9.13h-10.22c-.12,0-.5-1.48-1.14-4.45-.19-.59-.42-1.57-.7-2.95l1.11-4.55h-2.06v-.08c.03-.98.11-1.47.23-1.47h2.25c0-.12.65-2.77,1.96-7.94h-2.74c-.07,0-.1-.03-.1-.1.07-.95.16-1.42.28-1.42h2.97c0-.12.61-2.61,1.83-7.47h-2.38l-.1-.05c.1-.95.2-1.42.28-1.42h2.48c.09,0,.34-.95.77-2.84h-3.43v-.05c.05-.95.13-1.42.23-1.42h3.61c.07-.55.16-.83.28-.83Z"/>
      <path class="st0" d="M190.93,12.34c.09.02.13.06.13.13.5,12.45.75,18.96.75,19.55.05.07.08.13.08.18h.05c.58-2.53,2.21-9.14,4.88-19.81h4.8l.1.08-9.14,36.85-.13.05h-4.65c-.09,0-.13-.03-.13-.1l-.98-19.44h-.08c-2.75,11.84-4.3,18.4-4.65,19.68h-1.01s-.05-.02-.05-.05c-.05,0-.08.02-.08.05-.33-.03-.58-.05-.75-.05-.65,0-1.72-.03-3.2-.08l-.05-.1,3.67-14.76h-2.71c-.09,0-.13-.04-.13-.13.05-.9.13-1.34.23-1.34h3.02c0-.17.28-1.3.83-3.39h-4.13l-.13-.05c.09-.95.19-1.42.31-1.42h4.29c.95-3.79,1.44-5.74,1.47-5.84h-4.7l-.13-.05c.09-.98.19-1.47.31-1.47h4.83c.07-.02.36-1.09.88-3.21h-2.76l-.13-.05c.1-.95.21-1.42.31-1.42h2.94c.58-2.43.92-3.69,1.01-3.77h4.83Z"/>
      <path class="st0" d="M210.49,12.44h10.74c.09.02.13.06.13.13-.04.28-3.08,12.57-9.14,36.87l-.13.05h-4.93l-.1-.05c.71-3.46,1.18-5.9,1.42-7.32h-3.8l-1.91,7.32-.1.05h-4.93c-.09,0-.13-.04-.13-.13,1.98-7.71,2.97-11.64,2.97-11.82h-1.65l-.13-.08c.09-.98.19-1.47.31-1.47h1.88l2.01-8.04h-2.43c-.09,0-.13-.03-.13-.1.07-.91.15-1.37.26-1.37h2.71c1.03-4.41,1.63-6.7,1.78-6.85.05-.02.22-.23.49-.65h-2.5l-.1-.05c.07-.95.16-1.42.28-1.42h3.46c.05-.14.72-1.09,2.01-2.87h-5.58l-.13-.05c.09-.95.18-1.42.28-1.42h6.53c0-.14.18-.38.54-.72ZM209.67,21.41c-2.22,8.86-3.33,13.34-3.33,13.45h.05c.83.03,1.51.05,2.04.05h1.01c.28,0,.71.03,1.29.08,2.18-8.88,3.28-13.4,3.28-13.58h-4.34Z"/>
      <path class="st0" d="M239.48,12.54l.13.05c-1.5,6-2.28,9.05-2.35,9.15h-4.05c-.05,0-.08-.03-.08-.08-.03,0-.05.03-.05.08-1.19-.05-2.07-.08-2.66-.08h-1.76l-4.1,15.85c.38,1.69.57,2.64.57,2.84,2.44-.05,4.41-.08,5.89-.08h1.37c.07.02.1.06.1.13-1.26,5.5-1.96,8.52-2.12,9.08l-10.4-.13c-.31-1.07-.86-3.56-1.65-7.47,0-.14.78-3.28,2.35-9.44h-1.58l-.13-.05c.1-.98.2-1.47.28-1.47h1.83c0-.1.23-1.07.7-2.9h-1.86l-.13-.05c.1-.98.2-1.47.28-1.47h2.12l1.83-7.42h-1.47c-.07,0-.1-.04-.1-.13.05-.9.13-1.34.23-1.34h1.76l.7-2.82h-2.53c-.07,0-.1-.04-.1-.13.05-.9.15-1.34.28-1.34h2.66c.07,0,.16-.26.28-.78h13.76Z"/>
    </g>
  </g>
  <g id="DESIGNED_BY_FREEPIK">
    <path class="st0" d="M370,23.81c-.08-.51-.43-.94-.92-1.12l.41-22.57h-2.09v3.5l-22.73.21s0-1.98-.13-2.51c-.16-.95-.68-.92-.68-.92l-18.86,1.87V.59l-3.62.21v1.7s-4.97.27-9.8,1c-.62.23-1.15.64-1.54,1.18-.04.44-.04.89,0,1.34-1.55.35-3.04.94-4.4,1.75-.88.56-5.35,1-12.54,9.05-1.03,1.15-3.57,5.04-3.57,5.04l-1.07.35s-3.68-1.95-5.01-2.41c-.57-.23-2.34-.79-2.34-.79l-.6-1.97c-.04-.18.06-.36.24-.4.02,0,.04,0,.06,0h1.83c.12,0,.22-.1.23-.23v-2.46c0-.21-.15-.39-.36-.41-1.43-.17-6.68-.7-6.76,1.34-.11,1.68,2.75,1.63,2.75,1.63l.76,2.27c-3.13-.39-6.28-.55-9.44-.49-2.23.18-4.44.58-6.59,1.2-2.08.68-4.04,1.69-5.8,2.99-2.64,2.64-4.27,6.12-4.61,9.84-.48,3.04-.69,6.11-.63,9.18,0,.78.13,3.1.13,3.1,0,0-1.99-.35-2.67-.57-.51-.16-2.22-.86-2.22-.86-.94.69-1.99,1.22-3.1,1.56-1.08.28-4.33,1-4.33,1,0,0-.27.83,2.59,1.83.9.3,1.83.49,2.78.56h0l.19,1.62-5.35,1.67c1.25.47,2.57.73,3.9.79,2.85.23,5.71.12,8.53-.35,4.13-.79,11.75.79,15.64,1.44,5.61.94,16.92,2.37,22.43,3.78,4.2,1.07,17.58,6.32,17.58,6.32l3.81.48,13.8-8.56c.15-.07.22-.25.15-.41-.01-.03-.03-.06-.06-.09l-.32-.37c-.15-.19-.32-.4-.49-.67s-.29-.57-.44-.76c-.07-.12-.14-.24-.2-.36,0-.13-.09-.27-.15-.41l-.09-.37-.08-.44c0-.29-.09-.6-.12-.9,0-.6-.08-1.2-.08-1.78v-1.54c0-.44,0-.83.08-1.08s0-.41,0-.41v3.9c0,.29,0,.59.07.88s0,.59.11.88l.07.43.09.41.12.37c.05.12.1.23.16.35.12.23.24.44.35.63l.45.76h4.01c2.38,0,4.48-2.85,5.68-7.14l12.97-7.66,11.1-6.82.51-.36.95-.55c.45-.31.92-.61,1.34-.91v-4.84.24-.71c0-1.52.08-3.05.25-4.56.29-2.27.89-4.49,1.78-6.6.12-.1.26-.15.41-.16,1.15,0,2.42,3.74,2.42,9.12s-1.34,9.12-2.42,9.12c-.91,0-1.91-2.39-2.27-6.11,0,.29.02.59.07.88v1.26c.01.82.01,1.64.01,2.46v.09h-.07c-.51.31-1,.6-1.52.88l-.78.43-.79.4h5.21c.99,0,1.86-1.82,2.34-4.55l3.14-2.23s.16-1.63.13-2.23ZM363.31,31.91h0l.08.13-.08-.13ZM343.61,3.15c.27,0,.16.49.16.49-.11.03-.22.03-.32,0-.24.01-.03-.49.16-.49ZM323.32,3.41l.71.23c.84.3,1.66.65,2.46,1.04.49.24,1.03.51,1.58.83s1.12.66,1.71,1.02,1.18.76,1.75,1.2c.57.42,1.12.88,1.63,1.38,1.04,1.04,2.01,2.15,2.98,3.11.88.89,1.83,1.69,2.86,2.41.73.5,1.52.91,2.35,1.2.23.08.47.16.71.21h.25-.25c-.24-.05-.48-.11-.72-.19-.85-.27-1.66-.65-2.41-1.14-1.06-.69-2.04-1.48-2.94-2.37-.49-.48-1-.99-1.5-1.51s-1.02-.96-1.58-1.47c-.53-.48-1.08-.93-1.67-1.34-.57-.43-1.16-.83-1.74-1.2s-1.14-.72-1.68-1.04-1.06-.61-1.55-.87c-.96-.52-1.79-.91-2.38-1.16l-.7-.28-.25-.09.37.03ZM332.21,17.67c.03.48.27.92.66,1.22.19.15.41.26.64.33.24.06.49.09.74.09h1.63v.07c-.11.37-.23.74-.35,1.1.07-.35.15-.71.21-1.06-.49,0-.99.07-1.48.08-.27.03-.54.03-.8,0-.27-.07-.52-.19-.74-.36-.26-.18-.48-.41-.63-.68-.14-.25-.22-.52-.24-.8-.03-.15-.03-.3,0-.44.04-.13.1-.26.17-.39.13-.24.29-.46.48-.66.19-.21.42-.39.68-.51.26-.07.53-.12.8-.13.52-.03,1.04-.03,1.56,0,1.04.04,2.07.13,3.1.28h-3.06c-.52,0-1.03,0-1.54.08-.24.02-.49.07-.72.13-.21.11-.39.25-.55.43-.17.18-.32.38-.44.59-.06.1-.11.21-.15.32-.04.1-.06.21-.05.32h.07ZM337.73,21.13c.23-.12.56-.31.96-.51s.87-.44,1.34-.64c.3-.12.6-.23.91-.31l.45-.09h2.23l1.52.11,1.04.11h.41-5.2l-.47.17c-.28.07-.55.16-.8.25l-1.42.55-1,.4-.39.15.4-.19ZM316.97,5.92c.53-.08,1.08-.16,1.59-.2s.99-.08,1.34-.09.75,0,.99,0h.37-.37l-.98.12-1.34.2-1.56.24-2.94.47-.98.16h-.27l.25-.09c.23-.07.55-.17.95-.27s.86-.21,1.34-.32,1.07-.13,1.6-.21ZM310.05,5.17c0-.57.46-1.03,1.03-1.03h1.95c.57,0,1.03.46,1.03,1.03h0v.08c0,.57-.46,1.03-1.03,1.03h-1.95c-.57,0-1.03-.46-1.03-1.03h0v-.09h0ZM294.39,15.66c1.12-1.14,4.63-4.14,4.63-4.14,0,0,1.5.71,6,.7,3.29,0,13.15-.35,13.15-.35.83,1.5,1.46,3.11,1.88,4.77.29,1.63,0,2.37-.52,2.45-.52.06-.9.52-.87,1.04l.16,1.2s-4.13.76-5.35,1.15c-.72.23-3.36,1.18-3.36,1.18,0,0-8.57.2-13.64.11.09-.12.09-.29,0-.41-.07-.02-.13-.02-.2,0l.24-.74,1.63-3.57c.55-1.12,2.67-4.92,2.67-4.92l-.2-.2-.87.87-.71.79-.47.35h-.63s-.76,1.11-.96,1.5-.55,1.34-.55,1.34l-.59.47-.47,1.34v.48l-.35.35v1.66c-.2.12-.38.26-.56.4-.05.08-.1.16-.12.25h-.49c-4.01-.32-4.2-1.55-4.2-1.55,1.41-2.28,2.99-4.45,4.72-6.5ZM289.82,36.1c1.15-1.06,2.39-2.17,3.68-3.24.63-.55,1.3-1.06,1.99-1.52.7-.44,1.34-.84,2.07-1.24,1.34-.79,2.67-1.5,3.73-2.09s2.03-1.07,2.67-1.42l1.02-.52-.96.63c-.61.39-1.48.96-2.55,1.62l-3.62,2.25-2.03,1.34c-.68.45-1.32.95-1.94,1.48-.64.52-1.34,1.07-1.9,1.6l-1.83,1.51-3.24,2.78-2.25,1.9-.88.74.8-.83c.52-.51,1.24-1.26,2.14-2.13s1.95-1.79,3.1-2.86ZM279.44,27.28c.51-.47,1.05-.92,1.62-1.34.51-.39,1.05-.74,1.6-1.06.47-.27.95-.51,1.44-.72.44-.19.83-.33,1.16-.45l.76-.23.27-.07-.27.11-.74.28c-.86.37-1.69.82-2.47,1.34-.52.34-1.02.71-1.5,1.11-.54.45-1.04.93-1.52,1.44l-3.22,3.28-1.62,1.67-1.55,1.64c-.49.53-.98,1.06-1.42,1.56-.42.46-.8.95-1.14,1.47-.31.49-.56.96-.8,1.34l-.59,1.08-.51.95s.13-.37.39-1c.13-.32.29-.71.48-1.14s.41-.94.7-1.46c.31-.57.67-1.1,1.08-1.59.41-.53.88-1.08,1.34-1.63s.99-1.12,1.52-1.68,1.07-1.14,1.62-1.68l1.66-1.66,1.7-1.56ZM277.54,47.33c-.26.76-1.03,1.22-1.82,1.1l-8.15-1.23c-.35-.05-.59-.38-.54-.73,0-.07.03-.13.06-.19l.23-.44c.43-.87,1.37-1.36,2.33-1.24l6.68.84c.79.1,1.35.82,1.25,1.61,0,.08-.03.16-.05.23v.05ZM252.87,36.1c.09-1.15.27-3.28.44-4.08s1.06-3.44,1.34-4.33c.06-.15.23-.23.38-.17.02,0,.03.01.05.02l2.01,1.27c.41.27.63.74.59,1.23l-.55,4.99c-.04.38-.21.74-.47,1.02l-1.26,1.34c-.36.35-.91.43-1.35.19l-.55-.32c-.42-.23-.66-.68-.63-1.15ZM245.85,49.47l-.23-1.47h1.22l5.87-1.87.11,1.2-6.96,2.14ZM255.81,49.03c-.55.18-1.11.31-1.68.36h-.48c-.16,0-.33-.03-.48-.08-.08-.02-.16-.06-.23-.11h-.11s-.05-.08-.07-.13c-.02-.13-.02-.27,0-.4-.01-.19-.01-.38,0-.57,0-.07,0-.14,0-.21v.21c0,.13,0,.33.08.55.01.11.04.23.08.33h.23c.28.04.57.04.86,0,.6,0,1.22-.15,1.67-.23l.78-.12c-.21.15-.42.3-.64.43v-.03ZM256.3,39.51s.27-.27.76-.7,1.22-1.03,2.11-1.71c.9-.68,1.98-1.43,3.17-2.18.59-.39,1.23-.75,1.87-1.1l1.98-1.06c1.34-.7,2.67-1.34,4.01-1.92s2.47-1.14,3.49-1.59,1.9-.82,2.5-1.07l.88-.37-3.37,1.63-3.45,1.67-1.94.95-1.99,1c-1.34.67-2.67,1.34-3.85,2.09s-2.29,1.44-3.19,2.1-1.66,1.22-2.17,1.63-.82.66-.82.66v-.03ZM296.69,52.15l-1.2.11-1.8.13c-.7,0-1.48.09-2.34.12s-1.79.07-2.78.08-2.02,0-3.1,0-2.19,0-3.32-.09l-1.7-.09-1.71-.13c-1.1-.08-2.25-.23-3.3-.39l-1.66-.25c-.56-.09-1.1-.2-1.62-.32-1.11-.23-2.07-.48-3.07-.76l-2.67-.75c-1.64-.48-3.01-.91-4.01-1.2l-1.5-.48,5.56,1.34c1.67.4,3.61.87,5.71,1.34.52.11,1.06.21,1.59.28l1.67.24c1.11.13,2.23.27,3.38.36l1.7.13,1.71.08,1.67.09h1.63l3.09.08h8.49l-.41.09ZM298.53,51.08l-.45-.16c-.36-.09-.73-.15-1.1-.19-.89-.06-1.78-.06-2.67,0-.99,0-2.06.16-3.19.27-1.21.15-2.43.22-3.65.21-1.34-.08-2.55-.21-3.86-.37l-3.94-.52-3.93-.59c-1.34-.2-2.57-.41-3.8-.61l-3.54-.59c-1.12-.19-2.18-.33-3.18-.53s-1.87-.44-2.67-.67l-1.1-.33-.48-.15c-.14-.03-.28-.03-.41,0-.24.04-.47.14-.67.29-.15.11-.29.24-.41.37-.11.12-.21.24-.29.37.17-.31.38-.6.64-.84.2-.19.44-.32.71-.39.16-.04.33-.04.49,0l.49.11,1.11.24c.79.17,1.68.35,2.67.48.48.07,1,.12,1.54.17l1.66.21,3.57.47,3.81.53,3.93.56,3.93.56c1.34.17,2.57.36,3.8.45.6.03,1.19.03,1.79,0l1.75-.08c1.14,0,2.23-.11,3.24-.11.92-.01,1.84.06,2.75.2.38.06.76.15,1.12.28l.48.21c.15.07.29.17.4.29.17.19.32.4.44.63.09.2.17.39.23.53s.17.45.17.45l-.21-.43c-.19-.4-.43-.78-.71-1.12-.13-.11-.28-.2-.44-.24ZM315.08,54.9c-.36.2-.74.37-1.11.53-.71.31-1.42.6-2.15.87h-.7l-.79.12-1.59.24-1.59.24-.8.11c-.27,0-.53.08-.8.11-.28.03-.55.03-.83,0-.27-.03-.54-.09-.8-.16l-1.55-.41c-1.03-.29-2.07-.56-3.1-.87h-.16.15l1.58-.49-1.34.57,2.98.7,1.56.39c.25.07.5.12.76.15.26.02.52.02.78,0,.25,0,.52-.07.79-.11l.79-.12,1.59-.23,1.59-.23.8-.11h.57c.75-.25,1.5-.53,2.25-.83.39-.15.76-.31,1.12-.48l1.11-.52-1.11.53ZM301.91,39.45l1.16-4.75c.53-1.04,1.52-1.76,2.67-1.92l7.49-.95c1.42-.16,2.69.86,2.85,2.28.05.43-.01.86-.18,1.26l-2.21,5.35c-.75,1.81-2.51,2.98-4.46,2.98h-4.21c-.62.02-1.21-.29-1.52-.83l-1.34-1.95c-.28-.43-.38-.97-.25-1.47ZM324.64,46.13v1.15c0-.33-.03-.69-.05-1.08l.05-.07ZM334.25,49.65c-1.22,2.81-2.81,4.34-4.48,4.34s-3.26-1.54-4.48-4.34l-.2-.44h0c-.07-.56-.16-1.07-.21-1.51s-.15-.82-.19-1.07-.09-.39-.09-.4c-.31-4.59.04-9.2,1.06-13.69.6-2.67,2.19-7.06,4.64-8.76,1.47.28,2.87,1.78,4.01,4.29,1.36,3.44,2.02,7.12,1.95,10.81.05,3.68-.63,7.34-2.01,10.76ZM336.12,44.47c-.08.41-.18.82-.31,1.22.47-2.25.7-4.54.7-6.84,0-7.86-2.55-14.34-5.86-15.33.34-.2.72-.35,1.11-.43,1.04.06,1.97.63,2.49,1.54,1.58,3.19,2.13,10.48,2.39,14.09-.04,1.93-.22,3.86-.55,5.76h.03ZM344.95,25.5l-5.6,2.14h-.13v-.09c.04-1.09-.04-2.18-.21-3.26-.04-.26-.13-.51-.24-.75-.14-.22-.32-.4-.53-.55-.45-.3-.93-.54-1.44-.72-1.03-.36-2.09-.65-3.17-.86-.56-.11-1.11-.28-1.63-.28l-.82-.09h-.82c-2.2-.04-4.39.06-6.58.29-1.1.11-2.19.21-3.28.35s-2.17.31-3.25.52-2.14.47-3.21.76c-1.06.27-2.09.62-3.1,1.04-2,.91-3.89,2.04-5.64,3.36-.88.65-1.69,1.4-2.39,2.23-.17.21-.32.43-.45.67-.13.24-.24.49-.32.75-.17.52-.32,1.05-.43,1.59-.24,1.07-.41,2.17-.56,3.25s-.31,2.11-.31,3.21c0-1.1.08-2.17.25-3.22.13-1.1.28-2.18.49-3.26.1-.54.24-1.08.4-1.6.08-.27.19-.53.32-.78.14-.24.29-.48.47-.7.7-.86,1.51-1.63,2.39-2.3.86-.67,1.75-1.3,2.67-1.87.94-.58,1.92-1.1,2.93-1.56,1.02-.43,2.07-.79,3.14-1.07,1.07-.29,2.14-.55,3.22-.78s2.18-.41,3.26-.53,2.19-.27,3.29-.36c2.2-.23,4.41-.31,6.62-.27h.83l.83.09c.56.08,1.08.2,1.63.31,1.09.21,2.15.51,3.19.88.53.19,1.03.45,1.5.78.24.17.45.38.6.63.13.26.22.53.27.82.17,1.05.23,2.11.19,3.17l5.49-2.01,5.63-2.05-5.51,2.13ZM352.35,20.8s0-.09-.12-.21c-.08-.13-.17-.25-.28-.36-.12-.12-.25-.23-.36-.33l-.21-.09c.09-.02.18-.02.27,0,.09.02.17.05.25.09.09.05.18.11.25.19.07.08.13.17.17.27.02.09.02.18,0,.27,0,.07,0,.13-.01.2h.04ZM363.39,10.83c-.55,0-1.09.14-1.56.43-.59-.13-1.18-.22-1.78-.27-1.58.16-2.18-.29-4.12-.23-.8,0-2.67-.16-3.44.75-1.34,1.6-1.51,8.02-1.51,8.02l-3.56.28c.07-.39.07-.8,0-1.19-.34-.36-.77-.63-1.24-.79-.16-.03-.32-.08-.45-.17-.07-.24-.17-.47-.31-.68-.7-.37-1.43-.69-2.18-.95V5.85h24.06v6.9s-2.95-1.97-3.94-1.91h.03ZM367.2,25.65c0-.72.08-1.47.08-2.25,0-5.21-1.23-9.44-2.67-9.44h-.25c.25-.44.68-.75,1.18-.86,1.55-.17,1.88,4.52,1.99,6.24.09,2.11-.03,4.22-.36,6.31h.04Z"/>
  </g>
</svg>