<?xml version="1.0" encoding="UTF-8"?>
<svg xmlns="http://www.w3.org/2000/svg" version="1.1" viewBox="0 0 370 64">
  <!-- Generator: Adobe Illustrator 29.1.0, SVG Export Plug-In . SVG Version: 2.1.0 Build 142)  -->
  <defs>
    <style>
      .st0 {
        fill: #40012f;
      }

      .st1 {
        fill: #bf0413;
      }
    </style>
  </defs>
  <g id="OBJECTS">
    <g>
      <path class="st1" d="M10.89,12.43h14.15l.1.05c-2.24,9.95-3.4,15.01-3.48,15.18l-3.3,3.15c.91,1.83,1.45,2.84,1.6,3.03-2.29,9.74-3.54,14.94-3.74,15.59h-4.72c-.09,0-.13-.04-.13-.13,0-.14,1.05-4.98,3.15-14.53h-4.26c-1.58,6.84-2.73,11.73-3.43,14.66l-.13.05H1.65v-.05c.21-.97,1.21-5.06,3.02-12.28H.13l-.13-.05c.12-.95.21-1.42.28-1.42h4.75l1.6-6.41h-2.14c-.07,0-.1-.03-.1-.1.05-.95.15-1.42.28-1.42h2.25c.1,0,.7-2.34,1.78-7.01.03,0,.17-.52.41-1.55h-3.12c-.09,0-.13-.03-.13-.1.05-.95.15-1.42.28-1.42h3.38l.36-1.65h-5.09c-.09,0-.13-.04-.13-.13.09-.95.19-1.42.31-1.42h5.32c.27-1.34.47-2.02.59-2.02ZM12.6,21.38c-.83,3.81-1.24,5.77-1.24,5.87h4.26l.59.05c1.03-3.27,1.63-5.25,1.78-5.92h-5.4Z"/>
      <path class="st1" d="M33.92,12.43h10.74c.09.02.13.06.13.13-.03.28-3.08,12.57-9.14,36.87l-.13.05h-4.93l-.1-.05c.71-3.46,1.18-5.9,1.42-7.32h-3.79l-1.91,7.32-.1.05h-4.93c-.09,0-.13-.04-.13-.13,1.98-7.71,2.97-11.64,2.97-11.82h-1.65l-.13-.08c.09-.98.19-1.47.31-1.47h1.88l2.01-8.04h-2.43c-.09,0-.13-.03-.13-.1.07-.91.15-1.37.26-1.37h2.71c1.03-4.41,1.63-6.7,1.78-6.85.05-.02.22-.23.49-.65h-2.5l-.1-.05c.07-.95.16-1.42.28-1.42h3.46c.05-.14.72-1.09,2.01-2.87h-5.58l-.13-.05c.09-.95.18-1.42.28-1.42h6.53c0-.14.18-.38.54-.72ZM33.09,21.4c-2.22,8.86-3.33,13.34-3.33,13.45h.05c.83.03,1.51.05,2.04.05h1.01c.27,0,.71.03,1.29.08,2.19-8.88,3.28-13.4,3.28-13.58h-4.34Z"/>
      <path class="st1" d="M62.91,12.53l.13.05c-1.5,6-2.28,9.05-2.35,9.15h-4.05c-.05,0-.08-.03-.08-.08-.04,0-.05.03-.05.08-1.19-.05-2.07-.08-2.66-.08h-1.76l-4.1,15.85c.38,1.69.57,2.64.57,2.84,2.44-.05,4.41-.08,5.89-.08h1.37c.07.02.1.06.1.13-1.26,5.5-1.96,8.52-2.12,9.08l-10.4-.13c-.31-1.07-.86-3.56-1.65-7.47,0-.14.78-3.28,2.35-9.44h-1.57l-.13-.05c.1-.98.2-1.47.28-1.47h1.83c0-.1.23-1.07.7-2.9h-1.86l-.13-.05c.1-.98.2-1.47.28-1.47h2.12l1.83-7.42h-1.47c-.07,0-.1-.04-.1-.13.05-.9.13-1.34.23-1.34h1.76l.7-2.82h-2.53c-.07,0-.1-.04-.1-.13.05-.9.15-1.34.28-1.34h2.66c.07,0,.16-.26.28-.78h13.76Z"/>
      <path class="st1" d="M71.02,12.33h8.29l.13.05-2.19,9.26c-.91-.03-1.59-.05-2.04-.05h-.59l-.72-.05-4.52,18.64h.05c.29,0,1.27.02,2.94.05l.05.1-1.99,9.15c-.84-.03-1.47-.05-1.88-.05h-1.24s-.05-.03-.05-.08c-.05,0-.08.03-.08.08-.91-.05-3.64-.11-8.18-.18l-.05-.13c1.22-5.19,1.93-8.14,2.12-8.84l.13-.05c1.2.03,2.16.05,2.87.05h.08c.07,0,.22-.55.46-1.65h-4.88c-.09,0-.13-.03-.13-.1.07-.91.16-1.37.28-1.37h5.09l1.94-7.96h-5.65v-.05c.05-.98.13-1.47.23-1.47h5.78c.93-3.88,1.39-5.89,1.39-6.02h-.05c-.69-.03-1.26-.05-1.7-.05h-.83c-.29,0-.45-.06-.46-.18l.28-1.16h-1.94c-.09,0-.13-.04-.13-.13.07-.9.17-1.34.31-1.34h2.17l.65-2.79h-2.94c-.07,0-.1-.03-.1-.1.07-.95.16-1.42.28-1.42h3.12c.07,0,.27-.66.59-1.99.03,0,.05-.03.05-.08,1.43-.03,2.45-.05,3.07-.05Z"/>
      <path class="st1" d="M92.67,12.33c.09.02.13.06.13.13.5,12.45.75,18.96.75,19.55.05.07.08.13.08.18h.05c.58-2.53,2.21-9.14,4.88-19.81h4.8l.1.08-9.14,36.85-.13.05h-4.65c-.09,0-.13-.03-.13-.1l-.98-19.44h-.08c-2.75,11.84-4.3,18.4-4.65,19.68h-1.01s-.05-.02-.05-.05c-.05,0-.08.02-.08.05-.33-.03-.58-.05-.75-.05-.65,0-1.72-.03-3.2-.08l-.05-.1,3.67-14.76h-2.71c-.09,0-.13-.04-.13-.13.05-.9.13-1.34.23-1.34h3.02c0-.17.28-1.3.83-3.39h-4.13l-.13-.05c.09-.95.19-1.42.31-1.42h4.29c.95-3.79,1.44-5.74,1.47-5.84h-4.7l-.13-.05c.09-.98.19-1.47.31-1.47h4.83c.07-.02.36-1.09.88-3.21h-2.76l-.13-.05c.1-.95.21-1.42.31-1.42h2.94c.58-2.43.92-3.69,1.01-3.78h4.83Z"/>
      <path class="st1" d="M108.6,12.53h13.66c.5,0,.85.04,1.06.13-1.48,5.95-2.25,8.97-2.3,9.08h-9.42l-4.16,15.9v.05l.59,2.77h3.85c.1,0,.42-1.31.96-3.93.07-.17.21-.74.41-1.71h-.08c-.17,0-.62-.02-1.34-.05,0-.05-.02-.08-.05-.08l2.04-8.02h.13c.88,0,2.91-.03,6.09-.08,0,.05.02.08.05.08-3.39,14.1-5.22,21.64-5.5,22.62h-1.94c-.45,0-1.13.02-2.04.05v-.05l-.13.05c-3.49.05-5.62.08-6.38.08-.69.03-1.1.05-1.24.05-.12-.29-.66-2.76-1.63-7.4l1.16-4.81h-2.92c-.09,0-.13-.03-.13-.1.09-.88.16-1.35.23-1.42l.28.05h2.81c.1,0,.67-2.22,1.7-6.67.03-.03.16-.45.36-1.24h-3.69l-.13-.05c.1-.98.21-1.47.31-1.47h3.79c.09,0,.71-2.46,1.88-7.37h-3.23c-.09,0-.13-.04-.13-.13.07-.9.17-1.34.31-1.34h3.43c0-.09.22-1.01.65-2.77h-4.21c-.07,0-.1-.03-.1-.1.07-.95.16-1.42.28-1.42h4.44c.07-.47.15-.7.23-.7Z"/>
      <path class="st1" d="M146.34,12.43h14.09l.13.05c-1.5,5.53-2.31,8.47-2.43,8.82h-6.97c-.45,0-1.14-.02-2.06-.05l-1.06,4.47h9.22c.07.02.1.06.1.13-3.86,15.24-5.88,23.12-6.07,23.63h-14.1c-.09,0-.13-.04-.13-.13,1.41-6.08,2.16-9.21,2.25-9.39h9.37l1.32-4.91h-9.16l-.1-.05c.83-3.36,1.3-5.35,1.42-5.97h-4.31l-.13-.05c.1-.98.21-1.47.31-1.47h4.54c.19-.83.28-1.28.28-1.37h-2.53l-.13-.05c.09-.98.19-1.47.31-1.47h2.76l1.06-4.5h-3.82c-.09,0-.13-.03-.13-.1.05-.95.15-1.42.28-1.42h4.08c0-.1.21-1.03.65-2.79h-4.83c-.09,0-.13-.03-.13-.1.07-.95.17-1.42.31-1.42h4.96c.07,0,.24-.59.52-1.78l.13-.05Z"/>
      <path class="st1" d="M164.9,12.43h13.79l.1.05c-1.29,5.17-2.06,8.2-2.3,9.08h-9.04l-1.65,5.25h.05c.79,0,3.05-.03,6.79-.1,0,.29-.65,3.02-1.94,8.17-1.65-.09-2.9-.13-3.74-.13v-.05s-.05.02-.05.05l-.28-.05h-.49c-.38,0-.96-.03-1.76-.08l-.77,2.74c0,.16.26,1.18.77,3.08,1.72-.05,3-.08,3.85-.08h1.39c.46,0,1.2-.02,2.19-.05,0,.03.02.05.05.05-1.5,5.84-2.3,8.89-2.4,9.13h-10.22c-.12,0-.5-1.48-1.14-4.45-.19-.59-.42-1.57-.7-2.95l1.11-4.55h-2.06v-.08c.03-.98.11-1.47.23-1.47h2.25c0-.12.65-2.77,1.96-7.94h-2.74c-.07,0-.1-.03-.1-.1.07-.95.16-1.42.28-1.42h2.97c0-.12.61-2.61,1.83-7.47h-2.38l-.1-.05c.1-.95.2-1.42.28-1.42h2.48c.09,0,.34-.95.77-2.84h-3.43v-.05c.05-.95.13-1.42.23-1.42h3.61c.07-.55.16-.83.28-.83Z"/>
      <path class="st1" d="M190.93,12.33c.09.02.13.06.13.13.5,12.45.75,18.96.75,19.55.05.07.08.13.08.18h.05c.58-2.53,2.21-9.14,4.88-19.81h4.8l.1.08-9.14,36.85-.13.05h-4.65c-.09,0-.13-.03-.13-.1l-.98-19.44h-.08c-2.75,11.84-4.3,18.4-4.65,19.68h-1.01s-.05-.02-.05-.05c-.05,0-.08.02-.08.05-.33-.03-.58-.05-.75-.05-.65,0-1.72-.03-3.2-.08l-.05-.1,3.67-14.76h-2.71c-.09,0-.13-.04-.13-.13.05-.9.13-1.34.23-1.34h3.02c0-.17.28-1.3.83-3.39h-4.13l-.13-.05c.09-.95.19-1.42.31-1.42h4.29c.95-3.79,1.44-5.74,1.47-5.84h-4.7l-.13-.05c.09-.98.19-1.47.31-1.47h4.83c.07-.02.36-1.09.88-3.21h-2.76l-.13-.05c.1-.95.21-1.42.31-1.42h2.94c.58-2.43.92-3.69,1.01-3.78h4.83Z"/>
      <path class="st1" d="M210.49,12.43h10.74c.09.02.13.06.13.13-.04.28-3.08,12.57-9.14,36.87l-.13.05h-4.93l-.1-.05c.71-3.46,1.18-5.9,1.42-7.32h-3.79l-1.91,7.32-.1.05h-4.93c-.09,0-.13-.04-.13-.13,1.98-7.71,2.97-11.64,2.97-11.82h-1.65l-.13-.08c.09-.98.19-1.47.31-1.47h1.88l2.01-8.04h-2.43c-.09,0-.13-.03-.13-.1.07-.91.15-1.37.26-1.37h2.71c1.03-4.41,1.63-6.7,1.78-6.85.05-.02.22-.23.49-.65h-2.5l-.1-.05c.07-.95.16-1.42.28-1.42h3.46c.05-.14.72-1.09,2.01-2.87h-5.58l-.13-.05c.09-.95.18-1.42.28-1.42h6.53c0-.14.18-.38.54-.72ZM209.67,21.4c-2.22,8.86-3.33,13.34-3.33,13.45h.05c.83.03,1.51.05,2.04.05h1.01c.28,0,.71.03,1.29.08,2.18-8.88,3.28-13.4,3.28-13.58h-4.34Z"/>
      <path class="st1" d="M239.48,12.53l.13.05c-1.5,6-2.28,9.05-2.35,9.15h-4.05c-.05,0-.08-.03-.08-.08-.03,0-.05.03-.05.08-1.19-.05-2.07-.08-2.66-.08h-1.76l-4.1,15.85c.38,1.69.57,2.64.57,2.84,2.44-.05,4.41-.08,5.89-.08h1.37c.07.02.1.06.1.13-1.26,5.5-1.96,8.52-2.12,9.08l-10.4-.13c-.31-1.07-.86-3.56-1.65-7.47,0-.14.78-3.28,2.35-9.44h-1.58l-.13-.05c.1-.98.2-1.47.28-1.47h1.83c0-.1.23-1.07.7-2.9h-1.86l-.13-.05c.1-.98.2-1.47.28-1.47h2.12l1.83-7.42h-1.47c-.07,0-.1-.04-.1-.13.05-.9.13-1.34.23-1.34h1.76l.7-2.82h-2.53c-.07,0-.1-.04-.1-.13.05-.9.15-1.34.28-1.34h2.66c.07,0,.16-.26.28-.78h13.76Z"/>
    </g>
  </g>
  <g id="DESIGNED_BY_FREEPIK">
    <path class="st0" d="M366.38,24.61s-.12-.07-.44-.22c-2.44-.96-5.24-1-7-.89.09-2.66.13-5.62.15-9.04,0-.66-.24-1.28-.69-1.74-.45-.47-1.04-.72-1.68-.72h-29.53c-1.31,0-2.37,1.1-2.37,2.46v.94c-1.89-.66-7.04-2.32-11.48-2.32-2.09,0-3.64.52-4.63,1.54-1.2,1.25-1.19,2.86-1.19,3.55v.07c0,.68.54,1.04,1.06,1.38.77.51,1.65,1.09,1.65,2.79,0,2.83-8.62,2.83-13.25,2.83-9.73,0-15.7.67-17.75,1.99-.41.27-.98.86-1.83,1.75-.79.83-1.78,1.85-3.04,3.05l-6.81,1.68c-.54-1.79-1.35-3.08-2.32-3.71,0,0-.22-.14-.5-.26-3.94-1.65-9.28-1.19-11.11-.72-2.79.71-4.92,4.84-5.18,10.03-.03.53-.03,1.06-.02,1.58h-5.61c-.85,0-1.91.69-2.07,1.69l-.74,4.97v.09c0,.98.76,1.78,1.7,1.78h10.06c.27.19.55.33.83.44,1.77.66,7.04,1.71,11.11.49,0,0,.26-.07.53-.21.33-.17.66-.41.97-.72h34.02c.72,1.06,1.56,1.77,2.45,2.08,1.05.36,3.29.79,5.77.79,1.85,0,3.84-.24,5.59-.92,0,0,.22-.1.54-.27.55-.35,1.06-.91,1.52-1.68h1.93c5.5,0,14.71-1,22.83-1.88,5.84-.63,10.89-1.18,13.05-1.18.06,0,.13,0,.19,0,.47.44.96.74,1.48.92,1.93.66,7.25,1.49,11.35-.12,0,0,.2-.09.49-.24,2.11-1.31,3.59-5.75,3.59-10.99s-1.5-9.74-3.62-11.02ZM242.04,42.96c-.02.26-.04.55-.08.87-.03.32-.08.65-.13.99-.11.67-.24,1.33-.37,1.83-.12.49-.24.82-.24.82,0,0,0-.35.03-.85.03-.51.11-1.18.22-1.85.06-.33.11-.67.18-.98.06-.31.13-.6.19-.85.12-.49.24-.82.24-.82,0,0,0,.34-.03.85ZM349.77,13.21s-.04.05-.09.15c-.05.1-.12.26-.19.46-.07.2-.13.45-.19.75-.03.15-.05.3-.07.47-.02.17-.04.34-.05.52-.01.18-.02.37-.03.57,0,.2,0,.4,0,.61,0,.21.01.43.02.65.01.22.02.45.04.68,0,.23.04.46.06.7.02.24.04.47.07.71.03.24.06.48.09.72.03.24.07.49.1.73.08.48.15.97.23,1.45.09.48.17.94.26,1.4.09.45.18.89.26,1.3.09.41.17.8.26,1.16.17.72.3,1.32.41,1.74.11.42.17.66.17.66,0,0-.09-.23-.24-.63-.14-.41-.35-.99-.55-1.7-.2-.71-.44-1.54-.64-2.45-.21-.9-.39-1.88-.54-2.86-.03-.24-.07-.49-.1-.73-.03-.25-.05-.49-.08-.74-.03-.24-.04-.49-.06-.72-.01-.24-.04-.48-.04-.71-.02-.47,0-.92,0-1.35.01-.21.03-.42.04-.62.02-.2.04-.39.06-.58.03-.18.06-.36.09-.53.04-.17.07-.32.11-.47.08-.29.16-.54.25-.74.17-.4.34-.58.34-.58ZM323,30.67c-1.66-2.87-9.32-2.64-9.32-2.64,12.3-2.93,19.07,3.16,21.98,6.98-.02-.02-.04-.04-.06-.06-.18-.19-.34-.39-.53-.57-.19-.18-.38-.36-.58-.55l-.29-.27-.31-.25c-.21-.17-.42-.34-.63-.51-.2-.17-.42-.33-.64-.48-.22-.15-.43-.3-.65-.45-.42-.31-.87-.56-1.29-.82-.21-.13-.42-.26-.62-.38-.2-.12-.41-.22-.61-.33-.4-.21-.78-.41-1.13-.59-.35-.19-.68-.32-.97-.46-.29-.13-.54-.25-.75-.35-.42-.19-.65-.3-.65-.3,0,0,.23.13.63.36.2.11.44.25.72.41.27.16.6.33.92.55.33.21.69.45,1.06.69.19.12.39.24.58.38.19.14.38.28.58.43.39.3.81.57,1.2.92.2.17.39.33.59.5.2.17.4.33.58.52.19.18.37.36.56.54l.28.27.25.29c.17.19.34.38.5.56.17.18.3.39.45.58.3.37.54.77.78,1.14.12.18.2.38.3.56.04.08.08.15.12.22-11.54-1.57-14.44,8.58-14.44,8.58,0,0,3.07-12.59,1.41-15.46ZM320.79,39.31c-.01-.29-.02-.58-.03-.87-.03-.58-.07-1.17-.14-1.76-.06-.59-.14-1.17-.25-1.74-.05-.28-.12-.56-.18-.84-.07-.27-.14-.54-.23-.8-.17-.52-.36-1-.58-1.45-.23-.44-.48-.83-.74-1.16-.53-.67-1.14-1.07-1.6-1.28-.46-.21-.75-.23-.75-.23,0,0,.07,0,.21,0,.14,0,.34.02.59.09.25.07.55.18.87.36.32.18.66.43.98.76.32.33.63.72.91,1.18.27.46.52.96.71,1.51.1.27.18.55.28.84.07.29.16.58.22.87.12.59.22,1.2.29,1.81.06.61.09,1.22.11,1.82.02.6,0,1.19-.02,1.76,0,.57-.07,1.12-.11,1.63-.05.52-.11,1-.17,1.45-.07.45-.14.86-.2,1.22-.06.36-.13.68-.18.93-.11.52-.18.81-.18.81,0,0,0-.3.03-.83.01-.26.03-.58.05-.95.01-.37.03-.78.06-1.23.01-.45.03-.93.04-1.45,0-.51.02-1.05.01-1.61,0-.28,0-.56-.01-.85ZM338.81,31.46c.32.17.62.35.93.53.3.17.6.35.89.51.29.18.56.36.83.54.54.35,1.05.68,1.49,1.03.45.34.86.65,1.22.93.35.3.64.57.89.78.49.44.76.69.76.69,0,0-.31-.21-.85-.57-.27-.18-.59-.41-.96-.67-.38-.24-.82-.5-1.28-.8-.46-.31-.99-.59-1.54-.9-.28-.16-.55-.32-.85-.48-.29-.15-.59-.31-.9-.47-.31-.16-.61-.33-.93-.48-.32-.15-.64-.3-.97-.46-.64-.33-1.32-.61-1.99-.91l-.5-.23-.51-.21c-.34-.14-.67-.28-1.01-.41-.67-.26-1.33-.52-1.98-.76-.65-.22-1.27-.47-1.87-.67-.6-.21-1.16-.4-1.69-.57-.52-.17-1.01-.32-1.43-.46-.43-.13-.8-.24-1.11-.33-.31-.09-.55-.16-.72-.21-.17-.05-.26-.07-.26-.07,0,0,.09.01.26.03.17.02.42.05.74.1.32.05.71.12,1.15.2.44.09.94.18,1.48.32.27.06.55.13.84.2.29.08.59.16.89.24.62.16,1.25.37,1.92.57.33.1.66.23,1,.34.34.12.68.23,1.02.37.34.14.68.27,1.03.41l.52.21.51.22c.68.31,1.36.61,2.01.95.33.16.65.33.97.49ZM336.01,21.73v-3.61h11.98c.12,4.42,1.65,9.02,2.31,10.82-4.57.06-6.64.63-7.52,1.01-2.25-4.09-5.87-7.43-6.77-8.22ZM333.55,23.81c-.25-.09-.56-.21-.9-.34-.35-.14-.74-.27-1.17-.42s-.9-.32-1.39-.5c-.5-.16-1.02-.33-1.56-.52-.54-.18-1.11-.33-1.67-.52-.57-.18-1.16-.33-1.74-.49-.58-.16-1.17-.3-1.75-.45-.58-.12-1.15-.28-1.71-.38-.56-.11-1.09-.22-1.61-.31-.51-.09-1-.16-1.45-.23-.45-.05-.86-.12-1.23-.15-.37-.04-.69-.07-.95-.09-.26-.02-.47-.04-.62-.04-.14,0-.22,0-.22,0,0,0,.3-.06.84-.1.27-.02.59-.04.97-.05.37-.01.79,0,1.25.01.46.03.96.04,1.48.11.53.05,1.08.12,1.65.21.29.04.57.09.86.15.29.05.59.11.88.17.59.14,1.19.28,1.78.43.59.18,1.18.34,1.76.53.57.19,1.14.39,1.68.59.54.21,1.05.42,1.54.62.49.21.94.43,1.35.62.42.19.8.38,1.13.56.33.18.62.34.85.47.47.26.74.42.74.42,0,0-.29-.1-.79-.28ZM329.02,45.31c.61-.09,1.26-.19,1.96-.3.69-.11,1.42-.24,2.17-.36.38-.07.76-.14,1.14-.21.38-.08.77-.15,1.17-.23.39-.09.78-.18,1.18-.26.39-.09.78-.2,1.17-.31.39-.1.77-.23,1.16-.35.37-.14.75-.28,1.1-.43.17-.09.34-.18.51-.26l.13-.06.06-.03.06-.04.25-.16c.35-.21.65-.43.97-.64.62-.45,1.2-.91,1.76-1.36.55-.45,1.08-.88,1.61-1.23.52-.36,1.04-.63,1.52-.81.48-.17.92-.26,1.28-.3.18-.01.34-.03.48-.04.14,0,.26,0,.36,0,.19,0,.29,0,.29,0,0,0-.1.01-.29.03-.1.01-.21.02-.35.04-.14.03-.29.06-.47.1-.35.08-.75.21-1.2.42-.44.21-.91.52-1.39.89-.48.38-.97.84-1.5,1.31-.53.48-1.1.98-1.73,1.46-.32.23-.65.48-.98.7l-.25.17-.06.04s-.05.03-.07.04l-.14.08c-.19.1-.37.2-.56.3-.38.17-.77.32-1.17.47-.4.12-.79.26-1.19.37-.4.1-.8.21-1.21.3-.4.09-.8.17-1.2.26-.8.15-1.59.28-2.35.38-.76.11-1.5.2-2.2.26-.7.08-1.37.12-1.98.17-1.23.09-2.25.12-2.97.14-.72.01-1.13,0-1.13,0,0,0,1.62-.23,4.05-.58ZM348.47,36.29c-.31-.15-.61-.31-.89-.46-.28-.15-.54-.3-.79-.43-.49-.27-.88-.52-1.16-.69s-.43-.28-.43-.28c0,0,.18.05.49.14.31.1.75.24,1.27.43.26.09.54.2.84.31.3.12.61.23.93.37.32.13.65.27.98.41.22.1.45.2.67.3,0,.29.02.57.04.85,0,0,0,0,0,0-.33-.16-.67-.32-1-.47-.33-.16-.65-.32-.96-.48ZM349.57,33.01c-.33,0-.66-.02-.97-.03-.31,0-.62-.03-.91-.05-.29-.02-.56-.04-.81-.07-.5-.04-.92-.1-1.22-.14-.29-.04-.46-.08-.46-.08,0,0,.17-.03.46-.08.29-.04.71-.1,1.22-.14.25-.02.52-.05.81-.07.29-.02.59-.04.91-.05.31-.01.64-.03.97-.03.33,0,.67,0,1-.01.01,0,.03,0,.04,0-.04.25-.07.5-.1.76-.32,0-.63,0-.94-.01ZM333.09,13.21h16.27s-.78,1.42-.78,3.37h-18.67s1.78-.44,3.19-3.37ZM330.2,17.03c.62-.02,1.51-.05,2.58-.07,1.07-.02,2.31-.05,3.65-.06,1.33,0,2.76-.02,4.18-.03,1.42,0,2.85.02,4.18.03,1.33,0,2.58.04,3.65.06.04,0,.07,0,.11,0,0,.07,0,.14,0,.21-.03,0-.07,0-.1,0-1.07.02-2.31.05-3.65.06-1.33,0-2.76.02-4.18.03-1.42,0-2.85-.02-4.18-.03-1.34,0-2.58-.04-3.65-.06-1.07-.02-1.96-.05-2.58-.07-.62-.02-.98-.04-.98-.04,0,0,.36-.01.98-.04ZM325.55,14.32c.05-.34.18-.71.42-1,.24-.29.58-.48.91-.55.16-.04.33-.05.48-.05.15,0,.29.01.42.02.51.03.86.06.86.06,0,0-.34.04-.86.06-.26.02-.56,0-.85.09-.15.04-.3.1-.43.19-.14.08-.26.19-.36.32-.1.13-.19.27-.25.42-.07.15-.1.31-.13.47,0,.08-.02.15-.03.23,0,.08,0,.16-.01.23,0,.15-.01.3-.02.43-.02.54-.07.89-.07.89,0,0-.04-.36-.07-.89,0-.13-.01-.28-.02-.43,0-.16,0-.32.03-.5ZM323.1,15.91c.24.07.52.15.85.26.33.1.7.22,1.09.38.4.14.82.32,1.27.5.45.19.92.39,1.39.62.47.24.97.47,1.46.74.24.13.49.27.74.4.24.14.49.29.73.44.49.29.96.61,1.43.92.47.3.9.65,1.34.96.44.31.82.66,1.2.97.19.16.37.31.55.46.17.16.33.31.49.45.31.29.6.56.85.81.24.25.45.48.62.66.34.37.53.58.53.58,0,0-.21-.19-.58-.52-.18-.17-.41-.37-.66-.61-.26-.23-.57-.47-.89-.75-.16-.14-.33-.28-.51-.43-.18-.14-.37-.28-.56-.43-.39-.29-.79-.61-1.22-.91-.43-.3-.87-.63-1.34-.92-.46-.3-.93-.62-1.42-.9-.24-.15-.48-.29-.72-.44-.24-.14-.49-.27-.73-.41-.48-.27-.96-.52-1.43-.77-.47-.24-.93-.46-1.36-.67-.44-.2-.85-.4-1.24-.55-.77-.33-1.42-.59-1.89-.76-.46-.17-.73-.26-.73-.26,0,0,.27.06.75.19ZM325.76,17.55s-7.36-2.63-10.76,1.19c0,0,.41-3.97-3.63-4.3,0,0,7.18-.47,14.4,3.11ZM310,19.29c-.11-.03-.22-.07-.31-.12-.2-.08-.37-.19-.51-.29-.14-.1-.26-.2-.35-.3-.17-.18-.23-.32-.23-.32,0,0,.09.12.28.26.1.07.22.15.37.23.15.07.32.15.52.2.1.03.2.06.31.08.11.03.22.05.33.06.11.02.23.03.35.04.12,0,.24.02.37.02.25,0,.51-.02.78-.03.13-.01.27-.03.4-.05.11,0,.26-.05.4-.07.07-.01.14-.02.2-.04l.18-.06.18-.06c.06-.03.11-.06.17-.09.23-.1.41-.28.55-.46.11-.2.19-.42.19-.65,0-.23-.03-.45-.1-.64-.06-.2-.13-.38-.21-.53-.07-.15-.16-.28-.23-.38-.07-.1-.13-.18-.18-.22-.04-.05-.07-.08-.07-.08,0,0,.03.02.08.06.06.04.13.1.22.19.08.09.19.21.29.35.1.14.21.32.29.53.05.1.07.22.11.33.03.12.05.25.06.38.02.27-.05.57-.19.83-.04.06-.09.12-.14.18-.02.03-.05.06-.07.09l-.09.07-.17.15c-.06.04-.13.07-.19.11-.07.03-.13.07-.2.1l-.21.07-.21.07c-.07.02-.14.03-.2.04-.14.02-.26.06-.42.07-.14.01-.28.03-.42.04-.28.02-.55.02-.82,0-.13,0-.26-.02-.39-.04-.13-.02-.25-.04-.37-.07-.12-.03-.24-.05-.35-.09ZM299.44,27.19c9.36-.3,10.5-.12,17.12-1.27,0,0-3.4,1.34-8.71,1.48-14.08.39-14.96,1.78-20.91,5.23,0,0,5.92-5.24,12.5-5.45ZM297.65,41.18h-.31c-.02-.29-.04-.59-.05-.89-.27.02-.56.03-.88.04-.71.03-1.55.05-2.44.06-.45,0-.91.01-1.38,0-.47,0-.94-.01-1.42-.02-.48-.02-.95-.03-1.42-.05-.47-.01-.93-.04-1.37-.07-.45-.02-.88-.05-1.28-.08-.41-.03-.79-.06-1.15-.09-1.42-.12-2.37-.28-2.37-.28,0,0,.95-.11,2.38-.16.36-.02.74-.03,1.15-.04.41,0,.84-.02,1.29-.02.45,0,.91,0,1.38,0,.47,0,.94.01,1.42.02.48.02.95.03,1.42.05.47.01.93.05,1.37.07.89.05,1.72.11,2.43.18.31.03.6.06.86.08,0-.5,0-1,.03-1.52.04-.57.1-1.14.19-1.72.07-.4.15-.79.24-1.17-.07,0-.13,0-.2-.01-.56-.04-1.22-.1-1.92-.18-.35-.04-.71-.08-1.08-.13-.37-.05-.74-.11-1.11-.16-.37-.06-.74-.12-1.1-.19-.36-.06-.72-.14-1.07-.2-.35-.06-.68-.14-.99-.21-.32-.07-.61-.14-.89-.21-.55-.13-1-.26-1.32-.35-.32-.09-.5-.16-.5-.16,0,0,.19,0,.52,0,.33,0,.8.03,1.36.07.28.02.59.04.91.08.32.03.66.06,1.01.11.35.04.71.08,1.08.13.36.05.74.11,1.11.16.37.06.74.12,1.1.18.36.06.72.14,1.07.2.69.14,1.33.28,1.88.41.08.02.16.04.23.06.16-.59.35-1.17.57-1.7.41-1,.94-1.87,1.49-2.53.54-.67,1.12-1.1,1.54-1.34.21-.12.39-.19.52-.24.12-.04.19-.06.19-.06,0,0-.06.03-.18.08-.12.06-.28.15-.49.28-.41.26-.92.75-1.41,1.42-.5.67-.96,1.54-1.34,2.53-.38.98-.67,2.08-.85,3.2-.18,1.12-.26,2.25-.26,3.32,0,.36,0,.71.02,1.06ZM280.13,28.32c1.56-1.38,9.39-1.39,13.81-1.28-.19.03-.37.06-.56.1-.33.08-.66.17-1,.25-.34.09-.68.16-1.01.29-.67.24-1.36.45-2.01.76-.33.15-.66.3-.99.45-.33.14-.64.33-.95.5-.63.34-1.24.67-1.8,1.06-.56.37-1.12.72-1.62,1.1-.49.38-.95.74-1.38,1.08-.21.17-.42.32-.6.49-.18.17-.35.33-.52.48-.32.3-.6.57-.83.78-.46.44-.71.69-.71.69,0,0,.3-.21.81-.57.25-.19.56-.41.91-.67.18-.13.36-.27.56-.41.2-.14.42-.28.64-.43.45-.3.93-.62,1.43-.96.25-.18.53-.32.8-.49.27-.16.56-.33.84-.5.56-.36,1.18-.65,1.79-.98.05-.03.11-.06.16-.09-5.07,2.95-9.59,7.58-14.33,10.7-6.11,4.01-8.02,4.18-9.95,4.18-3.01,0-1.5-1.29,4.8-5.96,5.62-4.16,7.1-6.48,11.71-10.56ZM264.79,36.87c-.01-.11-.03-.21-.05-.31l.16-.04c.03.1.05.21.08.32.11.47.18,1.04.2,1.65,0,.3,0,.63-.02.94,0,.14-.02.29-.04.44,0,0,.01,0,.02,0-.15.1-.31.19-.46.29-.31.01-.65.02-.99.02-.3,0-.61-.01-.89-.03-.29-.02-.55-.04-.78-.07-.46-.05-.76-.12-.76-.12,0,0,.3-.06.76-.1.23-.02.49-.04.78-.05.29-.01.59-.01.89-.02.38,0,.75.02,1.09.05.02-.14.04-.29.05-.44.03-.32.05-.61.05-.91,0-.59-.03-1.14-.09-1.61ZM265.99,38.24c-.02-.51-.08-1-.15-1.45-.03-.17-.07-.32-.11-.48l.46-.11c.05.15.1.31.14.48.11.48.22.99.25,1.53.02.23.03.46.04.69-.21.14-.43.28-.65.42.02-.36.03-.72.01-1.07ZM268.1,36.3l1.77-.44c-.55.43-1.12.85-1.69,1.26-.02-.28-.05-.55-.09-.82ZM265.95,35.02c.68-.17,1.41-.33,2.14-.49,1.46-.32,2.93-.61,4.03-.8.55-.1,1.02-.16,1.34-.22.04,0,.08-.01.12-.02-.03.03-.07.06-.1.09,0,0,0,0,0,0-.32.09-.77.22-1.31.36-1.09.29-2.54.64-4,.96-.73.16-1.46.31-2.15.44-.69.14-1.33.26-1.88.35-.55.1-1.02.16-1.34.22-.32.05-.51.07-.51.07,0,0,.18-.06.49-.15.32-.09.77-.22,1.31-.36.54-.14,1.18-.3,1.86-.47ZM265.24,34.38c.11.12.21.26.3.4l-.32.08c-.06-.11-.12-.22-.18-.31-.18-.26-.37-.48-.56-.61-.05-.03-.09-.07-.13-.1-.05-.02-.09-.04-.13-.06-.08-.04-.15-.07-.21-.09-.12-.03-.19-.05-.19-.05,0,0,.07,0,.19.01.06,0,.14.01.23.04.05.01.1.03.15.04.05.02.1.05.16.08.22.1.46.3.69.56ZM264.71,33.45s-.05,0-.15-.02c-.1-.02-.25-.03-.43-.06-.18,0-.4-.03-.65,0-.25.02-.52.08-.79.21-.27.13-.53.34-.75.61-.23.27-.43.6-.59.96-.33.73-.55,1.58-.69,2.45-.14.87-.21,1.75-.23,2.58,0,.35,0,.68.03,1.01h-.23c-.04-.32-.06-.66-.07-1.01,0-.42,0-.86.02-1.3.02-.44.06-.89.13-1.34.13-.89.33-1.78.68-2.57.18-.39.4-.75.66-1.05.26-.3.57-.53.9-.67.32-.14.64-.19.91-.18.28,0,.51.07.69.12.19.07.32.13.41.18.09.05.14.08.14.08ZM257.51,38.17c.04-.62.11-1.26.22-1.88.11-.63.25-1.26.46-1.86.2-.6.44-1.19.76-1.72.31-.53.68-1,1.1-1.39.42-.38.88-.67,1.34-.86.45-.19.9-.28,1.29-.3.39-.02.73.03.99.09.27.07.47.14.6.2.13.06.2.1.2.1,0,0-.08.01-.22.03-.07,0-.16.02-.26.03-.1.02-.22.03-.34.04-.13.02-.27.04-.42.06-.15.04-.31.05-.48.1-.33.08-.7.18-1.08.36-.75.36-1.46,1.06-2,2.01-.26.47-.51.99-.7,1.55-.19.55-.36,1.13-.48,1.73-.12.59-.22,1.2-.29,1.79-.03.3-.06.6-.08.89,0,.15-.02.3-.03.45,0,.14,0,.28,0,.42,0,.4.02.8.05,1.18h-.54c-.06-.38-.09-.77-.12-1.17,0-.15-.01-.3-.02-.46,0-.15,0-.3,0-.45,0-.32.02-.62.04-.93ZM249.55,38.77c.02-.46.04-.94.1-1.43.06-.48.14-.97.24-1.46.21-.97.53-1.91.94-2.74.41-.83.91-1.54,1.42-2.07.51-.53,1.04-.85,1.42-1.02.19-.08.35-.13.46-.16.11-.03.17-.04.17-.04,0,0-.06.02-.16.06-.1.04-.25.11-.43.2-.36.2-.84.56-1.31,1.1-.47.53-.92,1.25-1.29,2.07-.37.82-.67,1.74-.88,2.69-.21.95-.32,1.91-.37,2.82-.05.87-.1,1.68-.09,2.39h-.2c-.04-.71-.05-1.53-.02-2.4ZM251.05,41.78h12.31c-.76.66-1.59,1.47-2.08,2.2-.32.47-.55,1.2-.46,1.92-2.94.02-14.08.08-13.9,0,3.12-1.48,4.13-4.11,4.13-4.11ZM262.84,48c-1.41-.01-2.79-.02-4.13-.03-1.34-.02-2.63-.04-3.86-.05-1.23-.02-2.39-.05-3.46-.07-2.14-.04-3.93-.11-5.18-.14-.62-.02-1.12-.04-1.45-.05-.33-.01-.51-.02-.51-.02,0,0,.18,0,.51-.02.33-.01.83-.04,1.45-.05,1.25-.03,3.03-.1,5.18-.14,1.07-.02,2.23-.04,3.46-.07,1.23-.02,2.52-.03,3.86-.05.91,0,1.84-.01,2.79-.02.31.3.75.56,1.34.73h0ZM264.62,45.32c-.43.03-.8.03-1.1.02-.61-.02-.95-.09-.95-.09,0,0,.09.01.25.02.16,0,.4,0,.7,0,.61-.02,1.47-.1,2.48-.33.51-.11,1.05-.27,1.61-.46.56-.2,1.14-.44,1.72-.73.15-.07.29-.14.44-.22.15-.08.29-.16.44-.24.3-.16.59-.33.89-.5.59-.35,1.19-.71,1.78-1.1,1.18-.75,2.34-1.55,3.4-2.33,1.06-.78,2.06-1.51,2.89-2.16,1.68-1.29,2.8-2.15,2.8-2.15,0,0-.26.24-.73.65-.47.4-1.13,1-1.95,1.67-.41.34-.86.7-1.33,1.08-.47.38-.98.78-1.51,1.17-.53.4-1.08.8-1.65,1.2-.57.4-1.15.8-1.74,1.18-.59.38-1.2.74-1.8,1.08-.3.17-.6.34-.9.49-.15.08-.3.16-.45.23-.15.07-.3.15-.45.22-.6.29-1.2.5-1.78.69-.58.17-1.13.32-1.65.4-.52.1-1,.15-1.42.17ZM289.43,47.66c-.33.01-.83.04-1.45.05-1.25.03-3.03.1-5.18.15-2.14.05-4.64.09-7.32.12-1.34,0-2.72.03-4.13.03-1.27,0-2.55,0-3.84.01,1.67-.17,4.07-.45,5.32-.74.9,0,1.78.02,2.65.03,2.68.03,5.18.07,7.32.12,2.14.04,3.93.11,5.18.15.62.02,1.12.04,1.45.05.33.01.51.02.51.02,0,0-.18,0-.51.02ZM278.58,45.89s2.93-1.05,4.14-4.11h9.23l-1.1,4.11h-12.27ZM292.34,42.96c-.02.26-.04.55-.08.87-.03.32-.08.65-.13.99-.11.67-.24,1.33-.37,1.83-.12.49-.24.82-.24.82,0,0,0-.35.03-.85.03-.51.11-1.18.22-1.85.06-.33.11-.67.18-.98.06-.31.13-.6.19-.85.12-.49.24-.82.24-.82,0,0,0,.34-.03.85ZM301.43,47.92s-.09-4.87-8.92-6.17h10.16l-1.24,6.17ZM308.03,47.73c-.09-.14-.22-.35-.37-.63-.3-.55-.72-1.36-1.08-2.39-.18-.52-.36-1.09-.51-1.7-.15-.62-.26-1.28-.33-1.97-.02-.18-.03-.35-.05-.53,0-.17-.02-.35-.02-.52-.01-.37-.01-.72,0-1.08.01-.73.06-1.47.16-2.2.1-.74.23-1.47.43-2.18.2-.71.45-1.4.77-2.03.32-.64.71-1.22,1.16-1.7.45-.49.95-.88,1.45-1.15.51-.27,1.01-.44,1.46-.5.11-.01.22-.03.33-.03.11,0,.21,0,.31,0,.2,0,.37.03.53.05.32.06.56.13.71.2.16.06.24.1.24.1,0,0-.09.02-.26.05-.17.02-.41.07-.7.12-.29.07-.64.13-1.01.26-.37.13-.78.29-1.19.54-.4.26-.8.6-1.16,1.03-.37.43-.69.94-.97,1.51-.28.57-.53,1.19-.72,1.84-.19.65-.35,1.34-.47,2.03-.11.69-.19,1.4-.24,2.09-.02.34-.04.7-.04,1.03,0,.17,0,.35,0,.52,0,.17,0,.33.01.49.02.66.09,1.3.18,1.9.09.6.21,1.17.34,1.69.13.52.28.99.41,1.4.14.41.27.77.39,1.06.24.58.38.91.38.91,0,0-.05-.08-.14-.22ZM309.98,45.92c-.06-.1-.14-.26-.24-.46-.19-.4-.44-1-.63-1.75-.2-.75-.36-1.64-.43-2.61-.07-.97-.07-2,0-3.04.08-1.03.23-2.07.54-3.01.16-.47.36-.91.61-1.29.25-.38.57-.7.91-.92.34-.22.7-.33,1.02-.35.32-.02.6.03.81.08.22.06.38.13.48.19.1.06.16.08.16.08,0,0-.06,0-.18-.02-.12-.02-.29-.03-.49-.05-.21,0-.46,0-.74.04-.28.05-.58.15-.86.35-.57.39-1.02,1.15-1.31,2.03-.3.88-.47,1.88-.57,2.89-.09,1.01-.13,2.03-.09,2.98.02.48.06.93.11,1.37.05.43.12.84.19,1.21.08.37.17.71.25,1.01.08.3.18.55.26.76.08.21.15.37.2.48.05.11.08.17.08.17,0,0-.03-.06-.09-.16ZM313.66,38.71c-.02-.68-.09-1.32-.18-1.86-.09-.54-.2-.99-.29-1.3-.09-.31-.16-.48-.16-.48,0,0,.02.04.06.12.04.08.1.19.16.34.13.3.3.73.44,1.27.14.54.25,1.19.31,1.89.01.18.02.35.03.53,0,.09,0,.18,0,.28v.27c0,.36-.03.74-.06,1.12-.04.37-.1.75-.17,1.11-.07.36-.17.71-.28,1.05-.22.67-.52,1.27-.86,1.71-.09.11-.17.22-.26.3-.09.09-.18.17-.27.24-.09.07-.18.13-.27.17-.09.04-.16.09-.24.11-.08.02-.15.04-.21.06-.06,0-.11,0-.16,0-.08,0-.13,0-.13,0,0,0,.04,0,.13-.03.04,0,.09-.02.15-.03.05-.02.12-.05.19-.08.07-.02.14-.08.22-.13.08-.05.15-.12.23-.19.08-.07.15-.16.23-.25.08-.09.15-.2.22-.31.15-.22.27-.48.4-.77.12-.28.22-.59.32-.92.09-.33.17-.67.24-1.02.06-.35.12-.71.15-1.07.04-.36.07-.72.07-1.09.01-.37.01-.71,0-1.05ZM315.01,44.09c-.21.62-.49,1.21-.86,1.73-.37.51-.88.97-1.51,1.11-.65.13-1.23-.16-1.59-.52-.38-.35-.6-.76-.78-1.11-.17-.36-.29-.69-.36-.96-.08-.27-.13-.49-.16-.64-.03-.15-.04-.23-.04-.23,0,0,.03.07.09.21.05.14.14.34.26.59.11.25.27.55.48.86.21.31.46.65.8.91.17.13.36.24.56.29.1.02.17.04.31.04.09,0,.2-.03.31-.04.41-.13.79-.49,1.09-.94.3-.45.52-1,.71-1.57.18-.57.32-1.17.41-1.79.05-.3.08-.62.12-.92.02-.3.05-.61.05-.93v-.24s0-.06,0-.06v-.05s0-.11,0-.11c0-.15,0-.3,0-.45-.01-.3-.02-.6-.05-.89-.04-.58-.13-1.14-.23-1.67-.12-.52-.24-1.01-.41-1.44-.17-.43-.34-.82-.55-1.12-.09-.16-.22-.28-.31-.41-.12-.1-.21-.23-.32-.29-.11-.08-.2-.15-.3-.18-.09-.04-.17-.09-.25-.09-.14-.03-.22-.05-.22-.05,0,0,.08,0,.22,0,.07,0,.16.02.27.04.05.02.11.02.17.05.06.03.12.06.18.09.13.05.25.16.39.26.06.06.13.12.2.18.07.06.14.13.2.21.27.3.5.69.72,1.13.22.44.4.94.56,1.49.14.54.28,1.13.34,1.74.07.61.12,1.24.11,1.89,0,.31-.02.64-.04.97-.03.33-.06.65-.11.98-.1.65-.26,1.3-.47,1.92ZM315.5,47.12c-.1.22-.19.39-.26.5-.06.11-.1.18-.1.18,0,0,.03-.06.08-.18.06-.12.13-.29.22-.52.18-.45.41-1.11.61-1.92.21-.81.37-1.77.49-2.8.06-.52.1-1.06.11-1.6.02-.55.01-1.11,0-1.66-.02-.56-.05-1.11-.11-1.66-.05-.54-.13-1.08-.22-1.59-.09-.51-.2-1-.32-1.47-.12-.46-.25-.89-.4-1.28-.07-.2-.14-.38-.21-.56-.07-.18-.14-.34-.21-.49-.07-.15-.14-.29-.21-.42-.07-.13-.13-.25-.19-.35-.06-.1-.12-.2-.17-.28-.05-.08-.1-.14-.13-.2-.07-.11-.11-.16-.11-.16,0,0,.04.05.12.15.08.1.2.25.33.45.07.1.14.21.21.34.08.12.16.26.23.41.08.15.16.31.24.48.08.17.16.36.24.55.16.39.3.82.44,1.28.14.46.26.96.36,1.48.1.52.18,1.06.24,1.61.06.55.1,1.11.13,1.67,0,.57.01,1.12-.02,1.68-.03.55-.07,1.1-.13,1.62-.12,1.05-.34,2.01-.57,2.82-.23.81-.51,1.45-.71,1.9ZM351.76,44.46c-.26,0-.65.02-1.14.05-.49.03-1.09.08-1.77.14-.68.07-1.45.15-2.29.25-.84.1-1.75.21-2.71.33-.96.12-1.97.25-3.02.38-1.05.13-2.13.28-3.23.41-1.1.13-2.22.27-3.34.4-1.12.12-2.24.25-3.34.37-.55.06-1.1.11-1.64.16-.54.05-1.08.09-1.61.14-1.05.09-2.08.15-3.04.2-.97.05-1.89.08-2.73.1-.85.02-1.62.02-2.31,0-.69,0-1.29-.03-1.78-.06-.99-.05-1.55-.12-1.55-.12,0,0,.14,0,.41,0,.26,0,.65-.02,1.14-.03.49-.02,1.09-.05,1.77-.08.68-.04,1.46-.09,2.3-.15,1.68-.13,3.64-.3,5.74-.52,1.05-.11,2.13-.23,3.23-.36,1.1-.13,2.22-.26,3.34-.4,1.12-.13,2.24-.25,3.34-.38,1.1-.13,2.19-.23,3.24-.34,2.1-.21,4.07-.38,5.76-.48,1.69-.11,3.1-.13,4.09-.1.49.01.88.04,1.15.06.26.02.4.04.4.04,0,0-.14,0-.41,0ZM354.88,25.13c-.11.06-.28.15-.47.3-.19.14-.41.33-.64.58-.22.25-.46.55-.69.89-.46.69-.87,1.57-1.21,2.56-.34.99-.59,2.08-.75,3.19-.08.55-.14,1.11-.17,1.66-.03.55-.06,1.09-.05,1.62,0,1.05.05,2.04.14,2.88s.2,1.54.3,2.02c.1.48.16.76.16.76,0,0-.02-.07-.06-.19-.04-.13-.1-.31-.17-.55-.13-.48-.31-1.16-.44-2.01-.13-.84-.24-1.83-.26-2.9-.03-1.07.03-2.21.19-3.34.17-1.13.44-2.24.81-3.25.37-1,.85-1.88,1.35-2.57.5-.69,1.04-1.16,1.45-1.41.2-.13.38-.21.5-.26.12-.04.18-.07.18-.07,0,0-.06.03-.18.09ZM360.78,43.48c-.08-.14-.2-.35-.34-.63-.28-.55-.66-1.35-.99-2.37-.16-.51-.33-1.07-.46-1.67-.14-.6-.24-1.25-.31-1.92-.03-.34-.06-.69-.07-1.03-.02-.35-.02-.7-.01-1.06,0-.71.04-1.43.12-2.15.08-.72.19-1.44.36-2.14.17-.7.38-1.38.65-2.01.28-.64.61-1.22,1.01-1.73.4-.51.85-.93,1.32-1.24.47-.31.96-.51,1.41-.59.45-.08.84-.07,1.15-.02.31.05.55.12.7.19.15.06.23.1.23.1,0,0-.09.02-.25.04-.17.02-.4.06-.68.12-.28.06-.62.15-.97.28-.36.14-.74.32-1.12.6-.76.56-1.41,1.52-1.91,2.66-.24.58-.46,1.2-.62,1.85-.17.65-.3,1.32-.4,2.01-.1.68-.16,1.37-.2,2.06-.02.34-.03.68-.03,1.01,0,.35,0,.67,0,.99.02.65.09,1.27.17,1.87.08.59.19,1.15.3,1.66.12.51.25.97.37,1.38.12.41.24.76.35,1.05.21.58.35.9.35.9,0,0-.04-.08-.13-.22ZM362.57,41.67c-.06-.1-.13-.26-.22-.46-.17-.4-.4-.99-.58-1.73-.18-.74-.33-1.61-.4-2.56-.03-.48-.05-.96-.05-1.46,0-.5,0-1.01.04-1.51.07-1.01.19-2.03.46-2.96.14-.46.3-.9.52-1.3.22-.39.49-.74.8-.98.31-.25.66-.39.98-.43.32-.04.59,0,.8.06.21.06.37.13.47.19.1.05.16.09.16.09,0,0-.06,0-.18-.03-.11-.02-.28-.04-.48-.05-.2-.01-.45,0-.72.06-.26.06-.55.19-.81.41-.26.22-.48.53-.67.89-.19.36-.35.77-.47,1.22-.26.88-.41,1.87-.48,2.86-.04.5-.07,1-.08,1.49-.01.49-.01.98,0,1.44.04.93.13,1.81.28,2.54.14.74.31,1.34.46,1.75.07.21.14.37.18.47.05.11.07.17.07.17,0,0-.03-.06-.08-.16ZM365.94,34.43c-.02-.68-.09-1.31-.17-1.84-.08-.54-.18-.98-.26-1.29-.08-.31-.14-.48-.14-.48,0,0,.02.04.06.12.04.08.09.19.15.34.12.3.28.73.4,1.27.13.54.23,1.18.28,1.87.02.35.04.7.03,1.07,0,.36-.02.73-.05,1.1-.02.18-.04.37-.06.55-.03.18-.06.36-.09.54-.04.18-.07.36-.11.53-.05.17-.09.34-.14.51-.05.17-.11.33-.16.49-.06.15-.12.31-.18.45-.07.14-.13.28-.2.42-.08.13-.15.26-.23.37-.16.23-.32.42-.5.57-.17.15-.34.25-.49.31-.08.02-.14.04-.2.06-.06.01-.11,0-.15.01-.08,0-.13,0-.13,0,0,0,.04,0,.12-.03.04-.01.09-.01.15-.03.05-.02.11-.05.18-.08.13-.08.28-.18.42-.34.14-.16.28-.36.41-.58.07-.11.12-.24.19-.37.06-.13.11-.27.17-.41.05-.15.1-.29.15-.45.04-.16.09-.31.13-.48.04-.16.08-.33.11-.5.03-.17.06-.34.09-.52.03-.18.05-.35.08-.53l.05-.54c.03-.36.06-.71.06-1.07.01-.35.01-.7,0-1.04ZM367.67,34.09c.07.6.11,1.21.1,1.85,0,.15,0,.31,0,.47l-.03.48c-.02.32-.05.64-.09.96-.09.64-.22,1.27-.4,1.88-.18.61-.43,1.2-.76,1.73-.32.52-.78,1.01-1.39,1.19-.07.03-.15.04-.23.04-.08,0-.14.02-.25.01-.07,0-.12,0-.19-.03-.08-.02-.16-.04-.23-.07-.27-.11-.49-.28-.66-.46-.35-.36-.55-.77-.71-1.12-.16-.36-.26-.68-.33-.95-.07-.27-.11-.48-.14-.62-.03-.15-.04-.22-.04-.22,0,0,.03.07.08.21.05.14.13.34.24.58.1.25.25.54.44.86.19.31.43.66.75.93.16.14.34.25.53.3.05.01.09.01.13.03.04,0,.12,0,.18.01l.13-.02s.1-.01.15-.04c.39-.15.73-.54,1-1,.27-.47.46-1.02.63-1.58.16-.57.28-1.16.36-1.77.04-.3.08-.61.1-.91l.03-.45c0-.15,0-.31.01-.46v-.23s0-.22,0-.22c0-.15,0-.3,0-.45-.01-.29-.02-.59-.04-.87-.04-.57-.11-1.12-.2-1.64-.11-.51-.21-1-.36-1.43-.15-.43-.3-.82-.49-1.13-.18-.32-.39-.56-.58-.73-.2-.16-.38-.25-.52-.29-.14-.03-.21-.05-.21-.05,0,0,.08,0,.22,0,.14,0,.36.06.6.21.23.15.5.37.73.69.24.31.46.69.65,1.13.2.44.36.93.5,1.46.13.53.25,1.1.31,1.7Z"/>
  </g>
</svg>