<?xml version="1.0" encoding="UTF-8"?>
<svg id="OBJECTS" xmlns="http://www.w3.org/2000/svg" version="1.1" viewBox="0 0 370 64">
  <!-- Generator: Adobe Illustrator 29.1.0, SVG Export Plug-In . SVG Version: 2.1.0 Build 142)  -->
  <defs>
    <style>
      .st0 {
        fill: #40012f;
      }
    </style>
  </defs>
  <g>
    <path class="st0" d="M10.89,12.43h14.15l.1.05c-2.24,9.95-3.4,15.01-3.48,15.18l-3.3,3.15c.91,1.83,1.45,2.84,1.6,3.03-2.29,9.74-3.54,14.94-3.74,15.59h-4.72c-.09,0-.13-.04-.13-.13,0-.14,1.05-4.98,3.15-14.53h-4.26c-1.58,6.84-2.73,11.73-3.43,14.66l-.13.05H1.65v-.05c.21-.96,1.21-5.06,3.02-12.28H.13l-.13-.05c.12-.95.21-1.42.28-1.42h4.75l1.6-6.41h-2.14c-.07,0-.1-.03-.1-.1.05-.95.15-1.42.28-1.42h2.25c.1,0,.7-2.34,1.78-7.01.03,0,.17-.52.41-1.55h-3.12c-.09,0-.13-.04-.13-.1.05-.95.15-1.42.28-1.42h3.38l.36-1.65h-5.09c-.09,0-.13-.04-.13-.13.09-.95.19-1.42.31-1.42h5.32c.27-1.34.47-2.02.59-2.02ZM12.6,21.37c-.83,3.81-1.24,5.77-1.24,5.87h4.26l.59.05c1.03-3.28,1.63-5.25,1.78-5.92h-5.4Z"/>
    <path class="st0" d="M33.92,12.43h10.74c.09.02.13.06.13.13-.03.27-3.08,12.57-9.14,36.87l-.13.05h-4.93l-.1-.05c.71-3.46,1.18-5.9,1.42-7.32h-3.79l-1.91,7.32-.1.05h-4.93c-.09,0-.13-.04-.13-.13,1.98-7.71,2.97-11.65,2.97-11.82h-1.65l-.13-.08c.09-.98.19-1.47.31-1.47h1.88l2.01-8.04h-2.43c-.09,0-.13-.03-.13-.1.07-.91.15-1.37.26-1.37h2.71c1.03-4.41,1.63-6.7,1.78-6.85.05-.02.22-.23.49-.65h-2.5l-.1-.05c.07-.95.16-1.42.28-1.42h3.46c.05-.14.72-1.09,2.01-2.87h-5.58l-.13-.05c.09-.95.18-1.42.28-1.42h6.53c0-.14.18-.38.54-.72ZM33.09,21.4c-2.22,8.86-3.33,13.34-3.33,13.45h.05c.83.03,1.51.05,2.04.05h1.01c.27,0,.71.03,1.29.08,2.19-8.88,3.28-13.4,3.28-13.58h-4.34Z"/>
    <path class="st0" d="M62.91,12.53l.13.05c-1.5,6-2.28,9.05-2.35,9.15h-4.05c-.05,0-.08-.03-.08-.08-.03,0-.05.03-.05.08-1.19-.05-2.07-.08-2.66-.08h-1.76l-4.1,15.85c.38,1.69.57,2.64.57,2.84,2.44-.05,4.41-.08,5.89-.08h1.37c.07.02.1.06.1.13-1.26,5.5-1.96,8.52-2.12,9.08l-10.4-.13c-.31-1.07-.86-3.56-1.65-7.47,0-.14.78-3.28,2.35-9.44h-1.57l-.13-.05c.1-.98.2-1.47.28-1.47h1.83c0-.1.23-1.07.7-2.9h-1.86l-.13-.05c.1-.98.2-1.47.28-1.47h2.12l1.83-7.42h-1.47c-.07,0-.1-.04-.1-.13.05-.9.13-1.34.23-1.34h1.76l.7-2.82h-2.53c-.07,0-.1-.04-.1-.13.05-.9.15-1.34.28-1.34h2.66c.07,0,.16-.26.28-.78h13.76Z"/>
    <path class="st0" d="M71.02,12.33h8.29l.13.05-2.19,9.26c-.91-.03-1.59-.05-2.04-.05h-.59l-.72-.05-4.52,18.64h.05c.29,0,1.27.02,2.94.05l.05.1-1.99,9.15c-.84-.03-1.47-.05-1.88-.05h-1.24s-.05-.03-.05-.08c-.05,0-.08.03-.08.08-.91-.05-3.64-.11-8.18-.18l-.05-.13c1.22-5.19,1.93-8.14,2.12-8.84l.13-.05c1.2.04,2.16.05,2.87.05h.08c.07,0,.22-.55.46-1.65h-4.88c-.09,0-.13-.03-.13-.1.07-.91.16-1.37.28-1.37h5.09l1.94-7.96h-5.65v-.05c.05-.98.13-1.47.23-1.47h5.78c.93-3.88,1.39-5.89,1.39-6.03h-.05c-.69-.03-1.26-.05-1.7-.05h-.83c-.29,0-.45-.06-.46-.18l.28-1.16h-1.94c-.09,0-.13-.04-.13-.13.07-.9.17-1.34.31-1.34h2.17l.65-2.79h-2.94c-.07,0-.1-.03-.1-.1.07-.95.16-1.42.28-1.42h3.12c.07,0,.27-.66.59-1.99.03,0,.05-.03.05-.08,1.43-.04,2.45-.05,3.07-.05Z"/>
    <path class="st0" d="M92.67,12.33c.09.02.13.06.13.13.5,12.45.75,18.96.75,19.55.05.07.08.13.08.18h.05c.58-2.53,2.21-9.14,4.88-19.81h4.8l.1.08-9.14,36.85-.13.05h-4.65c-.09,0-.13-.04-.13-.1l-.98-19.45h-.08c-2.75,11.84-4.3,18.4-4.65,19.68h-1.01s-.05-.02-.05-.05c-.05,0-.08.02-.08.05-.33-.03-.58-.05-.75-.05-.65,0-1.72-.03-3.2-.08l-.05-.1,3.67-14.77h-2.71c-.09,0-.13-.04-.13-.13.05-.9.13-1.34.23-1.34h3.02c0-.17.28-1.3.83-3.39h-4.13l-.13-.05c.09-.95.19-1.42.31-1.42h4.29c.95-3.79,1.44-5.74,1.47-5.84h-4.7l-.13-.05c.09-.98.19-1.47.31-1.47h4.83c.07-.02.36-1.09.88-3.21h-2.76l-.13-.05c.1-.95.21-1.42.31-1.42h2.94c.58-2.43.92-3.69,1.01-3.77h4.83Z"/>
    <path class="st0" d="M108.6,12.53h13.66c.5,0,.85.04,1.06.13-1.48,5.95-2.25,8.97-2.3,9.08h-9.42l-4.16,15.9v.05l.59,2.77h3.85c.1,0,.42-1.31.96-3.93.07-.17.21-.74.41-1.71h-.08c-.17,0-.62-.02-1.34-.05,0-.05-.02-.08-.05-.08l2.04-8.02h.13c.88,0,2.91-.03,6.09-.08,0,.05.02.08.05.08-3.39,14.1-5.22,21.64-5.5,22.63h-1.94c-.45,0-1.13.02-2.04.05v-.05l-.13.05c-3.49.05-5.62.08-6.38.08-.69.04-1.1.05-1.24.05-.12-.29-.66-2.76-1.63-7.4l1.16-4.81h-2.92c-.09,0-.13-.03-.13-.1.09-.88.16-1.35.23-1.42l.28.05h2.81c.1,0,.67-2.22,1.7-6.67.03-.03.16-.45.36-1.24h-3.69l-.13-.05c.1-.98.21-1.47.31-1.47h3.79c.09,0,.71-2.46,1.88-7.37h-3.23c-.09,0-.13-.04-.13-.13.07-.9.17-1.34.31-1.34h3.43c0-.09.21-1.01.65-2.77h-4.21c-.07,0-.1-.04-.1-.1.07-.95.16-1.42.28-1.42h4.44c.07-.46.15-.7.23-.7Z"/>
    <path class="st0" d="M146.34,12.43h14.09l.13.05c-1.5,5.53-2.31,8.47-2.43,8.82h-6.97c-.45,0-1.14-.02-2.06-.05l-1.06,4.47h9.22c.07.02.1.06.1.13-3.86,15.24-5.88,23.12-6.07,23.63h-14.1c-.09,0-.13-.04-.13-.13,1.41-6.09,2.16-9.21,2.25-9.39h9.37l1.32-4.91h-9.16l-.1-.05c.83-3.36,1.3-5.35,1.42-5.97h-4.31l-.13-.05c.1-.98.21-1.47.31-1.47h4.54c.19-.83.28-1.28.28-1.37h-2.53l-.13-.05c.09-.98.19-1.47.31-1.47h2.76l1.06-4.5h-3.82c-.09,0-.13-.03-.13-.1.05-.95.15-1.42.28-1.42h4.08c0-.1.21-1.04.65-2.79h-4.83c-.09,0-.13-.03-.13-.1.07-.95.17-1.42.31-1.42h4.96c.07,0,.24-.59.52-1.78l.13-.05Z"/>
    <path class="st0" d="M164.9,12.43h13.79l.1.05c-1.29,5.17-2.06,8.2-2.3,9.08h-9.04l-1.65,5.25h.05c.79,0,3.05-.03,6.79-.1,0,.29-.65,3.02-1.94,8.17-1.65-.09-2.9-.13-3.74-.13v-.05s-.05.02-.05.05l-.28-.05h-.49c-.38,0-.96-.03-1.76-.08l-.77,2.74c0,.16.26,1.18.77,3.08,1.72-.05,3-.08,3.85-.08h1.39c.46,0,1.2-.02,2.19-.05,0,.04.02.05.05.05-1.5,5.84-2.3,8.89-2.4,9.13h-10.22c-.12,0-.5-1.48-1.14-4.45-.19-.59-.42-1.57-.7-2.95l1.11-4.55h-2.06v-.08c.03-.98.11-1.47.23-1.47h2.25c0-.12.65-2.77,1.96-7.94h-2.74c-.07,0-.1-.03-.1-.1.07-.95.16-1.42.28-1.42h2.97c0-.12.61-2.61,1.83-7.47h-2.38l-.1-.05c.1-.95.2-1.42.28-1.42h2.48c.09,0,.34-.95.77-2.84h-3.43v-.05c.05-.95.13-1.42.23-1.42h3.61c.07-.55.16-.83.28-.83Z"/>
    <path class="st0" d="M190.93,12.33c.09.02.13.06.13.13.5,12.45.75,18.96.75,19.55.05.07.08.13.08.18h.05c.58-2.53,2.21-9.14,4.88-19.81h4.8l.1.08-9.14,36.85-.13.05h-4.65c-.09,0-.13-.04-.13-.1l-.98-19.45h-.08c-2.75,11.84-4.3,18.4-4.65,19.68h-1.01s-.05-.02-.05-.05c-.05,0-.08.02-.08.05-.33-.03-.58-.05-.75-.05-.65,0-1.72-.03-3.2-.08l-.05-.1,3.67-14.77h-2.71c-.09,0-.13-.04-.13-.13.05-.9.13-1.34.23-1.34h3.02c0-.17.28-1.3.83-3.39h-4.13l-.13-.05c.09-.95.19-1.42.31-1.42h4.29c.95-3.79,1.44-5.74,1.47-5.84h-4.7l-.13-.05c.09-.98.19-1.47.31-1.47h4.83c.07-.02.36-1.09.88-3.21h-2.76l-.13-.05c.1-.95.21-1.42.31-1.42h2.94c.58-2.43.92-3.69,1.01-3.77h4.83Z"/>
    <path class="st0" d="M210.49,12.43h10.74c.09.02.13.06.13.13-.04.27-3.08,12.57-9.14,36.87l-.13.05h-4.93l-.1-.05c.71-3.46,1.18-5.9,1.42-7.32h-3.8l-1.91,7.32-.1.05h-4.93c-.09,0-.13-.04-.13-.13,1.98-7.71,2.97-11.65,2.97-11.82h-1.65l-.13-.08c.09-.98.19-1.47.31-1.47h1.88l2.01-8.04h-2.43c-.09,0-.13-.03-.13-.1.07-.91.15-1.37.26-1.37h2.71c1.03-4.41,1.63-6.7,1.78-6.85.05-.02.22-.23.49-.65h-2.5l-.1-.05c.07-.95.16-1.42.28-1.42h3.46c.05-.14.72-1.09,2.01-2.87h-5.58l-.13-.05c.09-.95.18-1.42.28-1.42h6.53c0-.14.18-.38.54-.72ZM209.67,21.4c-2.22,8.86-3.33,13.34-3.33,13.45h.05c.83.03,1.51.05,2.04.05h1.01c.28,0,.71.03,1.29.08,2.18-8.88,3.28-13.4,3.28-13.58h-4.34Z"/>
    <path class="st0" d="M239.48,12.53l.13.05c-1.5,6-2.28,9.05-2.35,9.15h-4.05c-.05,0-.08-.03-.08-.08-.03,0-.05.03-.05.08-1.19-.05-2.07-.08-2.66-.08h-1.76l-4.1,15.85c.38,1.69.57,2.64.57,2.84,2.44-.05,4.41-.08,5.89-.08h1.37c.07.02.1.06.1.13-1.26,5.5-1.96,8.52-2.12,9.08l-10.4-.13c-.31-1.07-.86-3.56-1.65-7.47,0-.14.78-3.28,2.35-9.44h-1.58l-.13-.05c.1-.98.2-1.47.28-1.47h1.83c0-.1.23-1.07.7-2.9h-1.86l-.13-.05c.1-.98.2-1.47.28-1.47h2.12l1.83-7.42h-1.47c-.07,0-.1-.04-.1-.13.05-.9.13-1.34.23-1.34h1.76l.7-2.82h-2.53c-.07,0-.1-.04-.1-.13.05-.9.15-1.34.28-1.34h2.66c.07,0,.16-.26.28-.78h13.76Z"/>
  </g>
  <g>
    <path class="st0" d="M366.88,42.28c0-.1.05-.21.23-.29-.15.04-.42-.07-.4.16,0,.11.08.13.16.13Z"/>
    <path class="st0" d="M370,41.39v-.17c-.22-.12-.41-.24-.59-.37.13.23.34.42.59.54Z"/>
    <path class="st0" d="M365.88,44.28c-.08-.16-.05-.33.11-.52,0,0,0,0,0,0-.13-.02-.28-.02-.47-.02-.03,0-.16.02-.29.05-.13.03-.19.11-.18.25,0,.14.02.27.17.33.09.03.38-.01.65-.08Z"/>
    <path class="st0" d="M366.83,40.86c-.06-.35.34-.32.44-.57.05-.12.2.03.3.13.26.3.55.31.87.08.1-.08.19-.13.28-.16-.16-.11-.32-.23-.51-.33-.2-.11-.46-.17.22-.48.02,0,.03-.01.05-.02h-.19c-.1.05-.2.13-.29.25-.15.2-.43.09-.66.07-.37-.04-.76-.18-1.01.26-.01.03-.06.06-.08.05-.44-.09-.84.14-1.25.3v.34s.09.02.13.03c-.05.05-.1.11-.13.16v.28c.09-.01.18-.04.26-.07.44-.12.88-.25,1.35-.16.13.02.25.02.22-.16Z"/>
    <path class="st0" d="M365.26,42.86c.27.06.52-.09.77-.2.34-.15.19-.55.15-.76-.07-.28-.39-.11-.52.02-.19.18-.41.25-.65.28v.65s.02,0,.03,0c.06,0,.13,0,.22,0Z"/>
    <path class="st0" d="M365.44,39.5h-.44v.17c.15-.05.29-.1.44-.17Z"/>
    <path class="st0" d="M356.7,41.24c-.09.34-.24.1-.34.05-.08-.04-.16-.06-.24-.05-.05.24.3.33.39.51.11.21.35.02.42-.13.01-.03.04-.05.07-.07-.02-.08-.08-.15-.12-.22-.04-.07-.16-.16-.18-.07Z"/>
    <path class="st0" d="M356.92,39.85s0-.06,0-.08c-.27-.03-.53-.04-.79.11-.11.07-.42-.02-.33.16.13.26-.18.61.07.81.2-.15.35-.38.4-.66.19-.18.6-.01.64-.35Z"/>
    <path class="st0" d="M355.61,41.69c.08-.05.1-.12.06-.18-.21.12-.44.19-.67.24v.09c.21.02.42-.02.61-.15Z"/>
    <path class="st0" d="M355.58,40.27c-.07-.25-.31-.15-.58-.14v.81s.1-.06.15-.08c.25-.11.51-.29.43-.58Z"/>
    <path class="st0" d="M359.09,43.86c-.01-.22-.21-.23-.36-.26-.39-.06-.77-.14-1.1.19-.21.21-.49.17-.74.09-.46-.15-.58.23-.67.5-.02.05-.02.09-.01.12h.89c.55-.14,1.15-.05,1.69-.31.16-.07.32-.13.31-.33Z"/>
    <path class="st0" d="M355.18,39.87c0-.13-.08-.17-.18-.18v.35c.1-.02.18-.06.18-.17Z"/>
    <path class="st0" d="M360,42.66c-.11.17-.3.2-.58.09-.34-.13-.53-.06-.57.32,0,.08-.04.17.05.22.08.04.17.03.22-.04.14-.2.34-.12.53-.15.11-.02.23.01.35.03v-.47Z"/>
    <path class="st0" d="M359.64,41.14c0,.09.1.15.27.18.03,0,.06.01.09.02v-.26c-.14.04-.26.06-.36.07Z"/>
    <path class="st0" d="M359.89,42.41s.07-.02.11-.04v-.36c-.08.05-.14.13-.18.26-.06,0-.12,0-.18,0-.04-.09-.08-.18-.12-.27,0-.03,0-.05.02-.08-.02,0-.04,0-.06.01-.11.03-.15.13-.11.24.09.24.29.3.52.24Z"/>
    <path class="st0" d="M356.46,42.88c-.01.34.37.31.61.31.26,0,.56-.1.56-.42,0-.22-.25-.27-.5-.22-.21.09-.65-.07-.67.34Z"/>
    <path class="st0" d="M359.09,40.28c-.53-.3-1.1-.49-1.71-.44-.22.02-.35.24-.43.43-.05.13.12.16.23.18.01.18-.11.17-.23.17-.2,0-.36.07-.48.28.3.02.57.05.78.17-.02-.02-.04-.04-.06-.07.25-.07.5-.14.74-.22.13-.04.23,0,.27.13.04.14.09.25.22.3.15.06.34.13.25.35-.07.16-.24.16-.39.12-.21-.06-.38.02-.56.1.07.06.16.12.23.19-.08.08-.18.1-.27.09.57.25,1.08.16,1.35-.23.24-.34.13-.62-.02-.89-.05-.04-.1-.08-.16-.13-.06-.05-.15-.07-.22-.1.14-.04.28-.08.41-.13.2-.08.21-.21.03-.31Z"/>
    <path class="st0" d="M365,48.85c-.81.22-1.62.06-2.55.1.28-.23.5-.1.67-.19.6-.31,1.21-.46,1.88-.43v-.78c-.19-.07-.4-.08-.58.02-.67.36-1.37.44-2.1.36-.19-.02-.36.02-.51.12-.13.08-.26.15-.42.11-.47-.13-.92.05-1.38.13v1.2h5v-.65Z"/>
    <path class="st0" d="M360,47.29v.26c.1-.05.19-.1.3-.15-.11-.04-.21-.08-.3-.11Z"/>
    <path class="st0" d="M361.39,45.02c.6.11,1.11-.14,1.65-.26.19-.04.29-.12.32-.26h-2.59c.07.29.36.47.62.52Z"/>
    <path class="st0" d="M360.62,47.52c.81-.43,1.7-.05,2.53-.26.31-.07.6-.14.84-.36.22-.2.48-.18.74-.14.09.01.18.04.26.03v-.56c-.07-.02-.14-.03-.22-.04-.08,0-.16,0-.31,0-.29-.04-.52.24-.8.34-.57.2-1.13.51-1.8.31-.62-.19-1.16.04-1.38.42-.04.07-.13.13-.05.21.04.04.13.06.18.04Z"/>
    <path class="st0" d="M361.04,39.16c0-.17-.21-.18-.36-.18-.07,0-.13,0-.2,0h0c-.1.01-.2,0-.29.01-.07,0-.14.03-.2.06v.4c.08.03.18,0,.28-.02.14-.03.29-.07.43-.09.14-.02.35,0,.34-.19Z"/>
    <path class="st0" d="M362.76,38.07c-.05-.19-.12-.36-.25-.51-.07.13-.08.27.02.39.06.08.14.11.23.11Z"/>
    <path class="st0" d="M364.77,38.9c-.03-.2-.06-.4-.13-.59-.18-.09-.35-.21-.54-.25-.01.03-.02.06-.03.1-.04.13-.13.17-.27.12-.09-.03-.19-.06-.28-.08-.2.51-.46.67-1.01.64-.28-.02-.55-.08-.82-.15.02.11.04.22-.01.32-.09.17.21.09.33.16.46.26.95.01,1.43.09.31.05.62.1.9.24h.68v-.6c-.05.02-.13.01-.23,0Z"/>
    <path class="st0" d="M360.65,35.86c-.09,0-.18,0-.27.01-.13,0-.26,0-.38-.03v.18c.22,0,.45,0,.65-.16Z"/>
    <path class="st0" d="M360.44,38.92c.13.02.26,0,.28,0,.32-.04.64.14.72-.15.02-.05.02-.1.01-.15-.05-.02-.11-.03-.16-.04-.2-.05-.31-.19-.27-.37,0,0,0,0-.01,0-.14-.06-.28-.14-.24-.32.02-.07.06-.12.1-.14-.21-.07-.42-.05-.63-.05,0,.06,0,.13.02.19.05.21,0,.42-.1.56-.35.44.02.43.28.47Z"/>
    <path class="st0" d="M362.61,35.28c.15-.31.17-.51-.33-.54-.03,0-.07,0-.1-.01-.03.02-.07.04-.1.06.08.23.19.53.53.49Z"/>
    <path class="st0" d="M363.71,34.99s.06-.02.09-.02c.02-.01.04-.02.06-.04.05-.05.07-.1.08-.15-.21-.02-.43-.04-.64-.06.05.03.09.07.13.12.08.09.18.16.29.16Z"/>
    <path class="st0" d="M348.96,43.16c.08,0,.16-.06.18-.15.02-.13-.08-.17-.17-.2-.36-.15-.71.02-1.2,0,.43.36.81.38,1.19.36Z"/>
    <path class="st0" d="M350,39.5h-4.26s0,.01-.01.02c0,.2-.06.34-.31.29.04-.23-.07-.3-.25-.31h-.18v2.98c.26-.07.51-.18.77-.24.2-.04.02-.18.03-.28.18-.18.28-.59.65-.23.08.49.36.6.77.41.25-.11.51-.09.77-.11.08,0,.16.01.24.01.25,0,.5-.12.54-.34.05-.25-.23-.3-.42-.38-.06-.02-.13-.03-.19-.05.39-.33.79-.43,1.32-.36.16.02.34-.01.52-.07v-1.36Z"/>
    <path class="st0" d="M347.37,43.11c-.22.06-.58-.08-.55.18.02.26.29.5.65.48.3-.01.58-.16.54-.45-.06-.37-.43-.12-.63-.22Z"/>
    <path class="st0" d="M345.34,44.09c.06-.08,0-.15-.07-.21-.04-.03-.13-.06-.26-.08v.64c.16-.02.24-.22.34-.35Z"/>
    <path class="st0" d="M349.01,44.33c-.35-.24-.68-.05-1.03-.03-.25.02-.49.12-.73.2h1.61c.07-.04.14-.07.15-.17Z"/>
    <path class="st0" d="M350.34,47.2c.07.1.3.17.36-.09.03-.14.14-.14.22-.15.52-.05,1.03-.39,1.57-.08.08.05.12,0,.17-.04.43-.34.94-.31,1.44-.41.3-.06.6-.12.9-.21v-.67c-.14-.02-.27,0-.37.11-.2.22-.32.18-.54.08-.35-.15-.7-.2-1.06.08-.3.24-.66.27-1.01.04-.12-.08-.23-.14-.19-.31.04-.15.13-.22.29-.2.08.01.17.03.24,0,.17-.06.45-.07.41-.33-.04-.24-.27-.21-.48-.21-.67-.02-1.33.23-2,.04-.11-.03-.22-.02-.3.05v2.06c.11,0,.21.06.34.23Z"/>
    <path class="st0" d="M354.44,48.52c-.08.1-.21.04-.32.02-.11-.02-.23-.09-.33-.07-.28.05-.66-.09-.8.22-.12.25-.25.26-.45.26-.64,0-1.28,0-1.92.02-.42.02-.38-.2-.27-.47.07-.16.2-.26.36-.31,0,.42.15.62.6.55.22-.03.45.04.68.05.12,0,.3.05.31-.14.01-.15-.13-.21-.26-.25-.34-.09-.71-.07-1.03-.26-.35-.29-.69-.34-1-.16v1.52h5v-1.47c-.21.09-.44.08-.68.13.05.13.22.23.11.36Z"/>
    <path class="st0" d="M351.97,47.95c.35-.14.86-.01,1.28.13.2.07.41.14.47-.15.09-.42.42-.41.69-.38.21.02.4-.03.58-.09v-.46c-.1.03-.28-.02-.4-.01-.39,0-.82-.21-1.12.25-.02.03-.1.06-.13.05-.76-.27-1.45.27-2.24.19.19.39.27.71.85.48Z"/>
    <path class="st0" d="M353.55,44.98c.16.03.32.06.48.06.13,0,.34.07.35-.15,0-.19-.19-.19-.33-.21-.08-.01-.16,0-.24,0-.08,0-.16,0-.24,0-.08,0-.18,0-.19.11-.02.13.09.17.18.18Z"/>
    <path class="st0" d="M351.27,36.91c.14.08.3.03.45,0,0-.03-.03-.05-.09-.06-.41-.09-.79-.3-1.21-.3-.15,0-.31,0-.42.09v.97s.03.03.05.04c.13.12.28.14.45.05.11-.05.26-.3.34.05.02.08.14,0,.18-.08.08-.14.21-.28.05-.44-.09-.09-.26-.15-.18-.31.1-.19.28-.06.39,0Z"/>
    <path class="st0" d="M354.19,37.93s.03,0,.04.01c-.07-.04-.15-.1-.22-.16.06-.02.13-.02.19-.05.12-.04.26-.08.35-.15-.35-.11-.78-.06-.88-.54-.2,0-.4,0-.6-.1-.42-.19-.7-.08-.77.4-.26.25-.39.11-.5-.05,0,0,0,0,0,0-.13.66-.61.75-1.18.79.11.22.27.28.48.29.12,0,.24,0,.23.18-.11.02-.28.05-.23.18.07.19.21.42.43.44.61.05,1.18-.15,1.71-.45.18-.1.17-.24-.03-.32-.13-.05-.28-.09-.42-.13.07-.03.16-.05.22-.1.4-.36.6-.41,1.19-.25Z"/>
    <path class="st0" d="M353.23,36.01c.19-.09.57.15.63-.21.05-.28-.24-.42-.54-.43-.35-.01-.62.21-.65.47-.02.25.34.11.55.17Z"/>
    <path class="st0" d="M351.06,39.18c-.04-.35-.46-.18-.64-.36-.05-.29-.21-.53-.42-.68v1.37h.82c.14-.05.27-.12.24-.32Z"/>
    <path class="st0" d="M354.82,36.3c.09-.04.2-.08.17-.2-.02-.09-.1-.14-.18-.14-.39-.02-.76,0-1.19.35.48-.03.83.14,1.2,0Z"/>
    <path class="st0" d="M354.87,34.81c-.02-.17-.24-.13-.26-.31h-.91c-.15.08-.31.14-.48.19.2.07.41.14.62.15.35.03.69.21,1.03-.03Z"/>
    <path class="st0" d="M351.2,35.05c-.11-.16-.21-.4-.43-.33-.26.08-.52.09-.76.06v.63c.47-.01,1.02-.07,1.12-.15.07-.06.13-.12.07-.2Z"/>
    <path class="st0" d="M339.98,44.48s0,.02,0,.02h.02v-.04s-.02.01-.02.02Z"/>
    <path class="st0" d="M338.91,43.85c.06-.13.18-.13.3-.11.27.05.53.13.79.14v-2.69c-.19-.09-.43-.11-.89-.25-.11-.03-.24-.03-.28-.16-.06-.19.09-.25.22-.33.16,0,.33.03.48,0,.16-.03.24-.17.23-.33-.01-.2-.16-.17-.29-.13-.19.06-.34-.09-.51-.1-.41-.03-.89-.33-1.2.22q-.6-.03-.81.22c.14.13.37-.17.41.01.07.32.09.67.06,1-.02.19-.1.41-.35.56-.08-.33-.17-.64-.46-.85-.09-.07-.07-.22-.01-.32.19-.32.21-.58-.37-.74.37-.08.57-.13.73-.3.07-.07.14-.14.18-.2h-2.14v5h4.31c.05-.28-.27-.43-.4-.65Z"/>
    <path class="st0" d="M340.96,46.79c.57-.15,1.15-.26,1.7-.45.44-.16.88-.12,1.32-.17.36-.05.69-.22,1.02-.34v-1.08c-.12.03-.22.11-.27.28-.11.33-.32.31-.53.28-.52-.07-1.03-.16-1.51.18-.13.09-.35.06-.53.08-.22.03-.43-.07-.45-.28-.03-.23.19-.36.39-.38.51-.04.99-.26,1.49-.41h-3.57v.04c.13.24.47.03.58.31-.2.1-.4.1-.58.07v2.63c.05-.06.1-.14.15-.23.14-.29.49-.44.81-.53Z"/>
    <path class="st0" d="M342.98,46.96c-.17-.04-.33-.03-.38.19-.06.24-.23.24-.43.21-.18-.04-.37-.08-.69.04.14.06.18.07.23.1.12.05.27.1.22.28-.05.16-.2.06-.3.06-.21-.01-.43-.08-.63-.06-.29.03-.65-.11-.84.12-.05.06-.09.1-.14.15v1.47h5v-3.01c-.61.51-1.25.66-2.02.46Z"/>
    <path class="st0" d="M340.26,39.5h1.32c-.03-.06-.09-.11-.16-.13-.48-.12-.81-.35-.64-1.01-.17.43-.46.28-.78.3v.16c.32.14.36.38.26.68Z"/>
    <path class="st0" d="M344.63,35.25c.04.27.1.49.37.62v-.47c-.09,0-.18,0-.23-.11.06-.09.15-.17.23-.26v-.53h-1.29c.11.1.24.18.39.19.39.03.49.27.54.56Z"/>
    <path class="st0" d="M344.98,38.17c-.45-.03-.9-.09-1.34-.21-.2-.05-.37.05-.42.25-.04.18-.21.37.09.54.19.11.1.54-.12.75h1.81v-1.33s-.01,0-.02,0Z"/>
    <path class="st0" d="M341.52,37.35c.35.42,1.4.41,1.84-.04-.56-.15-1.06-.29-1.56-.42-.22-.06-.47-.04-.57.16-.11.22.2.18.29.29Z"/>
    <path class="st0" d="M341.06,36.42c.06-.1.11-.2.14-.31.08-.24.13-.52.43-.52.27,0,.53.19.6.44.15.54.43.33.71.18.39-.2.63-.1.67.34.02.22.12.27.28.38.41.28.65.06.89-.27.1.24-.06.36-.11.51-.05.16-.07.36.12.34.07,0,.14,0,.21,0v-1.4c-.35.12-1.05-.18-1.19-.52-.09-.2-.17-.43-.44-.36-.3.08-.46-.09-.64-.25.21-.06.42-.01.62.04.09.02.21.02.23-.11.02-.12-.08-.19-.18-.19-.18,0-.34-.01-.39-.23h-3.01v1.53c.14.15.26.32.39.48.31.36.43.34.67-.09Z"/>
    <rect class="st0" x="325" y="39.5" width="5" height="5"/>
    <rect class="st0" x="330" y="44.5" width="5" height="5"/>
    <path class="st0" d="M334.68,38.07c-.06.13-.04.27.08.35.08.05.16.09.24.13v-.49s-.03,0-.04-.01c-.11-.03-.21-.12-.29.03Z"/>
    <path class="st0" d="M333.28,34.5h-1.29s.02.01.03.02c.38.14.78.22,1.18.3.1.02.07-.1.04-.18-.03-.08,0-.11.04-.13Z"/>
    <path class="st0" d="M334.21,34.5h-.6c.21.05.41.08.6,0Z"/>
    <path class="st0" d="M335,39.5v-.61c-.73-.55-1.28-1.28-1.97-1.87q.57-.71,1.1-.61c-.02.13-.31.24-.03.39.1.05.27.05.23.19-.04.16-.21.12-.33.08-.12-.04-.24-.07-.29.08-.06.17.03.3.17.37.3.14.53-.03.64-.27.1-.22.28-.33.47-.44v-.93s-.06,0-.09-.01c.03-.07.06-.14.09-.21v-.95c-.11,0-.22.05-.33.07-.25.05-.16.14-.04.26.04.04-.04.11-.1.14-.28.14-.79-.02-.93-.29-.14.23-.13.45.03.64.12.14.11.26.06.4-.35-.1-.34-.85-.93-.5-.19-.51-.78-.28-1.11-.6-.15-.15-.63-.42-.8.15-.2-.06-.22-.21-.21-.38,0-.03,0-.06,0-.08h-.65v5h5Z"/>
    <rect class="st0" x="315" y="39.5" width="5" height="5"/>
    <rect class="st0" x="320" y="44.5" width="5" height="5"/>
    <rect class="st0" x="320" y="34.5" width="5" height="5"/>
    <rect class="st0" x="310" y="44.5" width="5" height="5"/>
    <path class="st0" d="M331.34,19.5h.17c-.38-.21-.75-.46-1.12-.69-.09-.05-.23-.1-.4-.14v.5c.17.05.35.06.54.07.3.02.59.03.8.25Z"/>
    <path class="st0" d="M331.16,18.24c.17-.12.38-.09.57-.09.42,0,.85.02,1.27,0,.15,0,.4.03.44-.13.05-.23-.22-.17-.35-.23-.09-.04-.17-.09-.26-.13-.64-.28-1.42-.1-1.76.4-.32.47-.56.49-.96.07-.03-.03-.06-.06-.09-.08v.33c.3.06.61.12.91.18,0-.14.14-.24.25-.31Z"/>
    <path class="st0" d="M325,18.42c-.07-.15-.18-.27-.38-.22-.12.03-.22.09-.24.21-.04.23.13.34.29.4.12.04.23.11.34.18v-.58Z"/>
    <path class="st0" d="M323.1,18.01c.12.17.23.2.39.06-.12-.14-.23-.15-.39-.06Z"/>
    <path class="st0" d="M323.84,18.13c.05.02.11.02.24.05-.08-.08-.11-.11-.14-.13-.04-.02-.1-.03-.13-.02-.05.04,0,.08.03.1Z"/>
    <path class="st0" d="M323.89,17.51c.05.15.23.19.38.17.17-.03.34-.06.51-.07-.35-.13-.69-.3-1-.54-.02-.28.26-.41.31-.65.12-.06.27-.12.37-.04.41.36.39-.01.45-.25.02-.09.06-.18.08-.28,0,0,0,0,0,0v-.28c-.11.05-.23.09-.33.17-.26.1-.56.29-.61-.21.34-.17.73-.27.93-.64-.14-.1-.48-.06-.38-.29.02-.04.03-.08.04-.1h-1c-.1.13-.01.37.2.84.02.04.03.09.04.14-.45-.09-.91-.39-1.31.11-.21.19-.45.13-.69.12-.3,0-.39.12-.21.39.05.08.11.16.16.24-.37-.05-.74-.09-1.09-.21.27-.31.63-.57.39-1.08-.18-.38-.59-.57-1.12-.5v.41c.11.06.22.1.36.09.15-.01.32.02.36.19.04.22-.15.26-.31.29-.15.03-.21.13-.28.25-.03.06-.07.1-.13.11v1.18c.12.08.22.17.32.29-.12.04-.22.04-.32.01v.6c.11,0,.21.03.2.13-.02.14,0,.23.05.29.08,0,.15.03.2.07.49.37,1.29.18,1.57.91.02.06.1.11.2.15h1.17c.03-.2-.2-.6-.42-.65-.24-.05-.48-.07-.72-.11-.16-.03-.28-.1-.3-.28-.02-.17.09-.26.23-.26.39.01.24-.52.58-.54-.01-.02-.02-.05-.04-.07-.15-.15-.51-.13-.44-.42.07-.28.37-.13.56-.13.41,0,.87-.05,1.06.48Z"/>
    <path class="st0" d="M321.57,15.04c.21.1.43.16.63-.01.05-.04.05-.15.08-.22.19,0,.39.02.58.01.13,0,.34.09.38-.1.02-.13-.04-.19-.13-.22h-.87c.02.08.03.17.03.29-.07-.04-.13-.09-.21-.13-.22-.1-.41-.08-.55.13-.06.09-.04.2.06.25Z"/>
    <path class="st0" d="M320.52,19.18s-.01-.01-.02-.02c-.17-.03-.33-.05-.5-.07v.41h.72c-.02-.08-.08-.18-.2-.32Z"/>
    <path class="st0" d="M315,17.8c-.08-.03-.15-.07-.22-.12.06.09.13.15.22.19v-.07Z"/>
    <path class="st0" d="M314.41,18.37c-.39-.31-.83-.38-1.25-.48,0,.03,0,.06,0,.1,0,.12.16.24.24.35-.28.18-.51-.13-.78-.09.48.35,1.18.42,1.78.12Z"/>
    <path class="st0" d="M315,18.5s-.03.04-.05.06c-.06.08-.05.14,0,.19,0-.03-.01-.06-.02-.08.02-.06.05-.11.07-.15h0Z"/>
    <path class="st0" d="M314.18,19.46c.14.04.3,0,.46-.04.17-.05.34-.14.26-.33-.08-.2-.19-.43-.49-.37-.19.04-.38.1-.57.14-.3.05-.24.2-.11.38.1.14.26.19.45.23Z"/>
    <path class="st0" d="M310.78,16.05c.42.01.23-.35.3-.55.07-.2-.12-.19-.2-.15-.31.13-.6.07-.88-.02v.25c.14.02.29.02.44,0,.14-.01.3.04.33.21.02.12-.09.15-.19.17-.17-.13-.37-.22-.59-.21h0v.16s.07.01.11.02c.23.03.45.1.68.11Z"/>
    <path class="st0" d="M311.96,17.36c-.15-.11-.31-.13-.46-.04-.14.09-.29.14-.44.17.13.08.31.11.47.13.18.03.45.19.51-.16,0,0,0,0,0,0-.03-.04-.06-.08-.09-.1Z"/>
    <path class="st0" d="M310.53,18.74c.59,0,1.18-.01,1.77-.02-.55-.52-1.2-.29-1.79-.37-.11-.02-.23.08-.23.21,0,.14.14.18.25.18Z"/>
    <path class="st0" d="M312.76,16.11c-.27.03-.54.11-.82.04-.12-.03-.34,0-.34.18,0,.17.21.16.32.13.03,0,.05,0,.07,0,.04-.06.07-.12.09-.18.2-.13.54.08.67-.17Z"/>
    <path class="st0" d="M314.83,16.9c-.46-.4-.98-.69-1.6-.76-.22-.02-.39.17-.5.34-.08.12.09.18.19.22-.02.18-.14.15-.26.13-.08-.01-.15-.02-.23,0,.02.02.04.04.06.05.41.17.77.51,1.27.47.22-.02.45.05.68.08.02,0,.05,0,.08.01-.01-.01-.02-.03-.03-.04-.05-.06-.13-.09-.2-.14.14-.02.29-.02.43-.05.21-.04.25-.16.09-.3Z"/>
    <path class="st0" d="M311.86,15.39c.31.16.6.04.79-.3.06-.1.12-.09.19-.08.13.02.26.03.38.08.11.05.3.04.43.07-.09-.15-.3-.15-.47-.15-.23,0-.33-.13-.5-.29-.08-.08-.17-.16-.26-.23h-2.42v.15c.16.05.32.11.49.16.5.15.93.35,1.38.59Z"/>
    <path class="st0" d="M312.43,17.93c.1-.06.12-.14.11-.22-.03-.01-.06-.03-.09-.04-.07-.03-.16.02-.18.12-.02.08.01.14.06.19.03-.02.07-.03.1-.05Z"/>
    <path class="st0" d="M310.55,19.4c-.07-.07-.17-.1-.25-.15-.1-.06-.2-.1-.3-.14v.39h.64s-.06-.07-.09-.1Z"/>
    <rect class="st0" x="310" y="34.5" width="5" height="5"/>
    <path class="st0" d="M315,24.8c-.25-.16-.48-.41-.85-.23-.1.05-.21.01-.3-.06h-1.56c.08.02.16.03.25.05.08.01.17.03.2.11.04.11-.04.18-.12.25-.12.11-.26.11-.41.08-.22-.05-.37.03-.34.28.05.51-.19.37-.45.22-.39-.22-.67-.51-.67-.98h-.43c-.1.02-.2.03-.31.04v1.76c.16-.22.48-.32.55-.6.2.1.52.02.55.37-.29.16-.46.48-.8.55-.01.05,0,.11-.04.14-.09.09-.17.19-.26.29v2.46h5v-4.7Z"/>
    <path class="st0" d="M352.94,27.72s.08-.04.11-.06c-.29-.03-.58-.05-.9-.06.18.23.49.29.79.12Z"/>
    <path class="st0" d="M354.7,26.69c.08.05.18.1.3.13v-.14c-.1-.05-.22-.13-.3,0Z"/>
    <path class="st0" d="M352.55,26.37c.11-.03.2.04.19.16,0,.08-.01.15-.02.23.13-.05.23-.11.32-.17-.21-.09-.3-.19-.14-.48.16-.3-.04-.52-.4-.48-.17.02-.35.04-.45-.1-.35-.54-.98-.43-1.46-.65-.18-.08-.39-.11-.59-.15v1.49c.15.05.3.09.46.14.19.06.47.05.6.24.27-.34.56-.33.87-.24,0-.03,0-.06,0-.1.21.03.39.16.62.1Z"/>
    <path class="st0" d="M353.92,28.97c0,.06.05.14.14.25.08.1.13.2.14.28h.27s.03-.05.05-.07c.06-.08.15-.12.22-.19.03-.03.08-.05.13-.07,0,0-.01-.01-.02-.02-.29-.23-.61-.22-.93-.18Z"/>
    <path class="st0" d="M356.05,29.8c.05.07.11.12.19.16.02-.16-.07-.27-.23-.37-.07-.04-.13-.07-.19-.1h-.12c-.03.15.26.18.34.3Z"/>
    <path class="st0" d="M359.66,30.27s.06-.08.05-.12c-.27-.01-.49-.15-.65-.44-.04-.08-.1-.15-.16-.21h-.56c-.06.34.23.74.68.82.17-.1.46.06.63-.05Z"/>
    <path class="st0" d="M359.5,32.06s-.02.06-.02.08c.15.13.33.14.52.13v-.36c-.18,0-.39-.04-.5.15Z"/>
    <path class="st0" d="M359.13,31.97c-.13-.2-.26-.39-.6-.2.1.04.19.09.27.16.04.04.09.07.14.08.06,0,.13-.02.19-.04Z"/>
    <path class="st0" d="M355.23,32.55c.08-.21-.08-.24-.23-.27v.54c.11-.05.19-.15.23-.26Z"/>
    <path class="st0" d="M356.73,32.9c.02-.17-.22-.33-.46-.34-.08,0-.16.01-.24,0-.15-.04-.3-.08-.39.07-.13.21.13.25.2.38-.09.06-.18.05-.28.05-.12,0-.3-.19-.36.04-.04.15.1.27.26.3.24.04.27.2.24.39-.23-.07-.48-.06-.68-.19h0c.22.25.59.24.75.52.1.18.25.22.41.18.07-.02.15-.03.22-.05-.18-.14-.34-.3-.52-.44.08-.17.21-.28.4-.29.09,0,.21,0,.21-.14,0-.09-.1-.12-.16-.16-.1-.05-.19-.12-.28-.18.08-.01.16-.03.24-.03.17-.01.44.17.47-.11Z"/>
    <path class="st0" d="M359.29,31.75c.04-.12.05-.24-.02-.35-.04.12-.03.24.02.35Z"/>
    <path class="st0" d="M358.15,34.09c-.45-.11-.84-.19-1.21-.3-.12-.04-.23-.07-.29.06-.08.16.06.24.17.3.06.03.13.06.19.09.21.02.41.04.62.07.16-.03.34-.1.52-.21Z"/>
    <path class="st0" d="M357.83,31.37c.16.23.42.28.66.37-.13-.29-.4-.32-.66-.37Z"/>
    <path class="st0" d="M357.89,30.85c.11-.03.23-.08.25-.18-.14.02-.23.1-.3.19.01,0,.03,0,.04-.01Z"/>
    <path class="st0" d="M345,28.86s-.06-.02-.09-.03c-.13-.07-.28-.08-.42-.13-.43-.15-.97-.13-1.27-.46-.35-.38-.81-.37-1.21-.54-.13-.06-.52-.08-.57.21-.06.33.21.26.43.25.27,0,.17.17.08.29-.28.39-.02.53.29.61.23.06.49.06.7.2-.05.18-.23.15-.35.22h1.89s.1-.06.16-.08c.05,0,.1,0,.15-.02.06-.01.13,0,.2,0v-.53Z"/>
    <path class="st0" d="M343.7,27.52c.15.05.32.08.46-.03.12-.09.19-.25,0-.28-.31-.04-.43-.27-.58-.47-.21-.27-.5-.34-.8-.43-.15-.04-.3-.01-.39.13-.1.16.08.22.12.32.21.56.69.66,1.19.76Z"/>
    <path class="st0" d="M340.71,25.98c.23.08.56.11.67-.1.11-.22-.11-.5-.31-.6-.35-.18-.7-.35-1.07-.48v.42s0,0,0,0c.08.02.2.07.16.14-.32.65.26.52.54.62Z"/>
    <path class="st0" d="M341.57,27.55c-.55-.35-.85-.8-1.33-1.07-.09-.05-.17-.09-.24-.11v.99c.47.2.95.32,1.57.19Z"/>
    <path class="st0" d="M346.15,30.86c-.25-.01-.45-.05-.55-.32-.03-.08-.07-.16-.17-.15-.13.02-.13.14-.13.23,0,.11.01.22.04.33.24.02.44.15.65.39.1.11.24.13.39.13-.04-.02-.07-.04-.11-.06-.09-.06-.02-.14.04-.2.25-.27.04-.35-.17-.36Z"/>
    <path class="st0" d="M345.06,34.43c.45-.04.89-.35,1.38-.11-.08.19-.28.15-.43.19h2.95c-.33-.11-.67-.22-1.02-.25-.2-.01-.42-.14-.39-.37.03-.21.23-.3.45-.28.18.02.4-.01.53.08.47.32.96.24,1.46.18v-.81c-.05-.01-.11-.02-.16-.03-.04,0-.08,0-.12-.01.03.09.08.19.14.31-.1.16-.23.13-.32.03-.18-.19-.38-.17-.68,0,.09-.17.13-.3.13-.4-.16-.02-.31-.05-.46-.1-.55-.19-1.13-.29-1.7-.44-.1-.03-.2-.06-.3-.1-.02.21.04.52-.3.52-.28,0-.6,0-.84-.13-.21-.11-.3-.03-.37.09v.81s.03.1,0,.16v.74h.11s-.03-.05-.05-.07Z"/>
    <path class="st0" d="M347.56,31.74s-.09.04-.23.09c.22.08.38.08.52.06,0-.05-.03-.1-.09-.16-.02-.02-.05-.04-.07-.06-.04.03-.09.04-.14.07Z"/>
    <path class="st0" d="M345.57,31.57c.05.15.18.14.31.13-.11-.13-.23-.22-.37-.27.02.05.04.09.05.14Z"/>
    <path class="st0" d="M349.59,31.46c-.3-.1-.73-.07-.51-.61.04-.11-.12-.18-.24-.2-.37-.07-.46-.31-.42-.65.1-.03.24.06.31-.07.06-.12-.05-.2-.12-.29-.04-.05-.09-.1-.14-.14h-2.9c-.06.13-.11.27.08.37.62.34,1.28.61,1.87,1,.32.22.7.23.99.41.37.23.75.51,1.07.81.06.05.11.09.16.11.06,0,.11.02.17.03.03,0,.06,0,.09-.02v-.61s-.03,0-.04-.01c-.12-.04-.25-.08-.37-.12Z"/>
    <path class="st0" d="M330.09,29.48c-.02-.07-.05-.13-.09-.18v.2h.1s0-.02,0-.02Z"/>
    <path class="st0" d="M330.51,29.01c-.03.15.03.32.19.35.21.04.2-.16.25-.29,0-.13.1-.32-.12-.36-.19-.03-.29.13-.32.3Z"/>
    <path class="st0" d="M330.64,26.41c-.11.03-.23.08-.21.22.02.2.2.23.36.26.17.03.33.13.52.06.02-.17-.06-.32-.14-.45-.13-.2-.33-.15-.52-.1Z"/>
    <path class="st0" d="M332.2,29.06c-.09.09-.12.26-.13.44h1.33c-.19-.11-.4-.16-.62-.23-.2-.07-.41-.37-.58-.2Z"/>
    <path class="st0" d="M331.85,27.56c-.46-.2-.64-.06-.63.28-.03.32-.26.55,0,.69.16.08.39.09.55-.07.09-.09.1-.25.2-.32.4-.3.23-.43-.12-.58Z"/>
    <path class="st0" d="M334.84,29.45c-.23-.04-.16-.19-.08-.33.08-.14-.02-.2-.13-.26-.23-.12-.44-.1-.64.06-.19.15-.24.36-.2.59h1.2c-.05-.03-.11-.04-.16-.05Z"/>
    <path class="st0" d="M332.03,24.5h-1.23c.43.25.82.2,1.23,0Z"/>
    <path class="st0" d="M332.99,28.52c-.16-.07-.38,0-.39.16-.02.24.23.21.4.26.18.01.46.13.48-.12.02-.23-.31-.22-.49-.3Z"/>
    <path class="st0" d="M330.14,26.19c-.05,0-.1,0-.14.02v.43c.13,0,.22-.06.24-.21,0-.1.02-.23-.1-.24Z"/>
    <path class="st0" d="M330.93,25.91c-.05.11.04.18.12.24.5.43,1.2.56,1.62,1.11.09.12.28.07.42.02.31-.12.47-.02.61.28.12.27.23.63.68.52.32-.07.58.02.62.48,0,0,0,0,0,0v-1.21s0-.04,0-.06v-1.51s-.07-.02-.1-.03c-.18,0-.31-.11-.4-.24-.15-.22-.34-.34-.62-.29-.13.02-.25-.04-.35-.15.03-.21.01-.4-.06-.57h-1.42c-.2.24-.15.4.17.48.14.03.27.08.41.12-.1.17-.33.24-.26.52.07.29-.15.37-.4.34-.24-.04-.48-.12-.71-.17-.14-.03-.27-.01-.33.13Z"/>
    <path class="st0" d="M330.02,25.78c.26.11.59-.24.85-.47.04-.04.13.03.16-.06-.1-.13-.25-.14-.39-.16-.19-.03-.45,0-.42-.29.01-.14.08-.24.17-.3h-.39v1.27s.02,0,.02.01Z"/>
    <path class="st0" d="M330,28.57v.19s.09-.03.13-.08c-.04-.06-.09-.09-.13-.12Z"/>
    <path class="st0" d="M331.39,29.23c-.11-.01-.16.05-.16.14,0,.04,0,.08,0,.13h.32c-.01-.11-.06-.2-.16-.27Z"/>
    <path class="st0" d="M337.1,31.84c.17.03.33.05.43-.13.07-.14.17-.3.04-.45-.12-.14-.28-.16-.45-.09-.4.17-.49-.09-.53-.39-.01-.1.07-.22-.06-.3-.37.48-.04,1.25.57,1.36Z"/>
    <path class="st0" d="M335.51,30.88c.26.03.52-.11.57-.36.05-.26-.27-.21-.42-.31-.16-.1-.34-.05-.52-.03-.02.14-.07.27-.14.41v.32c.2-.04.35-.05.51-.03Z"/>
    <path class="st0" d="M336.12,34.06c.16,0,.24-.09.26-.23.03-.2-.14-.13-.23-.15-.38-.06-.77-.1-1.15-.07v.38s.09,0,.14,0c.32.03.65.04.97.06Z"/>
    <path class="st0" d="M339.12,30.64c.08-.12,0-.19-.09-.23-.27-.15-.58-.35-.87-.3-.52.09-.41-.22-.34-.46.02-.06.03-.11.03-.16h-1.35c-.03.05-.05.11-.07.17-.08.28.19.23.33.3.1.05.19.13.26.22.14.2.37.29.53.43.4.35.93.38,1.35.66.35.23.75.36,1.1.59v-.75c-.19-.05-.39-.09-.59-.09-.2,0-.53,0-.29-.38Z"/>
    <path class="st0" d="M338.4,32.13c-.1,0-.2-.02-.26.08-.04.06-.02.15.04.17.25.07.42.31.72.28.62-.05.62-.05.5.53-.02.08-.01.16-.02.24-.59-.64-1.48-.76-2.17-1.22-.12-.08-.27-.07-.3.11-.03.23-.23.4-.2.64-.2.52.05,1.06.52,1.11.06.13-.03.39.22.36.22-.03.08-.24.09-.37,0-.05,0-.1,0-.15,0-.28.13-.49.43-.49.27,0,.59-.05.61.37.01.21.17.31.33.39.17.09.32.19.45.32h.65v-2.05c-.51-.19-1.04-.34-1.6-.32Z"/>
    <path class="st0" d="M335.57,34.24c-.2.02-.29.11-.23.26h1.32c-.32-.21-.68-.29-1.09-.26Z"/>
    <path class="st0" d="M335.14,30.17c.16-.23.48-.27.62-.52.03-.05.06-.1.09-.16h-.65s-.1,0-.15,0h-.07v.64s.09.02.14.04Z"/>
    <path class="st0" d="M335.96,33.19c.16.02.44-.02.36-.18-.15-.33-.18-.8-.69-.87-.16-.02-.26-.02-.24.18-.06.39.23.84.57.88Z"/>
    <path class="st0" d="M338.4,21.23c.12.11.22.25.26.43.02.08.18.14.28.17.35.12.7.22,1.06.3v-.72c-.09-.04-.17-.09-.26-.15-.5-.37-1.05-.71-1.78-.41.1.02.2.04.31.06.08.01.17.03.2.11.03.09-.02.16-.08.21Z"/>
    <path class="st0" d="M339.1,23.48c.32-.07.59.14.89.22,0,0,0,0,.01,0v-.51s-.07-.05-.1-.09c-.5-.64-1.18-.36-1.91-.53.18.25.31.35.34.48.11.44.37.51.77.43Z"/>
    <path class="st0" d="M320.03,27.75s-.02-.03-.03-.04v.59c.16-.14.25-.28.03-.55Z"/>
    <path class="st0" d="M321.34,27.25c.49.04.3.5.47.67.42,0,.07-.89.73-.51-.2-.58-.75-.73-1.16-1.02-.13-.09-.55-.33-.66.19-.05.21-.32.22-.5.24-.08.01-.15.03-.21.05v.38c.09-.09.24-.15.43-.16.31-.01.61.14.91.17Z"/>
    <path class="st0" d="M325,28.58c-.05-.02-.1-.03-.15-.06-.43-.2-.99-.07-1.33-.51-.16-.2-1-.46-1.02-.33-.07.33-.52.55-.29.95.05.33.54.27.57.62-.34,0-.68-.35-1.03-.01-.34-.17-.69-.25-1.06-.27-.29-.02-.55.02-.69.24v.28h5v-.92Z"/>
    <path class="st0" d="M323.38,25.89c.01.91.02.89.88,1.2.25.09.57.06.75.3v-.8c-.39-.15-.68-.65-1.23-.47-.09.03-.17-.13-.22-.24.31-.02.63-.03.89-.24.1-.08.29-.05.3-.21,0-.2-.19-.18-.32-.23-.16-.06-.38-.14-.2-.32.2-.2.51-.21.78-.34v-.04h-5v.97c.12-.25.18-.57.12-.74.34-.09.56-.04.47.38-.03.17.04.23.2.26.21.04.41.1.61.14.52.1.58.05.6-.48.39-.02.77.27,1.21-.05-.08.38-.4.76.16.9Z"/>
    <path class="st0" d="M330,31.59c-.38-.24-.75-.47-1.19-.58-.09-.02-.2-.09-.27.01-.07.11.04.18.1.24.2.19.42.36.38.69,0,.07.06.17.15.16.29-.03.56.03.83.11v-.64Z"/>
    <path class="st0" d="M329.62,30.12c.15,0,.27.05.38.14v-.75h-.55c-.08.12-.12.27-.13.43-.02.24.15.2.3.19Z"/>
    <path class="st0" d="M330,34.3c-.51-.06-.98-.4-1.21-.88.1-.18.28-.17.44-.19.03-.16.03-.31-.13-.44-.42-.32-.88-.17-1.33-.13-.29-.28-.66-.28-1.02-.3-.19-.01-.44-.1-.56.15-.13.27.09.41.25.56-.39.24-.54-.22-.85-.23.08-.14.16-.23.19-.33.04-.17.35-.27.23-.43-.12-.17-.37-.03-.55.02-.16.04-.31.06-.46.06v2.34h5v-.2Z"/>
    <path class="st0" d="M325.31,30.26c.32-.42.68-.33,1.07-.19.16.04.29.12.31.31-.34.14-.51.37-.36.73.14.34.52.47.87.26.24-.14.32-.1.34.15.05.52.5.5.83.58.23.05.32-.14.22-.35-.23-.46-.45-.94-1.01-1.1,0-.18-.06-.32-.24-.38-.25-.09-.36-.19-.19-.5.05-.09.07-.18.05-.25h-2.21v.91c.13,0,.24-.07.31-.15Z"/>
    <path class="st0" d="M329.16,30.65c.25.08.5.14.7.32.05.04.09.09.14.12v-.64c-.23.2-.46,0-.7-.11-.11-.05-.25-.17-.34-.01-.1.18.07.28.2.32Z"/>
    <path class="st0" d="M325.95,19.5h-.25c.06.03.13.05.2.07.02-.02.03-.04.05-.07Z"/>
    <path class="st0" d="M327.79,19.55s-.02-.03-.03-.05h-1.53s.01.04.03.07c.03,0,.07.04.1.07.02,0,.04.02.07.03.01.02.01.05,0,.07.17.21.39.32.63.38.26-.08.49-.23.54-.41,0,0-.08-.04-.12-.06.08-.12.19-.12.31-.1Z"/>
    <path class="st0" d="M328.18,20.77c.3-.02.35-.31.51-.51-.02-.19-.18-.25-.33-.3-.11-.04-.28-.06-.38-.1-.15.04-.26.13-.22.37.08,0,.15.04.15.15,0,.21-.03.42.27.4Z"/>
    <path class="st0" d="M328.98,22.19c.17-.07.5.05.51-.15.01-.25-.29-.3-.52-.33-.32-.04-.65-.04-.78-.44-.02-.07-.08-.11-.14-.13,0,.02,0,.05,0,.07-.11,0-.23,0-.34,0-.19.08-.35.21-.42.41-.1.28.26.28.36.44-.02.05-.05.1-.07.15-.39.09-.71.04-1.09-.2-.3-.19-.76-.38-1.19-.16-.1.04-.19.07-.28.1v.56s.07.03.1.05c.08.05.28,0,.19-.21-.05-.11-.1-.21-.04-.32.33.04.35.41.59.54.75.41,1.59.45,2.42.51.01,0,.03-.05.05-.08-.1-.22-.4-.23-.49-.46.4-.06.86.1,1.15-.33Z"/>
    <path class="st0" d="M325.1,24.49c.06-.04.11-.02.17.01h2.06c.26-.05.54-.08.31-.51.39.07.69.27.97.51h1.39v-.96c-.18.05-.32,0-.25-.33.09.07.17.1.25.11v-.83c-.16-.1-.33-.2-.52,0-.03.03.01.15.02.23-.36.05-.91-.21-.79.55.02.15-.18.38-.42.27-.45-.2-.63.01-.72.41-.85-.34-1.72-.6-2.56-.95v1.51h.08s.02,0,.02-.01Z"/>
    <path class="st0" d="M329.81,21.42c.06,0,.13.01.19,0v-.42c-.06-.04-.12-.08-.15-.14.04,0,.09.01.15.03v-.94c-.15-.05-.31-.09-.47-.13-.19.27-.34.6-.06.96-.06.2-.47.16-.35.43.12.3.45.16.69.19Z"/>
    <path class="st0" d="M320,34.5v-5h-.65s-.09.03-.14.03c-.1,0-.2,0-.28-.03h-3.93v5h5Z"/>
    <path class="st0" d="M320,22.14v-2.64h-4.74c.02.19.15.27.39.19.61-.21,1.23-.07,1.85-.04.34.01.52.19.41.55-.29-.25-.6-.29-.96-.16-.11.04-.24-.34-.37-.09-.09.16.17.23.29.33.1.08.2.16.3.24.01.02.02.04.04.05-.11.11-.22.21-.35.34.64.12,1.27.48,1.77-.23.02-.03.09-.02.14-.03.11.35.46.34.72.46-.05.08-.08.18-.15.24-.27.22-.12.46.02.63.15.18.37.28.64.14Z"/>
    <path class="st0" d="M316.33,22.84c.37.65.97.45,1.5.52.18.02.27-.08.35-.22.27-.08.59,0,.84-.21.11-.09.21-.16.19-.31-.03-.24-.19-.1-.3-.1-.13,0-.24-.05-.27-.16-.05-.25-.26-.36-.42-.51.06-.02.12-.03.18-.05.13-.04.35.21.39-.08.02-.18-.19-.29-.34-.29-.52-.02-1.06-.1-1.6.08.12.09.21.16.3.23-.23.08-.51.08-.59.39-.04-.05-.11-.09-.12-.15-.07-.41-.22-.48-.61-.27-.3.17-.64.12-.78-.31-.01-.04-.03-.07-.05-.1v.61c.09,0,.17.02.2.12.05.16-.08.18-.2.2v.24c.22.04.44.08.66.13.23.06.59.07.67.23Z"/>
    <path class="st0" d="M319.64,24.5h.36v-.24c-.15-.02-.27.06-.36.24Z"/>
    <path class="st0" d="M315.82,20.64c0,.15.08.22.21.22.16,0,.36.02.41-.18.03-.13-.14-.16-.25-.19-.15-.04-.29-.02-.37.15Z"/>
    <rect class="st0" x="295" y="39.5" width="5" height="5"/>
    <rect class="st0" x="305" y="39.5" width="5" height="5"/>
    <rect class="st0" x="300" y="44.5" width="5" height="5"/>
    <rect class="st0" x="300" y="34.5" width="5" height="5"/>
    <rect class="st0" x="285" y="39.5" width="5" height="5"/>
    <rect class="st0" x="290" y="44.5" width="5" height="5"/>
    <rect class="st0" x="290" y="34.5" width="5" height="5"/>
    <rect class="st0" x="280" y="44.5" width="5" height="5"/>
    <rect class="st0" x="280" y="34.5" width="5" height="5"/>
    <path class="st0" d="M305,14.91c-.22,0-.45.03-.69.13.21.17.42.25.45.37.05.17.14.26.25.31v-.81Z"/>
    <path class="st0" d="M301.19,14.78c-.09-.12-.2-.21-.32-.28h-.88v.1c.29.13.55.32.82.47.25.15.42.47.72.48.14.03.22.05.3.06.22.02.45.03.47-.27.02-.3-.22-.27-.41-.28-.27,0-.53-.04-.7-.28Z"/>
    <path class="st0" d="M300.11,17.05c.02-.14-.01-.24-.11-.32v.48c.06-.02.1-.07.11-.17Z"/>
    <path class="st0" d="M302.8,14.66c0,.24.21.1.33.12.11,0,.22,0,.31,0,.19.12.37.11.39-.09.02-.22-.21-.12-.34-.15-.11-.02-.22-.03-.34-.04-.15,0-.35-.01-.36.16Z"/>
    <path class="st0" d="M300.29,18.27c.09.09.18.15.28.02.15-.19.29-.38.44-.56.12-.1.42,0,.36-.28-.05-.24-.27-.3-.49-.29-.28,0-.42.2-.57.39-.11.02-.21.05-.3.11v.43s.02,0,.02,0c.14-.01.19.1.27.18Z"/>
    <path class="st0" d="M300.89,19.13c-.05.26.22.29.39.35.02,0,.05.02.07.03h1.18c0-.1-.05-.19-.15-.26-.22-.15-.44-.35-.72-.34-.09-.02-.15-.03-.22-.04-.24-.03-.5,0-.56.27Z"/>
    <path class="st0" d="M301.63,18.34s.08-.02.12-.04c-.02-.04-.04-.07-.06-.13-.05.03-.09.04-.12.06.02.04.03.09.06.1Z"/>
    <path class="st0" d="M301.23,18.29c.05,0,.11-.06.14-.11.03-.06.01-.14-.06-.15-.1-.02-.14.06-.16.14,0,.07,0,.14.09.13Z"/>
    <path class="st0" d="M301.92,17.46c-.16.03-.2.15-.23.28-.03.13.01.23.13.28.12.05.24.09.27.1.31.06.52.1.73.05.13-.03.22-.09.14-.24-.07-.14-.89-.5-1.05-.47Z"/>
    <path class="st0" d="M300.25,19.07c.11-.11.44-.15.17-.41-.1-.09-.26-.1-.43-.05v.89h.19c.09-.11.14-.25.06-.43Z"/>
    <path class="st0" d="M295,15.2v-.37c-.6-.21-1.21-.21-1.86-.26.46.49,1.17.72,1.86.62Z"/>
    <path class="st0" d="M291.98,18.16c-.25-.25-.59-.3-.91-.26-.25.03-.38.24-.37.51,0,.21-.07.41-.21.53-.42.37-.06.42.19.52.04.02.09.03.13.04h.88c.12-.26-.1-.47-.32-.62-.12-.08-.25-.19-.17-.36.07-.16.24-.14.39-.13.1,0,.2.03.29.02.16-.02.21-.13.1-.24Z"/>
    <path class="st0" d="M293.74,18.31c.35.1.53.39.87.37.15-.01.32.02.36.19.04.22-.15.25-.31.29-.15.03-.21.13-.28.25-.02.04-.05.07-.08.09h.69v-1.21c-.31-.16-.76-.17-1.26.03Z"/>
    <path class="st0" d="M290.77,14.95c.08.02.16.04.24.04.14,0,.34.05.37-.14.03-.21-.18-.19-.31-.21-.16-.02-.32-.03-.48-.03-.1,0-.21.01-.21.14,0,.1.09.12.17.14.08.02.16.03.24.05Z"/>
    <path class="st0" d="M290.31,16.29c-.01.09.05.17.13.18.37.01.75.25,1.16-.04-.33-.29-.66-.42-1.05-.34-.12.02-.22.07-.24.21Z"/>
    <path class="st0" d="M293.41,19.13c.46-.32-.08-.43-.15-.63-.05-.16-.25-.39-.39-.21-.15.18-.65.17-.42.61-.08.03-.15.06-.23.07-.34.06-.29.3-.29.53h2.2s-.03-.01-.04-.02c-.23-.12-.46-.24-.69-.36Z"/>
    <path class="st0" d="M294.17,17.52c.06-.3-.21-.45-.47-.51-.24-.06-.61-.15-.66.17-.06.39.4.33.59.45.24.09.49.09.54-.12Z"/>
    <path class="st0" d="M294.35,16.54c.17.25.4.34.65.37v-.81c-.5-.17-1.04-.24-1.44-.6-.22.01-.52-.08-.49.2.03.27.09.66.56.61.26-.03.54-.01.71.23Z"/>
    <path class="st0" d="M280.62,14.53s0-.02,0-.03h-.62v.4c.17-.05.34-.11.5-.17.07-.03.14-.1.12-.19Z"/>
    <path class="st0" d="M284.26,19.41c-.15,0-.33-.02-.43.09h.83c-.12-.06-.26-.1-.4-.09Z"/>
    <path class="st0" d="M282.63,19.49c.03-.21.17-.18.32-.15.33.06.63-.02.9-.21.28.1.56.13.85.11.11,0,.24.03.3.13v-1.88c-.15-.09-.28-.21-.41-.36.06,0,.13,0,.19,0,.07-.01.14-.02.21-.03v-.61c-.06-.03-.13-.05-.2-.07-.08-.02-.16-.02-.24-.04-.25-.07-.51-.09-.73-.25-.37-.26-.67-.21-.84.25-.42.27-.45-.15-.59-.35.02-.09.21-.19.03-.27-.38-.16-.71-.44-1.13-.53-.22-.04-.46-.1-.57.19-.49.1-.64.13-.73-.05v4.15h2.65s0,0-.01,0Z"/>
    <path class="st0" d="M284.17,15.22c.21-.05.53.25.66-.09.1-.27-.15-.46-.44-.53-.34-.08-.65.09-.72.34-.07.24.31.17.51.28Z"/>
    <path class="st0" d="M285,15.42c-.16.02-.32.08-.51.18.19.03.35.08.51.13v-.3Z"/>
    <path class="st0" d="M305,29.5v-4.43s-.08-.09-.09-.17c.05-.11.05-.26.03-.4h-2.77c.09.09.16.19.13.35-.43-.01-.87-.02-1.3-.04-.13,0-.28-.08-.26-.23,0-.03.01-.06.02-.07h-.75v5h5Z"/>
    <rect class="st0" x="305" y="29.5" width="5" height="5"/>
    <path class="st0" d="M305.73,23.3c.09.16.32.22.53.17.18-.04.38-.08.47.13.1.22-.26.16-.26.42.67.05,1.34.1,2.01.15.08,0,.15-.07.13-.17-.04-.26-.77-.61-1.01-.46-.23.15-.38.06-.46-.15-.05-.13-.12-.18-.23-.26-.26-.18-.38-.62-.84-.39-.02,0-.1-.08-.13-.13-.1-.19-.24-.24-.44-.24-.12,0-.3.02-.33-.13-.03-.16.13-.26.24-.34.17-.12.38-.09.57-.09.42,0,.85.02,1.27,0,.15,0,.4.03.44-.13.05-.23-.22-.17-.35-.23-.09-.04-.17-.09-.26-.13-.64-.28-1.42-.1-1.76.4-.11.16-.21.26-.31.32v.89c.29.03.55.09.73.4Z"/>
    <path class="st0" d="M309.7,23.61c-.11,0-.17.07-.19.18,0,.07.03.13.1.14.11.02.19-.03.21-.14.01-.09-.04-.15-.13-.18Z"/>
    <path class="st0" d="M307.35,20.42c.1.04.25-.03.28.18.06.36.44.54.77.36.17-.09.32-.13.51-.07.13.05.26.05.34-.09.04-.07.08-.15.02-.23-.1-.13-.23-.07-.36-.04-.39.12-.65.03-.64-.44.3.02.6.16.9-.01.31-.18.38-.41.21-.59h-.88c-.24.1-.58-.11-.75.2-.06,0-.14.02-.19-.01-.45-.23-.59.21-.67.42-.09.27.27.23.45.3Z"/>
    <path class="st0" d="M310,19.5h-.16s.03.1.03.18c0,.19.05.27.13.3v-.48Z"/>
    <rect class="st0" x="290" y="24.5" width="5" height="5"/>
    <rect class="st0" x="295" y="29.5" width="5" height="5"/>
    <path class="st0" d="M300,19.67v-.17h-.43s.02.02.03.02c.12.09.23.25.39.15Z"/>
    <path class="st0" d="M295.22,19.5h-.22v.24c.07-.08.15-.16.22-.24Z"/>
    <path class="st0" d="M300,23.65c-.04-.05-.08-.11-.12-.17.04-.03.08-.06.12-.09v-1.82c-.68-.22-1.38-.4-1.96-.86-.02-.28.26-.41.31-.65.12-.06.27-.12.37-.04.41.36.39-.01.45-.25.02-.09.06-.18.08-.27h-.66s-.05,0-.07,0h-2.7c0,.06.03.14.09.24.05.08.11.16.16.24-.36-.05-.73-.09-1.08-.21v4.74h5v-.85Z"/>
    <path class="st0" d="M299.94,20.93s.04,0,.06-.01v-.56c-.15-.08-.3-.11-.46.02-.14.11-.11.28-.07.41.08.24.31.17.46.14Z"/>
    <rect class="st0" x="280" y="24.5" width="5" height="5"/>
    <rect class="st0" x="285" y="29.5" width="5" height="5"/>
    <path class="st0" d="M286.35,19.92c.22-.14.59.1.7-.22.03-.08.02-.15,0-.2h-2.01s-.02.04-.03.06v.92s.07.02.1.04c.47.21,1.04-.08,1.25-.6Z"/>
    <path class="st0" d="M290,22.35c-.22.02-.44.02-.57.28-.06-.01-.12-.02-.18-.04-.02-.1-.04-.19-.07-.29.15-.44.48-.41.81-.41v-.41s-.08,0-.12,0c-.6.04-.8-.05-1.12-.47-.05-.06-.13-.09-.2-.14.14-.02.29-.02.43-.05.21-.04.25-.16.09-.3-.46-.4-.98-.69-1.6-.76-.22-.02-.39.17-.5.34-.08.12.09.18.19.22-.02.18-.14.15-.26.13-.2-.03-.37,0-.52.19.55.14,1.01.32,1.01.98,0,.12.16.24.24.35-.29.19-.53-.17-.83-.08-.11.04-.32.12-.38-.08-.05-.16.13-.19.24-.26.19-.12.09-.28.04-.43-.03-.07-.13-.18-.16-.11-.15.32-.25.05-.35-.02-.15-.11-.31-.13-.46-.04-.24.15-.5.2-.76.22v3.31h5v-2.15Z"/>
    <rect class="st0" x="275" y="39.5" width="5" height="5"/>
    <rect class="st0" x="270" y="44.5" width="5" height="5"/>
    <rect class="st0" x="270" y="14.5" width="5" height="5"/>
    <rect class="st0" x="270" y="34.5" width="5" height="5"/>
    <rect class="st0" x="270" y="24.5" width="5" height="5"/>
    <rect class="st0" x="275" y="29.5" width="5" height="5"/>
    <rect class="st0" x="275" y="19.5" width="5" height="5"/>
    <rect class="st0" x="255" y="39.5" width="5" height="5"/>
    <rect class="st0" x="265" y="39.5" width="5" height="5"/>
    <rect class="st0" x="260" y="44.5" width="5" height="5"/>
    <rect class="st0" x="260" y="34.5" width="5" height="5"/>
    <rect class="st0" x="245" y="39.5" width="5" height="5"/>
    <rect class="st0" x="250" y="44.5" width="5" height="5"/>
    <rect class="st0" x="250" y="34.5" width="5" height="5"/>
    <rect class="st0" x="240" y="44.5" width="5" height="5"/>
    <rect class="st0" x="240" y="34.5" width="5" height="5"/>
    <rect class="st0" x="260" y="14.5" width="5" height="5"/>
    <rect class="st0" x="250" y="14.5" width="5" height="5"/>
    <rect class="st0" x="240" y="14.5" width="5" height="5"/>
    <rect class="st0" x="260" y="24.5" width="5" height="5"/>
    <rect class="st0" x="265" y="29.5" width="5" height="5"/>
    <rect class="st0" x="265" y="19.5" width="5" height="5"/>
    <rect class="st0" x="250" y="24.5" width="5" height="5"/>
    <rect class="st0" x="255" y="29.5" width="5" height="5"/>
    <rect class="st0" x="255" y="19.5" width="5" height="5"/>
    <rect class="st0" x="240" y="24.5" width="5" height="5"/>
    <rect class="st0" x="245" y="29.5" width="5" height="5"/>
    <rect class="st0" x="245" y="19.5" width="5" height="5"/>
  </g>
</svg>