<?xml version="1.0" encoding="UTF-8"?>
<svg id="Layer_1" xmlns="http://www.w3.org/2000/svg" version="1.1" viewBox="0 0 60 60">
  <!-- Generator: Adobe Illustrator 30.0.0, SVG Export Plug-In . SVG Version: 2.1.1 Build 123)  -->
  <defs>
    <style>
      .st0 {
        fill: #ea4335;
      }

      .st1 {
        fill: #4285f4;
      }

      .st2 {
        fill: #34a853;
      }

      .st3 {
        fill: #fbbc05;
      }
    </style>
  </defs>
  <g id="ICON">
    <path class="st2" d="M48.7,50.6c-4.3,4-10.3,6.5-18.3,6.5s-19.4-6.1-23.9-14.9l9-7c2.1,6.5,8,11.2,15,11.2s7.1-1,9.5-2.6l8.8,6.9Z"/>
    <path class="st3" d="M14.6,30c0,1.8.3,3.5.8,5.1l-9,7c-1.9-3.7-2.9-7.8-2.9-12.2s1.1-8.5,2.9-12.2l9,7c-.5,1.6-.8,3.3-.8,5.1Z"/>
    <path class="st0" d="M48.6,10.2l-7.6,7.5c-2.7-2.5-6.4-4-10.6-4-7,0-12.9,4.7-15,11.2l-9-7C11,9,20.2,2.9,30.4,2.9s13.7,2.8,18.2,7.3Z"/>
    <path class="st1" d="M56.5,30c0,1.9-.1,3.8-.4,5.6-.9,6-3.4,11.2-7.4,15l-8.8-6.9c2.8-1.9,4.6-4.8,5.6-8.1h-14.7v-10h25.4c.2,1.5.3,2.9.3,4.5Z"/>
  </g>
</svg>