<?xml version="1.0" encoding="UTF-8"?>
<svg xmlns="http://www.w3.org/2000/svg" version="1.1" xmlns:xlink="http://www.w3.org/1999/xlink" viewBox="0 0 370 64">
  <!-- Generator: Adobe Illustrator 29.1.0, SVG Export Plug-In . SVG Version: 2.1.0 Build 142)  -->
  <defs>
    <style>
      .st0 {
        fill: url(#linear-gradient2);
      }

      .st1, .st2 {
        fill: #40012f;
      }

      .st3 {
        fill: url(#linear-gradient33);
      }

      .st4 {
        fill: url(#linear-gradient32);
      }

      .st5 {
        fill: url(#linear-gradient1);
      }

      .st5, .st6, .st7, .st2, .st8, .st9, .st10 {
        mix-blend-mode: multiply;
      }

      .st11 {
        fill: url(#linear-gradient21);
      }

      .st6 {
        fill: #eaf205;
      }

      .st12 {
        fill: url(#linear-gradient27);
      }

      .st7 {
        fill: url(#radial-gradient);
      }

      .st13 {
        fill: #4d4d4d;
      }

      .st14 {
        fill: url(#radial-gradient10);
      }

      .st15 {
        fill: url(#linear-gradient26);
      }

      .st16 {
        fill: url(#linear-gradient9);
      }

      .st17 {
        fill: url(#linear-gradient18);
      }

      .st18 {
        fill: url(#radial-gradient11);
      }

      .st19 {
        fill: #bf0413;
      }

      .st20 {
        fill: url(#linear-gradient23);
      }

      .st21 {
        fill: url(#linear-gradient8);
      }

      .st22 {
        fill: url(#linear-gradient16);
      }

      .st23 {
        fill: url(#linear-gradient24);
      }

      .st24 {
        fill: url(#radial-gradient5);
      }

      .st25 {
        fill: url(#linear-gradient30);
      }

      .st26 {
        fill: url(#linear-gradient10);
      }

      .st26, .st27, .st28, .st29 {
        opacity: .5;
      }

      .st30 {
        fill: url(#linear-gradient22);
      }

      .st31 {
        isolation: isolate;
      }

      .st32 {
        fill: url(#linear-gradient29);
      }

      .st33 {
        fill: url(#linear-gradient28);
      }

      .st34 {
        fill: url(#radial-gradient7);
      }

      .st35 {
        fill: url(#radial-gradient18);
      }

      .st27 {
        fill: url(#linear-gradient12);
      }

      .st36 {
        fill: url(#radial-gradient14);
      }

      .st37 {
        fill: url(#linear-gradient7);
      }

      .st38 {
        fill: url(#radial-gradient13);
      }

      .st39 {
        fill: url(#linear-gradient20);
      }

      .st40 {
        fill: url(#linear-gradient4);
      }

      .st41 {
        fill: url(#linear-gradient31);
      }

      .st42 {
        fill: url(#linear-gradient14);
      }

      .st43 {
        fill: url(#linear-gradient5);
      }

      .st44 {
        fill: url(#radial-gradient8);
      }

      .st45 {
        fill: url(#linear-gradient3);
      }

      .st46 {
        fill: url(#radial-gradient12);
      }

      .st47 {
        fill: url(#linear-gradient25);
      }

      .st28 {
        fill: url(#linear-gradient11);
      }

      .st48 {
        fill: url(#linear-gradient15);
      }

      .st49 {
        fill: url(#radial-gradient17);
      }

      .st50 {
        fill: url(#radial-gradient6);
      }

      .st51 {
        fill: url(#linear-gradient17);
      }

      .st52 {
        fill: url(#radial-gradient2);
      }

      .st53 {
        fill: url(#radial-gradient15);
      }

      .st8 {
        fill: url(#radial-gradient1);
      }

      .st54 {
        fill: url(#linear-gradient6);
      }

      .st55 {
        fill: gray;
      }

      .st56 {
        fill: #26011c;
      }

      .st9 {
        fill: url(#linear-gradient19);
      }

      .st57 {
        fill: url(#radial-gradient3);
      }

      .st58 {
        fill: url(#radial-gradient9);
      }

      .st59 {
        fill: url(#linear-gradient);
      }

      .st29 {
        fill: url(#linear-gradient13);
      }

      .st60 {
        fill: url(#radial-gradient16);
      }

      .st10 {
        fill: url(#radial-gradient4);
      }
    </style>
    <radialGradient id="radial-gradient" cx="-500.68" cy="-1599.66" fx="-500.68" fy="-1599.66" r="22.38" gradientTransform="translate(-598.79 210.11) rotate(-180) scale(1.87 -.1)" gradientUnits="userSpaceOnUse">
      <stop offset="0" stop-color="#4d4d4d"/>
      <stop offset=".37" stop-color="#868686" stop-opacity=".67"/>
      <stop offset="1" stop-color="#fff" stop-opacity="0"/>
    </radialGradient>
    <radialGradient id="radial-gradient1" cx="-462.75" fx="-462.75" r="22.38" xlink:href="#radial-gradient"/>
    <linearGradient id="linear-gradient" x1="-1016.38" y1="20.29" x2="-1011.67" y2="20.29" gradientTransform="translate(-720.52) rotate(-180) scale(1 -1)" gradientUnits="userSpaceOnUse">
      <stop offset="0" stop-color="#333"/>
      <stop offset=".22" stop-color="#252525"/>
      <stop offset=".71" stop-color="#0a0a0a"/>
      <stop offset="1" stop-color="#000"/>
    </linearGradient>
    <linearGradient id="linear-gradient1" x1="-1013.8" y1="19.45" x2="-1013.8" y2="20.38" gradientTransform="translate(-720.52) rotate(-180) scale(1 -1)" gradientUnits="userSpaceOnUse">
      <stop offset=".39" stop-color="#000"/>
      <stop offset="1" stop-color="#333" stop-opacity="0"/>
    </linearGradient>
    <linearGradient id="linear-gradient2" x1="-1013.49" y1="19.94" x2="-1013.49" y2="18.7" gradientTransform="translate(-720.52) rotate(-180) scale(1 -1)" gradientUnits="userSpaceOnUse">
      <stop offset="0" stop-color="#333"/>
      <stop offset=".36" stop-color="#000"/>
      <stop offset=".57" stop-color="#0d0d0d"/>
      <stop offset=".97" stop-color="#303030"/>
      <stop offset="1" stop-color="#333"/>
    </linearGradient>
    <linearGradient id="linear-gradient3" x1="-1037.98" y1="27.83" x2="-1037.98" y2="29.31" xlink:href="#linear-gradient"/>
    <linearGradient id="linear-gradient4" x1="-1038.44" y1="28.37" x2="-1038.65" y2="27.94" gradientTransform="translate(-720.52) rotate(-180) scale(1 -1)" gradientUnits="userSpaceOnUse">
      <stop offset="0" stop-color="#000" stop-opacity="0"/>
      <stop offset=".09" stop-color="#080808" stop-opacity=".03"/>
      <stop offset=".22" stop-color="#1e1e1e" stop-opacity=".12"/>
      <stop offset=".38" stop-color="#414141" stop-opacity=".26"/>
      <stop offset=".57" stop-color="#737373" stop-opacity=".45"/>
      <stop offset=".78" stop-color="#b3b3b3" stop-opacity=".71"/>
      <stop offset="1" stop-color="#fff"/>
    </linearGradient>
    <linearGradient id="linear-gradient5" x1="-1070.57" y1="38.3" x2="-1071.36" y2="36.39" gradientTransform="translate(-720.52) rotate(-180) scale(1 -1)" gradientUnits="userSpaceOnUse">
      <stop offset="0" stop-color="#29abe2" stop-opacity="0"/>
      <stop offset=".15" stop-color="#2bace2" stop-opacity=".01"/>
      <stop offset=".27" stop-color="#34afe3" stop-opacity=".06"/>
      <stop offset=".4" stop-color="#44b5e5" stop-opacity=".13"/>
      <stop offset=".51" stop-color="#59bde8" stop-opacity=".23"/>
      <stop offset=".63" stop-color="#74c8ec" stop-opacity=".35"/>
      <stop offset=".74" stop-color="#96d6f0" stop-opacity=".51"/>
      <stop offset=".85" stop-color="#bee5f6" stop-opacity=".7"/>
      <stop offset=".96" stop-color="#ebf7fc" stop-opacity=".91"/>
      <stop offset="1" stop-color="#fff"/>
    </linearGradient>
    <linearGradient id="linear-gradient6" x1="-1045.62" y1="30.78" x2="-1045.62" y2="29.31" xlink:href="#linear-gradient5"/>
    <linearGradient id="linear-gradient7" x1="-1070.87" y1="38.91" x2="-1070.45" y2="40.34" gradientTransform="translate(-720.52) rotate(-180) scale(1 -1)" gradientUnits="userSpaceOnUse">
      <stop offset="0" stop-color="#333"/>
      <stop offset=".47" stop-color="#191919"/>
      <stop offset="1" stop-color="#000"/>
    </linearGradient>
    <linearGradient id="linear-gradient8" x1="-971.58" y1="23.56" x2="-971.58" y2="37.92" gradientTransform="translate(-720.52) rotate(-180) scale(1 -1)" gradientUnits="userSpaceOnUse">
      <stop offset="0" stop-color="#333"/>
      <stop offset=".12" stop-color="#272727"/>
      <stop offset=".43" stop-color="#111"/>
      <stop offset=".73" stop-color="#040404"/>
      <stop offset="1" stop-color="#000"/>
    </linearGradient>
    <linearGradient id="linear-gradient9" x1="-963.69" y1="37.57" x2="-963.69" y2="22.35" gradientTransform="translate(-720.52) rotate(-180) scale(1 -1)" gradientUnits="userSpaceOnUse">
      <stop offset="0" stop-color="#333"/>
      <stop offset="1" stop-color="#000"/>
    </linearGradient>
    <linearGradient id="linear-gradient10" x1="-965.14" y1="23.95" x2="-965.14" y2="24.24" gradientTransform="translate(-720.52) rotate(-180) scale(1 -1)" gradientUnits="userSpaceOnUse">
      <stop offset="0" stop-color="#262626"/>
      <stop offset=".38" stop-color="#1a1a1a" stop-opacity=".7"/>
      <stop offset="1" stop-color="#000" stop-opacity="0"/>
    </linearGradient>
    <linearGradient id="linear-gradient11" x1="-965.44" y1="24.51" x2="-965.44" y2="24.8" xlink:href="#linear-gradient10"/>
    <linearGradient id="linear-gradient12" x1="-965.7" y1="25.07" x2="-965.7" y2="25.36" xlink:href="#linear-gradient10"/>
    <linearGradient id="linear-gradient13" x1="-965.96" y1="25.63" x2="-965.96" y2="25.92" xlink:href="#linear-gradient10"/>
    <radialGradient id="radial-gradient2" cx="-971.04" cy="24.94" fx="-971.04" fy="24.94" r=".16" gradientTransform="translate(-720.52) rotate(-180) scale(1 -1)" gradientUnits="userSpaceOnUse">
      <stop offset="0" stop-color="#e0e0e0"/>
      <stop offset=".13" stop-color="#cecece"/>
      <stop offset=".39" stop-color="#a1a1a1"/>
      <stop offset=".76" stop-color="#595959"/>
      <stop offset="1" stop-color="#262626"/>
    </radialGradient>
    <radialGradient id="radial-gradient3" cx="-971.46" cy="26.32" fx="-971.46" fy="26.32" r=".16" xlink:href="#radial-gradient2"/>
    <linearGradient id="linear-gradient14" x1="-1047.63" y1="39.69" x2="-1048.4" y2="39.85" gradientTransform="translate(-720.52) rotate(-180) scale(1 -1)" gradientUnits="userSpaceOnUse">
      <stop offset="0" stop-color="#333"/>
      <stop offset=".1" stop-color="#2a2a2a"/>
      <stop offset=".43" stop-color="#121212"/>
      <stop offset=".74" stop-color="#040404"/>
      <stop offset="1" stop-color="#000"/>
    </linearGradient>
    <linearGradient id="linear-gradient15" x1="-1032.31" y1="26.25" x2="-1032.16" y2="26.25" gradientTransform="translate(-720.52) rotate(-180) scale(1 -1)" gradientUnits="userSpaceOnUse">
      <stop offset=".17" stop-color="#333"/>
      <stop offset=".41" stop-color="#282828"/>
      <stop offset=".83" stop-color="#0c0c0c"/>
      <stop offset="1" stop-color="#000"/>
    </linearGradient>
    <linearGradient id="linear-gradient16" x1="-1031.72" y1="26.58" x2="-1031.57" y2="26.58" xlink:href="#linear-gradient15"/>
    <linearGradient id="linear-gradient17" x1="-1030.96" y1="27.61" x2="-1030.61" y2="27.61" gradientTransform="translate(1341.04 55.21) scale(1 -1)" gradientUnits="userSpaceOnUse">
      <stop offset="0" stop-color="#000"/>
      <stop offset=".17" stop-color="#0c0c0c"/>
      <stop offset=".59" stop-color="#282828"/>
      <stop offset=".83" stop-color="#333"/>
    </linearGradient>
    <linearGradient id="linear-gradient18" x1="-1033.31" y1="27.09" x2="-1033.46" y2="26.7" gradientTransform="translate(-720.52) rotate(-180) scale(1 -1)" gradientUnits="userSpaceOnUse">
      <stop offset="0" stop-color="red" stop-opacity="0"/>
      <stop offset=".09" stop-color="#ff0808" stop-opacity=".03"/>
      <stop offset=".22" stop-color="#ff1e1e" stop-opacity=".12"/>
      <stop offset=".38" stop-color="#ff4141" stop-opacity=".26"/>
      <stop offset=".57" stop-color="#ff7373" stop-opacity=".45"/>
      <stop offset=".78" stop-color="#ffb3b3" stop-opacity=".71"/>
      <stop offset="1" stop-color="#fff"/>
    </linearGradient>
    <linearGradient id="linear-gradient19" x1="-986.83" y1="38.63" x2="-990.4" y2="36.11" gradientTransform="translate(-720.52) rotate(-180) scale(1 -1)" gradientUnits="userSpaceOnUse">
      <stop offset=".56" stop-color="#024a7d"/>
      <stop offset=".68" stop-color="#0a6094" stop-opacity=".77"/>
      <stop offset=".93" stop-color="#2199cf" stop-opacity=".18"/>
      <stop offset="1" stop-color="#29abe2" stop-opacity="0"/>
    </linearGradient>
    <radialGradient id="radial-gradient4" cx="-1030.94" cy="33.02" fx="-1030.94" fy="33.02" r="3.36" gradientTransform="translate(-714.97 -90.95) rotate(-176.59) scale(1 -1.9)" gradientUnits="userSpaceOnUse">
      <stop offset="0" stop-color="#29abe2" stop-opacity="0"/>
      <stop offset=".07" stop-color="#249ed5" stop-opacity=".13"/>
      <stop offset=".27" stop-color="#1780b5" stop-opacity=".44"/>
      <stop offset=".46" stop-color="#0e689c" stop-opacity=".68"/>
      <stop offset=".65" stop-color="#07578b" stop-opacity=".86"/>
      <stop offset=".83" stop-color="#034d80" stop-opacity=".96"/>
      <stop offset="1" stop-color="#024a7d"/>
    </radialGradient>
    <linearGradient id="linear-gradient20" x1="-999.05" y1="41.34" x2="-999.05" y2="43.39" gradientTransform="translate(-720.52) rotate(-180) scale(1 -1)" gradientUnits="userSpaceOnUse">
      <stop offset="0" stop-color="#333"/>
      <stop offset=".18" stop-color="#272727"/>
      <stop offset=".7" stop-color="#0a0a0a"/>
      <stop offset="1" stop-color="#000"/>
    </linearGradient>
    <linearGradient id="linear-gradient21" x1="-1033.19" y1="34.87" x2="-1033.19" y2="43.56" gradientTransform="translate(-720.52) rotate(-180) scale(1 -1)" gradientUnits="userSpaceOnUse">
      <stop offset="0" stop-color="#333"/>
      <stop offset=".19" stop-color="#1e1e1e"/>
      <stop offset=".43" stop-color="#0d0d0d"/>
      <stop offset=".69" stop-color="#030303"/>
      <stop offset="1" stop-color="#000"/>
    </linearGradient>
    <linearGradient id="linear-gradient22" x1="-1037.85" y1="35.15" x2="-1037.85" y2="40.74" gradientTransform="translate(-720.52) rotate(-180) scale(1 -1)" gradientUnits="userSpaceOnUse">
      <stop offset="0" stop-color="#fff"/>
      <stop offset=".05" stop-color="#cfcfcf" stop-opacity=".81"/>
      <stop offset=".1" stop-color="#a4a4a4" stop-opacity=".64"/>
      <stop offset=".15" stop-color="#7c7c7c" stop-opacity=".49"/>
      <stop offset=".21" stop-color="#5a5a5a" stop-opacity=".36"/>
      <stop offset=".28" stop-color="#3e3e3e" stop-opacity=".24"/>
      <stop offset=".35" stop-color="#272727" stop-opacity=".15"/>
      <stop offset=".44" stop-color="#151515" stop-opacity=".08"/>
      <stop offset=".54" stop-color="#090909" stop-opacity=".04"/>
      <stop offset=".68" stop-color="#020202" stop-opacity="0"/>
      <stop offset="1" stop-color="#000" stop-opacity="0"/>
    </linearGradient>
    <linearGradient id="linear-gradient23" x1="-1071.85" y1="40.96" x2="-1077.11" y2="41.28" gradientTransform="translate(-720.52) rotate(-180) scale(1 -1)" gradientUnits="userSpaceOnUse">
      <stop offset="0" stop-color="#333"/>
      <stop offset=".16" stop-color="#272727"/>
      <stop offset=".62" stop-color="#0a0a0a"/>
      <stop offset=".88" stop-color="#000"/>
    </linearGradient>
    <linearGradient id="linear-gradient24" x1="-1082.13" y1="38.81" x2="-1082.13" y2="43.7" xlink:href="#linear-gradient20"/>
    <linearGradient id="linear-gradient25" x1="-1080.2" y1="43.04" x2="-1080.2" y2="43.87" xlink:href="#linear-gradient20"/>
    <linearGradient id="linear-gradient26" x1="-1048.12" y1="42.76" x2="-1030.85" y2="42.76" xlink:href="#linear-gradient20"/>
    <linearGradient id="linear-gradient27" x1="-1032.18" y1="42.41" x2="-1026.61" y2="42.41" xlink:href="#linear-gradient20"/>
    <linearGradient id="linear-gradient28" x1="-1009.5" y1="43.04" x2="-1009.5" y2="43.87" xlink:href="#linear-gradient20"/>
    <radialGradient id="radial-gradient5" cx="-1018.06" cy="41.18" fx="-1018.06" fy="41.18" r=".16" xlink:href="#radial-gradient2"/>
    <radialGradient id="radial-gradient6" cx="-1013.35" cy="41.18" fx="-1013.35" fy="41.18" r=".16" xlink:href="#radial-gradient2"/>
    <radialGradient id="radial-gradient7" cx="-1008.63" cy="41.18" fx="-1008.63" fy="41.18" r=".16" xlink:href="#radial-gradient2"/>
    <radialGradient id="radial-gradient8" cx="-1003.92" cy="41.18" fx="-1003.92" fy="41.18" r=".16" xlink:href="#radial-gradient2"/>
    <radialGradient id="radial-gradient9" cx="-999.2" cy="41.18" fx="-999.2" fy="41.18" r=".16" xlink:href="#radial-gradient2"/>
    <radialGradient id="radial-gradient10" cx="-1051.85" cy="1170.63" fx="-1051.85" fy="1170.63" r="9.88" gradientTransform="translate(-531.84 -1329.1) rotate(-167.78) scale(1 -1)" gradientUnits="userSpaceOnUse">
      <stop offset="0" stop-color="#000"/>
      <stop offset=".25" stop-color="#020202"/>
      <stop offset=".44" stop-color="#0c0c0c"/>
      <stop offset=".6" stop-color="#1c1c1c"/>
      <stop offset=".75" stop-color="#323232"/>
      <stop offset=".75" stop-color="#333"/>
      <stop offset=".9" stop-color="#121212"/>
      <stop offset="1" stop-color="#000"/>
    </radialGradient>
    <linearGradient id="linear-gradient29" x1="-1051.85" y1="1165.11" x2="-1051.85" y2="1161.88" gradientTransform="translate(-1286.94 -307.81) rotate(144.62) scale(1 -1)" gradientUnits="userSpaceOnUse">
      <stop offset="0" stop-color="#262626" stop-opacity="0"/>
      <stop offset=".15" stop-color="#282828" stop-opacity=".02"/>
      <stop offset=".29" stop-color="#313131" stop-opacity=".06"/>
      <stop offset=".42" stop-color="#404040" stop-opacity=".14"/>
      <stop offset=".54" stop-color="#565656" stop-opacity=".26"/>
      <stop offset=".67" stop-color="#717171" stop-opacity=".41"/>
      <stop offset=".79" stop-color="#939393" stop-opacity=".59"/>
      <stop offset=".9" stop-color="#b9b9b9" stop-opacity=".8"/>
      <stop offset="1" stop-color="#e0e0e0"/>
    </linearGradient>
    <radialGradient id="radial-gradient11" cx="-968.95" cy="37.58" fx="-968.95" fy="37.58" r="3.88" gradientTransform="translate(-720.52) rotate(-180) scale(1 -1)" gradientUnits="userSpaceOnUse">
      <stop offset="0" stop-color="#262626"/>
      <stop offset=".31" stop-color="#212121"/>
      <stop offset=".67" stop-color="#131313"/>
      <stop offset="1" stop-color="#000"/>
    </radialGradient>
    <radialGradient id="radial-gradient12" cx="-968.95" cy="37.58" fx="-968.95" fy="37.58" r=".89" gradientTransform="translate(-720.52) rotate(-180) scale(1 -1)" gradientUnits="userSpaceOnUse">
      <stop offset="0" stop-color="#000"/>
      <stop offset=".34" stop-color="#020202"/>
      <stop offset=".55" stop-color="#0a0a0a"/>
      <stop offset=".72" stop-color="#191919"/>
      <stop offset=".87" stop-color="#2d2d2d"/>
      <stop offset="1" stop-color="#474747"/>
    </radialGradient>
    <radialGradient id="radial-gradient13" cx="-969.03" cy="37.48" fx="-969.03" fy="37.48" r=".52" xlink:href="#radial-gradient2"/>
    <linearGradient id="linear-gradient30" x1="-1051.83" y1="32.76" x2="-1051.5" y2="33.76" gradientTransform="translate(-720.52) rotate(-180) scale(1 -1)" gradientUnits="userSpaceOnUse">
      <stop offset="0" stop-color="#333"/>
      <stop offset="1" stop-color="#000"/>
    </linearGradient>
    <radialGradient id="radial-gradient14" cx="-1126.39" cy="1223.56" fx="-1126.39" fy="1223.56" r="9.88" gradientTransform="translate(-1159.21 -682.53) rotate(158.29) scale(1 -1)" xlink:href="#radial-gradient10"/>
    <linearGradient id="linear-gradient31" x1="-1126.39" y1="1218.04" x2="-1126.39" y2="1214.82" xlink:href="#linear-gradient29"/>
    <radialGradient id="radial-gradient15" cx="-1060.37" fx="-1060.37" r="3.88" xlink:href="#radial-gradient11"/>
    <radialGradient id="radial-gradient16" cx="-1060.37" fx="-1060.37" r=".89" xlink:href="#radial-gradient12"/>
    <radialGradient id="radial-gradient17" cx="-1060.44" cy="37.48" fx="-1060.44" fy="37.48" r=".52" xlink:href="#radial-gradient2"/>
    <radialGradient id="radial-gradient18" cx="-1012.23" cy="26.97" fx="-1012.23" fy="26.97" r=".89" gradientTransform="translate(323.79 -985.57) rotate(-90.49) scale(1 -1.51)" gradientUnits="userSpaceOnUse">
      <stop offset="0" stop-color="#333"/>
      <stop offset=".13" stop-color="#272727"/>
      <stop offset=".44" stop-color="#111"/>
      <stop offset=".73" stop-color="#040404"/>
      <stop offset="1" stop-color="#000"/>
    </radialGradient>
    <linearGradient id="linear-gradient32" x1="-1019.04" y1="22.3" x2="-1011.69" y2="22.3" gradientTransform="translate(-720.52) rotate(-180) scale(1 -1)" gradientUnits="userSpaceOnUse">
      <stop offset="0" stop-color="#fff"/>
      <stop offset=".02" stop-color="#f9fcfe" stop-opacity=".97"/>
      <stop offset=".18" stop-color="#c3e7f6" stop-opacity=".72"/>
      <stop offset=".34" stop-color="#94d5f0" stop-opacity=".5"/>
      <stop offset=".49" stop-color="#6dc5eb" stop-opacity=".32"/>
      <stop offset=".64" stop-color="#4fbae7" stop-opacity=".18"/>
      <stop offset=".78" stop-color="#3ab1e4" stop-opacity=".08"/>
      <stop offset=".9" stop-color="#2dace2" stop-opacity=".02"/>
      <stop offset="1" stop-color="#29abe2" stop-opacity="0"/>
    </linearGradient>
    <linearGradient id="linear-gradient33" x1="-1002.86" y1="23.45" x2="-987.46" y2="23.45" xlink:href="#linear-gradient32"/>
  </defs>
  <g class="st31">
    <g id="OBJECTS">
      <g>
        <g>
          <ellipse class="st7" cx="337.34" cy="46.15" rx="41.85" ry="2.29"/>
          <ellipse class="st8" cx="266.41" cy="46.15" rx="41.85" ry="2.29"/>
        </g>
        <g>
          <g>
            <path class="st59" d="M291.14,19.65l.26.24c.13.14.23.27.29.4.27.49.13.86.13.86h4.03c0-.4-.23-.88-.44-1.23-.17-.29-.33-.49-.33-.49l-3.94.22Z"/>
            <path class="st5" d="M291.14,19.65l.26.24c.13.14.23.27.29.4h2.51c.65,0,1.01-.19,1.21-.37-.17-.29-.33-.49-.33-.49l-3.94.22Z"/>
            <path class="st0" d="M295.54,19.45c-.14.14-.47.35-1.21.46h-2.87c-.09,0-.18-.03-.25-.08-.17-.12-.5-.33-.82-.44-.03-.01-.03-.05.01-.05h.87s.95-.63,1.95-.63h1.32c.13,0,.25.05.34.13.13.12.35.3.61.43.08.04.1.13.04.19Z"/>
          </g>
          <path class="st56" d="M250.3,30.51l.66,6.32s10.68-.84,15.64-1.64c4.96-.8,24.72-4.61,24.72-4.61l6.84-.35,5.27.31.07-.42s-1.15-.1-2.2-1.12c-1.05-1.01-1.78-1.22-2.65-1.22h-2.55s-.03-.66-.52-.8h-2.64c-.29,0-.57-.16-.69-.43-.04-.1-.06-.22-.02-.34.14-.38.56-.84.8-.91h.8c.33,0,.63-.18.79-.46l1.65-2.87c.17-.3-.04-.68-.4-.68h-23.05c-.62,0-1.22.14-1.78.41-.89.43-2.48,1.27-4.96,2.77-3.41,2.05-11.58,4.72-14.61,5.68-.73.23-1.16.36-1.16.36Z"/>
          <path class="st1" d="M294.65,27.05s-4.82.42-9.32,1.01c-4.5.59-10.19,1.26-11.73,1.54-1.54.28-4.92.56-4.82.56s6.07-1.15,8.76-1.71c2.69-.56,8.03-1.22,10.61-1.57,2.58-.35,5.27-.49,5.76-.49s.73.66.73.66Z"/>
          <path class="st1" d="M304.71,29.56s-.91-.59-1.64-1.15c-.73-.56-1.01-.7-1.78-.7s-4.75-.07-6.35.1-7.47,1.26-9.95,1.71c-2.48.45-4.82.87-4.82.87,0,0,8.52-.7,11.66-1.36,3.14-.66,9.29-.63,9.74-.52.45.1,1.99,1.19,1.99,1.19l1.15-.14Z"/>
          <path class="st1" d="M254.1,29.72c12.85,1.73,17.61-6.37,28.51-7.7,9.14-1.12,12.53,1.82,13.42,2.86h.43c.33,0,.63-.18.79-.46l1.65-2.87c.17-.3-.04-.68-.4-.68h-23.05c-.62,0-1.22.14-1.78.41-.89.43-2.48,1.27-4.96,2.77-3.41,2.05-11.58,4.72-14.61,5.68Z"/>
          <g>
            <path class="st45" d="M316.54,29.32c.62-.42.89-1.59,1.46-1.51.31.04.36,1.24.36,1.51h-1.83Z"/>
            <path class="st40" d="M318.27,28.51s-.05-.5-.18-.59c-.13-.09-.31-.01-.39.06l.58.53Z"/>
          </g>
          <path class="st1" d="M303.28,38.36l9.58.12,7.31.09,6.14-2.37,9.7.11,2.87.03s11.52,3.56,15.15,4.19c3.63.63,6.91.77,6.91.77l-.35-1.4s-4.26-.98-9.01-3.42c-4.75-2.44-10.61-7.4-16.62-7.4h-22.59s-3.73.28-5.82,1.05l-3.28,8.24Z"/>
          <path class="st43" d="M347.54,34.63s3.86,2.61,6.61,3.44c0,0-2.79.42-6.47-1.26l-.14-2.19Z"/>
          <path class="st54" d="M336.09,29.67s-.59-.28-1.64-.28h-19.83l-.52,1.33h21.54l.45-1.05Z"/>
          <path class="st56" d="M312.86,38.48l7.31.09,6.14-2.37,9.7.11.78-2.9s-12.69-7.74-23.93,5.08Z"/>
          <path class="st1" d="M333.23,32.28s-5.17-2.05-10.92.05c0,0,5.33-1.3,10.47.98l.44-1.02Z"/>
          <polygon class="st2" points="328.41 32.66 329.77 35.93 331.31 35.93 329.93 32.66 328.41 32.66"/>
          <polygon class="st37" points="346.85 37.76 353.83 40.17 353.44 41.26 346.39 39.27 346.85 37.76"/>
          <g>
            <path class="st21" d="M260.92,34.54s-2.09-2.84-4.52-4.52c-2.27-1.57-4.74-2.93-5.04-5.47-.04-.31-.3-.54-.61-.54h-9.57l4.98,14.1,14.76-3.58Z"/>
            <path class="st16" d="M234.67,25.28l1.19,4.82.05.2,1.33,5.37h0s.04.15.04.15l.63,2.55c.07.27.3.45.58.45h1.44s.27-1.24,1.02-2.59c.03-.04.05-.09.08-.14.49-.85,1.18-1.73,2.12-2.35.32-.21.69-.42,1.11-.63h0c.08-.04.16-.08.24-.12h0c.95-.47,2.07-.92,3.14-1.31.09-.03.18-.07.27-.1,2-.73,3.75-1.24,3.75-1.24l-2.09-6.54c-.06-.18-.23-.3-.42-.3h-9.15c-.19,0-.35.13-.38.31-.08.44-.37,1.19-1.41,1.32-.4.05-.75,0-1.08-.06-.06-.01-.12-.03-.18-.04-.83-.2-1.51-.49-2.27.24Z"/>
            <path class="st13" d="M236.94,25.04c2.12,3.83,5.85,5.52,8.79,6.26.65.17,1.29.29,1.9.39.09-.03.18-.07.27-.1-.68-.1-1.41-.24-2.15-.42-2.88-.73-6.53-2.38-8.64-6.09-.06-.01-.12-.03-.18-.04Z"/>
            <path class="st13" d="M235.86,30.1l.05.2c2.69,1.79,5.74,2.54,8.34,2.81h0c.08-.04.16-.08.24-.12-2.67-.25-5.85-1.01-8.63-2.9Z"/>
            <path class="st13" d="M237.24,35.67l.04.15c1.27.24,2.5.37,3.67.41.03-.04.05-.09.08-.14-1.21-.04-2.47-.17-3.78-.43Z"/>
            <path class="st26" d="M240.52,24.25h8.2c.08,0,.15-.07.15-.15h0c0-.08-.07-.15-.15-.15h-8.2c-.08,0-.15.07-.15.15h0c0,.08.07.15.15.15Z"/>
            <path class="st28" d="M240.82,24.8h8.2c.08,0,.15-.07.15-.15h0c0-.08-.07-.15-.15-.15h-8.2c-.08,0-.15.07-.15.15h0c0,.08.07.15.15.15Z"/>
            <path class="st27" d="M241.07,25.36h8.2c.08,0,.15-.07.15-.15h0c0-.08-.07-.15-.15-.15h-8.2c-.08,0-.15.07-.15.15h0c0,.08.07.15.15.15Z"/>
            <path class="st29" d="M241.33,25.92h8.2c.08,0,.15-.07.15-.15h0c0-.08-.07-.15-.15-.15h-8.2c-.08,0-.15.07-.15.15h0c0,.08.07.15.15.15Z"/>
            <path class="st52" d="M250.33,24.98c0,.09.07.16.16.16s.16-.07.16-.16-.07-.16-.16-.16-.16.07-.16.16Z"/>
            <circle class="st57" cx="250.91" cy="26.35" r=".16"/>
          </g>
          <path class="st42" d="M329.2,36.36s-1.09,2.68-1.35,3.58c-.26.91-.74,3.49-.74,3.49l-.79-.14.84-3.47,1-3.51,1.05.05Z"/>
          <g>
            <path class="st48" d="M311.71,27.34h0s.07-.03.07-.07v-2.04s-.03-.07-.07-.07h0s-.07.03-.07.07v2.04s.03.07.07.07Z"/>
            <path class="st22" d="M311.12,27.67h0s.07-.03.07-.07v-2.04s-.03-.07-.07-.07h0s-.07.03-.07.07v2.04s.03.07.07.07Z"/>
            <path class="st56" d="M311.15,28.64c.04.21.25.28.39.3l.02.08.1.29s.05.07.09.07c1.04.18,1.53-.03,1.68-.12.03-.01.03-.05.01-.07l-.29-.38-.12-.17h-1.88Z"/>
            <path class="st6" d="M311.15,28.64c.04.23.25.3.39.32l.02.08c.86.03,1.34-.11,1.59-.23l-.12-.18h-1.88Z"/>
            <rect class="st51" x="310.08" y="26.6" width=".35" height="2.01" rx=".14" ry=".14" transform="translate(620.52 55.21) rotate(-180)"/>
            <path class="st56" d="M310.34,26.61v2.02s.04.08.08.08h2.39s1.22-.04,1.22-1.11c0,0-.09-1.07-1.91-1.07h-1.7s-.08.04-.08.08Z"/>
            <path class="st56" d="M310.34,26.61v2.02s.04.08.08.08h.4v-2.18h-.4s-.08.04-.08.08Z"/>
            <path class="st17" d="M313.92,27.51s-.32-.9-1.73-.9h-.5l2.23.9Z"/>
          </g>
          <path class="st1" d="M254.59,35.29l.7,4.37h46.22s5.77-.28,7.49-1.54l3.17-7.12s-1.96-1.3-3.17-1.44c0,0-2.61-.14-4.56-.23-1.96-.09-10.1-.6-18.06,1.16-4.81,1.07-12.07,2.46-19.08,3.48-.48.07-.96.14-1.44.2-.7.1-1.39.19-2.08.28h-.03c-3.32.42-6.47.73-9.16.84Z"/>
          <path class="st9" d="M263.75,34.45l2.7,5.21h6.87c-.39-.24-2.15-1.38-3.88-3.72-.81-1.1-1.55-1.68-2.14-1.97l-3.51.48h-.03Z"/>
          <path class="st56" d="M254.59,35.29l.7,4.37h14.55c-.51-.6-1.21-1.58-1.54-2.77-.32-1.17-1.06-2.13-2.44-2.72-4.08.56-8.01.98-11.27,1.11Z"/>
          <path class="st56" d="M302.39,29.44c5.75.3,6.31.33,6.77.47.29.09,1.01.39,1.51.61h-2.01c-.46,0-.88.19-1.19.52-2.16-.75-7.33-2.05-15.35-1.07,0,0,4.52-.81,10.26-.51Z"/>
          <path class="st10" d="M311.75,30.52h-3.08c-.62,0-1.19.35-1.46.91l-1.19,2.45c-.29.59.14,1.27.79,1.27h3.41l1.54-4.63Z"/>
          <path d="M332.18,35.43h-13.68l-1.82.72c-.67.27-1.39.4-2.12.4h-2.91l-2,.97h-1.65c-1,0-1.99.2-2.91.6l-1.59.68c-.95.41-1.97.61-3.01.6l-31.2-.4h-7.77s-.61-1.02-1.77-1.4h-3.82l-3.77,5.82h69.4l3.35-6.47h7.31l-.05-1.54Z"/>
          <path class="st39" d="M304.18,41.64s-30.3.07-36.1-.42c-5.8-.49-9.71-.56-12.99.98l-2.23,1.19h51.32v-1.75Z"/>
          <path class="st11" d="M323.56,43.16l4.26-7.69c.15-.27-.05-.61-.36-.6l-8.97.29c-.32.01-.63.08-.92.21-2.02.92-10.5,4.77-13.35,5.53-2.27.61-4.68,1.06-5.92,1.27-.49.09-.85.51-.85,1.01h0l26.11-.04Z"/>
          <path class="st30" d="M307.05,40.22c3.61-1.4,8.79-3.74,10.64-4.59.26-.12.53-.18.81-.19l8.97-.29c.06,0,.09.04.1.06.01.02.03.07,0,.12l-2.71,4.89h-17.82Z"/>
          <polygon class="st20" points="356.9 43.44 356.25 39.03 355.78 38.73 352.17 38.73 350.87 43.44 356.9 43.44"/>
          <path class="st23" d="M354.67,39.03h13.61s.56,1.98,0,4.49c0,0-7.47.05-12.43.05-.94-1.64-1.14-3.6-1.18-4.54Z"/>
          <path class="st47" d="M350.67,43.84h18.01c.22,0,.4-.18.4-.4h0c0-.22-.18-.4-.4-.4h-18.01c-.22,0-.4.18-.4.4h0c0,.22.18.4.4.4Z"/>
          <path class="st56" d="M306.56,43.25h2.27c1.08-.59,4.43-4.33,4.43-4.33,0,0-.17-.45-.21-.82-.03-.36,3.18-9.13,3.18-9.13h-3.85c-.33,0-.63.21-.74.52l-5.08,13.76Z"/>
          <path class="st15" d="M327.6,43.29s-1.3-.95-2.63-1.12h-14.1l-.54,1.16,17.27-.05Z"/>
          <path class="st56" d="M306.56,43.25h1.54l1.67-4.78,1.33-1.41,2.88-8.09h-1.6c-.33,0-.63.21-.74.52l-5.08,13.76Z"/>
          <path class="st12" d="M306.08,43.22c.06-.22.22-.62.22-.62h2.71l.84-.84c.11-.11.26-.17.42-.17h1.16c.15,0,.26.15.21.3l-.46,1.33h-5.1Z"/>
          <path class="st33" d="M249.81,43.84h78.34c.22,0,.4-.18.4-.4h0c0-.22-.18-.4-.4-.4h-78.34c-.22,0-.4.18-.4.4h0c0,.22.18.4.4.4Z"/>
          <path class="st24" d="M297.36,41.21c0,.09.07.16.16.16s.16-.07.16-.16-.07-.16-.16-.16-.16.07-.16.16Z"/>
          <path class="st50" d="M292.64,41.21c0,.09.07.16.16.16s.16-.07.16-.16-.07-.16-.16-.16-.16.07-.16.16Z"/>
          <path class="st34" d="M287.92,41.21c0,.09.07.16.16.16s.16-.07.16-.16-.07-.16-.16-.16-.16.07-.16.16Z"/>
          <path class="st44" d="M283.21,41.21c0,.09.07.16.16.16s.16-.07.16-.16-.07-.16-.16-.16-.16.07-.16.16Z"/>
          <path class="st58" d="M278.49,41.21c0,.09.07.16.16.16s.16-.07.16-.16-.07-.16-.16-.16-.16.07-.16.16Z"/>
          <g>
            <circle class="st14" cx="248.43" cy="37.58" r="9.06" transform="translate(53.16 195.69) rotate(-47.6)"/>
            <path class="st32" d="M244.34,31.83c-3.27,2.32-4.4,6.54-2.96,10.1-2.28-3.68-1.34-8.56,2.25-11.1,3.58-2.54,8.5-1.83,11.22,1.54-2.89-2.54-7.24-2.86-10.51-.54Z"/>
            <circle class="st19" cx="248.43" cy="37.58" r="4.58" transform="translate(-2.5 24.73) rotate(-5.67)"/>
            <path d="M244.45,37.58c0,2.2,1.78,3.97,3.97,3.97s3.97-1.78,3.97-3.97-1.78-3.97-3.97-3.97-3.97,1.78-3.97,3.97Z"/>
            <path class="st18" d="M247.52,38.49c-.32-.32-1.4.22-2.45,1.23-.24-.38-.42-.81-.53-1.27,1.45-.03,2.6-.4,2.6-.86s-1.15-.84-2.6-.86c.1-.46.28-.89.53-1.27,1.04,1,2.12,1.55,2.45,1.23.32-.32-.22-1.4-1.23-2.45.38-.24.81-.42,1.27-.53.03,1.45.4,2.6.86,2.6s.84-1.15.86-2.6c.46.1.89.28,1.27.53-1,1.04-1.55,2.12-1.23,2.45s1.4-.22,2.45-1.23c.24.38.42.81.53,1.27-1.45.03-2.6.4-2.6.86s1.15.84,2.6.86c-.1.46-.28.89-.53,1.27-1.04-1-2.12-1.55-2.45-1.23-.32.32.22,1.4,1.23,2.45-.38.24-.81.42-1.27.53-.03-1.45-.4-2.6-.86-2.6s-.84,1.15-.86,2.6c-.46-.1-.89-.28-1.27-.53,1-1.04,1.55-2.12,1.23-2.45Z"/>
            <path class="st46" d="M247.54,37.58c0,.49.4.89.89.89s.89-.4.89-.89-.4-.89-.89-.89-.89.4-.89.89Z"/>
            <path class="st55" d="M247.79,37.58c0,.35.28.64.64.64s.64-.28.64-.64-.28-.64-.64-.64-.64.28-.64.64Z"/>
            <path class="st38" d="M247.91,37.58c0,.29.23.52.52.52s.52-.23.52-.52-.23-.52-.52-.52-.52.23-.52.52Z"/>
          </g>
          <polygon class="st25" points="333.95 33.61 330.62 32.66 328.41 32.66 328.99 33.17 333.39 34.47 333.95 33.61"/>
          <g>
            <circle class="st36" cx="339.85" cy="37.58" r="9.06" transform="translate(.75 81.39) rotate(-13.67)"/>
            <path class="st41" d="M335.76,31.83c-3.27,2.32-4.4,6.54-2.96,10.1-2.28-3.68-1.34-8.56,2.25-11.1,3.58-2.54,8.5-1.83,11.22,1.54-2.89-2.54-7.24-2.86-10.51-.54Z"/>
            <circle class="st19" cx="339.85" cy="37.58" r="4.58" transform="translate(.52 79.59) rotate(-13.37)"/>
            <circle cx="339.85" cy="37.58" r="3.97" transform="translate(.51 79.52) rotate(-13.36)"/>
            <path class="st53" d="M338.94,38.49c-.32-.32-1.4.22-2.45,1.23-.24-.38-.42-.81-.53-1.27,1.45-.03,2.6-.4,2.6-.86s-1.15-.84-2.6-.86c.1-.46.28-.89.53-1.27,1.04,1,2.12,1.55,2.45,1.23.32-.32-.22-1.4-1.23-2.45.38-.24.81-.42,1.27-.53.03,1.45.4,2.6.86,2.6s.84-1.15.86-2.6c.46.1.89.28,1.27.53-1,1.04-1.55,2.12-1.23,2.45.32.32,1.4-.22,2.45-1.23.24.38.42.81.53,1.27-1.45.03-2.6.4-2.6.86s1.15.84,2.6.86c-.1.46-.28.89-.53,1.27-1.04-1-2.12-1.55-2.45-1.23s.22,1.4,1.23,2.45c-.38.24-.81.42-1.27.53-.03-1.45-.4-2.6-.86-2.6s-.84,1.15-.86,2.6c-.46-.1-.89-.28-1.27-.53,1-1.04,1.55-2.12,1.23-2.45Z"/>
            <path class="st60" d="M338.96,37.58c0,.49.4.89.89.89s.89-.4.89-.89-.4-.89-.89-.89-.89.4-.89.89Z"/>
            <path class="st55" d="M339.21,37.58c0,.35.28.64.64.64s.64-.28.64-.64-.28-.64-.64-.64-.64.28-.64.64Z"/>
            <path class="st49" d="M339.33,37.58c0,.29.23.52.52.52s.52-.23.52-.52-.23-.52-.52-.52-.52.23-.52.52Z"/>
          </g>
          <path class="st35" d="M291.26,26.81h.81c.22,0,.41-.18.41-.41h0c0-.22-.18-.41-.41-.41h-.81c-.22,0-.41.18-.41.41h0c0,.22.18.41.41.41Z"/>
          <path class="st56" d="M305.93,31.66s-1.82-1.35-7.35-1.16c-5.54.19-17.22,3.86-19.78,4.24,0,0,4.84-.23,10.85-1.72,6-1.49,10.09-2.5,14.06-1.16,3.23,1.09,2.23-.19,2.23-.19Z"/>
          <path class="st1" d="M267.63,36.68s-.27-.91-1.22-1.59c-.34-.24-.75-.35-1.16-.31l-3.66.4s.98,2.23,6.04,1.5Z"/>
          <path class="st4" d="M297.41,23.31s.76-1.07,1.08-1.68c.08-.16-.03-.35-.21-.35h-7.12l4.89,1.82,1.36.21Z"/>
          <path class="st3" d="M282.33,21.29h-6.98c-.43,0-.85.12-1.22.35-1.47.91-5.47,3.36-7.2,3.98,0,0,5.52-1.75,7.54-2.79s7.85-1.54,7.85-1.54Z"/>
        </g>
      </g>
      <g>
        <path class="st19" d="M10.89,12.43h14.15l.1.05c-2.24,9.95-3.4,15.01-3.48,15.18l-3.3,3.15c.91,1.83,1.45,2.84,1.6,3.03-2.29,9.74-3.54,14.94-3.74,15.59h-4.72c-.09,0-.13-.04-.13-.13,0-.14,1.05-4.98,3.15-14.53h-4.26c-1.58,6.84-2.73,11.73-3.43,14.66l-.13.05H1.65v-.05c.21-.97,1.21-5.06,3.02-12.28H.13l-.13-.05c.12-.95.21-1.42.28-1.42h4.75l1.6-6.41h-2.14c-.07,0-.1-.03-.1-.1.05-.95.15-1.42.28-1.42h2.25c.1,0,.7-2.34,1.78-7.01.03,0,.17-.52.41-1.55h-3.12c-.09,0-.13-.03-.13-.1.05-.95.15-1.42.28-1.42h3.38l.36-1.65h-5.09c-.09,0-.13-.04-.13-.13.09-.95.19-1.42.31-1.42h5.32c.27-1.34.47-2.02.59-2.02ZM12.6,21.38c-.83,3.81-1.24,5.77-1.24,5.87h4.26l.59.05c1.03-3.27,1.63-5.25,1.78-5.92h-5.4Z"/>
        <path class="st19" d="M33.92,12.43h10.74c.09.02.13.06.13.13-.03.28-3.08,12.57-9.14,36.87l-.13.05h-4.93l-.1-.05c.71-3.46,1.18-5.9,1.42-7.32h-3.79l-1.91,7.32-.1.05h-4.93c-.09,0-.13-.04-.13-.13,1.98-7.71,2.97-11.64,2.97-11.82h-1.65l-.13-.08c.09-.98.19-1.47.31-1.47h1.88l2.01-8.04h-2.43c-.09,0-.13-.03-.13-.1.07-.91.15-1.37.26-1.37h2.71c1.03-4.41,1.63-6.7,1.78-6.85.05-.02.22-.23.49-.65h-2.5l-.1-.05c.07-.95.16-1.42.28-1.42h3.46c.05-.14.72-1.09,2.01-2.87h-5.58l-.13-.05c.09-.95.18-1.42.28-1.42h6.53c0-.14.18-.38.54-.72ZM33.09,21.4c-2.22,8.86-3.33,13.34-3.33,13.45h.05c.83.03,1.51.05,2.04.05h1.01c.27,0,.71.03,1.29.08,2.19-8.88,3.28-13.4,3.28-13.58h-4.34Z"/>
        <path class="st19" d="M62.91,12.53l.13.05c-1.5,6-2.28,9.05-2.35,9.15h-4.05c-.05,0-.08-.03-.08-.08-.04,0-.05.03-.05.08-1.19-.05-2.07-.08-2.66-.08h-1.76l-4.1,15.85c.38,1.69.57,2.64.57,2.84,2.44-.05,4.41-.08,5.89-.08h1.37c.07.02.1.06.1.13-1.26,5.5-1.96,8.52-2.12,9.08l-10.4-.13c-.31-1.07-.86-3.56-1.65-7.47,0-.14.78-3.28,2.35-9.44h-1.57l-.13-.05c.1-.98.2-1.47.28-1.47h1.83c0-.1.23-1.07.7-2.9h-1.86l-.13-.05c.1-.98.2-1.47.28-1.47h2.12l1.83-7.42h-1.47c-.07,0-.1-.04-.1-.13.05-.9.13-1.34.23-1.34h1.76l.7-2.82h-2.53c-.07,0-.1-.04-.1-.13.05-.9.15-1.34.28-1.34h2.66c.07,0,.16-.26.28-.78h13.76Z"/>
        <path class="st19" d="M71.02,12.33h8.29l.13.05-2.19,9.26c-.91-.03-1.59-.05-2.04-.05h-.59l-.72-.05-4.52,18.64h.05c.29,0,1.27.02,2.94.05l.05.1-1.99,9.15c-.84-.03-1.47-.05-1.88-.05h-1.24s-.05-.03-.05-.08c-.05,0-.08.03-.08.08-.91-.05-3.64-.11-8.18-.18l-.05-.13c1.22-5.19,1.93-8.14,2.12-8.84l.13-.05c1.2.03,2.16.05,2.87.05h.08c.07,0,.22-.55.46-1.65h-4.88c-.09,0-.13-.03-.13-.1.07-.91.16-1.37.28-1.37h5.09l1.94-7.96h-5.65v-.05c.05-.98.13-1.47.23-1.47h5.78c.93-3.88,1.39-5.89,1.39-6.02h-.05c-.69-.03-1.26-.05-1.7-.05h-.83c-.29,0-.45-.06-.46-.18l.28-1.16h-1.94c-.09,0-.13-.04-.13-.13.07-.9.17-1.34.31-1.34h2.17l.65-2.79h-2.94c-.07,0-.1-.03-.1-.1.07-.95.16-1.42.28-1.42h3.12c.07,0,.27-.66.59-1.99.03,0,.05-.03.05-.08,1.43-.03,2.45-.05,3.07-.05Z"/>
        <path class="st19" d="M92.67,12.33c.09.02.13.06.13.13.5,12.45.75,18.96.75,19.55.05.07.08.13.08.18h.05c.58-2.53,2.21-9.14,4.88-19.81h4.8l.1.08-9.14,36.85-.13.05h-4.65c-.09,0-.13-.03-.13-.1l-.98-19.44h-.08c-2.75,11.84-4.3,18.4-4.65,19.68h-1.01s-.05-.02-.05-.05c-.05,0-.08.02-.08.05-.33-.03-.58-.05-.75-.05-.65,0-1.72-.03-3.2-.08l-.05-.1,3.67-14.76h-2.71c-.09,0-.13-.04-.13-.13.05-.9.13-1.34.23-1.34h3.02c0-.17.28-1.3.83-3.39h-4.13l-.13-.05c.09-.95.19-1.42.31-1.42h4.29c.95-3.79,1.44-5.74,1.47-5.84h-4.7l-.13-.05c.09-.98.19-1.47.31-1.47h4.83c.07-.02.36-1.09.88-3.21h-2.76l-.13-.05c.1-.95.21-1.42.31-1.42h2.94c.58-2.43.92-3.69,1.01-3.78h4.83Z"/>
        <path class="st19" d="M108.6,12.53h13.66c.5,0,.85.04,1.06.13-1.48,5.95-2.25,8.97-2.3,9.08h-9.42l-4.16,15.9v.05l.59,2.77h3.85c.1,0,.42-1.31.96-3.93.07-.17.21-.74.41-1.71h-.08c-.17,0-.62-.02-1.34-.05,0-.05-.02-.08-.05-.08l2.04-8.02h.13c.88,0,2.91-.03,6.09-.08,0,.05.02.08.05.08-3.39,14.1-5.22,21.64-5.5,22.62h-1.94c-.45,0-1.13.02-2.04.05v-.05l-.13.05c-3.49.05-5.62.08-6.38.08-.69.03-1.1.05-1.24.05-.12-.29-.66-2.76-1.63-7.4l1.16-4.81h-2.92c-.09,0-.13-.03-.13-.1.09-.88.16-1.35.23-1.42l.28.05h2.81c.1,0,.67-2.22,1.7-6.67.03-.03.16-.45.36-1.24h-3.69l-.13-.05c.1-.98.21-1.47.31-1.47h3.79c.09,0,.71-2.46,1.88-7.37h-3.23c-.09,0-.13-.04-.13-.13.07-.9.17-1.34.31-1.34h3.43c0-.09.22-1.01.65-2.77h-4.21c-.07,0-.1-.03-.1-.1.07-.95.16-1.42.28-1.42h4.44c.07-.47.15-.7.23-.7Z"/>
        <path class="st19" d="M146.34,12.43h14.09l.13.05c-1.5,5.53-2.31,8.47-2.43,8.82h-6.97c-.45,0-1.14-.02-2.06-.05l-1.06,4.47h9.22c.07.02.1.06.1.13-3.86,15.24-5.88,23.12-6.07,23.63h-14.1c-.09,0-.13-.04-.13-.13,1.41-6.08,2.16-9.21,2.25-9.39h9.37l1.32-4.91h-9.16l-.1-.05c.83-3.36,1.3-5.35,1.42-5.97h-4.31l-.13-.05c.1-.98.21-1.47.31-1.47h4.54c.19-.83.28-1.28.28-1.37h-2.53l-.13-.05c.09-.98.19-1.47.31-1.47h2.76l1.06-4.5h-3.82c-.09,0-.13-.03-.13-.1.05-.95.15-1.42.28-1.42h4.08c0-.1.21-1.03.65-2.79h-4.83c-.09,0-.13-.03-.13-.1.07-.95.17-1.42.31-1.42h4.96c.07,0,.24-.59.52-1.78l.13-.05Z"/>
        <path class="st19" d="M164.9,12.43h13.79l.1.05c-1.29,5.17-2.06,8.2-2.3,9.08h-9.04l-1.65,5.25h.05c.79,0,3.05-.03,6.79-.1,0,.29-.65,3.02-1.94,8.17-1.65-.09-2.9-.13-3.74-.13v-.05s-.05.02-.05.05l-.28-.05h-.49c-.38,0-.96-.03-1.76-.08l-.77,2.74c0,.16.26,1.18.77,3.08,1.72-.05,3-.08,3.85-.08h1.39c.46,0,1.2-.02,2.19-.05,0,.03.02.05.05.05-1.5,5.84-2.3,8.89-2.4,9.13h-10.22c-.12,0-.5-1.48-1.14-4.45-.19-.59-.42-1.57-.7-2.95l1.11-4.55h-2.06v-.08c.03-.98.11-1.47.23-1.47h2.25c0-.12.65-2.77,1.96-7.94h-2.74c-.07,0-.1-.03-.1-.1.07-.95.16-1.42.28-1.42h2.97c0-.12.61-2.61,1.83-7.47h-2.38l-.1-.05c.1-.95.2-1.42.28-1.42h2.48c.09,0,.34-.95.77-2.84h-3.43v-.05c.05-.95.13-1.42.23-1.42h3.61c.07-.55.16-.83.28-.83Z"/>
        <path class="st19" d="M190.93,12.33c.09.02.13.06.13.13.5,12.45.75,18.96.75,19.55.05.07.08.13.08.18h.05c.58-2.53,2.21-9.14,4.88-19.81h4.8l.1.08-9.14,36.85-.13.05h-4.65c-.09,0-.13-.03-.13-.1l-.98-19.44h-.08c-2.75,11.84-4.3,18.4-4.65,19.68h-1.01s-.05-.02-.05-.05c-.05,0-.08.02-.08.05-.33-.03-.58-.05-.75-.05-.65,0-1.72-.03-3.2-.08l-.05-.1,3.67-14.76h-2.71c-.09,0-.13-.04-.13-.13.05-.9.13-1.34.23-1.34h3.02c0-.17.28-1.3.83-3.39h-4.13l-.13-.05c.09-.95.19-1.42.31-1.42h4.29c.95-3.79,1.44-5.74,1.47-5.84h-4.7l-.13-.05c.09-.98.19-1.47.31-1.47h4.83c.07-.02.36-1.09.88-3.21h-2.76l-.13-.05c.1-.95.21-1.42.31-1.42h2.94c.58-2.43.92-3.69,1.01-3.78h4.83Z"/>
        <path class="st19" d="M210.49,12.43h10.74c.09.02.13.06.13.13-.04.28-3.08,12.57-9.14,36.87l-.13.05h-4.93l-.1-.05c.71-3.46,1.18-5.9,1.42-7.32h-3.79l-1.91,7.32-.1.05h-4.93c-.09,0-.13-.04-.13-.13,1.98-7.71,2.97-11.64,2.97-11.82h-1.65l-.13-.08c.09-.98.19-1.47.31-1.47h1.88l2.01-8.04h-2.43c-.09,0-.13-.03-.13-.1.07-.91.15-1.37.26-1.37h2.71c1.03-4.41,1.63-6.7,1.78-6.85.05-.02.22-.23.49-.65h-2.5l-.1-.05c.07-.95.16-1.42.28-1.42h3.46c.05-.14.72-1.09,2.01-2.87h-5.58l-.13-.05c.09-.95.18-1.42.28-1.42h6.53c0-.14.18-.38.54-.72ZM209.67,21.4c-2.22,8.86-3.33,13.34-3.33,13.45h.05c.83.03,1.51.05,2.04.05h1.01c.28,0,.71.03,1.29.08,2.18-8.88,3.28-13.4,3.28-13.58h-4.34Z"/>
        <path class="st19" d="M239.48,12.53l.13.05c-1.5,6-2.28,9.05-2.35,9.15h-4.05c-.05,0-.08-.03-.08-.08-.03,0-.05.03-.05.08-1.19-.05-2.07-.08-2.66-.08h-1.76l-4.1,15.85c.38,1.69.57,2.64.57,2.84,2.44-.05,4.41-.08,5.89-.08h1.37c.07.02.1.06.1.13-1.26,5.5-1.96,8.52-2.12,9.08l-10.4-.13c-.31-1.07-.86-3.56-1.65-7.47,0-.14.78-3.28,2.35-9.44h-1.58l-.13-.05c.1-.98.2-1.47.28-1.47h1.83c0-.1.23-1.07.7-2.9h-1.86l-.13-.05c.1-.98.2-1.47.28-1.47h2.12l1.83-7.42h-1.47c-.07,0-.1-.04-.1-.13.05-.9.13-1.34.23-1.34h1.76l.7-2.82h-2.53c-.07,0-.1-.04-.1-.13.05-.9.15-1.34.28-1.34h2.66c.07,0,.16-.26.28-.78h13.76Z"/>
      </g>
    </g>
  </g>
</svg>