<?xml version="1.0" encoding="UTF-8"?>
<svg id="OBJECTS" xmlns="http://www.w3.org/2000/svg" version="1.1" viewBox="0 0 370 64">
  <!-- Generator: Adobe Illustrator 29.1.0, SVG Export Plug-In . SVG Version: 2.1.0 Build 142)  -->
  <defs>
    <style>
      .st0 {
        fill: #40012f;
      }

      .st1 {
        fill: #a0b6d0;
      }

      .st2 {
        fill: #fff;
      }

      .st3 {
        fill: #bf0413;
        font-family: Terminalvelocity, 'Terminal velocity';
        font-size: 52.96px;
      }

      .st4 {
        fill: #2a3a4a;
      }

      .st5 {
        fill: #6186b0;
      }

      .st6 {
        fill: #26011c;
      }
    </style>
  </defs>
  <g>
    <path class="st0" d="M351.34,16.74l-8.98,1.12c-.63.08-2.15.33-2.63.87-.67.75-.93,1.51-1.03,1.95l-1.3-.84h-.01s-.4-.23-1.09-.42c-.84-.23-1.74-.31-2.69-.26-5.02.31-10.01-.8-12.54-1.49-.68-.19-.94-.25-1.34-.39-.01,0-.58-.14-1.31-.13-.73,0-2.05.29-2.05.29h-.01c-.82.12-1.27.38-1.36.78-.13.56.53,1.05.62,1.11l.21,7.51,23.82-5.56-.07-.04,8.68-1.68,3.09-2.81Z"/>
    <path class="st0" d="M318.44,27.13c-.25-1.19-.2-3.06-.2-3.08v-.09c-1.21-5.34-5.7-8.75-12.34-9.33h-.05s-13.34,2.38-13.34,2.38l-.08.09c-.63.69-1.59,1.91-2.32,3.05l-.36.56,18.36,5.13h.02c.07.03,1.85.64,2.84.64,1.36,0,2.74-.43,3.18-.58l4.43,1.93-.14-.69Z"/>
    <path class="st4" d="M255.44,48.46c0,7.12,5.77,12.89,12.89,12.89s12.9-5.77,12.9-12.89-5.77-12.9-12.9-12.9-12.89,5.77-12.89,12.9Z"/>
    <g>
      <path class="st1" d="M275.81,48.46c0,4.13-3.35,7.48-7.48,7.48v-14.95c4.13,0,7.48,3.35,7.48,7.48Z"/>
      <path class="st2" d="M268.33,40.98v14.95c-4.13,0-7.47-3.35-7.47-7.48s3.35-7.48,7.47-7.48Z"/>
    </g>
    <path class="st4" d="M327.82,48.46c0,7.12,5.77,12.89,12.9,12.89s12.89-5.77,12.89-12.89-5.77-12.9-12.89-12.9-12.9,5.77-12.9,12.9Z"/>
    <g>
      <path class="st1" d="M348.18,48.46c0,4.13-3.35,7.48-7.47,7.48v-14.95c4.13,0,7.47,3.35,7.47,7.48Z"/>
      <path class="st2" d="M340.71,40.98v14.95c-4.13,0-7.48-3.35-7.48-7.48s3.35-7.48,7.48-7.48Z"/>
    </g>
    <path class="st0" d="M269.94,49.3l10.66-10.66-2.53-2.53-10.59,10.41c-.58.52-1.09,1.07-1.09,1.85,0,1.05.85,1.9,1.9,1.9.28,0,.54-.06.78-.17l.15-.08c.3-.17.54-.42.71-.72Z"/>
    <path class="st6" d="M342.06,47.1l-7.43-9.37c-.61-.73-1.42-1.1-2.43-1.1-1.27,0-2.4.61-2.52.68l-8.52,4.31c0-.48-.35-1.17-.08-1.49-3.7.08-6.55-4.25-9.77-5.61-1.8-.76-2.53-1.19-4.21-2.05-2.48-1.27-6.51-4.52-9.27-4.8-4.88-.48-12.83-.88-17.61.15-3.48.76-7.05,3.49-8.2,7.27l10.29,8.15c1.58,1.98,1.87,4.44,1.94,6.57l-.02,3.87h7.2s32.14.01,32.14.01l7.2-9.56,9.08,5.96h0c.28.15.59.25.93.25,1.04,0,1.88-.84,1.88-1.88,0-.54-.23-1.02-.59-1.36Z"/>
    <path class="st6" d="M348.88,17.36s-10.17,3.35-12.12,3.98c-6.32,2.05-13.05,2.46-16.52,2.46-1.48,0-2.39-.06-2.4-.06h-.08s-3.6,1.4-3.6,1.4h-.01c-.07.04-.14.07-.2.1-.28.1-1.68.56-3.01.56-.83,0-2.45-.54-2.59-.59l-17.99-5.27-.11.16s-.11.15-.31.37l-.04-.03-.17.25c-.57.56-1.6,1.39-3.15,1.86h-6.01c-1.9,0-2.13-2.11-2.14-2.21l-.02-.19s.04-.04.06-.06c3.07-2.74,6.31-4.13,7.83-4.7.25-.08.48-.16.66-.24.13-.04.21-.07.23-.08.15-.07.32-.14.49-.22.06-.03.11-.05.12-.05t0,0c.29-.14.59-.32.9-.67.33-.37.31-.87.31-.87h-.01c0-.62-.43-1.27-1.33-1.93l-3.81-2.67-15.32,13.52c-1.72,1.47-2.93,2.83-3.09,3.01-1.54,1.42-2.1,2.47-1.78,3.31l8.31,6.58c3.39-1.97,6.49-3.77,9.73-4.61,3.49-.9,9.46-1,14.33-.4,3.57.44,7.12,2.15,9.6,3.42,1.68.86,2.62,2.62,4.25,3.69,3.73,2.45,6.41,4.41,11.24,4.41.03-.04-.02-1.56.02-1.59,28.07-16.4,30.72-19.66,30.72-19.66,2.33-3.04.64-4.53-3.03-3.01Z"/>
    <polygon class="st5" points="275.71 38.03 271.07 42.68 273.97 45.59 278.96 40.6 275.71 38.03"/>
    <path class="st2" d="M269.57,48.31c0,.68-.56,1.24-1.24,1.24s-1.24-.56-1.24-1.24.55-1.24,1.24-1.24,1.24.55,1.24,1.24Z"/>
    <path class="st2" d="M341.95,48.31c0,.68-.56,1.24-1.24,1.24s-1.24-.56-1.24-1.24.55-1.24,1.24-1.24,1.24.55,1.24,1.24Z"/>
    <path class="st0" d="M287.94,12.88l.96-.18c0-.56-.82-1.07-1.62-1.66l-3.39-2.37-13.6,12.01c.87-.74,1.89-1.52,2.97-2.17,3.39-2.02,13.01-5.25,14.68-5.64Z"/>
    <path class="st2" d="M271.98,21.95s-1.21.86-2.49,2.03c-1.33,1.22-1.97,1.95-2,1.98l-.62.72,3.5-.7h.03c.84-.25,1.76-.92,1.91-1.88l.24-2.56-.58.41Z"/>
    <path class="st0" d="M319.13,40.03l-7.13-1.93-1.31-4.18-21.3-6.14c-.62-.18-1.01-.45-1.16-.82-.21-.52.13-1.11.13-1.11l.28-.47-.54-.03s-.47-.02-1.18-.02c-3.38,0-7.5.43-7.93,2.48-.19.89,1.25,1.4,4.04,2.28l40.88,15.03.13.05.84-.43-5.74-4.71Z"/>
  </g>
  <text class="st3" transform="translate(0 49.49)"><tspan x="0" y="0">Racing Senac</tspan></text>
</svg>