<?xml version="1.0" encoding="UTF-8"?>
<svg id="OBJECTS" xmlns="http://www.w3.org/2000/svg" version="1.1" viewBox="0 0 370 64">
  <!-- Generator: Adobe Illustrator 29.1.0, SVG Export Plug-In . SVG Version: 2.1.0 Build 142)  -->
  <defs>
    <style>
      .st0 {
        fill: #c2c5c6;
      }

      .st1 {
        fill: #40012f;
      }

      .st2 {
        fill: #5c6977;
      }

      .st3, .st4 {
        fill: #bf0413;
      }

      .st4 {
        font-family: Terminalvelocity, 'Terminal velocity';
        font-size: 52.96px;
      }

      .st5 {
        fill: #2a323a;
      }

      .st6 {
        fill: #303842;
      }

      .st7 {
        stroke-linecap: round;
        stroke-linejoin: round;
        stroke-width: 4.48px;
      }

      .st7, .st8 {
        fill: none;
        stroke: #bf0413;
      }

      .st8 {
        stroke-miterlimit: 10;
        stroke-width: 2.77px;
      }
    </style>
  </defs>
  <g>
    <path class="st0" d="M262.14,58.01c0,1.42,14.64,2.57,32.7,2.57,18.06,0,32.7-1.15,32.7-2.57s-14.64-2.57-32.7-2.57c-18.06,0-32.7,1.15-32.7,2.57Z"/>
    <path class="st3" d="M316.61,16.74c-1.21-.39-2.5.28-2.89,1.49-.39,1.21.28,2.5,1.49,2.89,1.21.39,2.5-.28,2.89-1.49.39-1.21-.28-2.5-1.49-2.89Z"/>
    <path class="st1" d="M299.45,20.09l8.63,2.45-1.42.49,6.93-3.65,2.09,1.79-6.6,4.44c-.35.35-.81.51-1.26.49h-.16s-8.84-1.03-8.84-1.03l.64-4.99Z"/>
    <path class="st1" d="M300.66,34.48l5,9.14.07.13c.25.45.33.94.27,1.42l-1.17,9.55-3.41-.42-.13-9.71.34,1.54-6-8.51,5.02-3.13Z"/>
    <path class="st3" d="M283.55,34.91c-1.21-.39-2.5.28-2.89,1.49-.39,1.21.28,2.5,1.49,2.89,1.21.39,2.5-.28,2.89-1.49.39-1.21-.28-2.5-1.49-2.89Z"/>
    <path class="st1" d="M299.58,19.28l-5.98-.12c-1.73-.04-3.18,1.25-3.22,2.86l-.31,12.99,11.95-.32.51-12.51c.06-1.57-1.25-2.87-2.95-2.9Z"/>
    <path class="st1" d="M294.84,23.87l-8.32,3.54.88-1.14-2.72,9.21-2.63-.66,1.84-9.48c.1-.44.37-.8.72-1.03l.16-.11,7.67-4.97,2.39,4.65Z"/>
    <path class="st1" d="M290.06,34.9h0c-.07,2.73,2.28,4.95,5.23,4.94h0c4.34.18,6.68-2.24,6.72-4.98v-.28s-11.95.32-11.95.32Z"/>
    <path class="st1" d="M296.68,38.04l-2.65,9-.06.15c-.1.22-.23.42-.38.6l-5.95,6.81-2.7-2.62,5.09-7.32-.44.74,1.32-9.36,5.78,2.01Z"/>
    <line class="st8" x1="299.28" y1="19.28" x2="298.6" y2="33.74"/>
    <polygon class="st3" points="302.01 34.77 290.06 34.9 290.12 32.77 302.11 32.58 302.01 34.77"/>
    <g>
      <polygon class="st3" points="304.93 55.27 308.47 58.52 300.9 58.54 301.32 55.92 304.93 55.27"/>
      <polygon class="st3" points="304.93 55.42 305.64 53.63 300.99 53.63 300.9 58.54 304.93 55.42"/>
    </g>
    <g>
      <polygon class="st3" points="287.71 54.97 288.92 59.39 282.36 55.21 284.26 53.38 287.71 54.97"/>
      <polygon class="st3" points="287.71 54.97 289.14 53.75 285.06 51.11 282.36 55.21 287.71 54.97"/>
    </g>
    <path class="st3" d="M302.72,19.34c-.3,1.94-2.87,3.16-5.73,2.72-2.86-.44-4.94-2.38-4.64-4.32.3-1.94,2.87-3.16,5.73-2.72,2.86.44,4.94,2.38,4.64,4.32Z"/>
    <path class="st3" d="M287.69,12.95h0c-.08-.49-.1-1-.07-1.52.24-4.35,4.2-7.67,8.85-7.42,4.35.24,7.76,3.51,7.99,7.49h0l.07,5.97c0,2.28-2.01,3.52-4.28,3.64-3.45.19-6.35-.82-8.68-2.13-1.68-.95-3.35-3.3-3.71-5.2l-.06-.3c-.04-.17-.07-.35-.1-.52v-.02Z"/>
    <path class="st6" d="M304.44,9.98s-.14,2.12-10.92.15c-.68-.12-1.33-.07-1.8.58h0c-.43.48-.19,1.86.09,2.43l.3.64c.99,2.08,3.07,3.59,5.53,4,3.03.51,6.38.16,7.23-1.97l-.43-5.83Z"/>
    <path class="st3" d="M301.01,7.77c-.13,1.16-2.03,1.91-4.26,1.67-2.23-.24-3.93-1.38-3.8-2.54.13-1.16,2.03-1.91,4.26-1.67,2.23.24,3.93,1.38,3.8,2.54Z"/>
    <path class="st5" d="M293.63,15.84s6.05-3.08,10.89.64c0,0-1.37,2.07-6.34,1.39,0,0-2.53-.02-4.55-2.02Z"/>
    <path class="st2" d="M293.91,11.63c0,.43-.35.78-.78.78s-.78-.35-.78-.78c0-.43.35-.78.78-.78s.78.35.78.78Z"/>
    <line class="st7" x1="314.29" y1="16.47" x2="314.38" y2="18.71"/>
  </g>
  <text class="st4" transform="translate(0 49.52)"><tspan x="0" y="0">Racing Senac</tspan></text>
</svg>