<?xml version="1.0" encoding="UTF-8"?>
<svg id="OBJECTS" xmlns="http://www.w3.org/2000/svg" version="1.1" viewBox="0 0 370 64">
  <!-- Generator: Adobe Illustrator 29.1.0, SVG Export Plug-In . SVG Version: 2.1.0 Build 142)  -->
  <defs>
    <style>
      .st0 {
        fill: #bf0413;
      }

      .st1 {
        fill: #26011c;
      }
    </style>
  </defs>
  <g>
    <path class="st0" d="M10.89,12.43h14.15l.1.05c-2.24,9.95-3.4,15.01-3.48,15.18l-3.3,3.15c.91,1.83,1.45,2.84,1.6,3.03-2.29,9.74-3.54,14.94-3.74,15.59h-4.72c-.09,0-.13-.04-.13-.13,0-.14,1.05-4.98,3.15-14.53h-4.26c-1.58,6.84-2.73,11.73-3.43,14.66l-.13.05H1.65v-.05c.21-.96,1.21-5.06,3.02-12.28H.13l-.13-.05c.12-.95.21-1.42.28-1.42h4.75l1.6-6.41h-2.14c-.07,0-.1-.03-.1-.1.05-.95.15-1.42.28-1.42h2.25c.1,0,.7-2.34,1.78-7.01.03,0,.17-.52.41-1.55h-3.12c-.09,0-.13-.04-.13-.1.05-.95.15-1.42.28-1.42h3.38l.36-1.65h-5.09c-.09,0-.13-.04-.13-.13.09-.95.19-1.42.31-1.42h5.32c.27-1.34.47-2.02.59-2.02ZM12.6,21.37c-.83,3.81-1.24,5.77-1.24,5.87h4.26l.59.05c1.03-3.28,1.63-5.25,1.78-5.92h-5.4Z"/>
    <path class="st0" d="M33.92,12.43h10.74c.09.02.13.06.13.13-.03.27-3.08,12.57-9.14,36.87l-.13.05h-4.93l-.1-.05c.71-3.46,1.18-5.9,1.42-7.32h-3.79l-1.91,7.32-.1.05h-4.93c-.09,0-.13-.04-.13-.13,1.98-7.71,2.97-11.65,2.97-11.82h-1.65l-.13-.08c.09-.98.19-1.47.31-1.47h1.88l2.01-8.04h-2.43c-.09,0-.13-.03-.13-.1.07-.91.15-1.37.26-1.37h2.71c1.03-4.41,1.63-6.7,1.78-6.85.05-.02.22-.23.49-.65h-2.5l-.1-.05c.07-.95.16-1.42.28-1.42h3.46c.05-.14.72-1.09,2.01-2.87h-5.58l-.13-.05c.09-.95.18-1.42.28-1.42h6.53c0-.14.18-.38.54-.72ZM33.09,21.4c-2.22,8.86-3.33,13.34-3.33,13.45h.05c.83.03,1.51.05,2.04.05h1.01c.27,0,.71.03,1.29.08,2.19-8.88,3.28-13.4,3.28-13.58h-4.34Z"/>
    <path class="st0" d="M62.91,12.53l.13.05c-1.5,6-2.28,9.05-2.35,9.15h-4.05c-.05,0-.08-.03-.08-.08-.03,0-.05.03-.05.08-1.19-.05-2.07-.08-2.66-.08h-1.76l-4.1,15.85c.38,1.69.57,2.64.57,2.84,2.44-.05,4.41-.08,5.89-.08h1.37c.07.02.1.06.1.13-1.26,5.5-1.96,8.52-2.12,9.08l-10.4-.13c-.31-1.07-.86-3.56-1.65-7.47,0-.14.78-3.28,2.35-9.44h-1.57l-.13-.05c.1-.98.2-1.47.28-1.47h1.83c0-.1.23-1.07.7-2.9h-1.86l-.13-.05c.1-.98.2-1.47.28-1.47h2.12l1.83-7.42h-1.47c-.07,0-.1-.04-.1-.13.05-.9.13-1.34.23-1.34h1.76l.7-2.82h-2.53c-.07,0-.1-.04-.1-.13.05-.9.15-1.34.28-1.34h2.66c.07,0,.16-.26.28-.78h13.76Z"/>
    <path class="st0" d="M71.02,12.33h8.29l.13.05-2.19,9.26c-.91-.03-1.59-.05-2.04-.05h-.59l-.72-.05-4.52,18.64h.05c.29,0,1.27.02,2.94.05l.05.1-1.99,9.15c-.84-.03-1.47-.05-1.88-.05h-1.24s-.05-.03-.05-.08c-.05,0-.08.03-.08.08-.91-.05-3.64-.11-8.18-.18l-.05-.13c1.22-5.19,1.93-8.14,2.12-8.84l.13-.05c1.2.04,2.16.05,2.87.05h.08c.07,0,.22-.55.46-1.65h-4.88c-.09,0-.13-.03-.13-.1.07-.91.16-1.37.28-1.37h5.09l1.94-7.96h-5.65v-.05c.05-.98.13-1.47.23-1.47h5.78c.93-3.88,1.39-5.89,1.39-6.03h-.05c-.69-.03-1.26-.05-1.7-.05h-.83c-.29,0-.45-.06-.46-.18l.28-1.16h-1.94c-.09,0-.13-.04-.13-.13.07-.9.17-1.34.31-1.34h2.17l.65-2.79h-2.94c-.07,0-.1-.03-.1-.1.07-.95.16-1.42.28-1.42h3.12c.07,0,.27-.66.59-1.99.03,0,.05-.03.05-.08,1.43-.04,2.45-.05,3.07-.05Z"/>
    <path class="st0" d="M92.67,12.33c.09.02.13.06.13.13.5,12.45.75,18.96.75,19.55.05.07.08.13.08.18h.05c.58-2.53,2.21-9.14,4.88-19.81h4.8l.1.08-9.14,36.85-.13.05h-4.65c-.09,0-.13-.04-.13-.1l-.98-19.45h-.08c-2.75,11.84-4.3,18.4-4.65,19.68h-1.01s-.05-.02-.05-.05c-.05,0-.08.02-.08.05-.33-.03-.58-.05-.75-.05-.65,0-1.72-.03-3.2-.08l-.05-.1,3.67-14.77h-2.71c-.09,0-.13-.04-.13-.13.05-.9.13-1.34.23-1.34h3.02c0-.17.28-1.3.83-3.39h-4.13l-.13-.05c.09-.95.19-1.42.31-1.42h4.29c.95-3.79,1.44-5.74,1.47-5.84h-4.7l-.13-.05c.09-.98.19-1.47.31-1.47h4.83c.07-.02.36-1.09.88-3.21h-2.76l-.13-.05c.1-.95.21-1.42.31-1.42h2.94c.58-2.43.92-3.69,1.01-3.77h4.83Z"/>
    <path class="st0" d="M108.6,12.53h13.66c.5,0,.85.04,1.06.13-1.48,5.95-2.25,8.97-2.3,9.08h-9.42l-4.16,15.9v.05l.59,2.77h3.85c.1,0,.42-1.31.96-3.93.07-.17.21-.74.41-1.71h-.08c-.17,0-.62-.02-1.34-.05,0-.05-.02-.08-.05-.08l2.04-8.02h.13c.88,0,2.91-.03,6.09-.08,0,.05.02.08.05.08-3.39,14.1-5.22,21.64-5.5,22.63h-1.94c-.45,0-1.13.02-2.04.05v-.05l-.13.05c-3.49.05-5.62.08-6.38.08-.69.04-1.1.05-1.24.05-.12-.29-.66-2.76-1.63-7.4l1.16-4.81h-2.92c-.09,0-.13-.03-.13-.1.09-.88.16-1.35.23-1.42l.28.05h2.81c.1,0,.67-2.22,1.7-6.67.03-.03.16-.45.36-1.24h-3.69l-.13-.05c.1-.98.21-1.47.31-1.47h3.79c.09,0,.71-2.46,1.88-7.37h-3.23c-.09,0-.13-.04-.13-.13.07-.9.17-1.34.31-1.34h3.43c0-.09.21-1.01.65-2.77h-4.21c-.07,0-.1-.04-.1-.1.07-.95.16-1.42.28-1.42h4.44c.07-.46.15-.7.23-.7Z"/>
    <path class="st0" d="M146.34,12.43h14.09l.13.05c-1.5,5.53-2.31,8.47-2.43,8.82h-6.97c-.45,0-1.14-.02-2.06-.05l-1.06,4.47h9.22c.07.02.1.06.1.13-3.86,15.24-5.88,23.12-6.07,23.63h-14.1c-.09,0-.13-.04-.13-.13,1.41-6.09,2.16-9.21,2.25-9.39h9.37l1.32-4.91h-9.16l-.1-.05c.83-3.36,1.3-5.35,1.42-5.97h-4.31l-.13-.05c.1-.98.21-1.47.31-1.47h4.54c.19-.83.28-1.28.28-1.37h-2.53l-.13-.05c.09-.98.19-1.47.31-1.47h2.76l1.06-4.5h-3.82c-.09,0-.13-.03-.13-.1.05-.95.15-1.42.28-1.42h4.08c0-.1.21-1.04.65-2.79h-4.83c-.09,0-.13-.03-.13-.1.07-.95.17-1.42.31-1.42h4.96c.07,0,.24-.59.52-1.78l.13-.05Z"/>
    <path class="st0" d="M164.9,12.43h13.79l.1.05c-1.29,5.17-2.06,8.2-2.3,9.08h-9.04l-1.65,5.25h.05c.79,0,3.05-.03,6.79-.1,0,.29-.65,3.02-1.94,8.17-1.65-.09-2.9-.13-3.74-.13v-.05s-.05.02-.05.05l-.28-.05h-.49c-.38,0-.96-.03-1.76-.08l-.77,2.74c0,.16.26,1.18.77,3.08,1.72-.05,3-.08,3.85-.08h1.39c.46,0,1.2-.02,2.19-.05,0,.04.02.05.05.05-1.5,5.84-2.3,8.89-2.4,9.13h-10.22c-.12,0-.5-1.48-1.14-4.45-.19-.59-.42-1.57-.7-2.95l1.11-4.55h-2.06v-.08c.03-.98.11-1.47.23-1.47h2.25c0-.12.65-2.77,1.96-7.94h-2.74c-.07,0-.1-.03-.1-.1.07-.95.16-1.42.28-1.42h2.97c0-.12.61-2.61,1.83-7.47h-2.38l-.1-.05c.1-.95.2-1.42.28-1.42h2.48c.09,0,.34-.95.77-2.84h-3.43v-.05c.05-.95.13-1.42.23-1.42h3.61c.07-.55.16-.83.28-.83Z"/>
    <path class="st0" d="M190.93,12.33c.09.02.13.06.13.13.5,12.45.75,18.96.75,19.55.05.07.08.13.08.18h.05c.58-2.53,2.21-9.14,4.88-19.81h4.8l.1.08-9.14,36.85-.13.05h-4.65c-.09,0-.13-.04-.13-.1l-.98-19.45h-.08c-2.75,11.84-4.3,18.4-4.65,19.68h-1.01s-.05-.02-.05-.05c-.05,0-.08.02-.08.05-.33-.03-.58-.05-.75-.05-.65,0-1.72-.03-3.2-.08l-.05-.1,3.67-14.77h-2.71c-.09,0-.13-.04-.13-.13.05-.9.13-1.34.23-1.34h3.02c0-.17.28-1.3.83-3.39h-4.13l-.13-.05c.09-.95.19-1.42.31-1.42h4.29c.95-3.79,1.44-5.74,1.47-5.84h-4.7l-.13-.05c.09-.98.19-1.47.31-1.47h4.83c.07-.02.36-1.09.88-3.21h-2.76l-.13-.05c.1-.95.21-1.42.31-1.42h2.94c.58-2.43.92-3.69,1.01-3.77h4.83Z"/>
    <path class="st0" d="M210.49,12.43h10.74c.09.02.13.06.13.13-.04.27-3.08,12.57-9.14,36.87l-.13.05h-4.93l-.1-.05c.71-3.46,1.18-5.9,1.42-7.32h-3.8l-1.91,7.32-.1.05h-4.93c-.09,0-.13-.04-.13-.13,1.98-7.71,2.97-11.65,2.97-11.82h-1.65l-.13-.08c.09-.98.19-1.47.31-1.47h1.88l2.01-8.04h-2.43c-.09,0-.13-.03-.13-.1.07-.91.15-1.37.26-1.37h2.71c1.03-4.41,1.63-6.7,1.78-6.85.05-.02.22-.23.49-.65h-2.5l-.1-.05c.07-.95.16-1.42.28-1.42h3.46c.05-.14.72-1.09,2.01-2.87h-5.58l-.13-.05c.09-.95.18-1.42.28-1.42h6.53c0-.14.18-.38.54-.72ZM209.67,21.4c-2.22,8.86-3.33,13.34-3.33,13.45h.05c.83.03,1.51.05,2.04.05h1.01c.28,0,.71.03,1.29.08,2.18-8.88,3.28-13.4,3.28-13.58h-4.34Z"/>
    <path class="st0" d="M239.48,12.53l.13.05c-1.5,6-2.28,9.05-2.35,9.15h-4.05c-.05,0-.08-.03-.08-.08-.03,0-.05.03-.05.08-1.19-.05-2.07-.08-2.66-.08h-1.76l-4.1,15.85c.38,1.69.57,2.64.57,2.84,2.44-.05,4.41-.08,5.89-.08h1.37c.07.02.1.06.1.13-1.26,5.5-1.96,8.52-2.12,9.08l-10.4-.13c-.31-1.07-.86-3.56-1.65-7.47,0-.14.78-3.28,2.35-9.44h-1.58l-.13-.05c.1-.98.2-1.47.28-1.47h1.83c0-.1.23-1.07.7-2.9h-1.86l-.13-.05c.1-.98.2-1.47.28-1.47h2.12l1.83-7.42h-1.47c-.07,0-.1-.04-.1-.13.05-.9.13-1.34.23-1.34h1.76l.7-2.82h-2.53c-.07,0-.1-.04-.1-.13.05-.9.15-1.34.28-1.34h2.66c.07,0,.16-.26.28-.78h13.76Z"/>
  </g>
  <g>
    <path class="st1" d="M368.49,42.82c0-.12.05-.23.23-.33-.15.04-.42-.08-.4.18,0,.12.08.15.16.15Z"/>
    <path class="st1" d="M367.49,45.09c-.08-.18-.05-.38.11-.6,0,0,0,0,0,0-.13-.02-.28-.02-.47-.03-.03,0-.16.02-.29.05-.13.03-.19.13-.18.29,0,.16.02.3.17.37.09.04.38-.01.65-.09Z"/>
    <path class="st1" d="M368.44,41.2c-.06-.4.34-.37.44-.65.05-.14.2.03.29.15.26.34.54.36.86.09.1-.09.19-.15.28-.19-.16-.13-.32-.26-.51-.38-.2-.13-.46-.19.22-.55.02,0,.03-.02.05-.02h-.19c-.1.06-.2.15-.29.29-.14.23-.43.1-.65.07-.36-.05-.75-.21-1,.3-.01.03-.06.06-.08.06-.44-.1-.84.16-1.24.34v.39s.09.02.13.03c-.05.06-.1.12-.13.18v.31c.09-.02.18-.05.26-.07.44-.13.88-.29,1.34-.19.13.03.25.02.22-.18Z"/>
    <path class="st1" d="M366.87,43.48c.27.07.52-.1.77-.22.33-.17.19-.63.15-.86-.07-.32-.38-.13-.52.02-.19.21-.4.28-.64.32v.74s.02,0,.03,0c.06,0,.13,0,.22,0Z"/>
    <path class="st1" d="M367.05,39.66h-.44v.19c.15-.05.29-.12.44-.19Z"/>
    <path class="st1" d="M358.36,41.64c-.09.39-.24.11-.34.05-.08-.05-.16-.06-.24-.06-.05.28.3.38.39.57.11.24.34.02.42-.15.01-.03.04-.06.07-.08-.02-.09-.07-.17-.12-.25-.04-.07-.16-.18-.18-.08Z"/>
    <path class="st1" d="M358.57,40.05s0-.06,0-.09c-.27-.03-.53-.04-.78.13-.11.07-.41-.02-.32.18.13.29-.18.69.07.93.2-.17.35-.44.4-.75.18-.2.59-.01.64-.4Z"/>
    <path class="st1" d="M357.27,42.15c.08-.06.09-.14.06-.2-.21.14-.44.22-.67.28v.1c.21.02.42-.02.61-.17Z"/>
    <path class="st1" d="M357.24,40.54c-.07-.28-.31-.17-.58-.16v.92s.1-.07.15-.1c.25-.13.51-.33.43-.66Z"/>
    <path class="st1" d="M360.73,44.62c-.01-.25-.21-.26-.36-.29-.38-.07-.77-.15-1.1.22-.21.24-.49.2-.74.1-.45-.17-.58.27-.67.57-.02.05-.02.1-.01.13h.89c.54-.16,1.15-.06,1.68-.35.15-.08.32-.15.31-.38Z"/>
    <path class="st1" d="M356.85,40.09c0-.15-.08-.19-.18-.2v.4c.1-.02.18-.07.18-.2Z"/>
    <path class="st1" d="M361.64,43.25c-.11.19-.3.22-.58.1-.34-.15-.52-.07-.56.37,0,.1-.04.19.05.25.08.05.17.04.22-.04.14-.22.34-.14.52-.17.11-.02.23.01.35.04v-.54Z"/>
    <path class="st1" d="M361.28,41.52c0,.1.1.17.27.2.03,0,.06.01.09.02v-.3c-.14.04-.26.07-.36.08Z"/>
    <path class="st1" d="M361.53,42.97s.07-.03.11-.04v-.41c-.08.06-.14.15-.17.29-.06,0-.12,0-.18,0-.04-.1-.08-.2-.12-.3,0-.03,0-.06.02-.09-.02,0-.04,0-.05.01-.11.03-.15.15-.11.27.09.28.29.34.51.27Z"/>
    <path class="st1" d="M358.12,43.51c-.01.39.36.36.61.35.26-.01.56-.12.55-.48,0-.25-.25-.31-.5-.25-.21.1-.65-.07-.66.38Z"/>
    <path class="st1" d="M360.73,40.55c-.53-.34-1.09-.56-1.71-.5-.22.02-.35.27-.42.49-.05.15.12.18.23.2.01.2-.11.19-.23.2-.2,0-.36.08-.47.32.29.02.57.06.78.19-.02-.02-.03-.05-.06-.08.25-.08.49-.16.74-.25.13-.05.23-.01.27.15.04.15.09.28.22.35.15.07.34.15.25.4-.06.18-.24.19-.38.14-.21-.07-.38.02-.56.11.07.07.16.14.23.21-.08.09-.17.11-.27.11.57.29,1.07.18,1.35-.26.24-.39.13-.71-.02-1.01-.05-.04-.1-.09-.16-.15-.06-.06-.15-.08-.22-.11.14-.05.28-.09.41-.15.2-.09.21-.23.03-.35Z"/>
    <path class="st1" d="M366.62,50.3c-.8.25-1.61.07-2.53.12.28-.27.5-.11.67-.21.59-.36,1.21-.53,1.87-.48v-.89c-.19-.08-.4-.09-.58.02-.67.4-1.36.5-2.09.41-.19-.03-.35.02-.51.14-.13.09-.26.17-.41.12-.47-.15-.92.06-1.38.15v1.37h4.98v-.74Z"/>
    <path class="st1" d="M361.64,48.53v.29c.1-.05.19-.11.29-.17-.11-.05-.21-.09-.29-.13Z"/>
    <path class="st1" d="M363.03,45.94c.59.13,1.1-.16,1.64-.29.18-.04.29-.14.32-.3h-2.58c.07.33.36.54.62.59Z"/>
    <path class="st1" d="M362.26,48.79c.81-.49,1.69-.06,2.52-.29.31-.08.6-.16.84-.41.22-.23.48-.21.74-.16.09.02.18.04.26.03v-.63c-.07-.02-.14-.03-.22-.04-.08,0-.16,0-.3,0-.29-.05-.52.28-.79.39-.56.23-1.13.58-1.79.35-.62-.21-1.16.04-1.38.48-.04.08-.13.15-.05.24.04.04.13.07.18.05Z"/>
    <path class="st1" d="M362.68,39.28c0-.19-.21-.2-.35-.21-.06,0-.13,0-.2,0h0c-.1.01-.2,0-.29.01-.07,0-.14.03-.2.07v.46c.08.03.18,0,.28-.02.14-.04.28-.08.43-.1.14-.02.35,0,.33-.21Z"/>
    <path class="st1" d="M364.39,38.03c-.05-.21-.12-.41-.24-.57-.07.15-.08.31.02.45.06.09.14.12.22.13Z"/>
    <path class="st1" d="M366.39,38.98c-.03-.23-.06-.46-.13-.67-.18-.11-.35-.24-.54-.29-.01.03-.02.07-.03.11-.04.15-.13.19-.27.14-.09-.03-.19-.06-.28-.1-.2.58-.46.77-1.01.73-.27-.02-.55-.09-.82-.17.02.13.04.25-.01.36-.09.2.21.11.32.18.46.3.95.01,1.42.11.31.06.62.11.89.27h.68v-.68c-.05.02-.13.02-.23,0Z"/>
    <path class="st1" d="M362.29,35.51c-.09,0-.18.01-.27.01-.13,0-.26,0-.38-.04v.2c.22,0,.44,0,.65-.18Z"/>
    <path class="st1" d="M362.08,39c.13.03.26,0,.28,0,.32-.04.63.16.72-.17.02-.06.02-.11.01-.17-.05-.02-.11-.03-.16-.05-.2-.06-.31-.22-.26-.42,0,0,0,0-.01,0-.14-.07-.28-.16-.24-.37.02-.08.06-.13.1-.16-.21-.08-.42-.06-.63-.06,0,.07,0,.14.02.22.05.24,0,.48-.1.64-.34.5.02.48.28.54Z"/>
    <path class="st1" d="M364.24,34.86c.15-.35.17-.58-.33-.62-.03,0-.07,0-.1-.01-.03.02-.07.04-.1.07.08.26.19.61.53.56Z"/>
    <path class="st1" d="M365.33,34.53s.06-.02.09-.03c.02-.01.04-.03.06-.05.05-.05.07-.11.08-.17-.21-.03-.43-.04-.64-.07.05.04.09.08.13.14.08.1.18.18.29.18Z"/>
    <path class="st1" d="M350.65,43.82c.08,0,.16-.07.18-.17.02-.14-.08-.19-.17-.23-.36-.18-.71.02-1.19-.01.43.41.8.43,1.19.41Z"/>
    <path class="st1" d="M351.69,39.66h-4.24s0,.02-.01.03c0,.23-.06.39-.3.33.04-.26-.07-.34-.25-.36h-.18v3.39c.26-.08.5-.21.77-.27.2-.05.02-.21.03-.31.18-.2.28-.67.64-.27.08.56.35.69.77.47.25-.13.51-.1.76-.12.08,0,.16.01.24.01.25,0,.5-.13.54-.39.05-.29-.23-.35-.42-.43-.06-.03-.13-.04-.19-.05.39-.38.78-.49,1.32-.41.16.03.34-.01.52-.08v-1.54Z"/>
    <path class="st1" d="M349.07,43.77c-.22.07-.57-.09-.55.2.02.3.29.57.64.55.3-.01.58-.18.53-.51-.06-.42-.43-.14-.62-.25Z"/>
    <path class="st1" d="M347.04,44.89c.06-.09,0-.17-.07-.24-.04-.03-.13-.06-.26-.09v.73c.16-.02.24-.25.33-.4Z"/>
    <path class="st1" d="M350.7,45.16c-.35-.27-.68-.06-1.03-.03-.25.02-.49.13-.72.22h1.6c.07-.05.14-.08.15-.19Z"/>
    <path class="st1" d="M352.02,48.42c.07.11.3.19.35-.11.03-.16.14-.16.22-.17.52-.06,1.03-.44,1.56-.09.08.05.12,0,.17-.04.42-.39.94-.36,1.43-.47.3-.07.6-.13.9-.23v-.77c-.14-.02-.26-.01-.37.12-.2.25-.32.2-.54.09-.35-.18-.7-.22-1.05.1-.3.27-.66.3-1,.04-.12-.09-.23-.16-.19-.35.04-.17.13-.25.29-.22.08.02.17.03.24,0,.17-.07.44-.08.41-.38-.04-.28-.27-.24-.48-.24-.66-.02-1.32.26-1.99.04-.11-.04-.22-.02-.3.06v2.34c.11,0,.21.07.34.26Z"/>
    <path class="st1" d="M356.1,49.92c-.08.12-.21.05-.32.02-.11-.03-.23-.1-.33-.08-.28.05-.66-.1-.8.25-.11.29-.25.29-.45.29-.64,0-1.27,0-1.91.02-.42.02-.38-.23-.27-.53.07-.18.2-.3.36-.36,0,.47.15.7.59.62.22-.04.45.05.67.06.12,0,.3.06.31-.16.01-.17-.13-.24-.26-.28-.34-.11-.71-.07-1.03-.29-.35-.33-.69-.39-.99-.18v1.73h4.98v-1.67c-.21.1-.44.09-.67.15.04.15.22.26.11.41Z"/>
    <path class="st1" d="M353.65,49.27c.35-.16.86-.02,1.28.15.2.08.41.15.47-.17.09-.48.41-.46.69-.44.21.02.4-.03.58-.1v-.52c-.1.04-.28-.02-.39-.02-.39,0-.82-.24-1.11.28-.02.04-.1.07-.13.05-.76-.3-1.44.3-2.23.22.19.44.27.8.85.54Z"/>
    <path class="st1" d="M355.22,45.9c.16.03.32.06.48.07.13,0,.34.08.34-.17,0-.22-.19-.21-.33-.24-.08-.01-.16,0-.24,0-.08,0-.16,0-.24,0-.08,0-.18,0-.19.12-.02.15.09.19.18.21Z"/>
    <path class="st1" d="M352.95,36.72c.14.09.3.04.45,0,0-.03-.03-.06-.09-.07-.41-.1-.78-.34-1.21-.34-.15,0-.31,0-.42.1v1.1s.03.03.05.04c.13.14.28.15.45.06.1-.06.26-.34.34.05.02.09.14-.01.18-.09.08-.16.21-.32.05-.5-.09-.1-.26-.18-.18-.35.1-.21.28-.07.38,0Z"/>
    <path class="st1" d="M355.86,37.88s.03,0,.04.01c-.07-.05-.15-.11-.22-.18.06-.02.13-.03.19-.05.11-.05.26-.09.35-.17-.35-.12-.77-.07-.88-.62-.2,0-.4,0-.6-.11-.41-.21-.69-.09-.77.46-.26.28-.38.13-.5-.05,0,0,0,0,0,0-.13.75-.61.86-1.18.9.11.25.27.32.47.33.11,0,.24,0,.23.2-.11.03-.28.05-.23.21.07.22.21.48.42.5.61.06,1.18-.17,1.71-.52.18-.12.17-.27-.03-.36-.13-.06-.28-.1-.41-.15.07-.04.16-.06.22-.12.39-.41.6-.46,1.18-.28Z"/>
    <path class="st1" d="M354.91,35.69c.19-.1.57.17.63-.24.04-.32-.24-.48-.53-.49-.35-.02-.62.24-.64.54-.02.28.33.13.55.2Z"/>
    <path class="st1" d="M352.74,39.29c-.04-.39-.45-.2-.64-.41-.05-.32-.21-.6-.42-.78v1.55h.81c.14-.06.27-.14.24-.37Z"/>
    <path class="st1" d="M356.49,36.02c.09-.04.19-.09.17-.23-.02-.1-.09-.16-.18-.16-.38-.02-.76,0-1.19.4.48-.03.83.16,1.19-.01Z"/>
    <path class="st1" d="M356.54,34.33c-.02-.2-.24-.15-.26-.36h-.91c-.15.09-.31.16-.48.21.2.08.41.16.62.18.35.03.68.24,1.03-.03Z"/>
    <path class="st1" d="M352.88,34.6c-.11-.18-.21-.46-.43-.38-.26.09-.51.1-.76.07v.71c.47-.01,1.02-.07,1.12-.17.07-.06.13-.14.07-.23Z"/>
    <path class="st1" d="M341.71,45.32s0,.02,0,.03h.02v-.05s-.02.01-.02.02Z"/>
    <path class="st1" d="M340.65,44.61c.06-.15.18-.15.29-.12.26.06.52.15.79.16v-3.06c-.18-.1-.43-.13-.89-.28-.11-.04-.24-.03-.28-.18-.06-.22.09-.29.22-.37.16,0,.32.03.48,0,.16-.03.24-.19.23-.37-.01-.23-.16-.19-.29-.15-.19.07-.34-.1-.51-.11-.41-.03-.89-.38-1.2.25q-.6-.04-.8.25c.14.15.37-.19.41.02.07.37.09.76.06,1.14-.02.22-.1.47-.35.64-.08-.38-.17-.73-.45-.96-.09-.08-.07-.25-.01-.36.19-.36.21-.66-.37-.84.37-.09.56-.15.73-.34.07-.08.14-.15.18-.22h-2.13v5.69h4.29c.05-.32-.27-.49-.39-.74Z"/>
    <path class="st1" d="M342.69,47.96c.56-.17,1.14-.29,1.69-.52.44-.18.88-.13,1.32-.2.36-.06.68-.25,1.02-.39v-1.23c-.12.04-.22.13-.27.32-.11.37-.32.35-.53.32-.52-.08-1.02-.19-1.51.2-.13.11-.35.07-.53.09-.22.03-.43-.08-.45-.32-.03-.26.19-.41.39-.43.51-.04.99-.29,1.48-.46h-3.56v.04c.13.27.47.03.58.35-.2.11-.4.12-.58.08v3c.05-.07.1-.16.15-.27.14-.33.49-.5.81-.6Z"/>
    <path class="st1" d="M344.7,48.14c-.17-.05-.33-.04-.38.22-.06.27-.23.28-.43.23-.18-.04-.37-.09-.69.04.13.06.18.08.22.11.12.06.27.12.21.31-.05.18-.2.07-.3.06-.21-.02-.42-.09-.63-.07-.28.03-.65-.12-.84.14-.05.06-.09.12-.14.17v1.68h4.98v-3.42c-.61.58-1.24.75-2.01.53Z"/>
    <path class="st1" d="M341.99,39.66h1.32c-.03-.07-.09-.12-.16-.15-.48-.14-.8-.39-.64-1.15-.17.49-.46.32-.78.34v.19c.32.16.36.44.26.77Z"/>
    <path class="st1" d="M346.35,34.82c.04.31.1.56.36.7v-.53c-.09.01-.18-.01-.23-.13.06-.1.15-.2.23-.29v-.6h-1.29c.11.11.24.2.39.21.39.03.49.31.53.64Z"/>
    <path class="st1" d="M346.69,38.15c-.45-.04-.9-.1-1.33-.24-.19-.06-.37.06-.42.28-.04.2-.21.42.09.62.19.12.1.61-.12.85h1.8v-1.51s-.01,0-.02,0Z"/>
    <path class="st1" d="M343.24,37.22c.35.48,1.39.47,1.83-.05-.55-.17-1.05-.33-1.55-.47-.22-.06-.46-.05-.57.19-.11.25.2.21.29.34Z"/>
    <path class="st1" d="M342.79,36.15c.05-.11.11-.23.14-.35.08-.27.12-.6.43-.59.27,0,.53.21.6.5.14.61.43.37.71.2.39-.23.62-.12.66.39.02.25.12.31.28.44.41.32.65.06.89-.3.1.28-.06.41-.11.58-.05.18-.07.41.12.39.07,0,.14,0,.21,0v-1.59c-.35.14-1.04-.2-1.19-.59-.09-.23-.17-.49-.44-.41-.3.09-.46-.11-.64-.29.21-.07.41-.02.62.04.09.02.21.02.23-.13.02-.13-.08-.21-.18-.22-.18,0-.34-.01-.39-.26h-2.99v1.74c.14.17.26.36.39.54.31.41.43.38.67-.1Z"/>
    <rect class="st1" x="326.8" y="39.66" width="4.98" height="5.69"/>
    <rect class="st1" x="331.78" y="45.35" width="4.98" height="5.69"/>
    <path class="st1" d="M336.43,38.03c-.06.14-.04.31.08.4.08.05.16.1.24.14v-.56s-.03,0-.04-.01c-.11-.03-.21-.14-.28.03Z"/>
    <path class="st1" d="M335.05,33.97h-1.28s.02.01.03.02c.38.16.78.26,1.17.34.1.02.07-.12.04-.21-.03-.09,0-.13.04-.15Z"/>
    <path class="st1" d="M335.97,33.97h-.59c.21.06.41.09.59,0Z"/>
    <path class="st1" d="M336.76,39.66v-.7c-.72-.62-1.28-1.46-1.96-2.13q.57-.81,1.1-.69c-.02.15-.31.28-.03.44.1.06.27.06.23.22-.04.19-.21.14-.33.09-.12-.05-.23-.07-.28.09-.06.19.03.34.17.42.3.16.53-.03.64-.31.1-.25.28-.38.46-.5v-1.06s-.06,0-.09-.01c.03-.08.06-.16.09-.24v-1.08c-.11,0-.22.06-.32.08-.25.06-.16.16-.04.3.04.05-.04.12-.1.16-.28.16-.79-.02-.92-.34-.14.26-.13.52.03.72.12.16.11.29.06.46-.34-.11-.34-.97-.92-.57-.19-.58-.78-.32-1.1-.69-.15-.17-.63-.47-.79.17-.2-.07-.22-.24-.21-.44,0-.03,0-.06,0-.09h-.64v5.69h4.98Z"/>
    <rect class="st1" x="316.85" y="39.66" width="4.98" height="5.69"/>
    <rect class="st1" x="321.82" y="45.35" width="4.98" height="5.69"/>
    <rect class="st1" x="321.82" y="33.97" width="4.98" height="5.69"/>
    <rect class="st1" x="311.87" y="45.35" width="4.98" height="5.69"/>
    <path class="st1" d="M333.11,16.91h.17c-.38-.24-.74-.53-1.12-.78-.09-.06-.23-.11-.39-.15v.57c.17.06.35.06.54.08.3.03.59.04.8.28Z"/>
    <path class="st1" d="M332.93,15.48c.17-.14.38-.1.57-.11.42,0,.84.02,1.26,0,.15,0,.4.04.43-.15.05-.26-.22-.19-.35-.27-.09-.05-.17-.11-.26-.15-.64-.31-1.41-.11-1.76.46-.32.53-.56.56-.96.08-.03-.03-.06-.06-.09-.09v.38c.3.07.6.13.91.2,0-.16.14-.27.24-.36Z"/>
    <path class="st1" d="M326.8,15.67c-.07-.17-.18-.31-.38-.25-.12.03-.22.1-.24.24-.04.26.13.39.29.45.12.05.23.12.33.21v-.65Z"/>
    <path class="st1" d="M324.91,15.21c.11.2.23.22.39.07-.12-.15-.23-.17-.39-.07Z"/>
    <path class="st1" d="M325.65,15.34c.05.02.11.03.24.05-.08-.09-.11-.13-.14-.15-.04-.02-.1-.04-.12-.02-.05.04,0,.09.03.11Z"/>
    <path class="st1" d="M325.69,14.64c.05.17.23.22.38.19.17-.04.34-.06.51-.08-.35-.15-.69-.34-.99-.61-.02-.32.26-.47.31-.74.12-.07.27-.14.37-.04.41.41.39-.01.45-.29.02-.1.06-.21.08-.31,0,0,0,0,0,0v-.32c-.11.06-.23.11-.33.2-.26.12-.55.33-.61-.24.34-.19.72-.3.92-.72-.14-.11-.48-.07-.38-.33.02-.05.03-.09.04-.12h-1c-.1.14-.01.43.2.95.02.05.03.1.04.16-.45-.1-.91-.44-1.31.13-.2.21-.45.14-.69.14-.3,0-.39.14-.21.44.05.09.11.18.16.27-.36-.06-.73-.1-1.08-.24.26-.35.62-.65.39-1.22-.18-.44-.59-.65-1.12-.57v.47c.11.07.22.11.35.1.15-.01.32.03.35.22.04.26-.15.29-.31.33-.15.03-.21.14-.27.28-.03.07-.07.11-.13.12v1.34c.12.09.22.19.31.33-.12.05-.22.04-.31.01v.68c.11.01.21.03.2.15-.02.16,0,.26.05.33.08.01.15.03.2.08.49.43,1.28.21,1.57,1.03.02.06.1.12.2.17h1.16c.03-.22-.2-.68-.42-.74-.24-.06-.48-.08-.72-.13-.16-.03-.28-.12-.3-.31-.02-.19.09-.3.23-.29.38.01.24-.59.58-.62-.01-.03-.02-.06-.04-.08-.15-.17-.51-.15-.44-.48.07-.32.37-.15.56-.15.41,0,.86-.06,1.06.54Z"/>
    <path class="st1" d="M323.38,11.84c.21.11.43.18.63-.01.05-.05.05-.17.08-.25.19,0,.39.03.58.02.13,0,.34.11.37-.12.02-.15-.04-.21-.13-.25h-.87c.02.09.03.2.03.33-.07-.05-.13-.11-.21-.14-.21-.11-.41-.09-.55.15-.06.1-.04.23.06.28Z"/>
    <path class="st1" d="M322.34,16.55s-.01-.02-.02-.02c-.17-.03-.33-.06-.5-.08v.47h.72c-.02-.09-.08-.2-.2-.36Z"/>
    <path class="st1" d="M316.85,14.97c-.08-.03-.15-.08-.22-.14.06.1.13.17.22.22v-.08Z"/>
    <path class="st1" d="M316.26,15.62c-.39-.35-.82-.44-1.25-.55,0,.04,0,.07,0,.11,0,.13.16.27.24.4-.27.2-.5-.15-.78-.1.48.39,1.18.48,1.78.13Z"/>
    <path class="st1" d="M316.85,15.77s-.03.05-.05.07c-.06.09-.05.16,0,.22,0-.03-.01-.06-.02-.1.02-.07.05-.13.07-.18h0Z"/>
    <path class="st1" d="M316.03,16.87c.14.04.3,0,.46-.05.17-.05.34-.15.26-.38-.08-.22-.19-.49-.49-.42-.19.05-.37.12-.57.16-.3.06-.24.23-.11.43.1.16.26.22.44.26Z"/>
    <path class="st1" d="M312.65,12.99c.42.01.23-.4.3-.62.07-.22-.12-.21-.2-.18-.31.15-.59.08-.87-.03v.29c.14.02.29.02.44.01.14-.01.3.05.33.24.02.13-.09.17-.19.19-.17-.15-.36-.25-.58-.24h0v.19s.07.01.11.02c.23.04.45.11.67.12Z"/>
    <path class="st1" d="M313.82,14.48c-.15-.13-.31-.15-.45-.04-.14.1-.29.16-.44.2.13.09.31.13.47.15.18.03.45.21.51-.19,0,0,0,0,0-.01-.03-.04-.06-.09-.09-.11Z"/>
    <path class="st1" d="M312.39,16.05c.59,0,1.18-.02,1.76-.03-.55-.59-1.19-.33-1.78-.42-.11-.02-.23.1-.23.24,0,.16.14.21.25.21Z"/>
    <path class="st1" d="M314.62,13.05c-.27.04-.54.13-.82.05-.12-.04-.34,0-.34.21,0,.19.21.18.32.15.03,0,.05,0,.07-.01.04-.06.07-.13.09-.21.2-.15.54.09.67-.19Z"/>
    <path class="st1" d="M316.68,13.95c-.46-.45-.98-.79-1.59-.87-.22-.03-.39.19-.5.39-.08.14.09.2.19.25-.02.2-.14.17-.26.14-.08-.02-.15-.02-.22,0,.02.02.04.04.06.05.41.2.77.58,1.27.53.22-.02.45.05.68.09.02,0,.05,0,.08.01-.01-.02-.02-.03-.03-.05-.05-.07-.13-.11-.2-.16.14-.02.29-.03.43-.06.21-.04.25-.18.09-.34Z"/>
    <path class="st1" d="M313.72,12.24c.31.18.59.05.78-.34.06-.12.12-.1.19-.09.13.02.26.04.38.09.11.05.3.05.43.07-.09-.17-.3-.17-.47-.17-.23,0-.33-.15-.5-.33-.08-.09-.17-.18-.26-.27h-2.41v.17c.16.06.32.12.48.18.5.17.93.4,1.37.67Z"/>
    <path class="st1" d="M314.29,15.12c.1-.07.12-.16.11-.25-.03-.01-.06-.03-.08-.05-.07-.04-.16.03-.18.13-.02.09.01.16.06.22.03-.02.07-.04.1-.06Z"/>
    <path class="st1" d="M312.42,16.8c-.07-.08-.17-.11-.25-.17-.1-.07-.2-.12-.3-.16v.45h.64s-.06-.08-.09-.11Z"/>
    <rect class="st1" x="311.87" y="33.97" width="4.98" height="5.69"/>
    <path class="st1" d="M316.85,22.93c-.25-.18-.48-.47-.84-.26-.1.05-.21.01-.3-.07h-1.56c.08.02.16.04.25.05.08.02.17.03.2.13.04.13-.04.21-.11.28-.12.12-.26.13-.41.09-.22-.05-.36.04-.34.31.05.58-.19.42-.45.25-.39-.25-.67-.58-.67-1.12h-.43c-.1.03-.2.04-.3.04v2c.16-.25.48-.36.55-.69.2.11.52.02.55.42-.28.18-.46.54-.8.63-.01.05,0,.12-.03.16-.09.1-.17.22-.26.33v2.8h4.98v-5.35Z"/>
    <path class="st1" d="M354.62,26.26s.08-.05.11-.06c-.29-.03-.58-.06-.89-.07.18.26.49.33.78.14Z"/>
    <path class="st1" d="M356.37,25.08c.08.06.18.11.3.15v-.16c-.1-.06-.22-.14-.3.01Z"/>
    <path class="st1" d="M354.23,24.72c.11-.03.2.05.19.18,0,.09-.01.18-.02.26.13-.06.23-.13.31-.19-.21-.1-.3-.22-.14-.55.16-.34-.04-.59-.4-.54-.17.02-.35.05-.45-.12-.35-.62-.97-.48-1.45-.74-.18-.1-.39-.13-.59-.17v1.69c.15.06.3.11.46.16.19.07.47.06.6.27.27-.38.55-.37.86-.27,0-.04,0-.07,0-.11.21.03.39.18.62.12Z"/>
    <path class="st1" d="M355.59,27.68c0,.07.05.16.13.28.08.12.13.22.14.32h.27s.03-.05.05-.08c.06-.09.15-.14.22-.21.03-.03.08-.06.12-.08,0,0-.01-.02-.02-.02-.29-.26-.61-.25-.92-.2Z"/>
    <path class="st1" d="M357.71,28.63c.05.08.11.14.19.19.02-.18-.07-.31-.22-.42-.07-.05-.13-.08-.19-.11h-.12c-.03.17.26.2.34.34Z"/>
    <path class="st1" d="M361.31,29.16s.06-.09.05-.14c-.27-.02-.49-.17-.64-.5-.04-.1-.1-.17-.15-.24h-.56c-.06.39.23.84.68.94.17-.11.46.07.63-.06Z"/>
    <path class="st1" d="M361.15,31.2s-.02.06-.02.09c.15.15.33.16.51.15v-.41c-.18,0-.39-.04-.49.17Z"/>
    <path class="st1" d="M360.78,31.09c-.13-.23-.26-.44-.6-.23.1.04.19.1.27.18.04.04.09.07.14.09.06,0,.13-.02.19-.04Z"/>
    <path class="st1" d="M356.9,31.76c.08-.24-.08-.28-.23-.31v.61c.11-.06.19-.17.23-.3Z"/>
    <path class="st1" d="M358.38,32.16c.02-.2-.22-.38-.46-.39-.08,0-.16.01-.24,0-.15-.04-.3-.1-.39.08-.13.24.13.29.2.43-.09.07-.18.06-.28.05-.12,0-.3-.22-.36.05-.04.17.1.31.26.34.24.05.27.22.24.45-.23-.08-.48-.07-.68-.21h0c.22.28.59.28.74.59.1.2.25.25.41.2.07-.02.14-.04.22-.05-.18-.15-.34-.34-.52-.5.08-.2.2-.32.4-.33.09,0,.21,0,.2-.16,0-.11-.1-.13-.16-.18-.1-.06-.19-.13-.28-.2.08-.01.16-.03.23-.04.17-.01.44.2.47-.12Z"/>
    <path class="st1" d="M360.94,30.84c.04-.13.05-.27-.02-.4-.04.14-.03.28.02.4Z"/>
    <path class="st1" d="M359.8,33.51c-.45-.13-.83-.22-1.21-.35-.12-.04-.23-.08-.29.07-.08.19.06.27.17.34.06.04.13.07.19.1.21.02.41.05.62.08.16-.03.33-.11.52-.24Z"/>
    <path class="st1" d="M359.49,30.41c.16.26.42.32.66.43-.13-.33-.39-.36-.66-.43Z"/>
    <path class="st1" d="M359.54,29.82c.11-.03.22-.09.25-.2-.14.02-.22.11-.3.21.01,0,.03,0,.04-.01Z"/>
    <path class="st1" d="M346.71,27.56s-.06-.02-.09-.04c-.13-.07-.28-.09-.42-.15-.43-.17-.96-.15-1.26-.52-.35-.43-.8-.42-1.2-.61-.13-.06-.52-.09-.57.24-.06.37.21.29.43.29.27,0,.17.19.08.33-.28.44-.02.6.29.7.23.07.48.07.7.22-.05.2-.23.17-.35.26h1.88s.1-.06.16-.1c.05,0,.1,0,.15-.02.06-.01.13,0,.2,0v-.61Z"/>
    <path class="st1" d="M345.42,26.03c.15.06.32.09.46-.03.12-.1.19-.29,0-.32-.31-.05-.43-.31-.58-.54-.2-.31-.5-.39-.79-.49-.15-.05-.3-.02-.39.14-.1.18.08.25.12.37.2.64.69.75,1.19.86Z"/>
    <path class="st1" d="M342.44,24.27c.23.09.56.13.67-.11.11-.25-.11-.57-.31-.68-.34-.21-.7-.39-1.07-.55v.48s0,0,0,0c.08.02.2.08.16.16-.32.74.26.59.54.7Z"/>
    <path class="st1" d="M343.29,26.06c-.54-.4-.85-.91-1.32-1.22-.09-.06-.17-.1-.24-.12v1.12c.47.23.95.36,1.56.22Z"/>
    <path class="st1" d="M347.86,29.83c-.25-.02-.45-.06-.54-.36-.03-.09-.07-.18-.17-.17-.12.02-.13.16-.13.27,0,.13.01.25.04.37.24.02.44.18.65.45.1.13.24.15.39.15-.04-.02-.07-.04-.11-.07-.09-.07-.02-.16.04-.23.25-.3.04-.4-.17-.41Z"/>
    <path class="st1" d="M346.77,33.89c.45-.05.88-.4,1.38-.13-.08.22-.28.17-.43.21h2.93c-.33-.13-.67-.25-1.01-.28-.2-.02-.41-.16-.39-.42.03-.24.23-.34.45-.31.18.02.39-.01.53.09.47.37.96.28,1.46.2v-.93c-.05-.01-.11-.03-.16-.03-.04,0-.08-.01-.12-.02.03.1.08.21.14.36-.09.18-.22.15-.32.03-.18-.22-.38-.19-.68,0,.09-.19.13-.34.13-.46-.15-.02-.31-.05-.46-.12-.55-.22-1.13-.33-1.69-.5-.1-.03-.2-.07-.3-.11-.02.24.04.59-.3.6-.28,0-.6,0-.84-.15-.21-.12-.3-.03-.37.1v.92c.02.05.03.11,0,.18v.84h.11s-.03-.05-.05-.08Z"/>
    <path class="st1" d="M349.26,30.83s-.09.04-.22.1c.22.09.38.09.52.07,0-.06-.03-.12-.08-.18-.02-.03-.05-.05-.07-.07-.04.03-.09.05-.14.07Z"/>
    <path class="st1" d="M347.27,30.64c.05.17.18.16.31.15-.11-.15-.23-.25-.37-.31.02.05.04.11.05.16Z"/>
    <path class="st1" d="M351.28,30.52c-.3-.11-.72-.08-.5-.7.04-.12-.12-.21-.23-.23-.37-.08-.46-.36-.42-.73.1-.04.24.07.31-.08.06-.14-.05-.23-.12-.33-.04-.06-.09-.12-.14-.16h-2.88c-.06.15-.11.3.08.42.61.39,1.28.69,1.86,1.13.32.25.7.27.98.46.37.26.74.58,1.06.92.06.06.11.1.16.13.06,0,.11.02.17.04.03,0,.06-.01.09-.02v-.69s-.03,0-.04-.01c-.12-.05-.25-.09-.37-.14Z"/>
    <path class="st1" d="M331.87,28.26c-.02-.08-.05-.15-.09-.2v.23h.1s0-.02,0-.03Z"/>
    <path class="st1" d="M332.29,27.73c-.03.17.03.36.19.4.2.05.2-.18.25-.33,0-.15.1-.37-.12-.4-.19-.03-.29.15-.32.34Z"/>
    <path class="st1" d="M332.42,24.77c-.11.04-.23.09-.21.25.02.23.2.27.36.3.17.04.33.15.52.07.02-.19-.06-.36-.14-.51-.13-.23-.33-.18-.52-.11Z"/>
    <path class="st1" d="M333.97,27.79c-.09.1-.12.3-.13.5h1.33c-.19-.13-.4-.18-.61-.26-.2-.08-.41-.42-.58-.23Z"/>
    <path class="st1" d="M333.62,26.08c-.45-.23-.64-.06-.63.32-.03.37-.26.62,0,.78.15.09.39.1.54-.08.09-.1.1-.29.2-.37.39-.34.22-.49-.12-.66Z"/>
    <path class="st1" d="M336.6,28.23c-.23-.05-.16-.22-.08-.38.08-.16-.02-.23-.13-.3-.22-.14-.44-.12-.63.06-.19.17-.24.41-.2.67h1.2v-.02c-.05-.01-.11-.03-.16-.04Z"/>
    <path class="st1" d="M333.8,22.6h-1.22c.43.29.82.22,1.22,0Z"/>
    <path class="st1" d="M334.76,27.17c-.16-.08-.38,0-.39.18-.02.27.23.23.4.29.17.01.46.15.48-.14.02-.26-.31-.25-.49-.34Z"/>
    <path class="st1" d="M331.92,24.52c-.05,0-.1,0-.14.03v.49c.13,0,.22-.07.24-.24,0-.11.02-.26-.1-.27Z"/>
    <path class="st1" d="M332.71,24.2c-.05.12.04.2.11.28.5.49,1.2.63,1.61,1.27.09.14.28.08.42.02.3-.14.47-.03.61.32.12.31.22.71.68.59.32-.08.58.02.62.54,0,0,0,0,0,0v-1.37s0-.05,0-.07v-1.72s-.07-.03-.1-.03c-.18,0-.3-.12-.4-.28-.15-.25-.34-.39-.62-.33-.13.03-.25-.05-.35-.17.03-.24.01-.45-.06-.65h-1.41c-.2.28-.15.46.17.54.14.04.27.09.41.14-.1.19-.33.27-.26.6.07.33-.15.42-.39.38-.24-.04-.47-.13-.71-.2-.14-.04-.27-.01-.33.15Z"/>
    <path class="st1" d="M331.8,24.05c.26.12.59-.28.84-.53.04-.04.13.03.16-.07-.1-.15-.25-.16-.39-.18-.18-.03-.45-.01-.42-.33.01-.15.08-.27.17-.35h-.38v1.45s.02,0,.02.01Z"/>
    <path class="st1" d="M331.78,27.23v.22s.09-.03.13-.09c-.04-.06-.09-.11-.13-.14Z"/>
    <path class="st1" d="M333.16,27.98c-.11-.01-.16.06-.16.16,0,.05,0,.1,0,.15h.32c-.01-.12-.06-.23-.16-.3Z"/>
    <path class="st1" d="M338.85,30.94c.17.04.33.06.42-.15.07-.16.17-.34.03-.51-.12-.16-.28-.18-.44-.1-.39.19-.48-.11-.52-.44-.01-.12.07-.25-.06-.35-.36.55-.04,1.42.57,1.55Z"/>
    <path class="st1" d="M337.27,29.85c.25.04.52-.12.56-.41.05-.29-.27-.24-.42-.35-.15-.12-.34-.06-.51-.03-.02.16-.07.31-.14.46v.36c.2-.05.35-.06.51-.03Z"/>
    <path class="st1" d="M337.87,33.47c.16.01.24-.1.26-.26.03-.23-.14-.15-.23-.17-.38-.06-.76-.12-1.14-.08v.44s.09,0,.14,0c.32.03.65.05.97.07Z"/>
    <path class="st1" d="M340.86,29.58c.08-.14,0-.21-.09-.27-.27-.18-.57-.4-.86-.34-.51.11-.41-.25-.34-.52.02-.07.03-.13.03-.18h-1.35c-.03.06-.05.12-.07.19-.08.32.19.26.33.34.1.06.19.15.26.25.14.23.37.33.53.49.4.4.92.43,1.35.75.34.26.75.41,1.09.67v-.85c-.19-.06-.39-.1-.59-.1-.2,0-.53,0-.29-.43Z"/>
    <path class="st1" d="M340.14,31.28c-.1,0-.2-.02-.26.09-.04.07-.02.17.04.19.25.08.42.35.71.32.62-.06.62-.05.5.6-.02.09-.01.18-.02.28-.59-.73-1.47-.86-2.16-1.39-.12-.09-.27-.08-.29.13-.03.26-.23.45-.2.73-.2.59.05,1.2.52,1.26.06.15-.03.45.22.41.22-.03.08-.27.09-.42,0-.05,0-.11,0-.17,0-.32.13-.55.43-.56.26,0,.59-.06.61.42.01.24.16.35.33.44.17.1.32.22.45.37h.64v-2.33c-.51-.21-1.03-.39-1.59-.36Z"/>
    <path class="st1" d="M337.32,33.68c-.2.02-.29.12-.23.29h1.31c-.32-.24-.68-.33-1.08-.29Z"/>
    <path class="st1" d="M336.9,29.05c.16-.27.48-.3.62-.59.03-.06.06-.12.09-.18h-.64s-.09,0-.14,0h-.07v.73s.09.02.14.04Z"/>
    <path class="st1" d="M337.71,32.49c.16.02.44-.02.36-.21-.15-.38-.18-.91-.69-.99-.16-.03-.26-.03-.24.2-.06.44.23.95.57,1Z"/>
    <path class="st1" d="M340.14,18.87c.12.13.22.28.26.49.02.09.18.16.28.2.35.13.7.25,1.06.34v-.82c-.09-.05-.17-.1-.26-.17-.5-.42-1.05-.81-1.77-.47.1.03.2.05.31.07.08.02.17.03.2.13.03.1-.02.18-.08.24Z"/>
    <path class="st1" d="M340.84,21.44c.32-.08.59.16.89.25,0,0,0,0,.01,0v-.58s-.07-.06-.1-.1c-.5-.72-1.17-.41-1.9-.61.18.28.31.4.34.55.11.5.37.58.77.49Z"/>
    <path class="st1" d="M321.85,26.3s-.02-.03-.03-.05v.68c.16-.16.25-.32.03-.63Z"/>
    <path class="st1" d="M323.16,25.72c.49.04.3.56.47.76.41,0,.07-1.01.72-.58-.2-.66-.74-.83-1.15-1.16-.13-.1-.55-.38-.66.21-.05.24-.32.25-.5.28-.08.01-.14.03-.21.05v.43c.09-.1.24-.17.43-.18.31-.01.61.16.9.19Z"/>
    <path class="st1" d="M326.8,27.24c-.05-.02-.1-.04-.15-.06-.43-.23-.98-.08-1.32-.58-.16-.23-.99-.52-1.02-.37-.07.38-.52.62-.29,1.09.05.38.54.3.57.71-.34,0-.68-.4-1.02-.02-.33-.19-.69-.28-1.06-.31-.29-.02-.55.02-.69.28v.32h4.98v-1.05Z"/>
    <path class="st1" d="M325.18,24.18c.01,1.03.02,1.02.87,1.36.25.1.57.06.74.34v-.91c-.39-.17-.68-.74-1.22-.54-.09.03-.17-.15-.22-.27.31-.02.62-.04.89-.27.1-.09.29-.06.3-.24,0-.23-.19-.21-.32-.26-.16-.07-.37-.16-.2-.37.2-.23.51-.24.77-.38v-.05h-4.98v1.1c.11-.28.18-.64.12-.84.34-.11.55-.04.47.43-.03.2.04.26.19.3.2.05.4.12.61.16.52.12.58.06.6-.54.39-.03.76.3,1.21-.05-.08.43-.4.86.16,1.03Z"/>
    <path class="st1" d="M331.78,30.66c-.37-.27-.75-.53-1.19-.66-.09-.03-.2-.1-.26.01-.07.12.04.2.1.28.2.22.42.41.37.79,0,.08.06.19.15.19.29-.03.56.03.82.12v-.72Z"/>
    <path class="st1" d="M331.4,28.99c.15-.01.27.06.37.16v-.86h-.55c-.08.14-.12.31-.13.49-.02.27.15.22.3.21Z"/>
    <path class="st1" d="M331.78,33.74c-.51-.07-.98-.45-1.21-1,.1-.2.28-.19.44-.21.03-.19.03-.36-.13-.5-.42-.37-.87-.19-1.32-.15-.29-.31-.66-.31-1.01-.34-.19-.01-.44-.11-.56.17-.13.31.09.47.25.64-.39.28-.54-.26-.85-.27.08-.16.16-.26.19-.38.04-.2.35-.31.23-.49-.12-.19-.36-.04-.54.02-.16.05-.31.07-.46.07v2.67h4.98v-.23Z"/>
    <path class="st1" d="M327.11,29.15c.32-.48.68-.37,1.07-.22.16.05.29.13.31.35-.33.16-.5.43-.36.83.14.39.52.53.87.3.24-.16.32-.12.34.17.05.59.49.57.83.65.23.06.32-.16.21-.4-.23-.53-.45-1.06-1-1.25,0-.2-.06-.36-.24-.44-.25-.11-.36-.21-.19-.57.05-.1.07-.2.05-.28h-2.2v1.04c.13,0,.24-.08.31-.18Z"/>
    <path class="st1" d="M330.94,29.59c.25.09.5.16.69.37.05.05.09.1.14.13v-.73c-.23.23-.46,0-.69-.13-.11-.06-.25-.2-.34-.01-.1.21.07.32.2.36Z"/>
    <path class="st1" d="M327.74,16.91h-.25c.06.03.13.06.2.08.02-.02.03-.05.04-.08Z"/>
    <path class="st1" d="M329.58,16.96s-.02-.04-.03-.05h-1.52s.01.05.03.07c.03,0,.07.04.1.08.02.01.04.02.07.03.01.03.01.05,0,.08.17.24.39.36.63.44.26-.09.49-.26.54-.46,0,0-.08-.04-.12-.07.08-.14.19-.14.3-.12Z"/>
    <path class="st1" d="M329.97,18.35c.3-.03.35-.35.5-.58-.02-.22-.17-.28-.33-.34-.11-.04-.28-.07-.38-.12-.15.05-.26.15-.22.42.08.01.15.04.15.17,0,.24-.03.48.27.45Z"/>
    <path class="st1" d="M330.76,19.97c.17-.08.5.05.51-.17.01-.28-.29-.35-.51-.38-.32-.05-.65-.04-.78-.5-.02-.08-.07-.13-.14-.15,0,.03,0,.05,0,.08-.11,0-.22,0-.34-.01-.19.09-.35.24-.42.46-.09.32.25.32.36.5-.02.06-.05.11-.07.17-.39.1-.71.05-1.09-.22-.3-.22-.76-.44-1.19-.18-.1.04-.19.08-.28.11v.64s.06.03.1.06c.08.06.28,0,.19-.24-.05-.12-.09-.24-.04-.37.32.05.35.47.59.62.75.46,1.58.51,2.41.58.01,0,.03-.06.05-.09-.09-.25-.4-.26-.49-.52.4-.07.86.12,1.15-.38Z"/>
    <path class="st1" d="M326.9,22.58c.06-.04.11-.03.17.02h2.05c.26-.06.54-.09.31-.58.38.08.68.31.96.58h1.38v-1.09c-.18.05-.32,0-.25-.38.09.08.17.12.25.12v-.94c-.16-.12-.32-.22-.52,0-.03.04.01.17.02.26-.35.05-.9-.24-.79.63.02.17-.18.43-.42.31-.45-.23-.63.01-.72.47-.84-.38-1.71-.69-2.55-1.08v1.71h.08s.02,0,.02-.02Z"/>
    <path class="st1" d="M331.59,19.09c.06,0,.13.02.19,0v-.47c-.06-.05-.12-.09-.15-.15.04,0,.09.01.15.03v-1.07c-.15-.06-.31-.1-.47-.14-.19.31-.34.68-.06,1.1-.06.23-.46.19-.35.49.12.34.45.18.69.22Z"/>
    <path class="st1" d="M321.82,33.97v-5.69h-.64s-.09.03-.14.03c-.1,0-.2,0-.28-.03h-3.92v5.69h4.98Z"/>
    <path class="st1" d="M321.82,19.91v-3h-4.71c.02.22.15.31.39.22.61-.24,1.23-.08,1.84-.05.34.02.52.21.4.63-.29-.29-.6-.33-.96-.18-.11.05-.24-.38-.37-.1-.09.19.17.27.29.37.1.09.2.18.3.28.01.02.02.04.04.06-.11.12-.22.24-.35.39.64.14,1.27.55,1.76-.26.02-.03.09-.02.14-.03.11.4.46.39.72.53-.05.09-.08.21-.15.28-.27.25-.12.53.02.72.15.2.37.32.64.16Z"/>
    <path class="st1" d="M318.17,20.71c.36.74.97.51,1.5.59.17.03.27-.09.35-.25.27-.1.58,0,.83-.24.11-.1.2-.19.19-.36-.03-.27-.19-.12-.29-.11-.13,0-.24-.05-.27-.19-.05-.29-.26-.41-.42-.58.06-.02.12-.04.18-.06.13-.05.35.24.39-.09.02-.2-.19-.33-.34-.33-.52-.03-1.05-.12-1.59.09.12.11.21.18.3.26-.23.09-.51.1-.59.45-.04-.06-.11-.1-.12-.17-.07-.46-.22-.55-.61-.31-.3.19-.64.13-.78-.35-.01-.04-.03-.08-.05-.12v.69c.09,0,.17.03.2.14.05.18-.08.2-.2.23v.27c.22.05.44.09.66.15.23.07.58.08.67.26Z"/>
    <path class="st1" d="M321.47,22.6h.35v-.27c-.15-.03-.27.06-.35.27Z"/>
    <path class="st1" d="M317.66,18.21c0,.17.08.25.2.25.16,0,.36.02.4-.21.03-.14-.14-.18-.24-.21-.15-.04-.29-.03-.36.17Z"/>
    <rect class="st1" x="296.94" y="39.66" width="4.98" height="5.69"/>
    <rect class="st1" x="306.89" y="39.66" width="4.98" height="5.69"/>
    <rect class="st1" x="301.91" y="45.35" width="4.98" height="5.69"/>
    <rect class="st1" x="301.91" y="33.97" width="4.98" height="5.69"/>
    <rect class="st1" x="286.98" y="39.66" width="4.98" height="5.69"/>
    <rect class="st1" x="291.96" y="45.35" width="4.98" height="5.69"/>
    <rect class="st1" x="291.96" y="33.97" width="4.98" height="5.69"/>
    <rect class="st1" x="282" y="45.35" width="4.98" height="5.69"/>
    <rect class="st1" x="282" y="33.97" width="4.98" height="5.69"/>
    <path class="st1" d="M306.89,11.69c-.22,0-.45.03-.69.14.21.19.41.28.45.42.05.2.14.3.25.36v-.92Z"/>
    <path class="st1" d="M303.1,11.54c-.09-.14-.2-.24-.31-.32h-.87v.11c.29.15.55.36.81.54.25.17.42.53.71.55.14.03.22.06.3.07.22.02.45.04.47-.31.02-.34-.21-.31-.41-.32-.27,0-.52-.05-.7-.31Z"/>
    <path class="st1" d="M302.03,14.12c.02-.15-.01-.27-.11-.36v.55c.06-.03.1-.08.11-.19Z"/>
    <path class="st1" d="M304.71,11.4c0,.27.21.12.33.13.11.01.22,0,.31,0,.19.14.37.13.39-.11.02-.26-.21-.14-.33-.17-.11-.03-.22-.04-.33-.04-.15,0-.35-.01-.35.18Z"/>
    <path class="st1" d="M302.2,15.5c.09.11.18.17.28.03.15-.21.29-.43.44-.64.12-.11.42,0,.36-.32-.05-.28-.27-.34-.49-.33-.28,0-.42.23-.57.44-.11.02-.21.06-.3.13v.49s.02,0,.02,0c.14-.02.19.11.27.21Z"/>
    <path class="st1" d="M302.8,16.48c-.05.29.21.33.39.4.02,0,.05.02.07.03h1.18c0-.11-.05-.21-.15-.3-.22-.17-.44-.39-.71-.38-.09-.02-.15-.04-.22-.05-.24-.03-.5,0-.55.3Z"/>
    <path class="st1" d="M303.54,15.59s.08-.03.12-.04c-.02-.04-.04-.08-.06-.14-.05.03-.09.05-.12.07.02.04.03.11.06.12Z"/>
    <path class="st1" d="M303.14,15.53c.05,0,.11-.07.14-.13.03-.07.01-.16-.06-.18-.1-.03-.14.07-.16.16,0,.08,0,.16.09.15Z"/>
    <path class="st1" d="M303.82,14.59c-.16.03-.2.17-.23.32-.03.15.01.26.13.32.12.06.24.1.27.11.31.07.52.11.73.06.13-.03.22-.1.14-.27-.07-.16-.88-.57-1.05-.54Z"/>
    <path class="st1" d="M302.17,16.42c.11-.13.44-.18.17-.46-.1-.1-.26-.11-.43-.06v1.01h.19c.09-.13.14-.28.06-.49Z"/>
    <path class="st1" d="M296.94,12.01v-.42c-.59-.24-1.2-.24-1.85-.29.46.56,1.16.81,1.85.71Z"/>
    <path class="st1" d="M293.93,15.39c-.25-.28-.58-.34-.9-.29-.25.04-.38.28-.37.57,0,.24-.07.47-.21.61-.42.42-.06.48.18.59.04.02.09.03.13.04h.88c.12-.29-.1-.53-.32-.71-.12-.1-.25-.22-.17-.41.07-.19.24-.16.39-.15.1,0,.2.03.29.02.16-.02.21-.15.1-.27Z"/>
    <path class="st1" d="M295.68,15.56c.35.12.53.45.87.42.15-.01.32.03.35.22.04.25-.15.29-.31.33-.15.03-.21.14-.27.28-.02.05-.05.08-.08.1h.69v-1.38c-.31-.19-.75-.19-1.25.03Z"/>
    <path class="st1" d="M292.72,11.73c.08.02.16.05.24.05.14,0,.34.05.36-.16.03-.24-.18-.21-.31-.24-.16-.03-.32-.03-.48-.03-.1,0-.21.02-.21.16,0,.11.09.14.17.16.08.02.16.04.24.06Z"/>
    <path class="st1" d="M292.26,13.26c-.01.11.05.2.13.2.37.01.75.29,1.15-.05-.33-.33-.66-.48-1.05-.39-.12.03-.22.08-.24.24Z"/>
    <path class="st1" d="M295.36,16.48c.46-.36-.08-.49-.14-.72-.05-.18-.25-.44-.39-.24-.15.21-.65.19-.41.69-.08.03-.15.07-.23.08-.34.07-.29.34-.29.6h2.19s-.03-.01-.04-.02c-.23-.14-.45-.27-.68-.4Z"/>
    <path class="st1" d="M296.11,14.65c.06-.34-.21-.51-.46-.58-.24-.06-.61-.17-.66.2-.06.44.4.37.59.51.24.11.49.1.53-.13Z"/>
    <path class="st1" d="M296.29,13.54c.17.28.4.38.65.42v-.92c-.5-.2-1.04-.27-1.43-.68-.22.02-.52-.09-.48.23.03.31.09.75.56.69.26-.03.54-.02.71.26Z"/>
    <path class="st1" d="M282.63,11.26s0-.03,0-.04h-.61v.45c.17-.06.33-.12.5-.2.07-.03.14-.11.12-.22Z"/>
    <path class="st1" d="M286.25,16.8c-.15,0-.33-.03-.43.11h.83c-.12-.07-.26-.11-.4-.11Z"/>
    <path class="st1" d="M284.63,16.9c.03-.24.17-.2.32-.17.33.07.62-.03.89-.24.27.11.55.15.85.12.11-.01.24.03.3.14v-2.13c-.15-.1-.28-.24-.41-.41.06,0,.13,0,.19-.01.07-.01.14-.02.21-.03v-.7c-.06-.04-.13-.06-.2-.08-.08-.02-.16-.02-.24-.04-.25-.08-.51-.1-.73-.28-.37-.3-.66-.24-.83.28-.42.3-.44-.17-.59-.4.02-.1.21-.21.03-.31-.38-.19-.71-.51-1.12-.6-.21-.05-.45-.12-.57.21-.48.12-.64.15-.72-.06v4.72h2.64s0,0-.01-.01Z"/>
    <path class="st1" d="M286.15,12.04c.21-.06.53.29.65-.1.1-.3-.15-.52-.44-.6-.34-.09-.65.1-.72.38-.07.27.31.2.51.32Z"/>
    <path class="st1" d="M286.98,12.26c-.16.03-.32.09-.5.2.19.03.35.09.5.15v-.35Z"/>
    <path class="st1" d="M306.89,28.28v-5.04s-.08-.1-.09-.19c.05-.13.05-.29.03-.46h-2.76c.09.1.16.22.13.4-.43-.01-.86-.02-1.3-.05-.13,0-.28-.09-.26-.27,0-.04.01-.06.02-.08h-.75v5.69h4.98Z"/>
    <rect class="st1" x="306.89" y="28.28" width="4.98" height="5.69"/>
    <path class="st1" d="M307.61,21.24c.09.18.31.25.53.19.18-.05.38-.09.47.15.1.26-.26.18-.25.48.66.06,1.33.12,2,.17.08,0,.15-.08.13-.19-.04-.3-.77-.69-1-.52-.23.17-.38.07-.46-.17-.05-.15-.12-.21-.23-.3-.26-.2-.38-.71-.83-.45-.02.01-.1-.09-.13-.15-.09-.21-.24-.28-.44-.27-.12,0-.3.03-.33-.15-.03-.18.13-.3.24-.39.17-.14.38-.1.57-.11.42,0,.84.02,1.26,0,.15,0,.4.04.43-.15.05-.26-.22-.19-.35-.27-.09-.05-.17-.11-.26-.15-.64-.31-1.41-.11-1.76.46-.11.18-.21.3-.31.36v1.01c.29.03.54.1.72.45Z"/>
    <path class="st1" d="M311.57,21.59c-.11,0-.17.08-.18.2,0,.08.03.14.1.16.11.02.19-.03.21-.16.01-.1-.04-.17-.13-.2Z"/>
    <path class="st1" d="M309.23,17.95c.1.05.25-.03.28.21.06.41.44.61.76.41.17-.11.32-.15.51-.07.13.05.26.05.34-.11.04-.08.08-.17.02-.26-.1-.15-.23-.08-.36-.04-.39.13-.65.04-.64-.5.3.02.6.19.9-.01.3-.2.38-.47.21-.67h-.88c-.24.11-.57-.13-.74.23-.06,0-.14.02-.19-.01-.45-.26-.59.24-.67.48-.09.31.27.26.45.34Z"/>
    <path class="st1" d="M311.87,16.91h-.16c.02.05.03.12.03.2,0,.22.05.3.13.34v-.54Z"/>
    <rect class="st1" x="291.96" y="22.6" width="4.98" height="5.69"/>
    <rect class="st1" x="296.94" y="28.28" width="4.98" height="5.69"/>
    <path class="st1" d="M301.91,17.1v-.19h-.42s.02.02.03.03c.12.1.23.28.39.17Z"/>
    <path class="st1" d="M297.16,16.91h-.22v.28c.07-.09.15-.18.22-.28Z"/>
    <path class="st1" d="M301.91,21.63c-.04-.06-.08-.13-.12-.2.04-.03.08-.07.12-.11v-2.07c-.68-.25-1.37-.45-1.95-.97-.02-.32.26-.47.31-.74.12-.07.27-.14.37-.04.41.41.39-.01.45-.29.02-.1.06-.21.08-.31h-.66s-.05,0-.07,0h-2.68c0,.07.03.16.09.27.05.09.11.18.16.27-.36-.06-.72-.1-1.07-.24v5.39h4.98v-.96Z"/>
    <path class="st1" d="M301.85,18.54s.04,0,.06-.01v-.63c-.15-.09-.3-.12-.45.02-.14.13-.11.32-.07.47.07.27.31.2.46.16Z"/>
    <rect class="st1" x="282" y="22.6" width="4.98" height="5.69"/>
    <rect class="st1" x="286.98" y="28.28" width="4.98" height="5.69"/>
    <path class="st1" d="M288.32,17.38c.22-.16.59.12.69-.25.03-.09.02-.17,0-.22h-2s-.02.05-.03.06v1.05s.07.03.1.04c.46.24,1.03-.09,1.24-.68Z"/>
    <path class="st1" d="M291.96,20.15c-.22.02-.44.03-.56.32-.06-.01-.12-.03-.18-.04-.02-.11-.04-.22-.07-.33.15-.5.48-.46.81-.46v-.47s-.07,0-.11,0c-.6.05-.79-.05-1.11-.53-.05-.07-.13-.11-.2-.16.14-.02.29-.03.43-.06.21-.04.25-.18.09-.34-.46-.45-.98-.79-1.59-.87-.22-.03-.39.19-.5.39-.08.14.09.2.19.25-.02.2-.14.17-.26.14-.2-.04-.37,0-.52.21.55.16,1,.37,1.01,1.12,0,.14.16.27.24.4-.29.21-.53-.19-.83-.09-.11.04-.32.14-.38-.09-.05-.18.13-.22.24-.29.19-.14.09-.32.04-.49-.03-.08-.13-.21-.16-.12-.15.36-.25.05-.34-.02-.15-.13-.31-.15-.45-.04-.24.17-.5.23-.76.25v3.76h4.98v-2.45Z"/>
    <rect class="st1" x="277.03" y="39.66" width="4.98" height="5.69"/>
    <rect class="st1" x="272.05" y="45.35" width="4.98" height="5.69"/>
    <rect class="st1" x="272.05" y="11.22" width="4.98" height="5.69"/>
    <rect class="st1" x="272.05" y="33.97" width="4.98" height="5.69"/>
    <rect class="st1" x="272.05" y="22.6" width="4.98" height="5.69"/>
    <rect class="st1" x="277.03" y="28.28" width="4.98" height="5.69"/>
    <rect class="st1" x="277.03" y="16.91" width="4.98" height="5.69"/>
    <rect class="st1" x="257.12" y="39.66" width="4.98" height="5.69"/>
    <rect class="st1" x="267.07" y="39.66" width="4.98" height="5.69"/>
    <rect class="st1" x="262.09" y="45.35" width="4.98" height="5.69"/>
    <rect class="st1" x="262.09" y="33.97" width="4.98" height="5.69"/>
    <rect class="st1" x="247.16" y="39.66" width="4.98" height="5.69"/>
    <rect class="st1" x="252.14" y="45.35" width="4.98" height="5.69"/>
    <rect class="st1" x="252.14" y="33.97" width="4.98" height="5.69"/>
    <rect class="st1" x="242.19" y="45.35" width="4.98" height="5.69"/>
    <rect class="st1" x="242.19" y="33.97" width="4.98" height="5.69"/>
    <rect class="st1" x="262.09" y="11.22" width="4.98" height="5.69"/>
    <rect class="st1" x="252.14" y="11.22" width="4.98" height="5.69"/>
    <rect class="st1" x="242.19" y="11.22" width="4.98" height="5.69"/>
    <rect class="st1" x="262.09" y="22.6" width="4.98" height="5.69"/>
    <rect class="st1" x="267.07" y="28.28" width="4.98" height="5.69"/>
    <rect class="st1" x="267.07" y="16.91" width="4.98" height="5.69"/>
    <rect class="st1" x="252.14" y="22.6" width="4.98" height="5.69"/>
    <rect class="st1" x="257.12" y="28.28" width="4.98" height="5.69"/>
    <rect class="st1" x="257.12" y="16.91" width="4.98" height="5.69"/>
    <rect class="st1" x="242.19" y="22.6" width="4.98" height="5.69"/>
    <rect class="st1" x="247.16" y="28.28" width="4.98" height="5.69"/>
    <rect class="st1" x="247.16" y="16.91" width="4.98" height="5.69"/>
  </g>
</svg>