<?xml version="1.0" encoding="UTF-8"?>
<svg xmlns="http://www.w3.org/2000/svg" version="1.1" viewBox="0 0 370 64">
  <!-- Generator: Adobe Illustrator 29.1.0, SVG Export Plug-In . SVG Version: 2.1.0 Build 142)  -->
  <defs>
    <style>
      .st0 {
        fill: #40012f;
      }

      .st1 {
        fill: #bf0413;
      }
    </style>
  </defs>
  <g id="OBJECTS">
    <g>
      <path class="st1" d="M10.89,12.44h14.15l.1.05c-2.24,9.95-3.4,15.01-3.48,15.18l-3.3,3.15c.91,1.83,1.45,2.84,1.6,3.03-2.29,9.74-3.54,14.94-3.74,15.59h-4.72c-.09,0-.13-.04-.13-.13,0-.14,1.05-4.98,3.15-14.53h-4.26c-1.58,6.84-2.73,11.73-3.43,14.66l-.13.05H1.65v-.05c.21-.97,1.21-5.06,3.02-12.28H.13l-.13-.05c.12-.95.21-1.42.28-1.42h4.75l1.6-6.41h-2.14c-.07,0-.1-.03-.1-.1.05-.95.15-1.42.28-1.42h2.25c.1,0,.7-2.34,1.78-7.01.03,0,.17-.52.41-1.55h-3.12c-.09,0-.13-.03-.13-.1.05-.95.15-1.42.28-1.42h3.38l.36-1.65h-5.09c-.09,0-.13-.04-.13-.13.09-.95.19-1.42.31-1.42h5.32c.27-1.34.47-2.02.59-2.02ZM12.6,21.39c-.83,3.81-1.24,5.77-1.24,5.87h4.26l.59.05c1.03-3.27,1.63-5.25,1.78-5.92h-5.4Z"/>
      <path class="st1" d="M33.92,12.44h10.74c.09.02.13.06.13.13-.03.28-3.08,12.57-9.14,36.87l-.13.05h-4.93l-.1-.05c.71-3.46,1.18-5.9,1.42-7.32h-3.79l-1.91,7.32-.1.05h-4.93c-.09,0-.13-.04-.13-.13,1.98-7.71,2.97-11.64,2.97-11.82h-1.65l-.13-.08c.09-.98.19-1.47.31-1.47h1.88l2.01-8.04h-2.43c-.09,0-.13-.03-.13-.1.07-.91.15-1.37.26-1.37h2.71c1.03-4.41,1.63-6.7,1.78-6.85.05-.02.22-.23.49-.65h-2.5l-.1-.05c.07-.95.16-1.42.28-1.42h3.46c.05-.14.72-1.09,2.01-2.87h-5.58l-.13-.05c.09-.95.18-1.42.28-1.42h6.53c0-.14.18-.38.54-.72ZM33.09,21.41c-2.22,8.86-3.33,13.34-3.33,13.45h.05c.83.03,1.51.05,2.04.05h1.01c.27,0,.71.03,1.29.08,2.19-8.88,3.28-13.4,3.28-13.58h-4.34Z"/>
      <path class="st1" d="M62.91,12.54l.13.05c-1.5,6-2.28,9.05-2.35,9.15h-4.05c-.05,0-.08-.03-.08-.08-.03,0-.05.03-.05.08-1.19-.05-2.07-.08-2.66-.08h-1.76l-4.1,15.85c.38,1.69.57,2.64.57,2.84,2.44-.05,4.41-.08,5.89-.08h1.37c.07.02.1.06.1.13-1.26,5.5-1.96,8.52-2.12,9.08l-10.4-.13c-.31-1.07-.86-3.56-1.65-7.47,0-.14.78-3.28,2.35-9.44h-1.57l-.13-.05c.1-.98.2-1.47.28-1.47h1.83c0-.1.23-1.07.7-2.9h-1.86l-.13-.05c.1-.98.2-1.47.28-1.47h2.12l1.83-7.42h-1.47c-.07,0-.1-.04-.1-.13.05-.9.13-1.34.23-1.34h1.76l.7-2.82h-2.53c-.07,0-.1-.04-.1-.13.05-.9.15-1.34.28-1.34h2.66c.07,0,.16-.26.28-.78h13.76Z"/>
      <path class="st1" d="M71.02,12.34h8.29l.13.05-2.19,9.26c-.91-.03-1.59-.05-2.04-.05h-.59l-.72-.05-4.52,18.64h.05c.29,0,1.27.02,2.94.05l.05.1-1.99,9.15c-.84-.03-1.47-.05-1.88-.05h-1.24s-.05-.03-.05-.08c-.05,0-.08.03-.08.08-.91-.05-3.64-.11-8.18-.18l-.05-.13c1.22-5.19,1.93-8.14,2.12-8.84l.13-.05c1.2.04,2.16.05,2.87.05h.08c.07,0,.22-.55.46-1.65h-4.88c-.09,0-.13-.03-.13-.1.07-.91.16-1.37.28-1.37h5.09l1.94-7.96h-5.65v-.05c.05-.98.13-1.47.23-1.47h5.78c.93-3.88,1.39-5.89,1.39-6.02h-.05c-.69-.03-1.26-.05-1.7-.05h-.83c-.29,0-.45-.06-.46-.18l.28-1.16h-1.94c-.09,0-.13-.04-.13-.13.07-.9.17-1.34.31-1.34h2.17l.65-2.79h-2.94c-.07,0-.1-.03-.1-.1.07-.95.16-1.42.28-1.42h3.12c.07,0,.27-.66.59-1.99.03,0,.05-.03.05-.08,1.43-.03,2.45-.05,3.07-.05Z"/>
      <path class="st1" d="M92.67,12.34c.09.02.13.06.13.13.5,12.45.75,18.96.75,19.55.05.07.08.13.08.18h.05c.58-2.53,2.21-9.14,4.88-19.81h4.8l.1.08-9.14,36.85-.13.05h-4.65c-.09,0-.13-.03-.13-.1l-.98-19.44h-.08c-2.75,11.84-4.3,18.4-4.65,19.68h-1.01s-.05-.02-.05-.05c-.05,0-.08.02-.08.05-.33-.03-.58-.05-.75-.05-.65,0-1.72-.03-3.2-.08l-.05-.1,3.67-14.76h-2.71c-.09,0-.13-.04-.13-.13.05-.9.13-1.34.23-1.34h3.02c0-.17.28-1.3.83-3.39h-4.13l-.13-.05c.09-.95.19-1.42.31-1.42h4.29c.95-3.79,1.44-5.74,1.47-5.84h-4.7l-.13-.05c.09-.98.19-1.47.31-1.47h4.83c.07-.02.36-1.09.88-3.21h-2.76l-.13-.05c.1-.95.21-1.42.31-1.42h2.94c.58-2.43.92-3.69,1.01-3.77h4.83Z"/>
      <path class="st1" d="M108.6,12.54h13.66c.5,0,.85.04,1.06.13-1.48,5.95-2.25,8.97-2.3,9.08h-9.42l-4.16,15.9v.05l.59,2.77h3.85c.1,0,.42-1.31.96-3.93.07-.17.21-.74.41-1.71h-.08c-.17,0-.62-.02-1.34-.05,0-.05-.02-.08-.05-.08l2.04-8.02h.13c.88,0,2.91-.03,6.09-.08,0,.05.02.08.05.08-3.39,14.1-5.22,21.64-5.5,22.63h-1.94c-.45,0-1.13.02-2.04.05v-.05l-.13.05c-3.49.05-5.62.08-6.38.08-.69.03-1.1.05-1.24.05-.12-.29-.66-2.76-1.63-7.4l1.16-4.81h-2.92c-.09,0-.13-.03-.13-.1.09-.88.16-1.35.23-1.42l.28.05h2.81c.1,0,.67-2.22,1.7-6.67.03-.03.16-.45.36-1.24h-3.69l-.13-.05c.1-.98.21-1.47.31-1.47h3.79c.09,0,.71-2.46,1.88-7.37h-3.23c-.09,0-.13-.04-.13-.13.07-.9.17-1.34.31-1.34h3.43c0-.09.21-1.01.65-2.77h-4.21c-.07,0-.1-.03-.1-.1.07-.95.16-1.42.28-1.42h4.44c.07-.47.15-.7.23-.7Z"/>
      <path class="st1" d="M146.34,12.44h14.09l.13.05c-1.5,5.53-2.31,8.47-2.43,8.82h-6.97c-.45,0-1.14-.02-2.06-.05l-1.06,4.47h9.22c.07.02.1.06.1.13-3.86,15.24-5.88,23.12-6.07,23.63h-14.1c-.09,0-.13-.04-.13-.13,1.41-6.08,2.16-9.21,2.25-9.39h9.37l1.32-4.91h-9.16l-.1-.05c.83-3.36,1.3-5.35,1.42-5.97h-4.31l-.13-.05c.1-.98.21-1.47.31-1.47h4.54c.19-.83.28-1.28.28-1.37h-2.53l-.13-.05c.09-.98.19-1.47.31-1.47h2.76l1.06-4.5h-3.82c-.09,0-.13-.03-.13-.1.05-.95.15-1.42.28-1.42h4.08c0-.1.21-1.03.65-2.79h-4.83c-.09,0-.13-.03-.13-.1.07-.95.17-1.42.31-1.42h4.96c.07,0,.24-.59.52-1.78l.13-.05Z"/>
      <path class="st1" d="M164.9,12.44h13.79l.1.05c-1.29,5.17-2.06,8.2-2.3,9.08h-9.04l-1.65,5.25h.05c.79,0,3.05-.03,6.79-.1,0,.29-.65,3.02-1.94,8.17-1.65-.09-2.9-.13-3.74-.13v-.05s-.05.02-.05.05l-.28-.05h-.49c-.38,0-.96-.03-1.76-.08l-.77,2.74c0,.16.26,1.18.77,3.08,1.72-.05,3-.08,3.85-.08h1.39c.46,0,1.2-.02,2.19-.05,0,.03.02.05.05.05-1.5,5.84-2.3,8.89-2.4,9.13h-10.22c-.12,0-.5-1.48-1.14-4.45-.19-.59-.42-1.57-.7-2.95l1.11-4.55h-2.06v-.08c.03-.98.11-1.47.23-1.47h2.25c0-.12.65-2.77,1.96-7.94h-2.74c-.07,0-.1-.03-.1-.1.07-.95.16-1.42.28-1.42h2.97c0-.12.61-2.61,1.83-7.47h-2.38l-.1-.05c.1-.95.2-1.42.28-1.42h2.48c.09,0,.34-.95.77-2.84h-3.43v-.05c.05-.95.13-1.42.23-1.42h3.61c.07-.55.16-.83.28-.83Z"/>
      <path class="st1" d="M190.93,12.34c.09.02.13.06.13.13.5,12.45.75,18.96.75,19.55.05.07.08.13.08.18h.05c.58-2.53,2.21-9.14,4.88-19.81h4.8l.1.08-9.14,36.85-.13.05h-4.65c-.09,0-.13-.03-.13-.1l-.98-19.44h-.08c-2.75,11.84-4.3,18.4-4.65,19.68h-1.01s-.05-.02-.05-.05c-.05,0-.08.02-.08.05-.33-.03-.58-.05-.75-.05-.65,0-1.72-.03-3.2-.08l-.05-.1,3.67-14.76h-2.71c-.09,0-.13-.04-.13-.13.05-.9.13-1.34.23-1.34h3.02c0-.17.28-1.3.83-3.39h-4.13l-.13-.05c.09-.95.19-1.42.31-1.42h4.29c.95-3.79,1.44-5.74,1.47-5.84h-4.7l-.13-.05c.09-.98.19-1.47.31-1.47h4.83c.07-.02.36-1.09.88-3.21h-2.76l-.13-.05c.1-.95.21-1.42.31-1.42h2.94c.58-2.43.92-3.69,1.01-3.77h4.83Z"/>
      <path class="st1" d="M210.49,12.44h10.74c.09.02.13.06.13.13-.04.28-3.08,12.57-9.14,36.87l-.13.05h-4.93l-.1-.05c.71-3.46,1.18-5.9,1.42-7.32h-3.8l-1.91,7.32-.1.05h-4.93c-.09,0-.13-.04-.13-.13,1.98-7.71,2.97-11.64,2.97-11.82h-1.65l-.13-.08c.09-.98.19-1.47.31-1.47h1.88l2.01-8.04h-2.43c-.09,0-.13-.03-.13-.1.07-.91.15-1.37.26-1.37h2.71c1.03-4.41,1.63-6.7,1.78-6.85.05-.02.22-.23.49-.65h-2.5l-.1-.05c.07-.95.16-1.42.28-1.42h3.46c.05-.14.72-1.09,2.01-2.87h-5.58l-.13-.05c.09-.95.18-1.42.28-1.42h6.53c0-.14.18-.38.54-.72ZM209.67,21.41c-2.22,8.86-3.33,13.34-3.33,13.45h.05c.83.03,1.51.05,2.04.05h1.01c.28,0,.71.03,1.29.08,2.18-8.88,3.28-13.4,3.28-13.58h-4.34Z"/>
      <path class="st1" d="M239.48,12.54l.13.05c-1.5,6-2.28,9.05-2.35,9.15h-4.05c-.05,0-.08-.03-.08-.08-.03,0-.05.03-.05.08-1.19-.05-2.07-.08-2.66-.08h-1.76l-4.1,15.85c.38,1.69.57,2.64.57,2.84,2.44-.05,4.41-.08,5.89-.08h1.37c.07.02.1.06.1.13-1.26,5.5-1.96,8.52-2.12,9.08l-10.4-.13c-.31-1.07-.86-3.56-1.65-7.47,0-.14.78-3.28,2.35-9.44h-1.58l-.13-.05c.1-.98.2-1.47.28-1.47h1.83c0-.1.23-1.07.7-2.9h-1.86l-.13-.05c.1-.98.2-1.47.28-1.47h2.12l1.83-7.42h-1.47c-.07,0-.1-.04-.1-.13.05-.9.13-1.34.23-1.34h1.76l.7-2.82h-2.53c-.07,0-.1-.04-.1-.13.05-.9.15-1.34.28-1.34h2.66c.07,0,.16-.26.28-.78h13.76Z"/>
    </g>
  </g>
  <g id="DESIGNED_BY_FREEPIK">
    <g>
      <path class="st0" d="M357.34,16.55v-.03s-.65-.11-.65-.11c-1.99-.32-4.02-.45-8.49-.15-.28.02-.56.05-.85.1-.64-.46-1.3-.88-1.99-1.33-1.13-.73-2.3-1.48-3.39-2.4-4.41-3.71-15.01-5.82-19.9-3.95-2.35.9-4.57,2.77-6.01,4.19-.53.52-1.47.71-2.29.48-2.95-.86-13.05-3.13-19.8,3.52-2.84.24-26.51,2.28-37.17,4.34-1.39.27-2.68.62-3.85,1.03l-.1-.02c-1.67-.35-3.38-.53-7.18-.38-2.49.1-4.99,1.06-6.84,2.63-2.25,1.91-3.55,4.67-3.78,8-.53,7.97,4.11,11.41,8.63,11.97,3.75.46,5.48.43,7.19.22,0,0,.2-.02.63-.11,1.35-.3,2.64-1.04,3.77-2.16,2.47.57,5.38.92,8.65,1.06,3.98.17,14.42.61,23.97-.7,1.74,2.94,4.45,4.76,7.52,5.01,2.02.16,3.54.23,4.78.23,1.49,0,2.59-.1,3.68-.26,0,0,.25-.04.63-.12,3.32-.76,6.05-3.63,7.28-7.67,4.57-.35,9.61-.77,16.23-1.66,5.14-.69,9.25-1.4,12.52-2.17,1.75,2.74,4.42,4.38,7.35,4.68,2.27.24,6.22.44,9.15-.15,4.56-.92,7.89-6.07,7.97-12,.08-5.93-3.18-11-7.66-12.11ZM339.2,12.21s-.14-.03-.39-.1c-.12-.03-.27-.07-.45-.12-.17-.05-.37-.09-.58-.15-.21-.05-.44-.11-.68-.18-.24-.06-.5-.12-.76-.19-.26-.07-.54-.13-.82-.2-.28-.07-.56-.13-.85-.2-.28-.06-.57-.13-.85-.19-.28-.06-.56-.13-.82-.18-.27-.06-.53-.11-.77-.16-.25-.05-.48-.1-.7-.14-.43-.08-.79-.15-1.05-.2-.25-.04-.4-.07-.4-.07,0,0,.15,0,.41.02.26.01.64.04,1.08.1.22.03.46.05.72.09.25.04.52.08.79.13.55.09,1.13.22,1.7.34.28.07.57.14.85.21.28.07.55.15.81.22.26.08.51.16.75.23.24.07.46.15.66.22.41.14.74.27.97.36.23.09.36.15.36.15ZM318.92,12.24c.14-.12.35-.31.64-.53.28-.22.64-.48,1.06-.77.43-.29.92-.6,1.52-.89.3-.14.62-.29.98-.4.36-.11.76-.21,1.21-.22.41,0,.86.02,1.3.14.03,0,.06.02.09.03.02-.01.05-.02.08-.04.05-.02.11-.05.19-.08.07-.03.16-.05.25-.08.09-.03.2-.05.31-.08.11-.03.24-.05.37-.07.13-.02.27-.04.42-.05.15-.01.3-.03.47-.03.16,0,.33,0,.5,0,.17,0,.35.01.53.01.37,0,.75.05,1.14.09.39.04.79.11,1.19.16.4.08.8.15,1.21.23.4.09.8.19,1.19.28.39.1.76.21,1.13.31.37.1.71.21,1.04.31.33.1.64.2.93.29.28.09.54.19.77.26.23.08.43.15.59.21.33.11.52.18.52.18,0,0-.19-.06-.53-.16-.17-.05-.37-.11-.61-.18-.23-.07-.5-.15-.79-.23-.29-.08-.61-.16-.94-.25-.33-.09-.69-.18-1.06-.26-.37-.08-.75-.17-1.14-.26-.39-.07-.79-.15-1.19-.22-.4-.06-.81-.12-1.2-.18-.4-.04-.79-.09-1.17-.11-.38-.02-.75-.05-1.09-.04-.17,0-.34,0-.5,0-.16,0-.32.02-.47.03-.15,0-.29.03-.42.05-.13.01-.26.04-.37.06-.11.02-.22.04-.31.07-.09.03-.18.04-.25.07-.04.01-.08.03-.12.04.13.09.24.19.34.3.27.29.45.62.6.94.15.33.26.66.37,1,.1.34.2.68.29,1.02l.02.06.02.06s.03.07.04.11c.03.07.07.14.12.21.1.13.22.25.38.35.31.2.72.34,1.14.45.38.1.77.18,1.17.26,1.58-.19,6.05-.6,9.42-.18,3.4.42,4.57,1.28,4.57,1.28-6.73-.85-10.54-.21-11.49-.02.02.02.03.04.05.07.11.17.16.36.18.53.02.18,0,.37-.08.54-.14.35-.47.62-.81.81-.7.38-1.47.53-2.16.65-.7.11-1.34.17-1.92.2-.57.03-1.07.04-1.48.04-.41,0-.73,0-.95-.02-.22,0-.34-.02-.34-.02,0,0,.47,0,1.29-.05.41-.02.9-.06,1.47-.11.56-.06,1.19-.14,1.86-.27.33-.07.68-.15,1.01-.26.34-.11.68-.24.97-.41.29-.17.53-.4.63-.66.05-.13.06-.27.04-.41-.02-.15-.07-.28-.15-.41-.16-.25-.48-.44-.86-.57-.38-.13-.81-.23-1.25-.32-.44-.09-.9-.17-1.35-.29-.45-.12-.92-.26-1.32-.52-.2-.13-.37-.29-.5-.46-.06-.09-.11-.18-.15-.27-.02-.05-.04-.1-.05-.14l-.02-.07-.02-.06c-.09-.34-.18-.68-.28-1.01-.1-.33-.2-.66-.33-.97-.13-.31-.29-.61-.51-.86-.22-.25-.52-.44-.87-.55-.17-.05-.36-.09-.55-.11-.2-.02-.37-.03-.58-.03-.36,0-.73.07-1.07.16-.34.1-.66.22-.96.35-.59.26-1.11.55-1.56.81-.44.26-.82.51-1.12.71-.6.41-.93.66-.93.66,0,0,.08-.07.22-.19ZM341.71,16.64s-.19.04-.53.1c-.17.03-.37.07-.6.12-.23.05-.49.11-.77.18-.28.06-.58.15-.89.24-.31.1-.63.21-.95.34-.08.03-.16.06-.24.1-.08.04-.16.07-.23.11-.08.04-.16.08-.24.11-.08.04-.15.08-.23.12-.16.08-.31.17-.46.26-.15.09-.3.18-.45.28-.15.1-.29.19-.44.29-.14.1-.28.2-.42.3-.27.21-.55.4-.8.6-.52.4-1,.77-1.41,1.08-.41.32-.77.57-1.02.76-.25.18-.39.28-.39.28,0,0,.12-.12.34-.32.22-.2.53-.49.91-.83.38-.34.83-.73,1.33-1.14.25-.21.51-.42.79-.62.14-.1.28-.21.42-.31.14-.1.29-.2.44-.3.15-.1.31-.19.46-.29.15-.1.32-.18.48-.27.08-.04.16-.09.24-.13.08-.04.17-.07.25-.11.08-.04.17-.07.25-.11.08-.04.17-.06.25-.1.33-.13.68-.23,1-.32.16-.04.32-.08.48-.11.15-.04.31-.06.45-.09.15-.03.28-.06.42-.07.13-.02.26-.04.38-.05.24-.03.45-.06.62-.08.34-.04.54-.05.54-.05ZM296,16.64c.19-.15.47-.36.86-.6.39-.24.89-.53,1.49-.81.6-.29,1.31-.58,2.12-.85.81-.27,1.72-.5,2.71-.67.99-.17,2.07-.28,3.18-.3,1.11-.02,2.27.05,3.42.22,1.15.16,2.3.42,3.39.74.54.15,1.09.32,1.62.5.27.09.53.18.8.27.26.09.53.19.78.28,1.04.39,2.02.83,2.93,1.29.92.46,1.73.97,2.52,1.39.4.21.79.39,1.19.54.4.14.81.25,1.22.32.82.13,1.61.16,2.31.17.35,0,.68-.01.98-.01.3-.01.58-.02.84-.03.25-.01.48-.02.68-.03.2-.01.36-.02.5-.03.27-.02.42-.03.42-.03,0,0-.14.02-.41.06-.27.04-.66.1-1.16.16-.25.03-.53.06-.84.09-.31.03-.64.06-.99.08-.71.04-1.53.06-2.42-.04-.45-.06-.91-.15-1.36-.29-.46-.14-.9-.33-1.33-.53-.43-.21-.85-.43-1.28-.65-.43-.22-.86-.45-1.31-.66-.9-.43-1.87-.83-2.88-1.2-.25-.09-.51-.18-.77-.27-.26-.09-.52-.17-.78-.26-.53-.16-1.05-.32-1.6-.47-1.06-.31-2.14-.56-3.24-.73-1.09-.16-2.18-.26-3.24-.26-.48,0-.95.01-1.41.04-.6.37-1.58,1.02-2.4,1.87,1.21-.12,2.65-.21,4.33-.25,6.69-.12,8.12.51,9.27,1.56.92.85-.91.88-6.2-.13-2.54-.48-5.55-.55-7.99-.49-.04.05-.08.11-.12.16.27,0,.55-.01.83-.01.34,0,.68,0,1.03,0,.34,0,.69.02,1.03.03.34,0,.67.03.99.05.32.01.63.04.93.07.29.02.57.05.83.08.51.05.93.11,1.23.15.29.04.46.07.46.07,0,0-.17,0-.47-.01-.15,0-.33-.01-.54-.02-.21,0-.44-.02-.7-.02-.26,0-.53-.02-.83-.03-.29,0-.6-.02-.92-.03-.64-.02-1.32-.04-2.01-.04-.34,0-.68-.01-1.02-.02-.34,0-.67,0-.99,0-.12.2-.23.41-.32.62.79.04,1.65.08,2.54.12.71.03,1.45.06,2.2.1.75.04,1.51.06,2.27.1,1.52.06,3.05.13,4.48.19.71.03,1.41.06,2.06.09.66.03,1.27.06,1.85.09,1.14.05,2.1.1,2.76.14.67.04,1.05.06,1.05.06,0,0-.38,0-1.05.02-.33,0-.74,0-1.21.01-.47,0-.99,0-1.56,0-.57,0-1.19,0-1.85-.02-.66,0-1.35-.02-2.07-.04-.72-.02-1.46-.03-2.21-.06-.75-.03-1.51-.05-2.28-.08-.76-.04-1.53-.07-2.28-.11-.75-.04-1.49-.08-2.2-.13-.71-.04-1.4-.1-2.06-.15-.65-.05-1.27-.11-1.84-.16-.57-.05-1.09-.11-1.55-.16-.46-.05-.86-.1-1.19-.15-.66-.09-1.03-.16-1.03-.16,0,0,.09,0,.27.02.18.01.44.03.77.05.33.02.74.04,1.2.07.03,0,.06,0,.09,0,.05-.09.15-.26.29-.48-.39,0-.61,0-.61,0,0,0,.24-.03.66-.07.04-.06.08-.12.12-.18-1.04.07-1.68.14-1.68.14,0,0,.62-.24,1.93-.5.44-.58,1.06-1.25,1.85-1.77-.15.04-.29.07-.43.11-1.61.44-2.86.98-3.7,1.4-.42.21-.73.39-.94.52-.21.13-.31.21-.3.21,0,0,.08-.09.26-.24ZM240.2,24.9c-.54.44-1.03.96-1.47,1.52-.44.56-.8,1.18-1.11,1.83-.3.65-.53,1.32-.7,2.01-.18.68-.3,1.38-.37,2.06-.07.69-.1,1.36-.09,2.02.02.65.07,1.29.16,1.88.09.6.22,1.16.38,1.67.16.51.34.97.52,1.38.19.4.38.75.55,1.02.18.28.33.49.44.63.11.14.18.21.18.21,0,0-.3-.27-.68-.82-.38-.55-.86-1.36-1.21-2.39-.36-1.02-.62-2.25-.66-3.58-.02-.66,0-1.35.07-2.04.07-.69.18-1.4.36-2.09s.43-1.38.74-2.04c.32-.66.7-1.29,1.15-1.86.45-.58.98-1.09,1.55-1.54.57-.44,1.17-.81,1.77-1.11.6-.3,1.19-.51,1.73-.67.54-.16,1.03-.26,1.43-.33.41-.07.73-.09.95-.11.22-.01.34-.01.34-.01,0,0-.48.02-1.27.17-.79.15-1.91.47-3.06,1.07-.57.3-1.15.67-1.69,1.11ZM243.66,29.38c-.2.47-.38.94-.52,1.4-.13.46-.25.91-.31,1.34-.02.11-.04.21-.05.32-.01.11-.03.21-.04.31,0,.05-.01.1-.02.15v.07s-.02.07-.02.07c0,.1-.02.2-.03.29-.07.76-.09,1.4-.1,1.85,0,.45,0,.71,0,.71,0,0-.07-.25-.15-.7-.08-.45-.16-1.09-.19-1.86,0-.1,0-.2,0-.3v-.08s0-.08,0-.08c0-.05,0-.1,0-.15,0-.1,0-.21,0-.32,0-.11.02-.22.03-.33.04-.45.11-.92.22-1.4.12-.48.27-.98.47-1.47.21-.49.45-.98.73-1.46.29-.48.63-.94.99-1.38.36-.44.77-.85,1.2-1.22.43-.38.88-.71,1.34-1,.46-.3.93-.54,1.39-.74.46-.2.9-.35,1.31-.45.41-.1.77-.16,1.08-.18.08,0,.15-.01.22-.02.07,0,.13,0,.19,0,.12,0,.22,0,.3,0,.16,0,.25.01.25.01,0,0-.09,0-.25.02-.08,0-.18.01-.29.03-.06,0-.12.02-.18.02-.06.01-.13.02-.2.04-.29.05-.63.15-1,.27-.37.13-.77.31-1.19.52-.41.22-.83.48-1.25.78-.41.3-.82.64-1.21,1.01-.09.09-.19.19-.29.28-.09.1-.19.2-.28.29-.18.2-.36.41-.53.62-.34.42-.65.87-.93,1.32-.28.46-.52.93-.73,1.39ZM245.32,30.06c-.09.33-.16.62-.19.86-.03.24-.04.43-.04.57,0,.13,0,.2,0,.2,0,0-.02-.07-.05-.2-.02-.13-.06-.32-.06-.57,0-.25,0-.55.06-.89.05-.34.16-.73.32-1.14.16-.41.39-.85.69-1.29.29-.44.68-.88,1.11-1.31.23-.21.45-.43.71-.62.13-.1.25-.21.39-.3.14-.1.28-.19.41-.29.14-.1.28-.19.43-.28.15-.09.29-.18.44-.27.31-.17.62-.34.93-.5l.49-.23c.16-.08.32-.15.49-.22.17-.07.33-.14.5-.21.17-.07.33-.14.5-.2.34-.12.67-.25,1.01-.35.34-.1.68-.21,1.01-.31.67-.18,1.32-.35,1.95-.48.31-.06.62-.14.92-.19.3-.05.59-.1.86-.15.55-.1,1.07-.16,1.52-.22.45-.07.85-.1,1.18-.13.66-.06,1.03-.09,1.03-.09,0,0-.36.08-1,.2-.32.06-.71.13-1.15.23-.22.05-.45.1-.7.15-.12.03-.25.05-.38.08-.13.03-.26.06-.39.09-.54.13-1.12.26-1.72.43-.61.15-1.23.35-1.88.54-.32.11-.64.21-.97.32-.16.05-.32.12-.48.18-.16.06-.32.12-.49.18-.16.06-.32.13-.48.19-.16.07-.32.13-.48.2-.32.13-.62.29-.94.44-.31.15-.6.31-.9.47-.14.09-.28.17-.43.26-.14.08-.28.17-.42.26-.13.09-.27.18-.4.27-.13.09-.25.19-.38.28-.26.18-.48.38-.71.58-.43.4-.83.8-1.14,1.21-.31.41-.58.81-.77,1.19-.19.39-.34.75-.44,1.08ZM268.37,37.74c.2-.01.41-.02.61-.03.4-.02.8-.05,1.19-.08.39-.02.77-.08,1.15-.11.37-.04.74-.09,1.09-.14.35-.06.69-.11,1.02-.17.33-.07.65-.12.94-.19.6-.14,1.15-.28,1.61-.43.47-.15.86-.3,1.18-.44.15-.07.29-.14.41-.2.12-.06.21-.12.29-.16.16-.09.24-.14.24-.14,0,0-.08.05-.23.15-.08.05-.16.11-.28.18-.12.06-.25.13-.4.21-.31.15-.7.32-1.16.49-.46.17-1,.33-1.61.48-.3.08-.62.14-.95.22-.33.07-.68.13-1.03.19-.36.05-.72.11-1.1.16-.38.04-.76.1-1.16.13-.39.04-.79.07-1.2.1-.2.01-.41.03-.61.04-.21,0-.41.02-.62.02-.21,0-.42.02-.63.02-.21,0-.42,0-.63,0-.42,0-.84,0-1.27,0-.84-.02-1.69-.06-2.52-.11-.83-.06-1.64-.14-2.43-.23-.78-.1-1.53-.21-2.24-.34-.71-.13-1.37-.26-1.97-.41-.61-.14-1.15-.3-1.63-.44-.24-.08-.46-.14-.66-.21-.2-.07-.39-.13-.55-.19-.33-.12-.59-.22-.76-.3-.17-.07-.26-.11-.26-.11,0,0,.09.03.27.1.18.07.44.15.78.26.17.05.36.11.56.17.21.06.43.12.67.19.48.12,1.03.26,1.64.38.6.13,1.27.25,1.97.36.7.11,1.45.21,2.23.3.78.08,1.59.15,2.4.21.83.05,1.66.09,2.5.1.42,0,.84.02,1.25,0,.21,0,.42,0,.62,0,.21,0,.41-.01.62-.02.21,0,.41-.01.62-.02ZM267.77,33.87c0-.25,0-.49,0-.74,0-.25.01-.5.02-.74,0-.25.02-.49.03-.72.02-.47.04-.9.07-1.28.05-.75.12-1.24.12-1.24,0,0,.06.5.09,1.25.02.37.03.81.04,1.28,0,.23,0,.47,0,.72,0,.25,0,.49,0,.74,0,.25-.01.5-.02.74,0,.25-.02.49-.03.72-.02.47-.04.9-.07,1.28-.05.75-.12,1.24-.12,1.24,0,0-.06-.5-.09-1.25-.02-.37-.03-.81-.04-1.28,0-.23,0-.48,0-.72ZM275.2,33.95v-.49c0-.16,0-.33.01-.49,0-.16.02-.32.02-.47.02-.31.04-.59.07-.83.05-.49.12-.81.12-.81,0,0,.06.33.1.81.02.24.04.53.05.83,0,.15.01.31.01.47v.49c0,.16,0,.33-.01.49,0,.16-.02.32-.02.47-.02.31-.04.59-.07.83-.05.49-.12.81-.12.81,0,0-.06-.33-.1-.82-.02-.24-.04-.53-.05-.83,0-.15-.01-.31,0-.47ZM252.62,33.45c0-.15.01-.31.03-.45.02-.14.04-.28.06-.39.05-.23.11-.38.11-.38,0,0,.06.15.1.38.02.12.04.25.05.39.01.14.02.3.02.45,0,.15-.01.31-.03.45-.01.14-.04.28-.06.39-.05.23-.11.38-.11.38,0,0-.06-.15-.1-.38-.02-.12-.04-.25-.05-.39-.01-.14-.02-.3-.02-.45ZM259.78,33.77c0-.19,0-.38,0-.57,0-.19,0-.38.01-.57,0-.19.02-.37.02-.55.02-.36.04-.69.07-.98.05-.57.12-.95.12-.95,0,0,.06.38.09.95.02.29.04.62.04.98,0,.18.01.36,0,.55,0,.19,0,.38,0,.57,0,.19,0,.38-.01.57,0,.19-.02.37-.02.55-.02.36-.04.69-.07.98-.05.57-.12.95-.12.95,0,0-.06-.38-.09-.95-.02-.29-.04-.62-.04-.98,0-.18-.01-.36,0-.55ZM262.07,26.85c-.28,0-.56.01-.85.02-.29,0-.59.01-.89.03-.3.01-.61.02-.92.04-.31.02-.62.04-.94.05-.32.01-.63.05-.95.07-.32.02-.64.06-.95.09l-.48.05-.47.06c-.16.02-.31.04-.47.06-.16.02-.31.05-.46.07-.62.09-1.22.21-1.79.33-.57.13-1.12.27-1.62.44-.5.16-.96.35-1.36.54-.4.2-.74.4-1.01.61-.27.21-.47.41-.61.59-.14.18-.22.33-.27.44-.04.11-.05.17-.05.17,0,0,0-.06.03-.17.03-.11.1-.27.23-.46.13-.19.32-.41.58-.63.26-.23.59-.45.99-.67.4-.22.85-.42,1.36-.6.25-.1.52-.17.79-.26.27-.08.56-.16.85-.23.29-.06.59-.14.89-.2.15-.03.3-.06.46-.09.15-.03.31-.05.47-.08.16-.02.31-.05.47-.07.16-.02.32-.04.48-.06l.48-.06.48-.05c.32-.03.64-.06.96-.08.32-.02.64-.05.96-.07.32-.02.63-.03.94-.05.31,0,.62-.02.92-.02.61-.02,1.19,0,1.75-.01.56,0,1.08.02,1.56.03.48.02.93.04,1.32.06.39.02.73.05,1.01.06.56.04.88.06.88.06,0,0-.32,0-.89,0-.28,0-.62-.01-1.02-.01-.39,0-.84,0-1.32,0-.48,0-1,0-1.56.01ZM267.07,42.51c-.18,0-.43.01-.76.02-.33,0-.73.02-1.18.02-.46,0-.97,0-1.54,0-.56-.01-1.17-.03-1.82-.07-.32-.02-.65-.04-.99-.06-.34-.03-.68-.06-1.03-.09-.35-.04-.7-.07-1.06-.12-.18-.02-.36-.05-.54-.07-.18-.03-.36-.06-.54-.08-.36-.05-.73-.13-1.09-.19-.36-.07-.73-.14-1.09-.23-.36-.09-.72-.17-1.07-.27-.18-.05-.35-.1-.53-.15-.17-.05-.35-.11-.52-.16-.69-.21-1.34-.47-1.95-.73-.3-.14-.6-.28-.88-.42-.27-.15-.55-.3-.8-.45-.24-.16-.49-.31-.71-.46-.21-.16-.43-.32-.62-.47-.18-.16-.36-.32-.52-.46-.16-.15-.29-.31-.42-.44-.06-.07-.13-.14-.19-.21-.05-.07-.1-.14-.15-.2-.1-.13-.19-.25-.27-.35-.15-.22-.24-.4-.32-.52-.07-.12-.11-.18-.11-.18,0,0,.18.24.49.67.09.1.19.21.29.34.05.06.11.12.17.19.06.07.13.13.2.19.14.13.28.28.45.42.17.14.35.29.54.44.2.15.41.29.63.44.22.15.47.29.72.44.25.14.53.28.8.42.29.13.57.27.87.4.61.25,1.25.49,1.93.7.17.05.34.1.51.16.17.05.35.09.52.14.34.1.7.17,1.06.26.36.08.71.15,1.07.23.36.06.72.14,1.08.19.72.12,1.43.22,2.12.3.34.04.69.07,1.02.11.33.03.66.06.98.08.64.05,1.24.09,1.8.12,1.12.06,2.05.08,2.71.09.33,0,.59.01.76.01.18,0,.27.01.27.01,0,0-.09,0-.27,0ZM281.24,34.45c-.15.8-.73,1.5-1.44,2.03-.71.54-1.55.95-2.42,1.29-.87.34-1.78.6-2.7.81-.92.21-1.86.37-2.8.5-.94.12-1.88.21-2.81.26-1.87.11-3.72.08-5.48-.04-.89-.06-1.76-.14-2.6-.24-.84-.11-1.66-.24-2.45-.38-.79-.15-1.55-.31-2.28-.5-.73-.19-1.41-.39-2.06-.61-.65-.22-1.26-.45-1.82-.7-.56-.25-1.07-.51-1.53-.78-.92-.53-1.6-1.11-2.02-1.66-.43-.54-.56-1.03-.59-1.36-.02-.16,0-.29,0-.37.01-.08.02-.13.02-.13,0,0,0,.04,0,.13,0,.08.02.21.06.37.07.32.29.77.75,1.25.46.48,1.18.98,2.1,1.44.46.23.97.45,1.53.66.56.21,1.16.41,1.8.59.64.18,1.32.35,2.04.5.71.15,1.46.29,2.23.41.77.12,1.57.21,2.39.29.82.08,1.66.14,2.52.18,1.72.08,3.49.07,5.28-.05,1.79-.12,3.59-.34,5.31-.74.86-.2,1.7-.44,2.48-.73.78-.29,1.51-.65,2.1-1.08.59-.42,1.02-.94,1.14-1.47.13-.56-.02-1.14-.37-1.65-.35-.51-.87-.97-1.47-1.35-.6-.39-1.26-.71-1.94-.98-1.37-.55-2.77-.94-4.09-1.23-1.33-.29-2.57-.51-3.68-.66-1.11-.16-2.09-.28-2.89-.36-.81-.08-1.44-.14-1.88-.18-.44-.04-.67-.06-.67-.06,0,0,.23,0,.67,0,.44,0,1.08,0,1.9.04.82.03,1.81.08,2.95.18,1.13.1,2.42.24,3.79.49.69.12,1.4.27,2.13.45.73.18,1.48.39,2.22.67.74.27,1.49.6,2.18,1.01.69.41,1.36.92,1.82,1.57.47.64.7,1.42.56,2.19ZM281.27,29.46c-15.89-7.52-30.78-2.5-30.78-2.5.75-1.07,2.28-2,4.41-2.8.08-.02.17-.05.25-.07.54-.14,1.16-.28,1.85-.4.35-.05.7-.12,1.08-.16.19-.02.38-.05.57-.07.19-.02.39-.04.59-.06.8-.07,1.65-.12,2.53-.14.44-.02.89,0,1.34,0,.23,0,.45.01.68.02.23,0,.46.01.69.02.46.03.93.05,1.39.08.23.02.47.04.7.06.23.02.47.04.7.07.93.09,1.87.21,2.78.34.23.04.45.07.68.11.23.04.45.06.67.1.45.08.88.15,1.32.23.43.08.85.17,1.27.25.42.07.82.16,1.21.25.39.08.77.17,1.14.25.37.08.72.17,1.06.24.68.15,1.3.31,1.85.45.55.13,1.03.26,1.43.36.39.1.71.18.92.23.21.05.33.08.33.08,0,0-.11-.04-.31-.12-.2-.07-.49-.19-.87-.32-.19-.07-.4-.14-.62-.23-.23-.08-.48-.16-.74-.25-.53-.17-1.13-.38-1.8-.57-.33-.1-.68-.2-1.04-.31-.36-.1-.74-.2-1.13-.3-.77-.21-1.61-.4-2.47-.59-.44-.09-.88-.18-1.33-.27-.45-.09-.91-.16-1.37-.24-.93-.14-1.88-.27-2.83-.37-.24-.03-.48-.05-.72-.06-.24-.02-.48-.04-.72-.05-.48-.03-.96-.05-1.43-.07-.95-.03-1.89-.02-2.8.02-.88.03-1.73.12-2.53.22,13.05-3.12,36.79-3.63,50.12-3.66-.45.05-.91.1-1.37.15-.88.1-1.79.21-2.71.34-.92.12-1.85.26-2.78.41-.46.08-.93.15-1.39.23-.46.08-.92.16-1.37.25-.91.17-1.79.35-2.65.54-.43.1-.85.19-1.25.29-.41.1-.81.19-1.19.29-.77.2-1.49.4-2.15.59-.33.1-.64.2-.94.29-.3.1-.58.19-.84.28-.27.09-.51.17-.73.25-.22.08-.43.16-.62.22-.37.14-.65.26-.85.33-.2.08-.3.12-.3.12,0,0,.11-.04.31-.11.2-.07.49-.18.86-.31.19-.06.4-.13.63-.21.23-.08.47-.16.74-.24.27-.08.55-.17.85-.26.3-.08.62-.17.95-.27.67-.18,1.39-.37,2.17-.54.39-.09.79-.18,1.2-.27.41-.09.83-.17,1.26-.26.86-.17,1.75-.33,2.65-.48.45-.08.91-.14,1.37-.22.46-.07.93-.13,1.39-.2.93-.12,1.86-.24,2.78-.35.92-.11,1.83-.19,2.7-.28,1.76-.16,3.4-.28,4.81-.36,1.41-.08,2.59-.13,3.41-.15.83-.03,1.29-.03,1.29-.03v-.03c.99.01,1.54.03,1.54.03-34.93,2.13-37.83,10.16-37.83,10.16ZM290.94,26.4c-.47.51-.89,1.07-1.28,1.67-.78,1.21-1.35,2.58-1.69,3.98-.18.7-.31,1.41-.38,2.11-.08.7-.1,1.39-.07,2.06.01.33.04.66.07.98.02.16.04.32.06.48.03.16.05.31.07.46.11.61.26,1.18.42,1.7.17.52.35,1,.53,1.41.18.42.36.77.51,1.07.16.29.28.52.37.68.09.16.14.24.14.24,0,0-.05-.08-.16-.23-.1-.15-.25-.37-.42-.66-.17-.29-.37-.64-.58-1.05-.21-.41-.42-.88-.61-1.41-.19-.52-.36-1.1-.49-1.71-.14-.61-.22-1.27-.25-1.95-.03-.68-.02-1.38.05-2.09.07-.71.18-1.43.36-2.14.37-1.42.97-2.82,1.77-4.04.8-1.22,1.84-2.26,2.9-3.01.53-.37,1.08-.67,1.59-.9.51-.22.99-.38,1.39-.48.4-.1.73-.15.96-.17.11-.01.2-.02.26-.03.06,0,.09,0,.09,0,0,0-.03,0-.09.01s-.14.02-.25.04c-.22.04-.54.1-.94.21-.39.11-.85.28-1.35.51-.49.24-1,.55-1.52.92-.51.38-1.01.82-1.47,1.33ZM298.55,29.73c-.16.33-.3.65-.42.97-.12.32-.24.63-.33.92-.1.29-.18.58-.26.84-.07.26-.14.5-.2.71-.05.21-.11.4-.14.55-.07.31-.12.48-.12.48,0,0,.01-.18.05-.49.02-.16.05-.34.08-.56.03-.22.07-.46.12-.72.06-.26.11-.55.2-.85.08-.3.17-.62.29-.94.06-.16.11-.33.18-.49.06-.17.13-.33.21-.5.15-.34.33-.67.53-1,.2-.33.43-.65.69-.95.26-.3.55-.58.86-.83.31-.25.65-.47,1.01-.64.36-.17.72-.29,1.08-.37.18-.04.35-.07.51-.09.17-.01.32-.03.47-.03.3-.01.55.01.76.03.21.02.37.05.48.07.11.02.17.03.17.03,0,0-.06,0-.17-.02-.11-.01-.27-.02-.48-.03-.21,0-.46,0-.74.02-.28.02-.6.08-.93.17-.33.09-.66.22-.99.39-.33.17-.64.39-.93.63-.29.24-.55.52-.8.81-.24.29-.46.6-.65.92-.19.32-.37.64-.53.97ZM300.71,41.09c.06-.37.13-.8.22-1.25.05-.23.09-.47.14-.71.05-.24.1-.48.16-.73.06-.24.11-.49.17-.73.05-.22.1-.43.16-.64.09.09.19.16.3.22-.03.15-.06.31-.09.46-.05.24-.1.48-.16.73-.06.24-.11.49-.17.73-.05.24-.12.47-.17.7-.12.46-.23.88-.34,1.24-.21.73-.38,1.2-.38,1.2,0,0,.05-.49.16-1.23ZM300.39,38.65c-.19.35-.37.67-.53.94-.32.55-.57.9-.57.9,0,0,.13-.39.37-.96.12-.29.26-.62.43-.97.08-.18.16-.36.26-.54.09-.18.18-.37.27-.56.1-.19.19-.37.29-.55.08-.15.16-.3.24-.44.06.12.13.23.2.33-.03.07-.06.14-.1.21-.09.18-.18.37-.27.56-.1.19-.19.37-.29.55-.09.18-.19.36-.29.53ZM301.88,43.29c.09-.01.21-.04.37-.09.15-.05.33-.11.51-.21.18-.09.37-.21.56-.36.18-.15.37-.32.54-.51.17-.19.34-.4.5-.63.15-.23.3-.47.44-.72s.27-.51.38-.77c.12-.26.22-.53.33-.79.09-.26.19-.53.27-.78.08-.25.16-.5.22-.74.04-.12.07-.23.1-.35.03-.11.06-.22.09-.32.11-.42.19-.77.25-1.01.06-.25.1-.39.1-.39,0,0,.03.14.08.39.02.13.04.28.05.46.01.18.03.38.02.59,0,.22,0,.45-.03.7-.02.25-.06.51-.11.78-.1.54-.27,1.11-.52,1.67-.13.28-.27.55-.43.82-.16.27-.35.52-.55.76-.2.24-.42.45-.65.65-.23.19-.48.36-.73.49-.12.07-.25.13-.37.18-.13.05-.24.09-.36.12-.23.07-.45.09-.62.11-.18.01-.31,0-.4,0-.09,0-.14-.01-.14-.01,0,0,.05,0,.14-.02ZM303.27,34.87c0-.09-.02-.17-.03-.25,0-.08-.03-.16-.04-.23-.02-.07-.02-.14-.04-.2-.01-.06-.02-.11-.03-.16-.02-.09-.03-.14-.03-.14,0,0,.05.03.13.11.08.07.18.18.28.31.05.07.1.15.14.23.04.08.08.17.11.27.04.1.05.2.06.3.01.11,0,.22,0,.32-.03.11-.04.22-.09.32-.02.05-.05.1-.07.15-.03.05-.07.09-.1.14-.04.04-.07.09-.11.13-.04.04-.09.07-.13.11-.04.03-.08.07-.12.1-.05.03-.09.05-.14.08-.09.05-.17.09-.25.12-.08.03-.15.05-.21.06-.11.03-.18.04-.18.04,0,0,.04-.04.12-.11.04-.03.08-.08.13-.12.05-.05.09-.11.15-.16.03-.03.05-.06.08-.09.02-.03.04-.07.07-.1.02-.03.05-.07.07-.1.02-.04.04-.08.06-.11.02-.04.04-.08.06-.12.01-.04.03-.08.04-.12l.02-.06v-.06s.04-.13.04-.13c0-.09.02-.18.02-.26,0-.09,0-.18-.01-.26ZM305.37,34.63c-.17.02-.37.03-.59.04-.21,0-.44.01-.67.01-.02,0-.04,0-.06,0,0-.09-.02-.19-.04-.28.03,0,.07,0,.1,0,.23,0,.46,0,.67.02.21.01.41.03.59.05.34.04.57.08.57.08,0,0-.23.05-.57.08ZM305.73,36.08s-.25-.06-.59-.17c-.17-.06-.37-.13-.58-.21-.17-.07-.34-.14-.52-.22.01-.1.02-.21.03-.31.01,0,.03.01.04.02.21.1.43.2.62.3.19.1.37.2.52.29.3.17.48.31.48.31ZM304.23,36.27c.09.1.17.19.26.29.17.19.31.36.44.52.25.31.38.53.38.53,0,0-.24-.16-.56-.43-.16-.13-.34-.29-.53-.47-.09-.09-.19-.18-.29-.27-.04-.04-.09-.08-.13-.13.05-.11.09-.22.13-.34,0,0,.01.01.02.02.09.1.19.19.28.29ZM303.49,37.34c-.05-.11-.11-.22-.17-.33.09-.09.17-.19.25-.3.02.03.03.06.05.09.07.15.14.29.21.44.07.14.13.29.19.43.12.28.23.54.32.76.17.45.26.76.26.76,0,0-.2-.28-.46-.7-.13-.21-.28-.46-.42-.73-.07-.14-.15-.27-.22-.42ZM303.6,41.05s-.14-.4-.31-1.01c-.09-.3-.18-.66-.27-1.04-.04-.19-.09-.39-.13-.59-.04-.2-.09-.4-.13-.61-.03-.14-.05-.29-.08-.43.12-.03.23-.07.34-.14.04.17.07.35.11.52.04.2.08.41.12.61.04.2.07.4.1.59.06.38.12.74.15,1.05.08.62.1,1.03.1,1.03ZM302.42,37.41c0,.13,0,.27,0,.41,0,.25,0,.5,0,.75,0,.25-.01.51-.02.75,0,.25-.02.49-.03.73-.02.47-.05.92-.07,1.3-.05.76-.12,1.26-.12,1.26,0,0-.06-.51-.09-1.27-.02-.38-.03-.82-.04-1.3,0-.24,0-.48,0-.73,0-.25,0-.5,0-.75,0-.25.01-.51.02-.75,0-.16,0-.31.01-.46.11.03.22.05.34.05,0,0,0,0,.01,0ZM305.45,33.22c-.16.09-.35.19-.56.3-.21.1-.43.21-.66.31-.11.05-.21.09-.32.14-.03-.09-.07-.19-.1-.27.08-.04.15-.07.23-.11.23-.1.46-.2.69-.28.22-.09.43-.16.62-.22.37-.12.63-.19.63-.19,0,0-.2.14-.52.32ZM305.33,31.67c-.14.17-.32.37-.52.58-.1.1-.2.21-.3.32-.11.11-.21.22-.32.32-.11.11-.22.21-.33.32-.07.07-.14.13-.21.2-.06-.09-.12-.17-.18-.25.04-.04.07-.07.11-.11.11-.11.21-.22.32-.32.11-.11.22-.21.33-.32.11-.11.22-.21.33-.3.22-.2.42-.38.61-.53.36-.3.63-.49.63-.49,0,0-.17.24-.46.59ZM308.72,37.64c-.1.62-.25,1.24-.46,1.86-.21.62-.48,1.23-.82,1.81-.08.15-.18.29-.27.43-.1.14-.19.28-.3.41-.21.27-.44.53-.7.77-.5.49-1.13.91-1.85,1.16-.36.13-.75.21-1.13.23-.38.02-.73-.01-1.08-.09-.33-.08-.63-.19-.88-.31-.25-.13-.47-.27-.65-.41-.37-.28-.62-.56-.81-.8-.19-.24-.31-.43-.39-.57-.08-.13-.12-.21-.12-.21,0,0,.06.06.17.18.11.12.28.29.51.5.23.21.53.45.91.67.38.22.86.44,1.41.52.26.04.57.05.85,0,.29-.04.58-.11.85-.23.55-.24,1.05-.61,1.47-1.06.43-.45.78-.96,1.08-1.5.3-.54.55-1.12.74-1.7.2-.58.35-1.18.47-1.77.11-.59.19-1.18.23-1.75.04-.58.05-1.12.03-1.65-.02-.52-.06-1.02-.11-1.48-.06-.46-.14-.87-.22-1.24-.09-.37-.17-.69-.26-.95-.08-.26-.15-.47-.21-.61-.05-.14-.08-.22-.08-.22,0,0,.05.07.14.2.04.06.09.15.15.24.06.1.13.21.19.34.14.25.3.57.44.93.15.37.3.78.42,1.25.12.46.23.97.3,1.51.07.54.11,1.11.1,1.7,0,.6-.05,1.21-.15,1.83ZM309.12,23.36c-.31.09-.6.2-.9.3-.29.1-.59.18-.85.3-.27.11-.53.21-.78.32-.09.04-.17.08-.25.12.08.05.15.09.22.14.57.38.98.76,1.29,1.08.31.32.51.6.65.78.13.19.2.29.2.29,0,0-.09-.09-.27-.25-.17-.17-.44-.4-.8-.68-.36-.28-.82-.6-1.4-.91-.58-.3-1.29-.58-2.11-.72-.1-.02-.21-.03-.31-.04-.11-.02-.21-.02-.31-.03-.1,0-.2-.02-.33-.01h-.18s-.09,0-.09,0c.03,0,0,0,0,0h-.01s-.02,0-.02,0h-.04c-.44.02-.89.09-1.33.21-.44.12-.88.28-1.28.49-.41.21-.8.46-1.17.75-.37.28-.7.6-1.02.93-.08.08-.16.17-.23.25-.07.09-.15.18-.22.26-.15.18-.29.36-.42.54-.53.75-.99,1.55-1.34,2.37-.37.82-.64,1.67-.85,2.52-.05.21-.1.42-.14.63-.05.21-.08.42-.12.63-.04.21-.06.42-.09.63-.03.21-.05.41-.07.62-.02.2-.03.41-.05.62v.15s-.01.1-.02.15c0,.1,0,.2-.01.3-.01.4,0,.78,0,1.16.03.76.1,1.47.21,2.13.11.66.25,1.26.4,1.79.15.53.31.99.46,1.36.15.37.27.67.37.87.09.2.14.3.14.3,0,0-.07-.1-.21-.28-.07-.09-.15-.21-.24-.34-.1-.14-.2-.3-.31-.48-.22-.36-.47-.8-.7-1.33-.24-.52-.47-1.12-.66-1.79-.2-.67-.36-1.4-.46-2.18-.05-.39-.09-.79-.11-1.2,0-.1,0-.21-.01-.31,0-.05,0-.1,0-.16v-.15c0-.21,0-.41,0-.63.01-.43.04-.87.1-1.31.02-.22.05-.44.09-.66.03-.22.08-.44.13-.67.09-.45.21-.89.35-1.34.15-.45.31-.89.5-1.33.38-.88.87-1.74,1.48-2.54.61-.8,1.34-1.54,2.21-2.16.44-.31.91-.58,1.41-.81.5-.23,1.04-.4,1.58-.52.55-.11,1.1-.17,1.63-.15h.12s.09,0,.09,0h.18c.11.02.25.04.38.05.13.02.26.03.38.06.12.03.24.04.35.08.63.15,1.16.38,1.62.62.12-.07.24-.14.37-.21.25-.12.51-.24.78-.36.26-.13.56-.23.85-.35.29-.11.59-.23.91-.34.32-.1.64-.2.96-.3.16-.05.33-.1.49-.15.16-.05.34-.09.51-.13.34-.08.68-.17,1.03-.25l.52-.13c.17-.04.35-.07.53-.11.7-.13,1.41-.28,2.1-.4.7-.11,1.39-.2,2.06-.3.17-.02.33-.05.5-.07.16-.02.33-.04.49-.05.32-.03.64-.06.95-.1.62-.06,1.2-.12,1.74-.17,1.08-.07,1.99-.11,2.62-.14.63-.03.99-.04.99-.04,0,0-.36.06-.98.15-.62.09-1.51.21-2.57.34-.53.08-1.1.17-1.71.26-.3.04-.61.09-.93.14-.16.02-.32.05-.48.07-.16.03-.32.06-.49.08-.66.11-1.33.23-2.02.34-.69.12-1.37.27-2.07.41-.17.03-.35.06-.52.1l-.51.12c-.34.08-.68.16-1.01.24-.34.07-.66.17-.98.26-.32.09-.64.18-.95.27ZM310.37,29.04c-.04-.08-.09-.17-.13-.25,8.68-1.07,18.34-3.02,22.15-6.5,6.17-5.63,8.46-5.6,13.09-4.85-.08.04-.16.07-.24.11-1.89-.01-4.81.4-6.79,2.69-5.38,6.22-5.42,7.26-28.08,8.8ZM338.42,31.73c-1.51.41-3.31.79-5.26,1.13-.98.17-1.99.33-3.02.48-1.03.15-2.08.29-3.13.42-1.05.13-2.11.24-3.15.36-1.04.11-2.06.2-3.06.3-.99.09-1.95.17-2.86.24-.91.07-1.77.13-2.57.18-1.44.1-2.67.15-3.58.2,0-.03,0-.06,0-.09.9-.08,2.12-.2,3.55-.34.79-.08,1.65-.16,2.56-.25.91-.09,1.86-.19,2.85-.29.99-.11,2.01-.22,3.04-.33,1.03-.11,2.09-.24,3.13-.37,1.05-.13,2.1-.26,3.12-.4,1.03-.14,2.04-.29,3.01-.44,1.95-.31,3.75-.64,5.26-1,.35-.09.69-.17,1.01-.26.01.07.02.14.04.21-.3.09-.61.19-.94.28ZM344.06,18.79c-.45.38-.88.83-1.29,1.33-.4.5-.77,1.06-1.1,1.64-.66,1.18-1.13,2.5-1.4,3.85-.14.67-.24,1.35-.29,2.02-.05.67-.06,1.33-.02,1.97.04.64.12,1.25.23,1.83.11.58.26,1.12.43,1.62.17.5.34.95.52,1.34.17.4.35.74.49,1.02.15.28.27.5.35.64.08.15.13.23.13.23,0,0-.05-.08-.15-.22-.1-.14-.24-.36-.41-.63-.16-.28-.36-.61-.56-1-.2-.39-.41-.84-.59-1.34-.19-.5-.36-1.04-.5-1.63-.14-.58-.25-1.21-.29-1.85-.05-.65-.05-1.32,0-2,.04-.68.13-1.37.27-2.05.29-1.37.79-2.71,1.48-3.9.68-1.2,1.59-2.22,2.53-2.99.47-.38.96-.7,1.43-.94.47-.24.9-.41,1.28-.53.37-.12.69-.17.9-.21.11-.02.19-.03.24-.03.06,0,.08,0,.08,0,0,0-.03,0-.08.01-.05,0-.13.02-.24.04-.21.04-.51.12-.87.24-.36.13-.78.31-1.23.56-.44.25-.9.58-1.35.96ZM351.04,22.77c-.16.33-.3.65-.42.97-.12.32-.24.63-.33.92-.1.3-.18.58-.26.84-.07.26-.14.5-.2.71-.05.21-.11.4-.14.55-.07.31-.12.48-.12.48,0,0,.01-.18.05-.49.02-.16.05-.34.08-.56.03-.22.07-.46.12-.73.06-.26.11-.55.2-.85.08-.3.17-.62.29-.94.06-.16.12-.33.18-.49.03-.08.07-.17.1-.25.04-.08.08-.17.11-.25.15-.34.33-.67.53-1,.2-.33.44-.65.69-.95.26-.3.55-.58.87-.83.31-.25.66-.47,1.02-.63.36-.17.73-.29,1.08-.37.35-.08.69-.11.99-.12.3-.01.55.01.76.03.21.02.37.05.48.07.11.02.17.03.17.03,0,0-.06,0-.17-.02-.11-.01-.28-.02-.48-.03-.21,0-.46,0-.75.02-.29.02-.6.08-.93.17-.33.09-.67.22-.99.39-.33.17-.64.38-.93.63-.29.24-.56.52-.8.81-.24.29-.46.6-.66.92-.2.32-.38.65-.53.97ZM353.21,34.13c.06-.37.13-.8.22-1.26.05-.23.09-.47.14-.71.05-.24.1-.48.16-.73.06-.24.11-.49.17-.73.05-.22.1-.43.16-.63.09.09.19.16.3.22-.03.15-.06.31-.09.46-.05.24-.1.48-.16.73-.06.24-.11.49-.17.73-.05.24-.12.47-.17.7-.12.46-.23.88-.34,1.24-.21.73-.38,1.2-.38,1.2,0,0,.05-.49.17-1.23ZM352.89,31.69c-.19.35-.37.67-.54.94-.32.55-.57.9-.57.9,0,0,.13-.39.37-.96.12-.29.26-.62.43-.97.08-.18.16-.36.26-.54.09-.18.18-.37.27-.56.1-.19.19-.37.29-.55.08-.15.16-.3.24-.44.06.12.13.23.2.33-.03.07-.06.14-.1.21-.09.18-.18.37-.27.56-.1.19-.19.37-.29.55-.09.18-.19.36-.29.53ZM354.38,36.33c.09-.01.21-.04.37-.09.15-.05.33-.11.51-.21.18-.09.37-.21.56-.36.19-.15.37-.32.54-.51.17-.19.34-.4.5-.63.16-.23.31-.47.44-.72.14-.25.27-.51.38-.77.12-.26.22-.53.33-.79.1-.26.19-.53.27-.78.08-.26.16-.5.22-.74.04-.12.07-.23.1-.35.03-.11.06-.22.09-.32.1-.42.19-.77.25-1.02.06-.25.1-.39.1-.39,0,0,.03.14.08.39.02.13.04.28.05.46.01.18.03.38.02.59,0,.22,0,.45-.03.7-.02.25-.06.51-.11.78-.1.54-.28,1.11-.53,1.67-.13.28-.27.55-.44.82-.16.27-.35.52-.55.76-.2.24-.43.45-.66.65-.23.19-.48.36-.73.49-.12.07-.25.12-.37.18-.13.04-.24.09-.36.12-.23.07-.45.09-.62.11-.18.01-.31,0-.4,0-.09,0-.14-.01-.14-.01,0,0,.05,0,.14-.02ZM355.78,27.91c0-.09-.02-.17-.03-.25,0-.08-.03-.16-.04-.23-.02-.07-.02-.14-.04-.2-.01-.06-.02-.11-.03-.16-.02-.09-.03-.14-.03-.14,0,0,.05.03.13.1.08.07.18.18.28.31.05.07.1.15.14.23.04.08.08.17.11.27.04.1.05.2.06.3.01.11,0,.22,0,.32-.03.11-.04.22-.09.32-.02.05-.05.1-.07.15-.03.05-.07.09-.1.14-.04.04-.07.09-.11.13-.04.04-.09.07-.13.11-.04.03-.08.07-.13.1-.05.03-.09.05-.14.08-.09.05-.17.09-.25.12-.08.03-.15.05-.21.06-.11.03-.18.04-.18.04,0,0,.04-.04.12-.11.04-.03.08-.08.13-.12.05-.05.09-.11.15-.16.03-.03.05-.06.08-.09.02-.03.04-.07.07-.1.02-.03.05-.07.08-.1.02-.04.04-.08.06-.11.02-.04.04-.08.06-.12.01-.04.03-.08.04-.12.04-.08.04-.17.06-.26,0-.09.02-.18.02-.26,0-.09,0-.18-.01-.26ZM357.89,27.67c-.17.02-.37.03-.59.04-.22,0-.45.01-.68.01-.02,0-.04,0-.06,0,0-.09-.02-.19-.04-.28.03,0,.07,0,.1,0,.23,0,.46,0,.68.02.21.01.42.03.59.05.34.04.57.08.57.08,0,0-.23.05-.58.08ZM358.25,29.12s-.25-.06-.6-.17c-.17-.06-.37-.13-.58-.21-.17-.07-.35-.14-.52-.22.01-.1.02-.21.03-.31.01,0,.03.01.04.02.22.1.43.2.62.3.2.1.37.2.52.29.3.17.48.31.48.31ZM356.74,29.32c.09.1.18.19.26.29.17.19.32.36.44.52.25.31.39.53.39.53,0,0-.24-.16-.56-.43-.16-.13-.34-.29-.53-.47-.09-.09-.19-.18-.29-.27-.04-.04-.09-.09-.13-.13.05-.11.09-.22.13-.34,0,0,.01.01.02.02.09.1.19.19.28.29ZM356,30.38c-.06-.11-.11-.22-.17-.33.09-.09.17-.19.25-.3.02.03.03.06.05.09.07.15.14.29.21.44.07.14.13.29.19.43.12.28.23.54.32.76.18.45.26.76.26.76,0,0-.2-.28-.46-.7-.13-.21-.28-.46-.43-.73-.07-.14-.15-.27-.22-.42ZM356.11,34.09s-.15-.4-.31-1.01c-.09-.3-.18-.66-.27-1.04-.04-.19-.09-.39-.14-.59-.04-.2-.09-.4-.13-.61-.03-.14-.05-.29-.08-.43.12-.03.23-.07.34-.14.04.17.07.35.11.52.04.2.08.41.12.61.04.2.07.4.1.59.06.38.12.74.15,1.05.08.62.1,1.03.1,1.03ZM354.93,30.45c0,.13,0,.27,0,.41,0,.25,0,.5,0,.75,0,.25-.01.51-.02.75,0,.25-.02.49-.03.73-.02.47-.05.92-.07,1.3-.05.76-.12,1.26-.12,1.26,0,0-.06-.51-.09-1.27-.02-.38-.03-.82-.04-1.3,0-.24,0-.48,0-.73,0-.25,0-.5,0-.75,0-.25.01-.51.02-.75,0-.16,0-.31.01-.46.11.03.22.05.34.05,0,0,0,0,.01,0ZM357.97,26.26c-.16.09-.35.19-.56.3-.21.1-.44.21-.67.31-.11.05-.21.09-.32.14-.03-.09-.07-.19-.11-.27.08-.04.15-.07.23-.11.23-.1.47-.2.69-.28.22-.09.44-.16.62-.22.37-.12.63-.19.63-.19,0,0-.2.14-.52.32ZM357.85,24.71c-.15.17-.32.37-.52.58-.1.1-.2.21-.3.32-.11.11-.21.22-.32.32-.11.11-.22.21-.33.32-.07.07-.14.13-.21.2-.06-.09-.12-.17-.19-.25.04-.04.07-.08.11-.11.11-.11.22-.22.32-.32.11-.11.22-.21.33-.32.11-.11.22-.21.33-.3.22-.2.43-.38.61-.53.37-.3.64-.49.64-.49,0,0-.17.24-.46.59ZM361.3,27.16c.07.54.11,1.11.1,1.7,0,.6-.05,1.21-.15,1.83-.1.62-.25,1.25-.46,1.86-.21.62-.48,1.23-.83,1.81-.17.29-.36.57-.57.84-.21.27-.44.53-.7.77-.51.49-1.13.9-1.86,1.16-.36.12-.75.21-1.13.22-.09,0-.19,0-.28,0h-.07s-.02,0-.02,0h0s-.02,0-.02,0h-.03s-.12-.01-.12-.01c-.07,0-.18-.02-.27-.03-.09-.01-.18-.03-.26-.05-.33-.08-.63-.19-.88-.31-.25-.13-.47-.27-.65-.41-.37-.28-.63-.56-.82-.8-.19-.24-.31-.43-.4-.57-.08-.13-.12-.21-.12-.21,0,0,.06.06.17.18.11.12.28.29.51.5.23.21.53.45.91.67.38.22.86.43,1.41.52.07.01.14.02.2.02.07,0,.12.01.21.01h.12s.03,0,.03,0h.02s0,0,0,0h.05c.07-.01.15-.01.22-.02.29-.03.58-.11.86-.23.55-.23,1.06-.61,1.48-1.05.43-.44.78-.96,1.09-1.5.3-.54.55-1.12.75-1.7.2-.58.35-1.18.47-1.77.11-.59.19-1.18.23-1.75.04-.58.05-1.13.04-1.65-.02-.52-.06-1.02-.12-1.48-.06-.46-.14-.88-.22-1.25-.09-.37-.17-.69-.26-.95-.08-.26-.16-.47-.21-.61-.05-.14-.08-.22-.08-.22,0,0,.05.07.14.2.04.07.1.15.15.24.06.1.13.21.19.34.14.25.3.57.45.93.15.37.3.78.42,1.25.13.46.23.97.3,1.51ZM360.96,20.04s-.09-.08-.26-.24c-.17-.16-.44-.38-.8-.63-.37-.25-.85-.53-1.45-.77-.6-.24-1.33-.42-2.15-.51-.2-.02-.42-.04-.62-.04-.1,0-.21,0-.33,0h-.17s-.09,0-.09,0h-.07c-.43.02-.87.08-1.3.18-.86.21-1.69.61-2.41,1.14-.72.53-1.34,1.19-1.86,1.9-.52.72-.95,1.49-1.29,2.29-.34.8-.6,1.62-.79,2.44-.19.82-.31,1.63-.38,2.43-.07.8-.08,1.56-.05,2.29.04.73.1,1.42.21,2.06.11.63.24,1.21.39,1.72.15.51.3.95.45,1.31.14.36.27.64.36.83.09.19.14.29.14.29,0,0-.07-.09-.21-.27-.07-.09-.15-.2-.24-.33-.09-.13-.19-.28-.3-.46-.21-.35-.46-.78-.69-1.28-.23-.51-.47-1.08-.65-1.73-.19-.64-.36-1.35-.46-2.1-.02-.19-.05-.38-.07-.57-.01-.19-.03-.39-.05-.59,0-.2-.02-.4-.02-.6,0-.2,0-.4,0-.61.01-.83.1-1.68.27-2.55s.43-1.73.79-2.59c.36-.85.83-1.68,1.43-2.46.59-.77,1.32-1.49,2.18-2.07.86-.58,1.88-1.02,2.95-1.22.53-.1,1.06-.14,1.57-.13h.11s.09,0,.09,0h.17c.11.02.24.03.36.04.25.02.47.06.7.09.45.08.87.19,1.25.31.38.13.72.28,1.03.43.61.31,1.05.66,1.38.96.33.3.53.56.67.74.13.18.2.28.2.28Z"/>
      <path class="st0" d="M300.26,17.58c.17,0,.34.02.51.02.05-.13.14-.33.29-.59-.18,0-.36,0-.53,0-.1.18-.2.37-.27.57Z"/>
      <path class="st0" d="M304.01,14.13c-.18.02-.36.04-.53.06-.6.37-1.53,1.02-2.28,1.89.19-.03.38-.05.58-.07.5-.59,1.22-1.25,2.24-1.88Z"/>
      <path class="st0" d="M300.65,16.82s.07,0,.11,0c.14,0,.29-.01.44-.02.03-.05.07-.1.1-.16-.19,0-.37.01-.55.02-.04.05-.07.1-.1.16Z"/>
    </g>
  </g>
</svg>