<?xml version="1.0" encoding="UTF-8"?>
<svg id="OBJECTS" xmlns="http://www.w3.org/2000/svg" version="1.1" viewBox="0 0 370 64">
  <!-- Generator: Adobe Illustrator 29.1.0, SVG Export Plug-In . SVG Version: 2.1.0 Build 142)  -->
  <defs>
    <style>
      .st0 {
        fill: #c2c5c6;
      }

      .st1 {
        fill: #40012f;
      }

      .st2 {
        fill: #5c6977;
      }

      .st3 {
        fill: #bf0413;
      }

      .st4 {
        fill: #2a323a;
      }

      .st5 {
        fill: #303842;
      }

      .st6 {
        stroke-linecap: round;
        stroke-linejoin: round;
        stroke-width: 4.48px;
      }

      .st6, .st7 {
        fill: none;
        stroke: #bf0413;
      }

      .st7 {
        stroke-miterlimit: 10;
        stroke-width: 2.77px;
      }
    </style>
  </defs>
  <g>
    <path class="st0" d="M262.14,58.01c0,1.42,14.64,2.57,32.7,2.57,18.06,0,32.7-1.15,32.7-2.57s-14.64-2.57-32.7-2.57c-18.06,0-32.7,1.15-32.7,2.57Z"/>
    <path class="st3" d="M316.61,16.74c-1.21-.39-2.5.28-2.89,1.49-.39,1.21.28,2.5,1.49,2.89,1.21.39,2.5-.28,2.89-1.49.39-1.21-.28-2.5-1.49-2.89Z"/>
    <path class="st1" d="M299.45,20.09l8.63,2.45-1.42.49,6.93-3.65,2.09,1.79-6.6,4.44c-.35.35-.81.51-1.26.49h-.16s-8.84-1.03-8.84-1.03l.64-4.99Z"/>
    <path class="st1" d="M300.66,34.48l5,9.14.07.13c.25.45.33.94.27,1.42l-1.17,9.55-3.41-.42-.13-9.71.34,1.54-6-8.51,5.02-3.13Z"/>
    <path class="st3" d="M283.55,34.91c-1.21-.39-2.5.28-2.89,1.49-.39,1.21.28,2.5,1.49,2.89,1.21.39,2.5-.28,2.89-1.49.39-1.21-.28-2.5-1.49-2.89Z"/>
    <path class="st1" d="M299.58,19.28l-5.98-.12c-1.73-.04-3.18,1.25-3.22,2.86l-.31,12.99,11.95-.32.51-12.51c.06-1.57-1.25-2.87-2.95-2.9Z"/>
    <path class="st1" d="M294.84,23.87l-8.32,3.54.88-1.14-2.72,9.21-2.63-.66,1.84-9.48c.1-.44.37-.8.72-1.03l.16-.11,7.67-4.97,2.39,4.65Z"/>
    <path class="st1" d="M290.06,34.9h0c-.07,2.73,2.28,4.95,5.23,4.94h0c4.34.18,6.68-2.24,6.72-4.98v-.28s-11.95.32-11.95.32Z"/>
    <path class="st1" d="M296.68,38.04l-2.65,9-.06.15c-.1.22-.23.42-.38.6l-5.95,6.81-2.7-2.62,5.09-7.32-.44.74,1.32-9.36,5.78,2.01Z"/>
    <line class="st7" x1="299.28" y1="19.28" x2="298.6" y2="33.74"/>
    <polygon class="st3" points="302.01 34.77 290.06 34.9 290.12 32.77 302.11 32.58 302.01 34.77"/>
    <g>
      <polygon class="st3" points="304.93 55.27 308.47 58.52 300.9 58.54 301.32 55.92 304.93 55.27"/>
      <polygon class="st3" points="304.93 55.42 305.64 53.63 300.99 53.63 300.9 58.54 304.93 55.42"/>
    </g>
    <g>
      <polygon class="st3" points="287.71 54.97 288.92 59.39 282.36 55.21 284.26 53.38 287.71 54.97"/>
      <polygon class="st3" points="287.71 54.97 289.14 53.75 285.06 51.11 282.36 55.21 287.71 54.97"/>
    </g>
    <path class="st3" d="M302.72,19.34c-.3,1.94-2.87,3.16-5.73,2.72-2.86-.44-4.94-2.38-4.64-4.32.3-1.94,2.87-3.16,5.73-2.72,2.86.44,4.94,2.38,4.64,4.32Z"/>
    <path class="st3" d="M287.69,12.95h0c-.08-.49-.1-1-.07-1.52.24-4.35,4.2-7.67,8.85-7.42,4.35.24,7.76,3.51,7.99,7.49h0l.07,5.97c0,2.28-2.01,3.52-4.28,3.64-3.45.19-6.35-.82-8.68-2.13-1.68-.95-3.35-3.3-3.71-5.2l-.06-.3c-.04-.17-.07-.35-.1-.52v-.02Z"/>
    <path class="st5" d="M304.44,9.98s-.14,2.12-10.92.15c-.68-.12-1.33-.07-1.8.58h0c-.43.48-.19,1.86.09,2.43l.3.64c.99,2.08,3.07,3.59,5.53,4,3.03.51,6.38.16,7.23-1.97l-.43-5.83Z"/>
    <path class="st3" d="M301.01,7.77c-.13,1.16-2.03,1.91-4.26,1.67-2.23-.24-3.93-1.38-3.8-2.54.13-1.16,2.03-1.91,4.26-1.67,2.23.24,3.93,1.38,3.8,2.54Z"/>
    <path class="st4" d="M293.63,15.84s6.05-3.08,10.89.64c0,0-1.37,2.07-6.34,1.39,0,0-2.53-.02-4.55-2.02Z"/>
    <path class="st2" d="M293.91,11.63c0,.43-.35.78-.78.78s-.78-.35-.78-.78c0-.43.35-.78.78-.78s.78.35.78.78Z"/>
    <line class="st6" x1="314.29" y1="16.47" x2="314.38" y2="18.71"/>
  </g>
  <g>
    <path class="st3" d="M10.89,12.43h14.15l.1.05c-2.24,9.95-3.4,15.01-3.48,15.18l-3.3,3.15c.91,1.83,1.45,2.84,1.6,3.03-2.29,9.74-3.54,14.94-3.74,15.59h-4.72c-.09,0-.13-.04-.13-.13,0-.14,1.05-4.98,3.15-14.53h-4.26c-1.58,6.84-2.73,11.73-3.43,14.66l-.13.05H1.65v-.05c.21-.96,1.21-5.06,3.02-12.28H.13l-.13-.05c.12-.95.21-1.42.28-1.42h4.75l1.6-6.41h-2.14c-.07,0-.1-.03-.1-.1.05-.95.15-1.42.28-1.42h2.25c.1,0,.7-2.34,1.78-7.01.03,0,.17-.52.41-1.55h-3.12c-.09,0-.13-.04-.13-.1.05-.95.15-1.42.28-1.42h3.38l.36-1.65h-5.09c-.09,0-.13-.04-.13-.13.09-.95.19-1.42.31-1.42h5.32c.27-1.34.47-2.02.59-2.02ZM12.6,21.37c-.83,3.81-1.24,5.77-1.24,5.87h4.26l.59.05c1.03-3.28,1.63-5.25,1.78-5.92h-5.4Z"/>
    <path class="st3" d="M33.92,12.43h10.74c.09.02.13.06.13.13-.03.27-3.08,12.57-9.14,36.87l-.13.05h-4.93l-.1-.05c.71-3.46,1.18-5.9,1.42-7.32h-3.79l-1.91,7.32-.1.05h-4.93c-.09,0-.13-.04-.13-.13,1.98-7.71,2.97-11.65,2.97-11.82h-1.65l-.13-.08c.09-.98.19-1.47.31-1.47h1.88l2.01-8.04h-2.43c-.09,0-.13-.03-.13-.1.07-.91.15-1.37.26-1.37h2.71c1.03-4.41,1.63-6.7,1.78-6.85.05-.02.22-.23.49-.65h-2.5l-.1-.05c.07-.95.16-1.42.28-1.42h3.46c.05-.14.72-1.09,2.01-2.87h-5.58l-.13-.05c.09-.95.18-1.42.28-1.42h6.53c0-.14.18-.38.54-.72ZM33.09,21.4c-2.22,8.86-3.33,13.34-3.33,13.45h.05c.83.03,1.51.05,2.04.05h1.01c.27,0,.71.03,1.29.08,2.19-8.88,3.28-13.4,3.28-13.58h-4.34Z"/>
    <path class="st3" d="M62.91,12.53l.13.05c-1.5,6-2.28,9.05-2.35,9.15h-4.05c-.05,0-.08-.03-.08-.08-.03,0-.05.03-.05.08-1.19-.05-2.07-.08-2.66-.08h-1.76l-4.1,15.85c.38,1.69.57,2.64.57,2.84,2.44-.05,4.41-.08,5.89-.08h1.37c.07.02.1.06.1.13-1.26,5.5-1.96,8.52-2.12,9.08l-10.4-.13c-.31-1.07-.86-3.56-1.65-7.47,0-.14.78-3.28,2.35-9.44h-1.57l-.13-.05c.1-.98.2-1.47.28-1.47h1.83c0-.1.23-1.07.7-2.9h-1.86l-.13-.05c.1-.98.2-1.47.28-1.47h2.12l1.83-7.42h-1.47c-.07,0-.1-.04-.1-.13.05-.9.13-1.34.23-1.34h1.76l.7-2.82h-2.53c-.07,0-.1-.04-.1-.13.05-.9.15-1.34.28-1.34h2.66c.07,0,.16-.26.28-.78h13.76Z"/>
    <path class="st3" d="M71.02,12.33h8.29l.13.05-2.19,9.26c-.91-.03-1.59-.05-2.04-.05h-.59l-.72-.05-4.52,18.64h.05c.29,0,1.27.02,2.94.05l.05.1-1.99,9.15c-.84-.03-1.47-.05-1.88-.05h-1.24s-.05-.03-.05-.08c-.05,0-.08.03-.08.08-.91-.05-3.64-.11-8.18-.18l-.05-.13c1.22-5.19,1.93-8.14,2.12-8.84l.13-.05c1.2.04,2.16.05,2.87.05h.08c.07,0,.22-.55.46-1.65h-4.88c-.09,0-.13-.03-.13-.1.07-.91.16-1.37.28-1.37h5.09l1.94-7.96h-5.65v-.05c.05-.98.13-1.47.23-1.47h5.78c.93-3.88,1.39-5.89,1.39-6.03h-.05c-.69-.03-1.26-.05-1.7-.05h-.83c-.29,0-.45-.06-.46-.18l.28-1.16h-1.94c-.09,0-.13-.04-.13-.13.07-.9.17-1.34.31-1.34h2.17l.65-2.79h-2.94c-.07,0-.1-.03-.1-.1.07-.95.16-1.42.28-1.42h3.12c.07,0,.27-.66.59-1.99.03,0,.05-.03.05-.08,1.43-.04,2.45-.05,3.07-.05Z"/>
    <path class="st3" d="M92.67,12.33c.09.02.13.06.13.13.5,12.45.75,18.96.75,19.55.05.07.08.13.08.18h.05c.58-2.53,2.21-9.14,4.88-19.81h4.8l.1.08-9.14,36.85-.13.05h-4.65c-.09,0-.13-.04-.13-.1l-.98-19.45h-.08c-2.75,11.84-4.3,18.4-4.65,19.68h-1.01s-.05-.02-.05-.05c-.05,0-.08.02-.08.05-.33-.03-.58-.05-.75-.05-.65,0-1.72-.03-3.2-.08l-.05-.1,3.67-14.77h-2.71c-.09,0-.13-.04-.13-.13.05-.9.13-1.34.23-1.34h3.02c0-.17.28-1.3.83-3.39h-4.13l-.13-.05c.09-.95.19-1.42.31-1.42h4.29c.95-3.79,1.44-5.74,1.47-5.84h-4.7l-.13-.05c.09-.98.19-1.47.31-1.47h4.83c.07-.02.36-1.09.88-3.21h-2.76l-.13-.05c.1-.95.21-1.42.31-1.42h2.94c.58-2.43.92-3.69,1.01-3.77h4.83Z"/>
    <path class="st3" d="M108.6,12.53h13.66c.5,0,.85.04,1.06.13-1.48,5.95-2.25,8.97-2.3,9.08h-9.42l-4.16,15.9v.05l.59,2.77h3.85c.1,0,.42-1.31.96-3.93.07-.17.21-.74.41-1.71h-.08c-.17,0-.62-.02-1.34-.05,0-.05-.02-.08-.05-.08l2.04-8.02h.13c.88,0,2.91-.03,6.09-.08,0,.05.02.08.05.08-3.39,14.1-5.22,21.64-5.5,22.63h-1.94c-.45,0-1.13.02-2.04.05v-.05l-.13.05c-3.49.05-5.62.08-6.38.08-.69.04-1.1.05-1.24.05-.12-.29-.66-2.76-1.63-7.4l1.16-4.81h-2.92c-.09,0-.13-.03-.13-.1.09-.88.16-1.35.23-1.42l.28.05h2.81c.1,0,.67-2.22,1.7-6.67.03-.03.16-.45.36-1.24h-3.69l-.13-.05c.1-.98.21-1.47.31-1.47h3.79c.09,0,.71-2.46,1.88-7.37h-3.23c-.09,0-.13-.04-.13-.13.07-.9.17-1.34.31-1.34h3.43c0-.09.21-1.01.65-2.77h-4.21c-.07,0-.1-.04-.1-.1.07-.95.16-1.42.28-1.42h4.44c.07-.46.15-.7.23-.7Z"/>
    <path class="st3" d="M146.34,12.43h14.09l.13.05c-1.5,5.53-2.31,8.47-2.43,8.82h-6.97c-.45,0-1.14-.02-2.06-.05l-1.06,4.47h9.22c.07.02.1.06.1.13-3.86,15.24-5.88,23.12-6.07,23.63h-14.1c-.09,0-.13-.04-.13-.13,1.41-6.09,2.16-9.21,2.25-9.39h9.37l1.32-4.91h-9.16l-.1-.05c.83-3.36,1.3-5.35,1.42-5.97h-4.31l-.13-.05c.1-.98.21-1.47.31-1.47h4.54c.19-.83.28-1.28.28-1.37h-2.53l-.13-.05c.09-.98.19-1.47.31-1.47h2.76l1.06-4.5h-3.82c-.09,0-.13-.03-.13-.1.05-.95.15-1.42.28-1.42h4.08c0-.1.21-1.04.65-2.79h-4.83c-.09,0-.13-.03-.13-.1.07-.95.17-1.42.31-1.42h4.96c.07,0,.24-.59.52-1.78l.13-.05Z"/>
    <path class="st3" d="M164.9,12.43h13.79l.1.05c-1.29,5.17-2.06,8.2-2.3,9.08h-9.04l-1.65,5.25h.05c.79,0,3.05-.03,6.79-.1,0,.29-.65,3.02-1.94,8.17-1.65-.09-2.9-.13-3.74-.13v-.05s-.05.02-.05.05l-.28-.05h-.49c-.38,0-.96-.03-1.76-.08l-.77,2.74c0,.16.26,1.18.77,3.08,1.72-.05,3-.08,3.85-.08h1.39c.46,0,1.2-.02,2.19-.05,0,.04.02.05.05.05-1.5,5.84-2.3,8.89-2.4,9.13h-10.22c-.12,0-.5-1.48-1.14-4.45-.19-.59-.42-1.57-.7-2.95l1.11-4.55h-2.06v-.08c.03-.98.11-1.47.23-1.47h2.25c0-.12.65-2.77,1.96-7.94h-2.74c-.07,0-.1-.03-.1-.1.07-.95.16-1.42.28-1.42h2.97c0-.12.61-2.61,1.83-7.47h-2.38l-.1-.05c.1-.95.2-1.42.28-1.42h2.48c.09,0,.34-.95.77-2.84h-3.43v-.05c.05-.95.13-1.42.23-1.42h3.61c.07-.55.16-.83.28-.83Z"/>
    <path class="st3" d="M190.93,12.33c.09.02.13.06.13.13.5,12.45.75,18.96.75,19.55.05.07.08.13.08.18h.05c.58-2.53,2.21-9.14,4.88-19.81h4.8l.1.08-9.14,36.85-.13.05h-4.65c-.09,0-.13-.04-.13-.1l-.98-19.45h-.08c-2.75,11.84-4.3,18.4-4.65,19.68h-1.01s-.05-.02-.05-.05c-.05,0-.08.02-.08.05-.33-.03-.58-.05-.75-.05-.65,0-1.72-.03-3.2-.08l-.05-.1,3.67-14.77h-2.71c-.09,0-.13-.04-.13-.13.05-.9.13-1.34.23-1.34h3.02c0-.17.28-1.3.83-3.39h-4.13l-.13-.05c.09-.95.19-1.42.31-1.42h4.29c.95-3.79,1.44-5.74,1.47-5.84h-4.7l-.13-.05c.09-.98.19-1.47.31-1.47h4.83c.07-.02.36-1.09.88-3.21h-2.76l-.13-.05c.1-.95.21-1.42.31-1.42h2.94c.58-2.43.92-3.69,1.01-3.77h4.83Z"/>
    <path class="st3" d="M210.49,12.43h10.74c.09.02.13.06.13.13-.04.27-3.08,12.57-9.14,36.87l-.13.05h-4.93l-.1-.05c.71-3.46,1.18-5.9,1.42-7.32h-3.8l-1.91,7.32-.1.05h-4.93c-.09,0-.13-.04-.13-.13,1.98-7.71,2.97-11.65,2.97-11.82h-1.65l-.13-.08c.09-.98.19-1.47.31-1.47h1.88l2.01-8.04h-2.43c-.09,0-.13-.03-.13-.1.07-.91.15-1.37.26-1.37h2.71c1.03-4.41,1.63-6.7,1.78-6.85.05-.02.22-.23.49-.65h-2.5l-.1-.05c.07-.95.16-1.42.28-1.42h3.46c.05-.14.72-1.09,2.01-2.87h-5.58l-.13-.05c.09-.95.18-1.42.28-1.42h6.53c0-.14.18-.38.54-.72ZM209.67,21.4c-2.22,8.86-3.33,13.34-3.33,13.45h.05c.83.03,1.51.05,2.04.05h1.01c.28,0,.71.03,1.29.08,2.18-8.88,3.28-13.4,3.28-13.58h-4.34Z"/>
    <path class="st3" d="M239.48,12.53l.13.05c-1.5,6-2.28,9.05-2.35,9.15h-4.05c-.05,0-.08-.03-.08-.08-.03,0-.05.03-.05.08-1.19-.05-2.07-.08-2.66-.08h-1.76l-4.1,15.85c.38,1.69.57,2.64.57,2.84,2.44-.05,4.41-.08,5.89-.08h1.37c.07.02.1.06.1.13-1.26,5.5-1.96,8.52-2.12,9.08l-10.4-.13c-.31-1.07-.86-3.56-1.65-7.47,0-.14.78-3.28,2.35-9.44h-1.58l-.13-.05c.1-.98.2-1.47.28-1.47h1.83c0-.1.23-1.07.7-2.9h-1.86l-.13-.05c.1-.98.2-1.47.28-1.47h2.12l1.83-7.42h-1.47c-.07,0-.1-.04-.1-.13.05-.9.13-1.34.23-1.34h1.76l.7-2.82h-2.53c-.07,0-.1-.04-.1-.13.05-.9.15-1.34.28-1.34h2.66c.07,0,.16-.26.28-.78h13.76Z"/>
  </g>
</svg>