<?xml version="1.0" encoding="UTF-8"?>
<svg id="OBJECTS" xmlns="http://www.w3.org/2000/svg" version="1.1" viewBox="0 0 370 64">
  <!-- Generator: Adobe Illustrator 29.1.0, SVG Export Plug-In . SVG Version: 2.1.0 Build 142)  -->
  <defs>
    <style>
      .st0 {
        fill: #40012f;
      }

      .st1 {
        fill: #a0b6d0;
      }

      .st2 {
        fill: #fff;
      }

      .st3 {
        fill: #bf0413;
      }

      .st4 {
        fill: #2a3a4a;
      }

      .st5 {
        fill: #6186b0;
      }

      .st6 {
        fill: #26011c;
      }
    </style>
  </defs>
  <g>
    <path class="st0" d="M351.34,16.74l-8.98,1.12c-.63.08-2.15.33-2.63.87-.67.75-.93,1.51-1.03,1.95l-1.3-.84h-.01s-.4-.23-1.09-.42c-.84-.23-1.74-.31-2.69-.26-5.02.31-10.01-.8-12.54-1.49-.68-.19-.94-.25-1.34-.39-.01,0-.58-.14-1.31-.13-.73,0-2.05.29-2.05.29h-.01c-.82.12-1.27.38-1.36.78-.13.56.53,1.05.62,1.11l.21,7.51,23.82-5.56-.07-.04,8.68-1.68,3.09-2.81Z"/>
    <path class="st0" d="M318.44,27.13c-.25-1.19-.2-3.06-.2-3.08v-.09c-1.21-5.34-5.7-8.75-12.34-9.33h-.05s-13.34,2.38-13.34,2.38l-.08.09c-.63.69-1.59,1.91-2.32,3.05l-.36.56,18.36,5.13h.02c.07.03,1.85.64,2.84.64,1.36,0,2.74-.43,3.18-.58l4.43,1.93-.14-.69Z"/>
    <path class="st4" d="M255.44,48.46c0,7.12,5.77,12.89,12.89,12.89s12.9-5.77,12.9-12.89-5.77-12.9-12.9-12.9-12.89,5.77-12.89,12.9Z"/>
    <g>
      <path class="st1" d="M275.81,48.46c0,4.13-3.35,7.48-7.48,7.48v-14.95c4.13,0,7.48,3.35,7.48,7.48Z"/>
      <path class="st2" d="M268.33,40.98v14.95c-4.13,0-7.47-3.35-7.47-7.48s3.35-7.48,7.47-7.48Z"/>
    </g>
    <path class="st4" d="M327.82,48.46c0,7.12,5.77,12.89,12.9,12.89s12.89-5.77,12.89-12.89-5.77-12.9-12.89-12.9-12.9,5.77-12.9,12.9Z"/>
    <g>
      <path class="st1" d="M348.18,48.46c0,4.13-3.35,7.48-7.47,7.48v-14.95c4.13,0,7.47,3.35,7.47,7.48Z"/>
      <path class="st2" d="M340.71,40.98v14.95c-4.13,0-7.48-3.35-7.48-7.48s3.35-7.48,7.48-7.48Z"/>
    </g>
    <path class="st0" d="M269.94,49.3l10.66-10.66-2.53-2.53-10.59,10.41c-.58.52-1.09,1.07-1.09,1.85,0,1.05.85,1.9,1.9,1.9.28,0,.54-.06.78-.17l.15-.08c.3-.17.54-.42.71-.72Z"/>
    <path class="st6" d="M342.06,47.1l-7.43-9.37c-.61-.73-1.42-1.1-2.43-1.1-1.27,0-2.4.61-2.52.68l-8.52,4.31c0-.48-.35-1.17-.08-1.49-3.7.08-6.55-4.25-9.77-5.61-1.8-.76-2.53-1.19-4.21-2.05-2.48-1.27-6.51-4.52-9.27-4.8-4.88-.48-12.83-.88-17.61.15-3.48.76-7.05,3.49-8.2,7.27l10.29,8.15c1.58,1.98,1.87,4.44,1.94,6.57l-.02,3.87h7.2s32.14.01,32.14.01l7.2-9.56,9.08,5.96h0c.28.15.59.25.93.25,1.04,0,1.88-.84,1.88-1.88,0-.54-.23-1.02-.59-1.36Z"/>
    <path class="st6" d="M348.88,17.36s-10.17,3.35-12.12,3.98c-6.32,2.05-13.05,2.46-16.52,2.46-1.48,0-2.39-.06-2.4-.06h-.08s-3.6,1.4-3.6,1.4h-.01c-.07.04-.14.07-.2.1-.28.1-1.68.56-3.01.56-.83,0-2.45-.54-2.59-.59l-17.99-5.27-.11.16s-.11.15-.31.37l-.04-.03-.17.25c-.57.56-1.6,1.39-3.15,1.86h-6.01c-1.9,0-2.13-2.11-2.14-2.21l-.02-.19s.04-.04.06-.06c3.07-2.74,6.31-4.13,7.83-4.7.25-.08.48-.16.66-.24.13-.04.21-.07.23-.08.15-.07.32-.14.49-.22.06-.03.11-.05.12-.05t0,0c.29-.14.59-.32.9-.67.33-.37.31-.87.31-.87h-.01c0-.62-.43-1.27-1.33-1.93l-3.81-2.67-15.32,13.52c-1.72,1.47-2.93,2.83-3.09,3.01-1.54,1.42-2.1,2.47-1.78,3.31l8.31,6.58c3.39-1.97,6.49-3.77,9.73-4.61,3.49-.9,9.46-1,14.33-.4,3.57.44,7.12,2.15,9.6,3.42,1.68.86,2.62,2.62,4.25,3.69,3.73,2.45,6.41,4.41,11.24,4.41.03-.04-.02-1.56.02-1.59,28.07-16.4,30.72-19.66,30.72-19.66,2.33-3.04.64-4.53-3.03-3.01Z"/>
    <polygon class="st5" points="275.71 38.03 271.07 42.68 273.97 45.59 278.96 40.6 275.71 38.03"/>
    <path class="st2" d="M269.57,48.31c0,.68-.56,1.24-1.24,1.24s-1.24-.56-1.24-1.24.55-1.24,1.24-1.24,1.24.55,1.24,1.24Z"/>
    <path class="st2" d="M341.95,48.31c0,.68-.56,1.24-1.24,1.24s-1.24-.56-1.24-1.24.55-1.24,1.24-1.24,1.24.55,1.24,1.24Z"/>
    <path class="st0" d="M287.94,12.88l.96-.18c0-.56-.82-1.07-1.62-1.66l-3.39-2.37-13.6,12.01c.87-.74,1.89-1.52,2.97-2.17,3.39-2.02,13.01-5.25,14.68-5.64Z"/>
    <path class="st2" d="M271.98,21.95s-1.21.86-2.49,2.03c-1.33,1.22-1.97,1.95-2,1.98l-.62.72,3.5-.7h.03c.84-.25,1.76-.92,1.91-1.88l.24-2.56-.58.41Z"/>
    <path class="st0" d="M319.13,40.03l-7.13-1.93-1.31-4.18-21.3-6.14c-.62-.18-1.01-.45-1.16-.82-.21-.52.13-1.11.13-1.11l.28-.47-.54-.03s-.47-.02-1.18-.02c-3.38,0-7.5.43-7.93,2.48-.19.89,1.25,1.4,4.04,2.28l40.88,15.03.13.05.84-.43-5.74-4.71Z"/>
  </g>
  <g>
    <path class="st3" d="M10.89,12.44h14.15l.1.05c-2.24,9.95-3.4,15.01-3.48,15.18l-3.3,3.15c.91,1.83,1.45,2.84,1.6,3.03-2.29,9.74-3.54,14.94-3.74,15.59h-4.72c-.09,0-.13-.04-.13-.13,0-.14,1.05-4.98,3.15-14.53h-4.26c-1.58,6.84-2.73,11.73-3.43,14.66l-.13.05H1.65v-.05c.21-.97,1.21-5.06,3.02-12.28H.13l-.13-.05c.12-.95.21-1.42.28-1.42h4.75l1.6-6.41h-2.14c-.07,0-.1-.03-.1-.1.05-.95.15-1.42.28-1.42h2.25c.1,0,.7-2.34,1.78-7.01.03,0,.17-.52.41-1.55h-3.12c-.09,0-.13-.03-.13-.1.05-.95.15-1.42.28-1.42h3.38l.36-1.65h-5.09c-.09,0-.13-.04-.13-.13.09-.95.19-1.42.31-1.42h5.32c.27-1.34.47-2.02.59-2.02ZM12.6,21.39c-.83,3.81-1.24,5.77-1.24,5.87h4.26l.59.05c1.03-3.27,1.63-5.25,1.78-5.92h-5.4Z"/>
    <path class="st3" d="M33.92,12.44h10.74c.09.02.13.06.13.13-.03.28-3.08,12.57-9.14,36.87l-.13.05h-4.93l-.1-.05c.71-3.46,1.18-5.9,1.42-7.32h-3.79l-1.91,7.32-.1.05h-4.93c-.09,0-.13-.04-.13-.13,1.98-7.71,2.97-11.64,2.97-11.82h-1.65l-.13-.08c.09-.98.19-1.47.31-1.47h1.88l2.01-8.04h-2.43c-.09,0-.13-.03-.13-.1.07-.91.15-1.37.26-1.37h2.71c1.03-4.41,1.63-6.7,1.78-6.85.05-.02.22-.23.49-.65h-2.5l-.1-.05c.07-.95.16-1.42.28-1.42h3.46c.05-.14.72-1.09,2.01-2.87h-5.58l-.13-.05c.09-.95.18-1.42.28-1.42h6.53c0-.14.18-.38.54-.72ZM33.09,21.41c-2.22,8.86-3.33,13.34-3.33,13.45h.05c.83.03,1.51.05,2.04.05h1.01c.27,0,.71.03,1.29.08,2.19-8.88,3.28-13.4,3.28-13.58h-4.34Z"/>
    <path class="st3" d="M62.91,12.54l.13.05c-1.5,6-2.28,9.05-2.35,9.15h-4.05c-.05,0-.08-.03-.08-.08-.03,0-.05.03-.05.08-1.19-.05-2.07-.08-2.66-.08h-1.76l-4.1,15.85c.38,1.69.57,2.64.57,2.84,2.44-.05,4.41-.08,5.89-.08h1.37c.07.02.1.06.1.13-1.26,5.5-1.96,8.52-2.12,9.08l-10.4-.13c-.31-1.07-.86-3.56-1.65-7.47,0-.14.78-3.28,2.35-9.44h-1.57l-.13-.05c.1-.98.2-1.47.28-1.47h1.83c0-.1.23-1.07.7-2.9h-1.86l-.13-.05c.1-.98.2-1.47.28-1.47h2.12l1.83-7.42h-1.47c-.07,0-.1-.04-.1-.13.05-.9.13-1.34.23-1.34h1.76l.7-2.82h-2.53c-.07,0-.1-.04-.1-.13.05-.9.15-1.34.28-1.34h2.66c.07,0,.16-.26.28-.78h13.76Z"/>
    <path class="st3" d="M71.02,12.34h8.29l.13.05-2.19,9.26c-.91-.03-1.59-.05-2.04-.05h-.59l-.72-.05-4.52,18.64h.05c.29,0,1.27.02,2.94.05l.05.1-1.99,9.15c-.84-.03-1.47-.05-1.88-.05h-1.24s-.05-.03-.05-.08c-.05,0-.08.03-.08.08-.91-.05-3.64-.11-8.18-.18l-.05-.13c1.22-5.19,1.93-8.14,2.12-8.84l.13-.05c1.2.04,2.16.05,2.87.05h.08c.07,0,.22-.55.46-1.65h-4.88c-.09,0-.13-.03-.13-.1.07-.91.16-1.37.28-1.37h5.09l1.94-7.96h-5.65v-.05c.05-.98.13-1.47.23-1.47h5.78c.93-3.88,1.39-5.89,1.39-6.02h-.05c-.69-.03-1.26-.05-1.7-.05h-.83c-.29,0-.45-.06-.46-.18l.28-1.16h-1.94c-.09,0-.13-.04-.13-.13.07-.9.17-1.34.31-1.34h2.17l.65-2.79h-2.94c-.07,0-.1-.03-.1-.1.07-.95.16-1.42.28-1.42h3.12c.07,0,.27-.66.59-1.99.03,0,.05-.03.05-.08,1.43-.03,2.45-.05,3.07-.05Z"/>
    <path class="st3" d="M92.67,12.34c.09.02.13.06.13.13.5,12.45.75,18.96.75,19.55.05.07.08.13.08.18h.05c.58-2.53,2.21-9.14,4.88-19.81h4.8l.1.08-9.14,36.85-.13.05h-4.65c-.09,0-.13-.03-.13-.1l-.98-19.44h-.08c-2.75,11.84-4.3,18.4-4.65,19.68h-1.01s-.05-.02-.05-.05c-.05,0-.08.02-.08.05-.33-.03-.58-.05-.75-.05-.65,0-1.72-.03-3.2-.08l-.05-.1,3.67-14.76h-2.71c-.09,0-.13-.04-.13-.13.05-.9.13-1.34.23-1.34h3.02c0-.17.28-1.3.83-3.39h-4.13l-.13-.05c.09-.95.19-1.42.31-1.42h4.29c.95-3.79,1.44-5.74,1.47-5.84h-4.7l-.13-.05c.09-.98.19-1.47.31-1.47h4.83c.07-.02.36-1.09.88-3.21h-2.76l-.13-.05c.1-.95.21-1.42.31-1.42h2.94c.58-2.43.92-3.69,1.01-3.77h4.83Z"/>
    <path class="st3" d="M108.6,12.54h13.66c.5,0,.85.04,1.06.13-1.48,5.95-2.25,8.97-2.3,9.08h-9.42l-4.16,15.9v.05l.59,2.77h3.85c.1,0,.42-1.31.96-3.93.07-.17.21-.74.41-1.71h-.08c-.17,0-.62-.02-1.34-.05,0-.05-.02-.08-.05-.08l2.04-8.02h.13c.88,0,2.91-.03,6.09-.08,0,.05.02.08.05.08-3.39,14.1-5.22,21.64-5.5,22.63h-1.94c-.45,0-1.13.02-2.04.05v-.05l-.13.05c-3.49.05-5.62.08-6.38.08-.69.03-1.1.05-1.24.05-.12-.29-.66-2.76-1.63-7.4l1.16-4.81h-2.92c-.09,0-.13-.03-.13-.1.09-.88.16-1.35.23-1.42l.28.05h2.81c.1,0,.67-2.22,1.7-6.67.03-.03.16-.45.36-1.24h-3.69l-.13-.05c.1-.98.21-1.47.31-1.47h3.79c.09,0,.71-2.46,1.88-7.37h-3.23c-.09,0-.13-.04-.13-.13.07-.9.17-1.34.31-1.34h3.43c0-.09.21-1.01.65-2.77h-4.21c-.07,0-.1-.03-.1-.1.07-.95.16-1.42.28-1.42h4.44c.07-.47.15-.7.23-.7Z"/>
    <path class="st3" d="M146.34,12.44h14.09l.13.05c-1.5,5.53-2.31,8.47-2.43,8.82h-6.97c-.45,0-1.14-.02-2.06-.05l-1.06,4.47h9.22c.07.02.1.06.1.13-3.86,15.24-5.88,23.12-6.07,23.63h-14.1c-.09,0-.13-.04-.13-.13,1.41-6.08,2.16-9.21,2.25-9.39h9.37l1.32-4.91h-9.16l-.1-.05c.83-3.36,1.3-5.35,1.42-5.97h-4.31l-.13-.05c.1-.98.21-1.47.31-1.47h4.54c.19-.83.28-1.28.28-1.37h-2.53l-.13-.05c.09-.98.19-1.47.31-1.47h2.76l1.06-4.5h-3.82c-.09,0-.13-.03-.13-.1.05-.95.15-1.42.28-1.42h4.08c0-.1.21-1.03.65-2.79h-4.83c-.09,0-.13-.03-.13-.1.07-.95.17-1.42.31-1.42h4.96c.07,0,.24-.59.52-1.78l.13-.05Z"/>
    <path class="st3" d="M164.9,12.44h13.79l.1.05c-1.29,5.17-2.06,8.2-2.3,9.08h-9.04l-1.65,5.25h.05c.79,0,3.05-.03,6.79-.1,0,.29-.65,3.02-1.94,8.17-1.65-.09-2.9-.13-3.74-.13v-.05s-.05.02-.05.05l-.28-.05h-.49c-.38,0-.96-.03-1.76-.08l-.77,2.74c0,.16.26,1.18.77,3.08,1.72-.05,3-.08,3.85-.08h1.39c.46,0,1.2-.02,2.19-.05,0,.03.02.05.05.05-1.5,5.84-2.3,8.89-2.4,9.13h-10.22c-.12,0-.5-1.48-1.14-4.45-.19-.59-.42-1.57-.7-2.95l1.11-4.55h-2.06v-.08c.03-.98.11-1.47.23-1.47h2.25c0-.12.65-2.77,1.96-7.94h-2.74c-.07,0-.1-.03-.1-.1.07-.95.16-1.42.28-1.42h2.97c0-.12.61-2.61,1.83-7.47h-2.38l-.1-.05c.1-.95.2-1.42.28-1.42h2.48c.09,0,.34-.95.77-2.84h-3.43v-.05c.05-.95.13-1.42.23-1.42h3.61c.07-.55.16-.83.28-.83Z"/>
    <path class="st3" d="M190.93,12.34c.09.02.13.06.13.13.5,12.45.75,18.96.75,19.55.05.07.08.13.08.18h.05c.58-2.53,2.21-9.14,4.88-19.81h4.8l.1.08-9.14,36.85-.13.05h-4.65c-.09,0-.13-.03-.13-.1l-.98-19.44h-.08c-2.75,11.84-4.3,18.4-4.65,19.68h-1.01s-.05-.02-.05-.05c-.05,0-.08.02-.08.05-.33-.03-.58-.05-.75-.05-.65,0-1.72-.03-3.2-.08l-.05-.1,3.67-14.76h-2.71c-.09,0-.13-.04-.13-.13.05-.9.13-1.34.23-1.34h3.02c0-.17.28-1.3.83-3.39h-4.13l-.13-.05c.09-.95.19-1.42.31-1.42h4.29c.95-3.79,1.44-5.74,1.47-5.84h-4.7l-.13-.05c.09-.98.19-1.47.31-1.47h4.83c.07-.02.36-1.09.88-3.21h-2.76l-.13-.05c.1-.95.21-1.42.31-1.42h2.94c.58-2.43.92-3.69,1.01-3.77h4.83Z"/>
    <path class="st3" d="M210.49,12.44h10.74c.09.02.13.06.13.13-.04.28-3.08,12.57-9.14,36.87l-.13.05h-4.93l-.1-.05c.71-3.46,1.18-5.9,1.42-7.32h-3.8l-1.91,7.32-.1.05h-4.93c-.09,0-.13-.04-.13-.13,1.98-7.71,2.97-11.64,2.97-11.82h-1.65l-.13-.08c.09-.98.19-1.47.31-1.47h1.88l2.01-8.04h-2.43c-.09,0-.13-.03-.13-.1.07-.91.15-1.37.26-1.37h2.71c1.03-4.41,1.63-6.7,1.78-6.85.05-.02.22-.23.49-.65h-2.5l-.1-.05c.07-.95.16-1.42.28-1.42h3.46c.05-.14.72-1.09,2.01-2.87h-5.58l-.13-.05c.09-.95.18-1.42.28-1.42h6.53c0-.14.18-.38.54-.72ZM209.67,21.41c-2.22,8.86-3.33,13.34-3.33,13.45h.05c.83.03,1.51.05,2.04.05h1.01c.28,0,.71.03,1.29.08,2.18-8.88,3.28-13.4,3.28-13.58h-4.34Z"/>
    <path class="st3" d="M239.48,12.54l.13.05c-1.5,6-2.28,9.05-2.35,9.15h-4.05c-.05,0-.08-.03-.08-.08-.03,0-.05.03-.05.08-1.19-.05-2.07-.08-2.66-.08h-1.76l-4.1,15.85c.38,1.69.57,2.64.57,2.84,2.44-.05,4.41-.08,5.89-.08h1.37c.07.02.1.06.1.13-1.26,5.5-1.96,8.52-2.12,9.08l-10.4-.13c-.31-1.07-.86-3.56-1.65-7.47,0-.14.78-3.28,2.35-9.44h-1.58l-.13-.05c.1-.98.2-1.47.28-1.47h1.83c0-.1.23-1.07.7-2.9h-1.86l-.13-.05c.1-.98.2-1.47.28-1.47h2.12l1.83-7.42h-1.47c-.07,0-.1-.04-.1-.13.05-.9.13-1.34.23-1.34h1.76l.7-2.82h-2.53c-.07,0-.1-.04-.1-.13.05-.9.15-1.34.28-1.34h2.66c.07,0,.16-.26.28-.78h13.76Z"/>
  </g>
</svg>